G04 #@! TF.FileFunction,Soldermask,Top*
%FSLAX46Y46*%
G04 Gerber Fmt 4.6, Leading zero omitted, Abs format (unit mm)*
G04 Created by KiCad (PCBNEW 4.0.5) date 12/24/17 12:48:10*
%MOMM*%
%LPD*%
G01*
G04 APERTURE LIST*
%ADD10C,0.100000*%
%ADD11C,2.432000*%
%ADD12R,0.900000X0.650000*%
%ADD13R,1.240000X2.800000*%
%ADD14R,2.432000X2.432000*%
%ADD15C,10.010000*%
%ADD16R,2.899360X2.899360*%
%ADD17C,2.899360*%
%ADD18C,2.900000*%
%ADD19R,2.400000X3.400000*%
%ADD20O,2.400000X3.400000*%
%ADD21C,2.200000*%
%ADD22C,3.400000*%
%ADD23C,2.400000*%
%ADD24O,1.600000X3.400000*%
%ADD25R,3.400000X3.400000*%
%ADD26C,1.924000*%
%ADD27C,1.901140*%
%ADD28C,3.399740*%
G04 APERTURE END LIST*
D10*
D11*
X43180000Y45010000D03*
X43180000Y37390000D03*
X46355000Y37390000D03*
X46355000Y45010000D03*
X59055000Y45010000D03*
X59055000Y37390000D03*
X62230000Y45010000D03*
X62230000Y37390000D03*
D12*
X54290000Y41565000D03*
X54290000Y41065000D03*
X54290000Y39565000D03*
X54290000Y40065000D03*
X54290000Y40565000D03*
X52390000Y39565000D03*
X52390000Y40065000D03*
X52390000Y41565000D03*
X52390000Y41065000D03*
D13*
X53340000Y40565000D03*
D12*
X52390000Y40565000D03*
D14*
X50165000Y49455000D03*
D11*
X47625000Y49455000D03*
D14*
X57785000Y49455000D03*
D11*
X55245000Y49455000D03*
D15*
X53467000Y32893000D03*
D16*
X8890000Y46990000D03*
D17*
X8890000Y52070000D03*
D18*
X75390000Y12905000D03*
D19*
X11890000Y12905000D03*
D20*
X83890000Y12905000D03*
D18*
X20390000Y12905000D03*
D16*
X60960000Y58980000D03*
D17*
X66040000Y58980000D03*
D21*
X62611000Y56694000D03*
X64643000Y56694000D03*
D11*
X80010000Y58980000D03*
D14*
X82550000Y58980000D03*
D11*
X72390000Y58980000D03*
D14*
X74930000Y58980000D03*
D16*
X87630000Y52630000D03*
D17*
X87630000Y47550000D03*
D21*
X85344000Y50979000D03*
X85344000Y48947000D03*
D16*
X8255000Y28500000D03*
D17*
X8255000Y33580000D03*
D21*
X10541000Y30151000D03*
X10541000Y32183000D03*
D16*
X87630000Y33580000D03*
D17*
X87630000Y28500000D03*
D21*
X85344000Y31929000D03*
X85344000Y29897000D03*
D22*
X90635000Y60635000D03*
X5635000Y60635000D03*
X5635000Y5635000D03*
X90635000Y5635000D03*
D23*
X46362620Y59640400D03*
X43355000Y59615000D03*
X49355000Y59615000D03*
D24*
X40055000Y59615000D03*
X52655000Y59615000D03*
D22*
X35155000Y31570000D03*
D25*
X22755000Y31570000D03*
X22320000Y27190000D03*
D22*
X36820000Y27190000D03*
D26*
X25650000Y44440000D03*
X28190000Y44440000D03*
X30730000Y44440000D03*
X33270000Y44440000D03*
D27*
X25272140Y53337880D03*
X27812140Y53337880D03*
X29844140Y53337880D03*
X32384140Y53337880D03*
D28*
X22224140Y56004880D03*
X35940140Y56004880D03*
D23*
X15355000Y27155000D03*
X15355000Y35155000D03*
X80355000Y27155000D03*
X80355000Y35155000D03*
M02*
