M48
;DRILL file {KiCad 4.0.4-stable} date 08/18/17 15:21:30
;FORMAT={-:-/ absolute / inch / decimal}
FMAT,2
INCH,TZ
T1C0.016
T2C0.020
T3C0.020
T4C0.030
T5C0.031
T6C0.032
T7C0.032
T8C0.039
T9C0.039
T10C0.098
T11C0.118
%
G90
G05
M72
T3
X1.89Y1.547
X2.95Y1.827
X3.25Y1.957
T4
X1.0098Y1.7496
X1.1098Y1.7496
X1.2098Y1.7496
X1.3098Y1.7496
T5
X0.415Y1.267
X0.415Y1.187
X1.7069Y2.347
X1.8253Y2.348
X1.9431Y2.347
X2.465Y2.232
X2.545Y2.232
X3.36Y2.007
X3.36Y1.927
X3.36Y1.257
X3.36Y1.177
T6
X1.7Y1.772
X1.7Y1.472
X1.825Y1.772
X1.825Y1.472
X1.875Y1.947
X1.975Y1.947
X2.175Y1.947
X2.275Y1.947
X2.325Y1.772
X2.325Y1.472
X2.45Y1.772
X2.45Y1.472
T7
X2.85Y2.322
X2.95Y2.322
X3.15Y2.322
X3.25Y2.322
T8
X0.6045Y1.3841
X0.6045Y1.0691
X0.8787Y1.0705
X0.8959Y1.2429
X1.3841Y1.2429
X1.4496Y1.0705
X3.1636Y1.3841
X3.1636Y1.0691
T9
X0.325Y2.05
X0.325Y1.85
X0.325Y1.322
X0.325Y1.122
X1.075Y2.322
X1.275Y2.322
X2.4Y2.322
X2.6Y2.322
X3.45Y2.072
X3.45Y1.872
X3.45Y1.322
X3.45Y1.122
T10
X0.8028Y0.5081
X2.9681Y0.5081
T11
X0.2219Y2.3872
X0.2219Y0.2219
X3.5683Y2.3872
X3.5683Y0.2219
T1
X1.577Y2.3116G85X1.577Y2.3825
G05
X2.073Y2.3116G85X2.073Y2.3825
G05
T2
X0.4681Y0.5297G85X0.4681Y0.4864
G05
X3.3028Y0.5297G85X3.3028Y0.4864
G05
T0
M30
