G04 #@! TF.FileFunction,Copper,L2,Bot,Signal*
%FSLAX46Y46*%
G04 Gerber Fmt 4.6, Leading zero omitted, Abs format (unit mm)*
G04 Created by KiCad (PCBNEW 4.0.4-stable) date 06/12/17 15:43:04*
%MOMM*%
%LPD*%
G01*
G04 APERTURE LIST*
%ADD10C,0.100000*%
%ADD11C,0.600000*%
%ADD12C,4.000000*%
%ADD13C,2.032000*%
%ADD14R,2.032000X2.032000*%
%ADD15R,2.499360X2.499360*%
%ADD16C,2.499360*%
%ADD17R,2.000000X3.000000*%
%ADD18O,2.000000X3.000000*%
%ADD19R,3.000000X3.000000*%
%ADD20C,3.000000*%
%ADD21C,1.524000*%
%ADD22C,1.800000*%
%ADD23C,3.500120*%
%ADD24C,0.635000*%
%ADD25C,0.762000*%
%ADD26C,0.508000*%
%ADD27C,0.254000*%
G04 APERTURE END LIST*
D10*
D11*
X157542143Y-127087143D02*
X159256428Y-127087143D01*
X158399286Y-127087143D02*
X158399286Y-124087143D01*
X158685000Y-124515714D01*
X158970714Y-124801429D01*
X159256428Y-124944286D01*
X156399285Y-124372857D02*
X156256428Y-124230000D01*
X155970714Y-124087143D01*
X155256428Y-124087143D01*
X154970714Y-124230000D01*
X154827857Y-124372857D01*
X154685000Y-124658571D01*
X154685000Y-124944286D01*
X154827857Y-125372857D01*
X156542143Y-127087143D01*
X154685000Y-127087143D01*
X151256428Y-123944286D02*
X153827857Y-127801429D01*
X148970714Y-124087143D02*
X149542143Y-124087143D01*
X149827857Y-124230000D01*
X149970714Y-124372857D01*
X150256428Y-124801429D01*
X150399285Y-125372857D01*
X150399285Y-126515714D01*
X150256428Y-126801429D01*
X150113571Y-126944286D01*
X149827857Y-127087143D01*
X149256428Y-127087143D01*
X148970714Y-126944286D01*
X148827857Y-126801429D01*
X148685000Y-126515714D01*
X148685000Y-125801429D01*
X148827857Y-125515714D01*
X148970714Y-125372857D01*
X149256428Y-125230000D01*
X149827857Y-125230000D01*
X150113571Y-125372857D01*
X150256428Y-125515714D01*
X150399285Y-125801429D01*
X145256428Y-123944286D02*
X147827857Y-127801429D01*
X144399285Y-124372857D02*
X144256428Y-124230000D01*
X143970714Y-124087143D01*
X143256428Y-124087143D01*
X142970714Y-124230000D01*
X142827857Y-124372857D01*
X142685000Y-124658571D01*
X142685000Y-124944286D01*
X142827857Y-125372857D01*
X144542143Y-127087143D01*
X142685000Y-127087143D01*
X140827857Y-124087143D02*
X140542142Y-124087143D01*
X140256428Y-124230000D01*
X140113571Y-124372857D01*
X139970714Y-124658571D01*
X139827857Y-125230000D01*
X139827857Y-125944286D01*
X139970714Y-126515714D01*
X140113571Y-126801429D01*
X140256428Y-126944286D01*
X140542142Y-127087143D01*
X140827857Y-127087143D01*
X141113571Y-126944286D01*
X141256428Y-126801429D01*
X141399285Y-126515714D01*
X141542142Y-125944286D01*
X141542142Y-125230000D01*
X141399285Y-124658571D01*
X141256428Y-124372857D01*
X141113571Y-124230000D01*
X140827857Y-124087143D01*
X136970714Y-127087143D02*
X138684999Y-127087143D01*
X137827857Y-127087143D02*
X137827857Y-124087143D01*
X138113571Y-124515714D01*
X138399285Y-124801429D01*
X138684999Y-124944286D01*
X135970714Y-124087143D02*
X133970714Y-124087143D01*
X135256428Y-127087143D01*
X168970714Y-122007143D02*
X168970714Y-119007143D01*
X168256429Y-119007143D01*
X167827857Y-119150000D01*
X167542143Y-119435714D01*
X167399286Y-119721429D01*
X167256429Y-120292857D01*
X167256429Y-120721429D01*
X167399286Y-121292857D01*
X167542143Y-121578571D01*
X167827857Y-121864286D01*
X168256429Y-122007143D01*
X168970714Y-122007143D01*
X165970714Y-122007143D02*
X165970714Y-119007143D01*
X163970715Y-120578571D02*
X163970715Y-122007143D01*
X164970715Y-119007143D02*
X163970715Y-120578571D01*
X162970715Y-119007143D01*
X159827857Y-121864286D02*
X159399286Y-122007143D01*
X158685000Y-122007143D01*
X158399286Y-121864286D01*
X158256429Y-121721429D01*
X158113572Y-121435714D01*
X158113572Y-121150000D01*
X158256429Y-120864286D01*
X158399286Y-120721429D01*
X158685000Y-120578571D01*
X159256429Y-120435714D01*
X159542143Y-120292857D01*
X159685000Y-120150000D01*
X159827857Y-119864286D01*
X159827857Y-119578571D01*
X159685000Y-119292857D01*
X159542143Y-119150000D01*
X159256429Y-119007143D01*
X158542143Y-119007143D01*
X158113572Y-119150000D01*
X156256429Y-119007143D02*
X155685000Y-119007143D01*
X155399286Y-119150000D01*
X155113572Y-119435714D01*
X154970714Y-120007143D01*
X154970714Y-121007143D01*
X155113572Y-121578571D01*
X155399286Y-121864286D01*
X155685000Y-122007143D01*
X156256429Y-122007143D01*
X156542143Y-121864286D01*
X156827857Y-121578571D01*
X156970714Y-121007143D01*
X156970714Y-120007143D01*
X156827857Y-119435714D01*
X156542143Y-119150000D01*
X156256429Y-119007143D01*
X152256429Y-122007143D02*
X153685000Y-122007143D01*
X153685000Y-119007143D01*
X151399286Y-121150000D02*
X149970715Y-121150000D01*
X151685001Y-122007143D02*
X150685001Y-119007143D01*
X149685001Y-122007143D01*
X146970715Y-122007143D02*
X147970715Y-120578571D01*
X148685000Y-122007143D02*
X148685000Y-119007143D01*
X147542143Y-119007143D01*
X147256429Y-119150000D01*
X147113572Y-119292857D01*
X146970715Y-119578571D01*
X146970715Y-120007143D01*
X147113572Y-120292857D01*
X147256429Y-120435714D01*
X147542143Y-120578571D01*
X148685000Y-120578571D01*
X141685001Y-121721429D02*
X141827858Y-121864286D01*
X142256429Y-122007143D01*
X142542143Y-122007143D01*
X142970715Y-121864286D01*
X143256429Y-121578571D01*
X143399286Y-121292857D01*
X143542143Y-120721429D01*
X143542143Y-120292857D01*
X143399286Y-119721429D01*
X143256429Y-119435714D01*
X142970715Y-119150000D01*
X142542143Y-119007143D01*
X142256429Y-119007143D01*
X141827858Y-119150000D01*
X141685001Y-119292857D01*
X140399286Y-122007143D02*
X140399286Y-119007143D01*
X140399286Y-120435714D02*
X138685001Y-120435714D01*
X138685001Y-122007143D02*
X138685001Y-119007143D01*
X137399286Y-121150000D02*
X135970715Y-121150000D01*
X137685001Y-122007143D02*
X136685001Y-119007143D01*
X135685001Y-122007143D01*
X132970715Y-122007143D02*
X133970715Y-120578571D01*
X134685000Y-122007143D02*
X134685000Y-119007143D01*
X133542143Y-119007143D01*
X133256429Y-119150000D01*
X133113572Y-119292857D01*
X132970715Y-119578571D01*
X132970715Y-120007143D01*
X133113572Y-120292857D01*
X133256429Y-120435714D01*
X133542143Y-120578571D01*
X134685000Y-120578571D01*
X130113572Y-119150000D02*
X130399286Y-119007143D01*
X130827857Y-119007143D01*
X131256429Y-119150000D01*
X131542143Y-119435714D01*
X131685000Y-119721429D01*
X131827857Y-120292857D01*
X131827857Y-120721429D01*
X131685000Y-121292857D01*
X131542143Y-121578571D01*
X131256429Y-121864286D01*
X130827857Y-122007143D01*
X130542143Y-122007143D01*
X130113572Y-121864286D01*
X129970715Y-121721429D01*
X129970715Y-120721429D01*
X130542143Y-120721429D01*
X128685000Y-120435714D02*
X127685000Y-120435714D01*
X127256429Y-122007143D02*
X128685000Y-122007143D01*
X128685000Y-119007143D01*
X127256429Y-119007143D01*
X124256429Y-122007143D02*
X125256429Y-120578571D01*
X125970714Y-122007143D02*
X125970714Y-119007143D01*
X124827857Y-119007143D01*
X124542143Y-119150000D01*
X124399286Y-119292857D01*
X124256429Y-119578571D01*
X124256429Y-120007143D01*
X124399286Y-120292857D01*
X124542143Y-120435714D01*
X124827857Y-120578571D01*
X125970714Y-120578571D01*
X167970715Y-116784286D02*
X168256429Y-116927143D01*
X168827858Y-116927143D01*
X169113572Y-116784286D01*
X169256429Y-116641429D01*
X169399286Y-116355714D01*
X169399286Y-115498571D01*
X169256429Y-115212857D01*
X169113572Y-115070000D01*
X168827858Y-114927143D01*
X168256429Y-114927143D01*
X167970715Y-115070000D01*
X165399286Y-114927143D02*
X165399286Y-116927143D01*
X166685000Y-114927143D02*
X166685000Y-116498571D01*
X166542143Y-116784286D01*
X166256429Y-116927143D01*
X165827857Y-116927143D01*
X165542143Y-116784286D01*
X165399286Y-116641429D01*
X163970714Y-116927143D02*
X163970714Y-114927143D01*
X163970714Y-115498571D02*
X163827857Y-115212857D01*
X163685000Y-115070000D01*
X163399286Y-114927143D01*
X163113571Y-114927143D01*
X162113571Y-116927143D02*
X162113571Y-114927143D01*
X162113571Y-113927143D02*
X162256428Y-114070000D01*
X162113571Y-114212857D01*
X161970714Y-114070000D01*
X162113571Y-113927143D01*
X162113571Y-114212857D01*
X160256429Y-116927143D02*
X160542143Y-116784286D01*
X160685000Y-116641429D01*
X160827857Y-116355714D01*
X160827857Y-115498571D01*
X160685000Y-115212857D01*
X160542143Y-115070000D01*
X160256429Y-114927143D01*
X159827857Y-114927143D01*
X159542143Y-115070000D01*
X159399286Y-115212857D01*
X159256429Y-115498571D01*
X159256429Y-116355714D01*
X159399286Y-116641429D01*
X159542143Y-116784286D01*
X159827857Y-116927143D01*
X160256429Y-116927143D01*
X156685000Y-114927143D02*
X156685000Y-116927143D01*
X157970714Y-114927143D02*
X157970714Y-116498571D01*
X157827857Y-116784286D01*
X157542143Y-116927143D01*
X157113571Y-116927143D01*
X156827857Y-116784286D01*
X156685000Y-116641429D01*
X155399285Y-116784286D02*
X155113571Y-116927143D01*
X154542143Y-116927143D01*
X154256428Y-116784286D01*
X154113571Y-116498571D01*
X154113571Y-116355714D01*
X154256428Y-116070000D01*
X154542143Y-115927143D01*
X154970714Y-115927143D01*
X155256428Y-115784286D01*
X155399285Y-115498571D01*
X155399285Y-115355714D01*
X155256428Y-115070000D01*
X154970714Y-114927143D01*
X154542143Y-114927143D01*
X154256428Y-115070000D01*
X151685000Y-116784286D02*
X151970714Y-116927143D01*
X152542143Y-116927143D01*
X152827857Y-116784286D01*
X152970714Y-116498571D01*
X152970714Y-115355714D01*
X152827857Y-115070000D01*
X152542143Y-114927143D01*
X151970714Y-114927143D01*
X151685000Y-115070000D01*
X151542143Y-115355714D01*
X151542143Y-115641429D01*
X152970714Y-115927143D01*
X149827857Y-116927143D02*
X150113571Y-116784286D01*
X150256428Y-116498571D01*
X150256428Y-113927143D01*
X147542142Y-116784286D02*
X147827856Y-116927143D01*
X148399285Y-116927143D01*
X148684999Y-116784286D01*
X148827856Y-116498571D01*
X148827856Y-115355714D01*
X148684999Y-115070000D01*
X148399285Y-114927143D01*
X147827856Y-114927143D01*
X147542142Y-115070000D01*
X147399285Y-115355714D01*
X147399285Y-115641429D01*
X148827856Y-115927143D01*
X144827856Y-116784286D02*
X145113570Y-116927143D01*
X145684999Y-116927143D01*
X145970713Y-116784286D01*
X146113570Y-116641429D01*
X146256427Y-116355714D01*
X146256427Y-115498571D01*
X146113570Y-115212857D01*
X145970713Y-115070000D01*
X145684999Y-114927143D01*
X145113570Y-114927143D01*
X144827856Y-115070000D01*
X143970713Y-114927143D02*
X142827856Y-114927143D01*
X143542141Y-113927143D02*
X143542141Y-116498571D01*
X143399284Y-116784286D01*
X143113570Y-116927143D01*
X142827856Y-116927143D01*
X141827855Y-116927143D02*
X141827855Y-114927143D01*
X141827855Y-115498571D02*
X141684998Y-115212857D01*
X141542141Y-115070000D01*
X141256427Y-114927143D01*
X140970712Y-114927143D01*
X139970712Y-116927143D02*
X139970712Y-114927143D01*
X139970712Y-113927143D02*
X140113569Y-114070000D01*
X139970712Y-114212857D01*
X139827855Y-114070000D01*
X139970712Y-113927143D01*
X139970712Y-114212857D01*
X137256427Y-116784286D02*
X137542141Y-116927143D01*
X138113570Y-116927143D01*
X138399284Y-116784286D01*
X138542141Y-116641429D01*
X138684998Y-116355714D01*
X138684998Y-115498571D01*
X138542141Y-115212857D01*
X138399284Y-115070000D01*
X138113570Y-114927143D01*
X137542141Y-114927143D01*
X137256427Y-115070000D01*
X135970712Y-116641429D02*
X135827855Y-116784286D01*
X135970712Y-116927143D01*
X136113569Y-116784286D01*
X135970712Y-116641429D01*
X135970712Y-116927143D01*
X133256427Y-116784286D02*
X133542141Y-116927143D01*
X134113570Y-116927143D01*
X134399284Y-116784286D01*
X134542141Y-116641429D01*
X134684998Y-116355714D01*
X134684998Y-115498571D01*
X134542141Y-115212857D01*
X134399284Y-115070000D01*
X134113570Y-114927143D01*
X133542141Y-114927143D01*
X133256427Y-115070000D01*
X131542141Y-116927143D02*
X131827855Y-116784286D01*
X131970712Y-116641429D01*
X132113569Y-116355714D01*
X132113569Y-115498571D01*
X131970712Y-115212857D01*
X131827855Y-115070000D01*
X131542141Y-114927143D01*
X131113569Y-114927143D01*
X130827855Y-115070000D01*
X130684998Y-115212857D01*
X130542141Y-115498571D01*
X130542141Y-116355714D01*
X130684998Y-116641429D01*
X130827855Y-116784286D01*
X131113569Y-116927143D01*
X131542141Y-116927143D01*
X129256426Y-116641429D02*
X129113569Y-116784286D01*
X129256426Y-116927143D01*
X129399283Y-116784286D01*
X129256426Y-116641429D01*
X129256426Y-116927143D01*
X126542141Y-114927143D02*
X126542141Y-116927143D01*
X127827855Y-114927143D02*
X127827855Y-116498571D01*
X127684998Y-116784286D01*
X127399284Y-116927143D01*
X126970712Y-116927143D01*
X126684998Y-116784286D01*
X126542141Y-116641429D01*
X125113569Y-116927143D02*
X125113569Y-113927143D01*
X124827855Y-115784286D02*
X123970712Y-116927143D01*
X123970712Y-114927143D02*
X125113569Y-116070000D01*
X162685001Y-111053571D02*
X162827859Y-110910714D01*
X163113573Y-110767857D01*
X163399287Y-110767857D01*
X163685001Y-110910714D01*
X163827859Y-111053571D01*
X163970716Y-111339286D01*
X163970716Y-111625000D01*
X163827859Y-111910714D01*
X163685001Y-112053571D01*
X163399287Y-112196429D01*
X163113573Y-112196429D01*
X162827859Y-112053571D01*
X162685001Y-111910714D01*
X162685001Y-110767857D02*
X162685001Y-111910714D01*
X162542144Y-112053571D01*
X162399287Y-112053571D01*
X162113573Y-111910714D01*
X161970716Y-111625000D01*
X161970716Y-110910714D01*
X162256430Y-110482143D01*
X162685001Y-110196429D01*
X163256430Y-110053571D01*
X163827859Y-110196429D01*
X164256430Y-110482143D01*
X164542144Y-110910714D01*
X164685001Y-111482143D01*
X164542144Y-112053571D01*
X164256430Y-112482143D01*
X163827859Y-112767857D01*
X163256430Y-112910714D01*
X162685001Y-112767857D01*
X162256430Y-112482143D01*
X159399287Y-112339286D02*
X159685001Y-112482143D01*
X160256430Y-112482143D01*
X160542144Y-112339286D01*
X160685001Y-112196429D01*
X160827858Y-111910714D01*
X160827858Y-111053571D01*
X160685001Y-110767857D01*
X160542144Y-110625000D01*
X160256430Y-110482143D01*
X159685001Y-110482143D01*
X159399287Y-110625000D01*
X156827858Y-110482143D02*
X156827858Y-112482143D01*
X158113572Y-110482143D02*
X158113572Y-112053571D01*
X157970715Y-112339286D01*
X157685001Y-112482143D01*
X157256429Y-112482143D01*
X156970715Y-112339286D01*
X156827858Y-112196429D01*
X155399286Y-112482143D02*
X155399286Y-110482143D01*
X155399286Y-111053571D02*
X155256429Y-110767857D01*
X155113572Y-110625000D01*
X154827858Y-110482143D01*
X154542143Y-110482143D01*
X153542143Y-112482143D02*
X153542143Y-110482143D01*
X153542143Y-109482143D02*
X153685000Y-109625000D01*
X153542143Y-109767857D01*
X153399286Y-109625000D01*
X153542143Y-109482143D01*
X153542143Y-109767857D01*
X151685001Y-112482143D02*
X151970715Y-112339286D01*
X152113572Y-112196429D01*
X152256429Y-111910714D01*
X152256429Y-111053571D01*
X152113572Y-110767857D01*
X151970715Y-110625000D01*
X151685001Y-110482143D01*
X151256429Y-110482143D01*
X150970715Y-110625000D01*
X150827858Y-110767857D01*
X150685001Y-111053571D01*
X150685001Y-111910714D01*
X150827858Y-112196429D01*
X150970715Y-112339286D01*
X151256429Y-112482143D01*
X151685001Y-112482143D01*
X148113572Y-110482143D02*
X148113572Y-112482143D01*
X149399286Y-110482143D02*
X149399286Y-112053571D01*
X149256429Y-112339286D01*
X148970715Y-112482143D01*
X148542143Y-112482143D01*
X148256429Y-112339286D01*
X148113572Y-112196429D01*
X146827857Y-112339286D02*
X146542143Y-112482143D01*
X145970715Y-112482143D01*
X145685000Y-112339286D01*
X145542143Y-112053571D01*
X145542143Y-111910714D01*
X145685000Y-111625000D01*
X145970715Y-111482143D01*
X146399286Y-111482143D01*
X146685000Y-111339286D01*
X146827857Y-111053571D01*
X146827857Y-110910714D01*
X146685000Y-110625000D01*
X146399286Y-110482143D01*
X145970715Y-110482143D01*
X145685000Y-110625000D01*
X143113572Y-112339286D02*
X143399286Y-112482143D01*
X143970715Y-112482143D01*
X144256429Y-112339286D01*
X144399286Y-112053571D01*
X144399286Y-110910714D01*
X144256429Y-110625000D01*
X143970715Y-110482143D01*
X143399286Y-110482143D01*
X143113572Y-110625000D01*
X142970715Y-110910714D01*
X142970715Y-111196429D01*
X144399286Y-111482143D01*
X141256429Y-112482143D02*
X141542143Y-112339286D01*
X141685000Y-112053571D01*
X141685000Y-109482143D01*
X138970714Y-112339286D02*
X139256428Y-112482143D01*
X139827857Y-112482143D01*
X140113571Y-112339286D01*
X140256428Y-112053571D01*
X140256428Y-110910714D01*
X140113571Y-110625000D01*
X139827857Y-110482143D01*
X139256428Y-110482143D01*
X138970714Y-110625000D01*
X138827857Y-110910714D01*
X138827857Y-111196429D01*
X140256428Y-111482143D01*
X136256428Y-112339286D02*
X136542142Y-112482143D01*
X137113571Y-112482143D01*
X137399285Y-112339286D01*
X137542142Y-112196429D01*
X137684999Y-111910714D01*
X137684999Y-111053571D01*
X137542142Y-110767857D01*
X137399285Y-110625000D01*
X137113571Y-110482143D01*
X136542142Y-110482143D01*
X136256428Y-110625000D01*
X135399285Y-110482143D02*
X134256428Y-110482143D01*
X134970713Y-109482143D02*
X134970713Y-112053571D01*
X134827856Y-112339286D01*
X134542142Y-112482143D01*
X134256428Y-112482143D01*
X133256427Y-112482143D02*
X133256427Y-110482143D01*
X133256427Y-111053571D02*
X133113570Y-110767857D01*
X132970713Y-110625000D01*
X132684999Y-110482143D01*
X132399284Y-110482143D01*
X131399284Y-112482143D02*
X131399284Y-110482143D01*
X131399284Y-109482143D02*
X131542141Y-109625000D01*
X131399284Y-109767857D01*
X131256427Y-109625000D01*
X131399284Y-109482143D01*
X131399284Y-109767857D01*
X128684999Y-112339286D02*
X128970713Y-112482143D01*
X129542142Y-112482143D01*
X129827856Y-112339286D01*
X129970713Y-112196429D01*
X130113570Y-111910714D01*
X130113570Y-111053571D01*
X129970713Y-110767857D01*
X129827856Y-110625000D01*
X129542142Y-110482143D01*
X128970713Y-110482143D01*
X128684999Y-110625000D01*
D12*
X113145000Y-102385000D03*
X113145000Y-94385000D03*
X178145000Y-102385000D03*
X178145000Y-94385000D03*
D13*
X140970000Y-84530000D03*
X140970000Y-92150000D03*
X144145000Y-92150000D03*
X144145000Y-84530000D03*
X156845000Y-84530000D03*
X156845000Y-92150000D03*
X160020000Y-84530000D03*
X160020000Y-92150000D03*
D14*
X147955000Y-80085000D03*
D13*
X145415000Y-80085000D03*
D14*
X155575000Y-80085000D03*
D13*
X153035000Y-80085000D03*
D15*
X125095000Y-70560000D03*
D16*
X130175000Y-70560000D03*
D17*
X109680000Y-117980000D03*
D18*
X181680000Y-117980000D03*
D19*
X132945000Y-97970000D03*
D20*
X120545000Y-97970000D03*
D19*
X120110000Y-102350000D03*
D20*
X134610000Y-102350000D03*
D21*
X123440000Y-85100000D03*
X125980000Y-85100000D03*
X128520000Y-85100000D03*
X131060000Y-85100000D03*
D15*
X158750000Y-70560000D03*
D16*
X163830000Y-70560000D03*
D22*
X160401000Y-72846000D03*
X162433000Y-72846000D03*
D13*
X177800000Y-70560000D03*
D14*
X180340000Y-70560000D03*
D13*
X170180000Y-70560000D03*
D14*
X172720000Y-70560000D03*
D16*
X144152620Y-69899600D03*
X141071600Y-69899600D03*
X147152360Y-69899600D03*
D23*
X137652760Y-69899600D03*
X150652480Y-69899600D03*
D15*
X185420000Y-76910000D03*
D16*
X185420000Y-81990000D03*
D22*
X183134000Y-78561000D03*
X183134000Y-80593000D03*
D15*
X106045000Y-76910000D03*
D16*
X106045000Y-81990000D03*
D15*
X106045000Y-101040000D03*
D16*
X106045000Y-95960000D03*
D22*
X108331000Y-99389000D03*
X108331000Y-97357000D03*
D15*
X185420000Y-95960000D03*
D16*
X185420000Y-101040000D03*
D22*
X183134000Y-97611000D03*
X183134000Y-99643000D03*
D24*
X172720000Y-83133000D03*
X145796000Y-90245000D03*
X180340000Y-79831000D03*
D25*
X117221000Y-90118000D02*
X106680000Y-90118000D01*
X107110000Y-117980000D02*
X109680000Y-117980000D01*
X102743000Y-113613000D02*
X107110000Y-117980000D01*
X102743000Y-94055000D02*
X102743000Y-113613000D01*
X106680000Y-90118000D02*
X102743000Y-94055000D01*
X141071600Y-75386000D02*
X160020000Y-75386000D01*
X160020000Y-75386000D02*
X160147000Y-75386000D01*
X160147000Y-75386000D02*
X160020000Y-75386000D01*
X141071600Y-78078400D02*
X141071600Y-75386000D01*
X141071600Y-75386000D02*
X141071600Y-69899600D01*
X129032000Y-90118000D02*
X141071600Y-78078400D01*
X117221000Y-90118000D02*
X129032000Y-90118000D01*
X160020000Y-84530000D02*
X160020000Y-75386000D01*
X160020000Y-75386000D02*
X160020000Y-73227000D01*
X160020000Y-73227000D02*
X160401000Y-72846000D01*
X156845000Y-84530000D02*
X156845000Y-84276000D01*
X156845000Y-84276000D02*
X155575000Y-83006000D01*
X155575000Y-83006000D02*
X155575000Y-80085000D01*
X160020000Y-84530000D02*
X156845000Y-84530000D01*
X185420000Y-76910000D02*
X184785000Y-76910000D01*
X184785000Y-76910000D02*
X183134000Y-78561000D01*
X158750000Y-70560000D02*
X158750000Y-71195000D01*
X158750000Y-71195000D02*
X160401000Y-72846000D01*
X108331000Y-97357000D02*
X111379000Y-97357000D01*
X113145000Y-99123000D02*
X113145000Y-102385000D01*
X111379000Y-97357000D02*
X113145000Y-99123000D01*
X106045000Y-95960000D02*
X106934000Y-95960000D01*
X106934000Y-95960000D02*
X108331000Y-97357000D01*
X145415000Y-80085000D02*
X145415000Y-78942000D01*
X153035000Y-78942000D02*
X153035000Y-80085000D01*
X151765000Y-77672000D02*
X153035000Y-78942000D01*
X146685000Y-77672000D02*
X151765000Y-77672000D01*
X145415000Y-78942000D02*
X146685000Y-77672000D01*
X185420000Y-81990000D02*
X188722000Y-81990000D01*
X188722000Y-81990000D02*
X188849000Y-81990000D01*
X188849000Y-81990000D02*
X188722000Y-81990000D01*
X163830000Y-70560000D02*
X163830000Y-67893000D01*
X163830000Y-67893000D02*
X165354000Y-66369000D01*
X165354000Y-66369000D02*
X179832000Y-66369000D01*
X179832000Y-66369000D02*
X188722000Y-75259000D01*
X188722000Y-75259000D02*
X188722000Y-81990000D01*
X188722000Y-81990000D02*
X188722000Y-83895000D01*
X188722000Y-99262000D02*
X188722000Y-83895000D01*
X186944000Y-101040000D02*
X188722000Y-99262000D01*
X185420000Y-101040000D02*
X186944000Y-101040000D01*
X181680000Y-117980000D02*
X181680000Y-101040000D01*
X181483000Y-101167000D02*
X181483000Y-101040000D01*
X181553000Y-101167000D02*
X181483000Y-101167000D01*
X181680000Y-101040000D02*
X181553000Y-101167000D01*
X185420000Y-101040000D02*
X181483000Y-101040000D01*
X181483000Y-101040000D02*
X179490000Y-101040000D01*
X179490000Y-101040000D02*
X178145000Y-102385000D01*
X185420000Y-81990000D02*
X184531000Y-81990000D01*
X184531000Y-81990000D02*
X183134000Y-80593000D01*
X163830000Y-70560000D02*
X163830000Y-71449000D01*
X163830000Y-71449000D02*
X162433000Y-72846000D01*
X106045000Y-101040000D02*
X107569000Y-101040000D01*
X107569000Y-101040000D02*
X108331000Y-100278000D01*
X108331000Y-100278000D02*
X108331000Y-99389000D01*
X178145000Y-94385000D02*
X169723000Y-94385000D01*
X147955000Y-86689000D02*
X147955000Y-80085000D01*
X157226000Y-95960000D02*
X147955000Y-86689000D01*
X168148000Y-95960000D02*
X157226000Y-95960000D01*
X169723000Y-94385000D02*
X168148000Y-95960000D01*
X113145000Y-94385000D02*
X130099000Y-94385000D01*
X147955000Y-82117000D02*
X147955000Y-80085000D01*
X147574000Y-82498000D02*
X147955000Y-82117000D01*
X139319000Y-82498000D02*
X147574000Y-82498000D01*
X137795000Y-84022000D02*
X139319000Y-82498000D01*
X137795000Y-86689000D02*
X137795000Y-84022000D01*
X130099000Y-94385000D02*
X137795000Y-86689000D01*
X185420000Y-95960000D02*
X179720000Y-95960000D01*
X179720000Y-95960000D02*
X178145000Y-94385000D01*
X156845000Y-92150000D02*
X156845000Y-93166000D01*
X156845000Y-93166000D02*
X158242000Y-94563000D01*
X158242000Y-94563000D02*
X167259000Y-94563000D01*
X167259000Y-94563000D02*
X177800000Y-84022000D01*
X177800000Y-84022000D02*
X177800000Y-70560000D01*
X160020000Y-92150000D02*
X166878000Y-92150000D01*
X170180000Y-88848000D02*
X170180000Y-70560000D01*
X166878000Y-92150000D02*
X170180000Y-88848000D01*
D26*
X172720000Y-70560000D02*
X172720000Y-83133000D01*
D25*
X120110000Y-102350000D02*
X124547000Y-102350000D01*
X128927000Y-97970000D02*
X132945000Y-97970000D01*
X124547000Y-102350000D02*
X128927000Y-97970000D01*
D26*
X144145000Y-88594000D02*
X145796000Y-90245000D01*
X144145000Y-88594000D02*
X144145000Y-84530000D01*
X180340000Y-70560000D02*
X180340000Y-79831000D01*
D25*
X130175000Y-70560000D02*
X130175000Y-72145000D01*
X130175000Y-72145000D02*
X120330000Y-81990000D01*
X106045000Y-81990000D02*
X120330000Y-81990000D01*
X120330000Y-81990000D02*
X123440000Y-85100000D01*
D27*
G36*
X190051634Y-64977957D02*
X191430629Y-65899371D01*
X192352043Y-67278366D01*
X192690000Y-68977390D01*
X192690000Y-123832610D01*
X192352043Y-125531634D01*
X191430629Y-126910629D01*
X190051634Y-127832043D01*
X188514488Y-128137800D01*
X188425000Y-128120000D01*
X160462858Y-128120000D01*
X160462858Y-124327815D01*
X186289630Y-124327815D01*
X186613980Y-125112800D01*
X187214041Y-125713909D01*
X187998459Y-126039628D01*
X188847815Y-126040370D01*
X189632800Y-125716020D01*
X190233909Y-125115959D01*
X190559628Y-124331541D01*
X190560370Y-123482185D01*
X190236020Y-122697200D01*
X189635959Y-122096091D01*
X188851541Y-121770372D01*
X188002185Y-121769630D01*
X187217200Y-122093980D01*
X186616091Y-122694041D01*
X186290372Y-123478459D01*
X186289630Y-124327815D01*
X160462858Y-124327815D01*
X160462858Y-123985000D01*
X170320000Y-123985000D01*
X170320000Y-118905000D01*
X170605716Y-118905000D01*
X170605716Y-118353305D01*
X171294674Y-118353305D01*
X171581043Y-119046372D01*
X172110839Y-119577093D01*
X172803405Y-119864672D01*
X173553305Y-119865326D01*
X174246372Y-119578957D01*
X174777093Y-119049161D01*
X175064672Y-118356595D01*
X175064889Y-118107000D01*
X180045000Y-118107000D01*
X180045000Y-118607000D01*
X180218058Y-119223020D01*
X180613683Y-119725922D01*
X181171645Y-120039144D01*
X181299566Y-120070124D01*
X181553000Y-119950777D01*
X181553000Y-118107000D01*
X181807000Y-118107000D01*
X181807000Y-119950777D01*
X182060434Y-120070124D01*
X182188355Y-120039144D01*
X182746317Y-119725922D01*
X183141942Y-119223020D01*
X183315000Y-118607000D01*
X183315000Y-118107000D01*
X181807000Y-118107000D01*
X181553000Y-118107000D01*
X180045000Y-118107000D01*
X175064889Y-118107000D01*
X175065326Y-117606695D01*
X174960502Y-117353000D01*
X180045000Y-117353000D01*
X180045000Y-117853000D01*
X181553000Y-117853000D01*
X181553000Y-116009223D01*
X181807000Y-116009223D01*
X181807000Y-117853000D01*
X183315000Y-117853000D01*
X183315000Y-117353000D01*
X183141942Y-116736980D01*
X182746317Y-116234078D01*
X182188355Y-115920856D01*
X182060434Y-115889876D01*
X181807000Y-116009223D01*
X181553000Y-116009223D01*
X181299566Y-115889876D01*
X181171645Y-115920856D01*
X180613683Y-116234078D01*
X180218058Y-116736980D01*
X180045000Y-117353000D01*
X174960502Y-117353000D01*
X174778957Y-116913628D01*
X174249161Y-116382907D01*
X173556595Y-116095328D01*
X172806695Y-116094674D01*
X172113628Y-116381043D01*
X171582907Y-116910839D01*
X171295328Y-117603405D01*
X171294674Y-118353305D01*
X170605716Y-118353305D01*
X170605716Y-112535000D01*
X165891430Y-112535000D01*
X165891430Y-108090000D01*
X127478570Y-108090000D01*
X127478570Y-112535000D01*
X122764285Y-112535000D01*
X122764285Y-118905000D01*
X123050000Y-118905000D01*
X123050000Y-123985000D01*
X132907143Y-123985000D01*
X132907143Y-128120000D01*
X103425000Y-128120000D01*
X103335512Y-128137800D01*
X101798366Y-127832043D01*
X100419371Y-126910629D01*
X99497957Y-125531634D01*
X99258503Y-124327815D01*
X101289630Y-124327815D01*
X101613980Y-125112800D01*
X102214041Y-125713909D01*
X102998459Y-126039628D01*
X103847815Y-126040370D01*
X104632800Y-125716020D01*
X105233909Y-125115959D01*
X105559628Y-124331541D01*
X105560370Y-123482185D01*
X105236020Y-122697200D01*
X104635959Y-122096091D01*
X103851541Y-121770372D01*
X103002185Y-121769630D01*
X102217200Y-122093980D01*
X101616091Y-122694041D01*
X101290372Y-123478459D01*
X101289630Y-124327815D01*
X99258503Y-124327815D01*
X99160000Y-123832610D01*
X99160000Y-94055000D01*
X101727000Y-94055000D01*
X101727000Y-113613000D01*
X101791507Y-113937300D01*
X101804338Y-114001807D01*
X102024580Y-114331420D01*
X106391580Y-118698421D01*
X106721193Y-118918662D01*
X107110000Y-118996000D01*
X108032560Y-118996000D01*
X108032560Y-119480000D01*
X108076838Y-119715317D01*
X108215910Y-119931441D01*
X108428110Y-120076431D01*
X108680000Y-120127440D01*
X110680000Y-120127440D01*
X110915317Y-120083162D01*
X111131441Y-119944090D01*
X111276431Y-119731890D01*
X111327440Y-119480000D01*
X111327440Y-118353305D01*
X116294674Y-118353305D01*
X116581043Y-119046372D01*
X117110839Y-119577093D01*
X117803405Y-119864672D01*
X118553305Y-119865326D01*
X119246372Y-119578957D01*
X119777093Y-119049161D01*
X120064672Y-118356595D01*
X120065326Y-117606695D01*
X119778957Y-116913628D01*
X119249161Y-116382907D01*
X118556595Y-116095328D01*
X117806695Y-116094674D01*
X117113628Y-116381043D01*
X116582907Y-116910839D01*
X116295328Y-117603405D01*
X116294674Y-118353305D01*
X111327440Y-118353305D01*
X111327440Y-116480000D01*
X111283162Y-116244683D01*
X111144090Y-116028559D01*
X110931890Y-115883569D01*
X110680000Y-115832560D01*
X108680000Y-115832560D01*
X108444683Y-115876838D01*
X108228559Y-116015910D01*
X108083569Y-116228110D01*
X108032560Y-116480000D01*
X108032560Y-116964000D01*
X107530841Y-116964000D01*
X103759000Y-113192160D01*
X103759000Y-104260022D01*
X111449584Y-104260022D01*
X111670353Y-104630743D01*
X112642012Y-105024119D01*
X113690247Y-105015713D01*
X114619647Y-104630743D01*
X114840416Y-104260022D01*
X113145000Y-102564605D01*
X111449584Y-104260022D01*
X103759000Y-104260022D01*
X103759000Y-99790320D01*
X104147880Y-99790320D01*
X104147880Y-102289680D01*
X104192158Y-102524997D01*
X104331230Y-102741121D01*
X104543430Y-102886111D01*
X104795320Y-102937120D01*
X107294680Y-102937120D01*
X107529997Y-102892842D01*
X107746121Y-102753770D01*
X107891111Y-102541570D01*
X107942120Y-102289680D01*
X107942120Y-101981782D01*
X107957807Y-101978662D01*
X108102452Y-101882012D01*
X110505881Y-101882012D01*
X110514287Y-102930247D01*
X110899257Y-103859647D01*
X111269978Y-104080416D01*
X112965395Y-102385000D01*
X113324605Y-102385000D01*
X115020022Y-104080416D01*
X115390743Y-103859647D01*
X115784119Y-102887988D01*
X115775713Y-101839753D01*
X115390743Y-100910353D01*
X115289397Y-100850000D01*
X117962560Y-100850000D01*
X117962560Y-103850000D01*
X118006838Y-104085317D01*
X118145910Y-104301441D01*
X118358110Y-104446431D01*
X118610000Y-104497440D01*
X121610000Y-104497440D01*
X121845317Y-104453162D01*
X122061441Y-104314090D01*
X122206431Y-104101890D01*
X122254611Y-103863970D01*
X133275635Y-103863970D01*
X133435418Y-104182739D01*
X134226187Y-104492723D01*
X135075387Y-104476497D01*
X135598004Y-104260022D01*
X176449584Y-104260022D01*
X176670353Y-104630743D01*
X177642012Y-105024119D01*
X178690247Y-105015713D01*
X179619647Y-104630743D01*
X179840416Y-104260022D01*
X178145000Y-102564605D01*
X176449584Y-104260022D01*
X135598004Y-104260022D01*
X135784582Y-104182739D01*
X135944365Y-103863970D01*
X134610000Y-102529605D01*
X133275635Y-103863970D01*
X122254611Y-103863970D01*
X122257440Y-103850000D01*
X122257440Y-103366000D01*
X124547000Y-103366000D01*
X124871300Y-103301493D01*
X124935807Y-103288662D01*
X125265420Y-103068420D01*
X126367653Y-101966187D01*
X132467277Y-101966187D01*
X132483503Y-102815387D01*
X132777261Y-103524582D01*
X133096030Y-103684365D01*
X134430395Y-102350000D01*
X134789605Y-102350000D01*
X136123970Y-103684365D01*
X136442739Y-103524582D01*
X136752723Y-102733813D01*
X136736497Y-101884613D01*
X136735420Y-101882012D01*
X175505881Y-101882012D01*
X175514287Y-102930247D01*
X175899257Y-103859647D01*
X176269978Y-104080416D01*
X177965395Y-102385000D01*
X178324605Y-102385000D01*
X180020022Y-104080416D01*
X180390743Y-103859647D01*
X180784119Y-102887988D01*
X180779990Y-102373089D01*
X184266517Y-102373089D01*
X184395725Y-102665859D01*
X185095883Y-102934071D01*
X185845384Y-102913928D01*
X186444275Y-102665859D01*
X186573483Y-102373089D01*
X185420000Y-101219605D01*
X184266517Y-102373089D01*
X180779990Y-102373089D01*
X180775713Y-101839753D01*
X180390743Y-100910353D01*
X180020022Y-100689584D01*
X178324605Y-102385000D01*
X177965395Y-102385000D01*
X176269978Y-100689584D01*
X175899257Y-100910353D01*
X175505881Y-101882012D01*
X136735420Y-101882012D01*
X136442739Y-101175418D01*
X136123970Y-101015635D01*
X134789605Y-102350000D01*
X134430395Y-102350000D01*
X133096030Y-101015635D01*
X132777261Y-101175418D01*
X132467277Y-101966187D01*
X126367653Y-101966187D01*
X127497810Y-100836030D01*
X133275635Y-100836030D01*
X134610000Y-102170395D01*
X135944365Y-100836030D01*
X135784582Y-100517261D01*
X135766004Y-100509978D01*
X176449584Y-100509978D01*
X178145000Y-102205395D01*
X179840416Y-100509978D01*
X179619647Y-100139257D01*
X178647988Y-99745881D01*
X177599753Y-99754287D01*
X176670353Y-100139257D01*
X176449584Y-100509978D01*
X135766004Y-100509978D01*
X134993813Y-100207277D01*
X134144613Y-100223503D01*
X133435418Y-100517261D01*
X133275635Y-100836030D01*
X127497810Y-100836030D01*
X129347841Y-98986000D01*
X130797560Y-98986000D01*
X130797560Y-99470000D01*
X130841838Y-99705317D01*
X130980910Y-99921441D01*
X131193110Y-100066431D01*
X131445000Y-100117440D01*
X134445000Y-100117440D01*
X134680317Y-100073162D01*
X134896441Y-99934090D01*
X135041431Y-99721890D01*
X135092440Y-99470000D01*
X135092440Y-96470000D01*
X135048162Y-96234683D01*
X134909090Y-96018559D01*
X134696890Y-95873569D01*
X134445000Y-95822560D01*
X131445000Y-95822560D01*
X131209683Y-95866838D01*
X130993559Y-96005910D01*
X130848569Y-96218110D01*
X130797560Y-96470000D01*
X130797560Y-96954000D01*
X128927000Y-96954000D01*
X128538194Y-97031338D01*
X128538192Y-97031339D01*
X128538193Y-97031339D01*
X128208579Y-97251580D01*
X124126160Y-101334000D01*
X122257440Y-101334000D01*
X122257440Y-100850000D01*
X122213162Y-100614683D01*
X122074090Y-100398559D01*
X121861890Y-100253569D01*
X121610000Y-100202560D01*
X118610000Y-100202560D01*
X118374683Y-100246838D01*
X118158559Y-100385910D01*
X118013569Y-100598110D01*
X117962560Y-100850000D01*
X115289397Y-100850000D01*
X115020022Y-100689584D01*
X113324605Y-102385000D01*
X112965395Y-102385000D01*
X111269978Y-100689584D01*
X110899257Y-100910353D01*
X110505881Y-101882012D01*
X108102452Y-101882012D01*
X108287420Y-101758420D01*
X109049421Y-100996420D01*
X109269662Y-100666807D01*
X109281056Y-100609526D01*
X109380778Y-100509978D01*
X111449584Y-100509978D01*
X113145000Y-102205395D01*
X114840416Y-100509978D01*
X114619647Y-100139257D01*
X113647988Y-99745881D01*
X112599753Y-99754287D01*
X111670353Y-100139257D01*
X111449584Y-100509978D01*
X109380778Y-100509978D01*
X109631551Y-100259643D01*
X109865733Y-99695670D01*
X109865917Y-99483970D01*
X119210635Y-99483970D01*
X119370418Y-99802739D01*
X120161187Y-100112723D01*
X121010387Y-100096497D01*
X121719582Y-99802739D01*
X121879365Y-99483970D01*
X120545000Y-98149605D01*
X119210635Y-99483970D01*
X109865917Y-99483970D01*
X109866265Y-99085009D01*
X109633068Y-98520629D01*
X109505245Y-98392583D01*
X109525718Y-98372110D01*
X109411161Y-98257553D01*
X109667643Y-98171148D01*
X109877458Y-97597664D01*
X109876977Y-97586187D01*
X118402277Y-97586187D01*
X118418503Y-98435387D01*
X118712261Y-99144582D01*
X119031030Y-99304365D01*
X120365395Y-97970000D01*
X120724605Y-97970000D01*
X122058970Y-99304365D01*
X122377739Y-99144582D01*
X122687723Y-98353813D01*
X122671497Y-97504613D01*
X122377739Y-96795418D01*
X122058970Y-96635635D01*
X120724605Y-97970000D01*
X120365395Y-97970000D01*
X119031030Y-96635635D01*
X118712261Y-96795418D01*
X118402277Y-97586187D01*
X109876977Y-97586187D01*
X109851839Y-96987540D01*
X109667643Y-96542852D01*
X109411159Y-96456446D01*
X108510605Y-97357000D01*
X108524748Y-97371143D01*
X108345143Y-97550748D01*
X108331000Y-97536605D01*
X108316858Y-97550748D01*
X108137253Y-97371143D01*
X108151395Y-97357000D01*
X108137253Y-97342858D01*
X108316858Y-97163253D01*
X108331000Y-97177395D01*
X109231554Y-96276841D01*
X109145148Y-96020357D01*
X108571664Y-95810542D01*
X107961540Y-95836161D01*
X107927412Y-95850297D01*
X107918928Y-95534616D01*
X107670859Y-94935725D01*
X107378089Y-94806517D01*
X106224605Y-95960000D01*
X106238748Y-95974142D01*
X106059142Y-96153748D01*
X106045000Y-96139605D01*
X104891517Y-97293089D01*
X105020725Y-97585859D01*
X105720883Y-97854071D01*
X106470384Y-97833928D01*
X106808788Y-97693756D01*
X106810161Y-97726460D01*
X106994357Y-98171148D01*
X107250839Y-98257553D01*
X107136282Y-98372110D01*
X107156599Y-98392427D01*
X107030449Y-98518357D01*
X106796267Y-99082330D01*
X106796214Y-99142880D01*
X104795320Y-99142880D01*
X104560003Y-99187158D01*
X104343879Y-99326230D01*
X104198889Y-99538430D01*
X104147880Y-99790320D01*
X103759000Y-99790320D01*
X103759000Y-95635883D01*
X104150929Y-95635883D01*
X104171072Y-96385384D01*
X104419141Y-96984275D01*
X104711911Y-97113483D01*
X105865395Y-95960000D01*
X104711911Y-94806517D01*
X104419141Y-94935725D01*
X104150929Y-95635883D01*
X103759000Y-95635883D01*
X103759000Y-94626911D01*
X104891517Y-94626911D01*
X106045000Y-95780395D01*
X107198483Y-94626911D01*
X107069275Y-94334141D01*
X106369117Y-94065929D01*
X105619616Y-94086072D01*
X105020725Y-94334141D01*
X104891517Y-94626911D01*
X103759000Y-94626911D01*
X103759000Y-94475840D01*
X107100841Y-91134000D01*
X129032000Y-91134000D01*
X129356300Y-91069493D01*
X129420807Y-91056662D01*
X129750420Y-90836420D01*
X136832176Y-83754664D01*
X136779000Y-84022000D01*
X136779000Y-86268159D01*
X129678160Y-93369000D01*
X115576272Y-93369000D01*
X115380147Y-92894342D01*
X114639557Y-92152458D01*
X113671433Y-91750458D01*
X112623166Y-91749543D01*
X111654342Y-92149853D01*
X110912458Y-92890443D01*
X110510458Y-93858567D01*
X110509543Y-94906834D01*
X110909853Y-95875658D01*
X111650443Y-96617542D01*
X112618567Y-97019542D01*
X113666834Y-97020457D01*
X114635658Y-96620147D01*
X114800061Y-96456030D01*
X119210635Y-96456030D01*
X120545000Y-97790395D01*
X121879365Y-96456030D01*
X121719582Y-96137261D01*
X120928813Y-95827277D01*
X120079613Y-95843503D01*
X119370418Y-96137261D01*
X119210635Y-96456030D01*
X114800061Y-96456030D01*
X115377542Y-95879557D01*
X115576256Y-95401000D01*
X130099000Y-95401000D01*
X130423300Y-95336493D01*
X130487807Y-95323662D01*
X130817420Y-95103420D01*
X132606733Y-93314107D01*
X139985498Y-93314107D01*
X140086120Y-93582622D01*
X140701642Y-93811816D01*
X141358019Y-93788014D01*
X141853880Y-93582622D01*
X141954502Y-93314107D01*
X140970000Y-92329605D01*
X139985498Y-93314107D01*
X132606733Y-93314107D01*
X134039198Y-91881642D01*
X139308184Y-91881642D01*
X139331986Y-92538019D01*
X139537378Y-93033880D01*
X139805893Y-93134502D01*
X140790395Y-92150000D01*
X139805893Y-91165498D01*
X139537378Y-91266120D01*
X139308184Y-91881642D01*
X134039198Y-91881642D01*
X134934947Y-90985893D01*
X139985498Y-90985893D01*
X140970000Y-91970395D01*
X141954502Y-90985893D01*
X141853880Y-90717378D01*
X141238358Y-90488184D01*
X140581981Y-90511986D01*
X140086120Y-90717378D01*
X139985498Y-90985893D01*
X134934947Y-90985893D01*
X138513421Y-87407420D01*
X138733662Y-87077807D01*
X138811000Y-86689000D01*
X138811000Y-84442840D01*
X139507888Y-83745952D01*
X139319287Y-84200155D01*
X139318714Y-84856963D01*
X139569534Y-85463995D01*
X140033563Y-85928834D01*
X140640155Y-86180713D01*
X141296963Y-86181286D01*
X141903995Y-85930466D01*
X142368834Y-85466437D01*
X142557654Y-85011709D01*
X142744534Y-85463995D01*
X143208563Y-85928834D01*
X143256000Y-85948532D01*
X143256000Y-88594000D01*
X143323671Y-88934206D01*
X143435788Y-89102000D01*
X143516382Y-89222618D01*
X144924971Y-90631207D01*
X144952398Y-90697584D01*
X144474845Y-90499287D01*
X143818037Y-90498714D01*
X143211005Y-90749534D01*
X142746166Y-91213563D01*
X142563284Y-91653992D01*
X142402622Y-91266120D01*
X142134107Y-91165498D01*
X141149605Y-92150000D01*
X142134107Y-93134502D01*
X142402622Y-93033880D01*
X142554876Y-92624987D01*
X142744534Y-93083995D01*
X143208563Y-93548834D01*
X143815155Y-93800713D01*
X144471963Y-93801286D01*
X145078995Y-93550466D01*
X145543834Y-93086437D01*
X145795713Y-92479845D01*
X145796286Y-91823037D01*
X145545466Y-91216005D01*
X145470986Y-91141395D01*
X145605705Y-91197335D01*
X145984633Y-91197665D01*
X146334843Y-91052961D01*
X146603020Y-90785253D01*
X146748335Y-90435295D01*
X146748665Y-90056367D01*
X146603961Y-89706157D01*
X146336253Y-89437980D01*
X146182282Y-89374046D01*
X145034000Y-88225764D01*
X145034000Y-85949058D01*
X145078995Y-85930466D01*
X145543834Y-85466437D01*
X145795713Y-84859845D01*
X145796286Y-84203037D01*
X145545466Y-83596005D01*
X145463604Y-83514000D01*
X146939000Y-83514000D01*
X146939000Y-86689000D01*
X147003507Y-87013300D01*
X147016338Y-87077807D01*
X147236580Y-87407420D01*
X156507580Y-96678421D01*
X156837193Y-96898662D01*
X156901700Y-96911493D01*
X157226000Y-96976000D01*
X168148000Y-96976000D01*
X168472300Y-96911493D01*
X168536807Y-96898662D01*
X168866420Y-96678420D01*
X170143841Y-95401000D01*
X175713728Y-95401000D01*
X175909853Y-95875658D01*
X176650443Y-96617542D01*
X177618567Y-97019542D01*
X178666834Y-97020457D01*
X179189973Y-96804300D01*
X179331194Y-96898662D01*
X179720000Y-96976000D01*
X181735601Y-96976000D01*
X181599267Y-97304330D01*
X181598735Y-97914991D01*
X181831932Y-98479371D01*
X181959755Y-98607417D01*
X181939282Y-98627890D01*
X182053839Y-98742447D01*
X181797357Y-98828852D01*
X181587542Y-99402336D01*
X181613161Y-100012460D01*
X181797357Y-100457148D01*
X182053841Y-100543554D01*
X182954395Y-99643000D01*
X182940253Y-99628858D01*
X183119858Y-99449253D01*
X183134000Y-99463395D01*
X183148143Y-99449253D01*
X183327748Y-99628858D01*
X183313605Y-99643000D01*
X183327748Y-99657143D01*
X183148143Y-99836748D01*
X183134000Y-99822605D01*
X182233446Y-100723159D01*
X182319852Y-100979643D01*
X182893336Y-101189458D01*
X183503460Y-101163839D01*
X183537588Y-101149703D01*
X183546072Y-101465384D01*
X183794141Y-102064275D01*
X184086911Y-102193483D01*
X185240395Y-101040000D01*
X185599605Y-101040000D01*
X186753089Y-102193483D01*
X187045859Y-102064275D01*
X187314071Y-101364117D01*
X187293928Y-100614616D01*
X187045859Y-100015725D01*
X186753089Y-99886517D01*
X185599605Y-101040000D01*
X185240395Y-101040000D01*
X185226252Y-101025858D01*
X185405858Y-100846252D01*
X185420000Y-100860395D01*
X186573483Y-99706911D01*
X186444275Y-99414141D01*
X185744117Y-99145929D01*
X184994616Y-99166072D01*
X184656212Y-99306244D01*
X184654839Y-99273540D01*
X184470643Y-98828852D01*
X184214161Y-98742447D01*
X184328718Y-98627890D01*
X184308401Y-98607573D01*
X184434551Y-98481643D01*
X184668733Y-97917670D01*
X184668786Y-97857120D01*
X186669680Y-97857120D01*
X186904997Y-97812842D01*
X187121121Y-97673770D01*
X187266111Y-97461570D01*
X187317120Y-97209680D01*
X187317120Y-94710320D01*
X187272842Y-94475003D01*
X187133770Y-94258879D01*
X186921570Y-94113889D01*
X186669680Y-94062880D01*
X184170320Y-94062880D01*
X183935003Y-94107158D01*
X183718879Y-94246230D01*
X183573889Y-94458430D01*
X183522880Y-94710320D01*
X183522880Y-94944000D01*
X180766019Y-94944000D01*
X180779542Y-94911433D01*
X180780457Y-93863166D01*
X180380147Y-92894342D01*
X179639557Y-92152458D01*
X178671433Y-91750458D01*
X177623166Y-91749543D01*
X176654342Y-92149853D01*
X175912458Y-92890443D01*
X175713744Y-93369000D01*
X169889840Y-93369000D01*
X178518420Y-84740421D01*
X178738662Y-84410807D01*
X178765476Y-84276000D01*
X178816000Y-84022000D01*
X178816000Y-83323089D01*
X184266517Y-83323089D01*
X184395725Y-83615859D01*
X185095883Y-83884071D01*
X185845384Y-83863928D01*
X186444275Y-83615859D01*
X186573483Y-83323089D01*
X185420000Y-82169605D01*
X184266517Y-83323089D01*
X178816000Y-83323089D01*
X178816000Y-71959203D01*
X178859910Y-72027441D01*
X179072110Y-72172431D01*
X179324000Y-72223440D01*
X179451000Y-72223440D01*
X179451000Y-79488177D01*
X179387665Y-79640705D01*
X179387335Y-80019633D01*
X179532039Y-80369843D01*
X179799747Y-80638020D01*
X180149705Y-80783335D01*
X180528633Y-80783665D01*
X180878843Y-80638961D01*
X181147020Y-80371253D01*
X181154875Y-80352336D01*
X181587542Y-80352336D01*
X181613161Y-80962460D01*
X181797357Y-81407148D01*
X182053841Y-81493554D01*
X182954395Y-80593000D01*
X182940253Y-80578858D01*
X183119858Y-80399253D01*
X183134000Y-80413395D01*
X183148143Y-80399253D01*
X183327748Y-80578858D01*
X183313605Y-80593000D01*
X183327748Y-80607143D01*
X183148143Y-80786748D01*
X183134000Y-80772605D01*
X182233446Y-81673159D01*
X182319852Y-81929643D01*
X182893336Y-82139458D01*
X183503460Y-82113839D01*
X183537588Y-82099703D01*
X183546072Y-82415384D01*
X183794141Y-83014275D01*
X184086911Y-83143483D01*
X185240395Y-81990000D01*
X185599605Y-81990000D01*
X186753089Y-83143483D01*
X187045859Y-83014275D01*
X187314071Y-82314117D01*
X187293928Y-81564616D01*
X187045859Y-80965725D01*
X186753089Y-80836517D01*
X185599605Y-81990000D01*
X185240395Y-81990000D01*
X185226252Y-81975858D01*
X185405858Y-81796252D01*
X185420000Y-81810395D01*
X186573483Y-80656911D01*
X186444275Y-80364141D01*
X185744117Y-80095929D01*
X184994616Y-80116072D01*
X184656212Y-80256244D01*
X184654839Y-80223540D01*
X184470643Y-79778852D01*
X184214161Y-79692447D01*
X184328718Y-79577890D01*
X184308401Y-79557573D01*
X184434551Y-79431643D01*
X184668733Y-78867670D01*
X184668786Y-78807120D01*
X186669680Y-78807120D01*
X186904997Y-78762842D01*
X187121121Y-78623770D01*
X187266111Y-78411570D01*
X187317120Y-78159680D01*
X187317120Y-75660320D01*
X187272842Y-75425003D01*
X187133770Y-75208879D01*
X186921570Y-75063889D01*
X186669680Y-75012880D01*
X184170320Y-75012880D01*
X183935003Y-75057158D01*
X183718879Y-75196230D01*
X183573889Y-75408430D01*
X183522880Y-75660320D01*
X183522880Y-76735279D01*
X183232074Y-77026085D01*
X182830009Y-77025735D01*
X182265629Y-77258932D01*
X181833449Y-77690357D01*
X181599267Y-78254330D01*
X181598735Y-78864991D01*
X181831932Y-79429371D01*
X181959755Y-79557417D01*
X181939282Y-79577890D01*
X182053839Y-79692447D01*
X181797357Y-79778852D01*
X181587542Y-80352336D01*
X181154875Y-80352336D01*
X181292335Y-80021295D01*
X181292665Y-79642367D01*
X181229000Y-79488286D01*
X181229000Y-72223440D01*
X181356000Y-72223440D01*
X181591317Y-72179162D01*
X181807441Y-72040090D01*
X181952431Y-71827890D01*
X182003440Y-71576000D01*
X182003440Y-69544000D01*
X181962762Y-69327815D01*
X186289630Y-69327815D01*
X186613980Y-70112800D01*
X187214041Y-70713909D01*
X187998459Y-71039628D01*
X188847815Y-71040370D01*
X189632800Y-70716020D01*
X190233909Y-70115959D01*
X190559628Y-69331541D01*
X190560370Y-68482185D01*
X190236020Y-67697200D01*
X189635959Y-67096091D01*
X188851541Y-66770372D01*
X188002185Y-66769630D01*
X187217200Y-67093980D01*
X186616091Y-67694041D01*
X186290372Y-68478459D01*
X186289630Y-69327815D01*
X181962762Y-69327815D01*
X181959162Y-69308683D01*
X181820090Y-69092559D01*
X181607890Y-68947569D01*
X181356000Y-68896560D01*
X179324000Y-68896560D01*
X179088683Y-68940838D01*
X178872559Y-69079910D01*
X178784287Y-69209100D01*
X178736437Y-69161166D01*
X178129845Y-68909287D01*
X177473037Y-68908714D01*
X176866005Y-69159534D01*
X176401166Y-69623563D01*
X176149287Y-70230155D01*
X176148714Y-70886963D01*
X176399534Y-71493995D01*
X176784000Y-71879132D01*
X176784000Y-83601159D01*
X171058872Y-89326288D01*
X171081338Y-89292665D01*
X171118662Y-89236806D01*
X171196000Y-88848000D01*
X171196000Y-71959203D01*
X171239910Y-72027441D01*
X171452110Y-72172431D01*
X171704000Y-72223440D01*
X171831000Y-72223440D01*
X171831000Y-82790177D01*
X171767665Y-82942705D01*
X171767335Y-83321633D01*
X171912039Y-83671843D01*
X172179747Y-83940020D01*
X172529705Y-84085335D01*
X172908633Y-84085665D01*
X173258843Y-83940961D01*
X173527020Y-83673253D01*
X173672335Y-83323295D01*
X173672665Y-82944367D01*
X173609000Y-82790286D01*
X173609000Y-72223440D01*
X173736000Y-72223440D01*
X173971317Y-72179162D01*
X174187441Y-72040090D01*
X174332431Y-71827890D01*
X174383440Y-71576000D01*
X174383440Y-69544000D01*
X174339162Y-69308683D01*
X174200090Y-69092559D01*
X173987890Y-68947569D01*
X173736000Y-68896560D01*
X171704000Y-68896560D01*
X171468683Y-68940838D01*
X171252559Y-69079910D01*
X171164287Y-69209100D01*
X171116437Y-69161166D01*
X170509845Y-68909287D01*
X169853037Y-68908714D01*
X169246005Y-69159534D01*
X168781166Y-69623563D01*
X168529287Y-70230155D01*
X168528714Y-70886963D01*
X168779534Y-71493995D01*
X169164000Y-71879132D01*
X169164000Y-88427159D01*
X166457160Y-91134000D01*
X161338604Y-91134000D01*
X160956437Y-90751166D01*
X160349845Y-90499287D01*
X159693037Y-90498714D01*
X159086005Y-90749534D01*
X158621166Y-91213563D01*
X158432346Y-91668291D01*
X158245466Y-91216005D01*
X157781437Y-90751166D01*
X157174845Y-90499287D01*
X156518037Y-90498714D01*
X155911005Y-90749534D01*
X155446166Y-91213563D01*
X155194287Y-91820155D01*
X155193714Y-92476963D01*
X155203509Y-92500668D01*
X148971000Y-86268160D01*
X148971000Y-81748440D01*
X149206317Y-81704162D01*
X149422441Y-81565090D01*
X149567431Y-81352890D01*
X149618440Y-81101000D01*
X149618440Y-79816642D01*
X151373184Y-79816642D01*
X151396986Y-80473019D01*
X151602378Y-80968880D01*
X151870893Y-81069502D01*
X152855395Y-80085000D01*
X151870893Y-79100498D01*
X151602378Y-79201120D01*
X151373184Y-79816642D01*
X149618440Y-79816642D01*
X149618440Y-79069000D01*
X149574162Y-78833683D01*
X149435090Y-78617559D01*
X149222890Y-78472569D01*
X148971000Y-78421560D01*
X146939000Y-78421560D01*
X146703683Y-78465838D01*
X146487559Y-78604910D01*
X146354221Y-78800057D01*
X146298880Y-78652378D01*
X145683358Y-78423184D01*
X145026981Y-78446986D01*
X144531120Y-78652378D01*
X144430498Y-78920893D01*
X145415000Y-79905395D01*
X145429143Y-79891253D01*
X145608748Y-80070858D01*
X145594605Y-80085000D01*
X145608748Y-80099143D01*
X145429143Y-80278748D01*
X145415000Y-80264605D01*
X144430498Y-81249107D01*
X144517771Y-81482000D01*
X139319000Y-81482000D01*
X139051665Y-81535176D01*
X140770199Y-79816642D01*
X143753184Y-79816642D01*
X143776986Y-80473019D01*
X143982378Y-80968880D01*
X144250893Y-81069502D01*
X145235395Y-80085000D01*
X144250893Y-79100498D01*
X143982378Y-79201120D01*
X143753184Y-79816642D01*
X140770199Y-79816642D01*
X141790021Y-78796820D01*
X142010262Y-78467207D01*
X142087600Y-78078400D01*
X142087600Y-76402000D01*
X159004000Y-76402000D01*
X159004000Y-83211396D01*
X158700868Y-83514000D01*
X158163604Y-83514000D01*
X157781437Y-83131166D01*
X157174845Y-82879287D01*
X156884874Y-82879034D01*
X156591000Y-82585160D01*
X156591000Y-81748440D01*
X156826317Y-81704162D01*
X157042441Y-81565090D01*
X157187431Y-81352890D01*
X157238440Y-81101000D01*
X157238440Y-79069000D01*
X157194162Y-78833683D01*
X157055090Y-78617559D01*
X156842890Y-78472569D01*
X156591000Y-78421560D01*
X154559000Y-78421560D01*
X154323683Y-78465838D01*
X154107559Y-78604910D01*
X153974221Y-78800057D01*
X153918880Y-78652378D01*
X153303358Y-78423184D01*
X152646981Y-78446986D01*
X152151120Y-78652378D01*
X152050498Y-78920893D01*
X153035000Y-79905395D01*
X153049143Y-79891253D01*
X153228748Y-80070858D01*
X153214605Y-80085000D01*
X153228748Y-80099143D01*
X153049143Y-80278748D01*
X153035000Y-80264605D01*
X152050498Y-81249107D01*
X152151120Y-81517622D01*
X152766642Y-81746816D01*
X153423019Y-81723014D01*
X153918880Y-81517622D01*
X153975419Y-81366746D01*
X154094910Y-81552441D01*
X154307110Y-81697431D01*
X154559000Y-81748440D01*
X154559000Y-83006000D01*
X154609524Y-83260000D01*
X154636338Y-83394807D01*
X154856580Y-83724420D01*
X155234785Y-84102625D01*
X155194287Y-84200155D01*
X155193714Y-84856963D01*
X155444534Y-85463995D01*
X155908563Y-85928834D01*
X156515155Y-86180713D01*
X157171963Y-86181286D01*
X157778995Y-85930466D01*
X158164132Y-85546000D01*
X158701396Y-85546000D01*
X159083563Y-85928834D01*
X159690155Y-86180713D01*
X160346963Y-86181286D01*
X160953995Y-85930466D01*
X161418834Y-85466437D01*
X161670713Y-84859845D01*
X161671286Y-84203037D01*
X161420466Y-83596005D01*
X161036000Y-83210868D01*
X161036000Y-75849130D01*
X161085662Y-75774806D01*
X161163000Y-75386000D01*
X161085662Y-74997194D01*
X161036000Y-74922870D01*
X161036000Y-74244495D01*
X161269371Y-74148068D01*
X161397417Y-74020245D01*
X161417890Y-74040718D01*
X161532447Y-73926161D01*
X161618852Y-74182643D01*
X162192336Y-74392458D01*
X162802460Y-74366839D01*
X163247148Y-74182643D01*
X163333554Y-73926159D01*
X162433000Y-73025605D01*
X162418858Y-73039748D01*
X162239253Y-72860143D01*
X162253395Y-72846000D01*
X162239253Y-72831858D01*
X162418858Y-72652253D01*
X162433000Y-72666395D01*
X162447143Y-72652253D01*
X162626748Y-72831858D01*
X162612605Y-72846000D01*
X163513159Y-73746554D01*
X163769643Y-73660148D01*
X163979458Y-73086664D01*
X163953839Y-72476540D01*
X163939703Y-72442412D01*
X164255384Y-72433928D01*
X164854275Y-72185859D01*
X164983483Y-71893089D01*
X163830000Y-70739605D01*
X163815858Y-70753748D01*
X163636252Y-70574142D01*
X163650395Y-70560000D01*
X164009605Y-70560000D01*
X165163089Y-71713483D01*
X165455859Y-71584275D01*
X165724071Y-70884117D01*
X165703928Y-70134616D01*
X165455859Y-69535725D01*
X165163089Y-69406517D01*
X164009605Y-70560000D01*
X163650395Y-70560000D01*
X162496911Y-69406517D01*
X162204141Y-69535725D01*
X161935929Y-70235883D01*
X161956072Y-70985384D01*
X162096244Y-71323788D01*
X162063540Y-71325161D01*
X161618852Y-71509357D01*
X161532447Y-71765839D01*
X161417890Y-71651282D01*
X161397573Y-71671599D01*
X161271643Y-71545449D01*
X160707670Y-71311267D01*
X160647120Y-71311214D01*
X160647120Y-69310320D01*
X160631426Y-69226911D01*
X162676517Y-69226911D01*
X163830000Y-70380395D01*
X164983483Y-69226911D01*
X164854275Y-68934141D01*
X164154117Y-68665929D01*
X163404616Y-68686072D01*
X162805725Y-68934141D01*
X162676517Y-69226911D01*
X160631426Y-69226911D01*
X160602842Y-69075003D01*
X160463770Y-68858879D01*
X160251570Y-68713889D01*
X159999680Y-68662880D01*
X157500320Y-68662880D01*
X157265003Y-68707158D01*
X157048879Y-68846230D01*
X156903889Y-69058430D01*
X156852880Y-69310320D01*
X156852880Y-71809680D01*
X156897158Y-72044997D01*
X157036230Y-72261121D01*
X157248430Y-72406111D01*
X157500320Y-72457120D01*
X158575280Y-72457120D01*
X158866085Y-72747926D01*
X158865735Y-73149991D01*
X159004000Y-73484618D01*
X159004000Y-74370000D01*
X142087600Y-74370000D01*
X142087600Y-71519024D01*
X142137791Y-71498286D01*
X142612472Y-71024431D01*
X143083641Y-71496422D01*
X143776089Y-71783952D01*
X144525861Y-71784606D01*
X145218811Y-71498286D01*
X145652781Y-71065071D01*
X146083381Y-71496422D01*
X146775829Y-71783952D01*
X147525601Y-71784606D01*
X148218551Y-71498286D01*
X148582349Y-71135122D01*
X148629346Y-71248863D01*
X149299688Y-71920376D01*
X150175981Y-72284245D01*
X151124816Y-72285073D01*
X152001743Y-71922734D01*
X152673256Y-71252392D01*
X153037125Y-70376099D01*
X153037953Y-69427264D01*
X152675614Y-68550337D01*
X152005272Y-67878824D01*
X151128979Y-67514955D01*
X150180144Y-67514127D01*
X149303217Y-67876466D01*
X148631704Y-68546808D01*
X148582716Y-68664785D01*
X148221339Y-68302778D01*
X147528891Y-68015248D01*
X146779119Y-68014594D01*
X146086169Y-68300914D01*
X145652199Y-68734129D01*
X145221599Y-68302778D01*
X144529151Y-68015248D01*
X143779379Y-68014594D01*
X143086429Y-68300914D01*
X142611748Y-68774769D01*
X142140579Y-68302778D01*
X141448131Y-68015248D01*
X140698359Y-68014594D01*
X140005409Y-68300914D01*
X139699156Y-68606634D01*
X139675894Y-68550337D01*
X139005552Y-67878824D01*
X138129259Y-67514955D01*
X137180424Y-67514127D01*
X136303497Y-67876466D01*
X135631984Y-68546808D01*
X135268115Y-69423101D01*
X135267287Y-70371936D01*
X135629626Y-71248863D01*
X136299968Y-71920376D01*
X137176261Y-72284245D01*
X138125096Y-72285073D01*
X139002023Y-71922734D01*
X139673536Y-71252392D01*
X139698647Y-71191918D01*
X140002621Y-71496422D01*
X140055600Y-71518421D01*
X140055600Y-77657559D01*
X132456864Y-85256295D01*
X132457242Y-84823339D01*
X132245010Y-84309697D01*
X131852370Y-83916371D01*
X131339100Y-83703243D01*
X130783339Y-83702758D01*
X130269697Y-83914990D01*
X129876371Y-84307630D01*
X129790051Y-84515512D01*
X129705010Y-84309697D01*
X129312370Y-83916371D01*
X128799100Y-83703243D01*
X128243339Y-83702758D01*
X127729697Y-83914990D01*
X127336371Y-84307630D01*
X127250051Y-84515512D01*
X127165010Y-84309697D01*
X126772370Y-83916371D01*
X126259100Y-83703243D01*
X125703339Y-83702758D01*
X125189697Y-83914990D01*
X124796371Y-84307630D01*
X124710051Y-84515512D01*
X124625010Y-84309697D01*
X124232370Y-83916371D01*
X123719100Y-83703243D01*
X123479875Y-83703034D01*
X121766840Y-81990000D01*
X130893421Y-72863420D01*
X131113662Y-72533807D01*
X131183539Y-72182507D01*
X131241191Y-72158686D01*
X131771822Y-71628979D01*
X132059352Y-70936531D01*
X132060006Y-70186759D01*
X131773686Y-69493809D01*
X131243979Y-68963178D01*
X130551531Y-68675648D01*
X129801759Y-68674994D01*
X129108809Y-68961314D01*
X128578178Y-69491021D01*
X128290648Y-70183469D01*
X128289994Y-70933241D01*
X128576314Y-71626191D01*
X128916344Y-71966815D01*
X119909160Y-80974000D01*
X107664424Y-80974000D01*
X107643686Y-80923809D01*
X107113979Y-80393178D01*
X106421531Y-80105648D01*
X105671759Y-80104994D01*
X104978809Y-80391314D01*
X104448178Y-80921021D01*
X104160648Y-81613469D01*
X104159994Y-82363241D01*
X104446314Y-83056191D01*
X104976021Y-83586822D01*
X105668469Y-83874352D01*
X106418241Y-83875006D01*
X107111191Y-83588686D01*
X107641822Y-83058979D01*
X107663821Y-83006000D01*
X119909160Y-83006000D01*
X122042965Y-85139805D01*
X122042758Y-85376661D01*
X122254990Y-85890303D01*
X122647630Y-86283629D01*
X123160900Y-86496757D01*
X123716661Y-86497242D01*
X124230303Y-86285010D01*
X124623629Y-85892370D01*
X124709949Y-85684488D01*
X124794990Y-85890303D01*
X125187630Y-86283629D01*
X125700900Y-86496757D01*
X126256661Y-86497242D01*
X126770303Y-86285010D01*
X127163629Y-85892370D01*
X127249949Y-85684488D01*
X127334990Y-85890303D01*
X127727630Y-86283629D01*
X128240900Y-86496757D01*
X128796661Y-86497242D01*
X129310303Y-86285010D01*
X129703629Y-85892370D01*
X129789949Y-85684488D01*
X129874990Y-85890303D01*
X130267630Y-86283629D01*
X130780900Y-86496757D01*
X131216023Y-86497137D01*
X128611160Y-89102000D01*
X106680000Y-89102000D01*
X106355700Y-89166507D01*
X106291193Y-89179338D01*
X105961580Y-89399579D01*
X102024580Y-93336580D01*
X101804338Y-93666193D01*
X101804338Y-93666194D01*
X101727000Y-94055000D01*
X99160000Y-94055000D01*
X99160000Y-75660320D01*
X104147880Y-75660320D01*
X104147880Y-78159680D01*
X104192158Y-78394997D01*
X104331230Y-78611121D01*
X104543430Y-78756111D01*
X104795320Y-78807120D01*
X107294680Y-78807120D01*
X107529997Y-78762842D01*
X107746121Y-78623770D01*
X107891111Y-78411570D01*
X107942120Y-78159680D01*
X107942120Y-75660320D01*
X107897842Y-75425003D01*
X107758770Y-75208879D01*
X107546570Y-75063889D01*
X107294680Y-75012880D01*
X104795320Y-75012880D01*
X104560003Y-75057158D01*
X104343879Y-75196230D01*
X104198889Y-75408430D01*
X104147880Y-75660320D01*
X99160000Y-75660320D01*
X99160000Y-69327815D01*
X101289630Y-69327815D01*
X101613980Y-70112800D01*
X102214041Y-70713909D01*
X102998459Y-71039628D01*
X103847815Y-71040370D01*
X104632800Y-70716020D01*
X105233909Y-70115959D01*
X105559628Y-69331541D01*
X105559646Y-69310320D01*
X123197880Y-69310320D01*
X123197880Y-71809680D01*
X123242158Y-72044997D01*
X123381230Y-72261121D01*
X123593430Y-72406111D01*
X123845320Y-72457120D01*
X126344680Y-72457120D01*
X126579997Y-72412842D01*
X126796121Y-72273770D01*
X126941111Y-72061570D01*
X126992120Y-71809680D01*
X126992120Y-69310320D01*
X126947842Y-69075003D01*
X126808770Y-68858879D01*
X126596570Y-68713889D01*
X126344680Y-68662880D01*
X123845320Y-68662880D01*
X123610003Y-68707158D01*
X123393879Y-68846230D01*
X123248889Y-69058430D01*
X123197880Y-69310320D01*
X105559646Y-69310320D01*
X105560370Y-68482185D01*
X105236020Y-67697200D01*
X104635959Y-67096091D01*
X103851541Y-66770372D01*
X103002185Y-66769630D01*
X102217200Y-67093980D01*
X101616091Y-67694041D01*
X101290372Y-68478459D01*
X101289630Y-69327815D01*
X99160000Y-69327815D01*
X99160000Y-68977390D01*
X99497957Y-67278366D01*
X100419371Y-65899371D01*
X101798366Y-64977957D01*
X103335512Y-64672200D01*
X103425000Y-64690000D01*
X188425000Y-64690000D01*
X188514488Y-64672200D01*
X190051634Y-64977957D01*
X190051634Y-64977957D01*
G37*
X190051634Y-64977957D02*
X191430629Y-65899371D01*
X192352043Y-67278366D01*
X192690000Y-68977390D01*
X192690000Y-123832610D01*
X192352043Y-125531634D01*
X191430629Y-126910629D01*
X190051634Y-127832043D01*
X188514488Y-128137800D01*
X188425000Y-128120000D01*
X160462858Y-128120000D01*
X160462858Y-124327815D01*
X186289630Y-124327815D01*
X186613980Y-125112800D01*
X187214041Y-125713909D01*
X187998459Y-126039628D01*
X188847815Y-126040370D01*
X189632800Y-125716020D01*
X190233909Y-125115959D01*
X190559628Y-124331541D01*
X190560370Y-123482185D01*
X190236020Y-122697200D01*
X189635959Y-122096091D01*
X188851541Y-121770372D01*
X188002185Y-121769630D01*
X187217200Y-122093980D01*
X186616091Y-122694041D01*
X186290372Y-123478459D01*
X186289630Y-124327815D01*
X160462858Y-124327815D01*
X160462858Y-123985000D01*
X170320000Y-123985000D01*
X170320000Y-118905000D01*
X170605716Y-118905000D01*
X170605716Y-118353305D01*
X171294674Y-118353305D01*
X171581043Y-119046372D01*
X172110839Y-119577093D01*
X172803405Y-119864672D01*
X173553305Y-119865326D01*
X174246372Y-119578957D01*
X174777093Y-119049161D01*
X175064672Y-118356595D01*
X175064889Y-118107000D01*
X180045000Y-118107000D01*
X180045000Y-118607000D01*
X180218058Y-119223020D01*
X180613683Y-119725922D01*
X181171645Y-120039144D01*
X181299566Y-120070124D01*
X181553000Y-119950777D01*
X181553000Y-118107000D01*
X181807000Y-118107000D01*
X181807000Y-119950777D01*
X182060434Y-120070124D01*
X182188355Y-120039144D01*
X182746317Y-119725922D01*
X183141942Y-119223020D01*
X183315000Y-118607000D01*
X183315000Y-118107000D01*
X181807000Y-118107000D01*
X181553000Y-118107000D01*
X180045000Y-118107000D01*
X175064889Y-118107000D01*
X175065326Y-117606695D01*
X174960502Y-117353000D01*
X180045000Y-117353000D01*
X180045000Y-117853000D01*
X181553000Y-117853000D01*
X181553000Y-116009223D01*
X181807000Y-116009223D01*
X181807000Y-117853000D01*
X183315000Y-117853000D01*
X183315000Y-117353000D01*
X183141942Y-116736980D01*
X182746317Y-116234078D01*
X182188355Y-115920856D01*
X182060434Y-115889876D01*
X181807000Y-116009223D01*
X181553000Y-116009223D01*
X181299566Y-115889876D01*
X181171645Y-115920856D01*
X180613683Y-116234078D01*
X180218058Y-116736980D01*
X180045000Y-117353000D01*
X174960502Y-117353000D01*
X174778957Y-116913628D01*
X174249161Y-116382907D01*
X173556595Y-116095328D01*
X172806695Y-116094674D01*
X172113628Y-116381043D01*
X171582907Y-116910839D01*
X171295328Y-117603405D01*
X171294674Y-118353305D01*
X170605716Y-118353305D01*
X170605716Y-112535000D01*
X165891430Y-112535000D01*
X165891430Y-108090000D01*
X127478570Y-108090000D01*
X127478570Y-112535000D01*
X122764285Y-112535000D01*
X122764285Y-118905000D01*
X123050000Y-118905000D01*
X123050000Y-123985000D01*
X132907143Y-123985000D01*
X132907143Y-128120000D01*
X103425000Y-128120000D01*
X103335512Y-128137800D01*
X101798366Y-127832043D01*
X100419371Y-126910629D01*
X99497957Y-125531634D01*
X99258503Y-124327815D01*
X101289630Y-124327815D01*
X101613980Y-125112800D01*
X102214041Y-125713909D01*
X102998459Y-126039628D01*
X103847815Y-126040370D01*
X104632800Y-125716020D01*
X105233909Y-125115959D01*
X105559628Y-124331541D01*
X105560370Y-123482185D01*
X105236020Y-122697200D01*
X104635959Y-122096091D01*
X103851541Y-121770372D01*
X103002185Y-121769630D01*
X102217200Y-122093980D01*
X101616091Y-122694041D01*
X101290372Y-123478459D01*
X101289630Y-124327815D01*
X99258503Y-124327815D01*
X99160000Y-123832610D01*
X99160000Y-94055000D01*
X101727000Y-94055000D01*
X101727000Y-113613000D01*
X101791507Y-113937300D01*
X101804338Y-114001807D01*
X102024580Y-114331420D01*
X106391580Y-118698421D01*
X106721193Y-118918662D01*
X107110000Y-118996000D01*
X108032560Y-118996000D01*
X108032560Y-119480000D01*
X108076838Y-119715317D01*
X108215910Y-119931441D01*
X108428110Y-120076431D01*
X108680000Y-120127440D01*
X110680000Y-120127440D01*
X110915317Y-120083162D01*
X111131441Y-119944090D01*
X111276431Y-119731890D01*
X111327440Y-119480000D01*
X111327440Y-118353305D01*
X116294674Y-118353305D01*
X116581043Y-119046372D01*
X117110839Y-119577093D01*
X117803405Y-119864672D01*
X118553305Y-119865326D01*
X119246372Y-119578957D01*
X119777093Y-119049161D01*
X120064672Y-118356595D01*
X120065326Y-117606695D01*
X119778957Y-116913628D01*
X119249161Y-116382907D01*
X118556595Y-116095328D01*
X117806695Y-116094674D01*
X117113628Y-116381043D01*
X116582907Y-116910839D01*
X116295328Y-117603405D01*
X116294674Y-118353305D01*
X111327440Y-118353305D01*
X111327440Y-116480000D01*
X111283162Y-116244683D01*
X111144090Y-116028559D01*
X110931890Y-115883569D01*
X110680000Y-115832560D01*
X108680000Y-115832560D01*
X108444683Y-115876838D01*
X108228559Y-116015910D01*
X108083569Y-116228110D01*
X108032560Y-116480000D01*
X108032560Y-116964000D01*
X107530841Y-116964000D01*
X103759000Y-113192160D01*
X103759000Y-104260022D01*
X111449584Y-104260022D01*
X111670353Y-104630743D01*
X112642012Y-105024119D01*
X113690247Y-105015713D01*
X114619647Y-104630743D01*
X114840416Y-104260022D01*
X113145000Y-102564605D01*
X111449584Y-104260022D01*
X103759000Y-104260022D01*
X103759000Y-99790320D01*
X104147880Y-99790320D01*
X104147880Y-102289680D01*
X104192158Y-102524997D01*
X104331230Y-102741121D01*
X104543430Y-102886111D01*
X104795320Y-102937120D01*
X107294680Y-102937120D01*
X107529997Y-102892842D01*
X107746121Y-102753770D01*
X107891111Y-102541570D01*
X107942120Y-102289680D01*
X107942120Y-101981782D01*
X107957807Y-101978662D01*
X108102452Y-101882012D01*
X110505881Y-101882012D01*
X110514287Y-102930247D01*
X110899257Y-103859647D01*
X111269978Y-104080416D01*
X112965395Y-102385000D01*
X113324605Y-102385000D01*
X115020022Y-104080416D01*
X115390743Y-103859647D01*
X115784119Y-102887988D01*
X115775713Y-101839753D01*
X115390743Y-100910353D01*
X115289397Y-100850000D01*
X117962560Y-100850000D01*
X117962560Y-103850000D01*
X118006838Y-104085317D01*
X118145910Y-104301441D01*
X118358110Y-104446431D01*
X118610000Y-104497440D01*
X121610000Y-104497440D01*
X121845317Y-104453162D01*
X122061441Y-104314090D01*
X122206431Y-104101890D01*
X122254611Y-103863970D01*
X133275635Y-103863970D01*
X133435418Y-104182739D01*
X134226187Y-104492723D01*
X135075387Y-104476497D01*
X135598004Y-104260022D01*
X176449584Y-104260022D01*
X176670353Y-104630743D01*
X177642012Y-105024119D01*
X178690247Y-105015713D01*
X179619647Y-104630743D01*
X179840416Y-104260022D01*
X178145000Y-102564605D01*
X176449584Y-104260022D01*
X135598004Y-104260022D01*
X135784582Y-104182739D01*
X135944365Y-103863970D01*
X134610000Y-102529605D01*
X133275635Y-103863970D01*
X122254611Y-103863970D01*
X122257440Y-103850000D01*
X122257440Y-103366000D01*
X124547000Y-103366000D01*
X124871300Y-103301493D01*
X124935807Y-103288662D01*
X125265420Y-103068420D01*
X126367653Y-101966187D01*
X132467277Y-101966187D01*
X132483503Y-102815387D01*
X132777261Y-103524582D01*
X133096030Y-103684365D01*
X134430395Y-102350000D01*
X134789605Y-102350000D01*
X136123970Y-103684365D01*
X136442739Y-103524582D01*
X136752723Y-102733813D01*
X136736497Y-101884613D01*
X136735420Y-101882012D01*
X175505881Y-101882012D01*
X175514287Y-102930247D01*
X175899257Y-103859647D01*
X176269978Y-104080416D01*
X177965395Y-102385000D01*
X178324605Y-102385000D01*
X180020022Y-104080416D01*
X180390743Y-103859647D01*
X180784119Y-102887988D01*
X180779990Y-102373089D01*
X184266517Y-102373089D01*
X184395725Y-102665859D01*
X185095883Y-102934071D01*
X185845384Y-102913928D01*
X186444275Y-102665859D01*
X186573483Y-102373089D01*
X185420000Y-101219605D01*
X184266517Y-102373089D01*
X180779990Y-102373089D01*
X180775713Y-101839753D01*
X180390743Y-100910353D01*
X180020022Y-100689584D01*
X178324605Y-102385000D01*
X177965395Y-102385000D01*
X176269978Y-100689584D01*
X175899257Y-100910353D01*
X175505881Y-101882012D01*
X136735420Y-101882012D01*
X136442739Y-101175418D01*
X136123970Y-101015635D01*
X134789605Y-102350000D01*
X134430395Y-102350000D01*
X133096030Y-101015635D01*
X132777261Y-101175418D01*
X132467277Y-101966187D01*
X126367653Y-101966187D01*
X127497810Y-100836030D01*
X133275635Y-100836030D01*
X134610000Y-102170395D01*
X135944365Y-100836030D01*
X135784582Y-100517261D01*
X135766004Y-100509978D01*
X176449584Y-100509978D01*
X178145000Y-102205395D01*
X179840416Y-100509978D01*
X179619647Y-100139257D01*
X178647988Y-99745881D01*
X177599753Y-99754287D01*
X176670353Y-100139257D01*
X176449584Y-100509978D01*
X135766004Y-100509978D01*
X134993813Y-100207277D01*
X134144613Y-100223503D01*
X133435418Y-100517261D01*
X133275635Y-100836030D01*
X127497810Y-100836030D01*
X129347841Y-98986000D01*
X130797560Y-98986000D01*
X130797560Y-99470000D01*
X130841838Y-99705317D01*
X130980910Y-99921441D01*
X131193110Y-100066431D01*
X131445000Y-100117440D01*
X134445000Y-100117440D01*
X134680317Y-100073162D01*
X134896441Y-99934090D01*
X135041431Y-99721890D01*
X135092440Y-99470000D01*
X135092440Y-96470000D01*
X135048162Y-96234683D01*
X134909090Y-96018559D01*
X134696890Y-95873569D01*
X134445000Y-95822560D01*
X131445000Y-95822560D01*
X131209683Y-95866838D01*
X130993559Y-96005910D01*
X130848569Y-96218110D01*
X130797560Y-96470000D01*
X130797560Y-96954000D01*
X128927000Y-96954000D01*
X128538194Y-97031338D01*
X128538192Y-97031339D01*
X128538193Y-97031339D01*
X128208579Y-97251580D01*
X124126160Y-101334000D01*
X122257440Y-101334000D01*
X122257440Y-100850000D01*
X122213162Y-100614683D01*
X122074090Y-100398559D01*
X121861890Y-100253569D01*
X121610000Y-100202560D01*
X118610000Y-100202560D01*
X118374683Y-100246838D01*
X118158559Y-100385910D01*
X118013569Y-100598110D01*
X117962560Y-100850000D01*
X115289397Y-100850000D01*
X115020022Y-100689584D01*
X113324605Y-102385000D01*
X112965395Y-102385000D01*
X111269978Y-100689584D01*
X110899257Y-100910353D01*
X110505881Y-101882012D01*
X108102452Y-101882012D01*
X108287420Y-101758420D01*
X109049421Y-100996420D01*
X109269662Y-100666807D01*
X109281056Y-100609526D01*
X109380778Y-100509978D01*
X111449584Y-100509978D01*
X113145000Y-102205395D01*
X114840416Y-100509978D01*
X114619647Y-100139257D01*
X113647988Y-99745881D01*
X112599753Y-99754287D01*
X111670353Y-100139257D01*
X111449584Y-100509978D01*
X109380778Y-100509978D01*
X109631551Y-100259643D01*
X109865733Y-99695670D01*
X109865917Y-99483970D01*
X119210635Y-99483970D01*
X119370418Y-99802739D01*
X120161187Y-100112723D01*
X121010387Y-100096497D01*
X121719582Y-99802739D01*
X121879365Y-99483970D01*
X120545000Y-98149605D01*
X119210635Y-99483970D01*
X109865917Y-99483970D01*
X109866265Y-99085009D01*
X109633068Y-98520629D01*
X109505245Y-98392583D01*
X109525718Y-98372110D01*
X109411161Y-98257553D01*
X109667643Y-98171148D01*
X109877458Y-97597664D01*
X109876977Y-97586187D01*
X118402277Y-97586187D01*
X118418503Y-98435387D01*
X118712261Y-99144582D01*
X119031030Y-99304365D01*
X120365395Y-97970000D01*
X120724605Y-97970000D01*
X122058970Y-99304365D01*
X122377739Y-99144582D01*
X122687723Y-98353813D01*
X122671497Y-97504613D01*
X122377739Y-96795418D01*
X122058970Y-96635635D01*
X120724605Y-97970000D01*
X120365395Y-97970000D01*
X119031030Y-96635635D01*
X118712261Y-96795418D01*
X118402277Y-97586187D01*
X109876977Y-97586187D01*
X109851839Y-96987540D01*
X109667643Y-96542852D01*
X109411159Y-96456446D01*
X108510605Y-97357000D01*
X108524748Y-97371143D01*
X108345143Y-97550748D01*
X108331000Y-97536605D01*
X108316858Y-97550748D01*
X108137253Y-97371143D01*
X108151395Y-97357000D01*
X108137253Y-97342858D01*
X108316858Y-97163253D01*
X108331000Y-97177395D01*
X109231554Y-96276841D01*
X109145148Y-96020357D01*
X108571664Y-95810542D01*
X107961540Y-95836161D01*
X107927412Y-95850297D01*
X107918928Y-95534616D01*
X107670859Y-94935725D01*
X107378089Y-94806517D01*
X106224605Y-95960000D01*
X106238748Y-95974142D01*
X106059142Y-96153748D01*
X106045000Y-96139605D01*
X104891517Y-97293089D01*
X105020725Y-97585859D01*
X105720883Y-97854071D01*
X106470384Y-97833928D01*
X106808788Y-97693756D01*
X106810161Y-97726460D01*
X106994357Y-98171148D01*
X107250839Y-98257553D01*
X107136282Y-98372110D01*
X107156599Y-98392427D01*
X107030449Y-98518357D01*
X106796267Y-99082330D01*
X106796214Y-99142880D01*
X104795320Y-99142880D01*
X104560003Y-99187158D01*
X104343879Y-99326230D01*
X104198889Y-99538430D01*
X104147880Y-99790320D01*
X103759000Y-99790320D01*
X103759000Y-95635883D01*
X104150929Y-95635883D01*
X104171072Y-96385384D01*
X104419141Y-96984275D01*
X104711911Y-97113483D01*
X105865395Y-95960000D01*
X104711911Y-94806517D01*
X104419141Y-94935725D01*
X104150929Y-95635883D01*
X103759000Y-95635883D01*
X103759000Y-94626911D01*
X104891517Y-94626911D01*
X106045000Y-95780395D01*
X107198483Y-94626911D01*
X107069275Y-94334141D01*
X106369117Y-94065929D01*
X105619616Y-94086072D01*
X105020725Y-94334141D01*
X104891517Y-94626911D01*
X103759000Y-94626911D01*
X103759000Y-94475840D01*
X107100841Y-91134000D01*
X129032000Y-91134000D01*
X129356300Y-91069493D01*
X129420807Y-91056662D01*
X129750420Y-90836420D01*
X136832176Y-83754664D01*
X136779000Y-84022000D01*
X136779000Y-86268159D01*
X129678160Y-93369000D01*
X115576272Y-93369000D01*
X115380147Y-92894342D01*
X114639557Y-92152458D01*
X113671433Y-91750458D01*
X112623166Y-91749543D01*
X111654342Y-92149853D01*
X110912458Y-92890443D01*
X110510458Y-93858567D01*
X110509543Y-94906834D01*
X110909853Y-95875658D01*
X111650443Y-96617542D01*
X112618567Y-97019542D01*
X113666834Y-97020457D01*
X114635658Y-96620147D01*
X114800061Y-96456030D01*
X119210635Y-96456030D01*
X120545000Y-97790395D01*
X121879365Y-96456030D01*
X121719582Y-96137261D01*
X120928813Y-95827277D01*
X120079613Y-95843503D01*
X119370418Y-96137261D01*
X119210635Y-96456030D01*
X114800061Y-96456030D01*
X115377542Y-95879557D01*
X115576256Y-95401000D01*
X130099000Y-95401000D01*
X130423300Y-95336493D01*
X130487807Y-95323662D01*
X130817420Y-95103420D01*
X132606733Y-93314107D01*
X139985498Y-93314107D01*
X140086120Y-93582622D01*
X140701642Y-93811816D01*
X141358019Y-93788014D01*
X141853880Y-93582622D01*
X141954502Y-93314107D01*
X140970000Y-92329605D01*
X139985498Y-93314107D01*
X132606733Y-93314107D01*
X134039198Y-91881642D01*
X139308184Y-91881642D01*
X139331986Y-92538019D01*
X139537378Y-93033880D01*
X139805893Y-93134502D01*
X140790395Y-92150000D01*
X139805893Y-91165498D01*
X139537378Y-91266120D01*
X139308184Y-91881642D01*
X134039198Y-91881642D01*
X134934947Y-90985893D01*
X139985498Y-90985893D01*
X140970000Y-91970395D01*
X141954502Y-90985893D01*
X141853880Y-90717378D01*
X141238358Y-90488184D01*
X140581981Y-90511986D01*
X140086120Y-90717378D01*
X139985498Y-90985893D01*
X134934947Y-90985893D01*
X138513421Y-87407420D01*
X138733662Y-87077807D01*
X138811000Y-86689000D01*
X138811000Y-84442840D01*
X139507888Y-83745952D01*
X139319287Y-84200155D01*
X139318714Y-84856963D01*
X139569534Y-85463995D01*
X140033563Y-85928834D01*
X140640155Y-86180713D01*
X141296963Y-86181286D01*
X141903995Y-85930466D01*
X142368834Y-85466437D01*
X142557654Y-85011709D01*
X142744534Y-85463995D01*
X143208563Y-85928834D01*
X143256000Y-85948532D01*
X143256000Y-88594000D01*
X143323671Y-88934206D01*
X143435788Y-89102000D01*
X143516382Y-89222618D01*
X144924971Y-90631207D01*
X144952398Y-90697584D01*
X144474845Y-90499287D01*
X143818037Y-90498714D01*
X143211005Y-90749534D01*
X142746166Y-91213563D01*
X142563284Y-91653992D01*
X142402622Y-91266120D01*
X142134107Y-91165498D01*
X141149605Y-92150000D01*
X142134107Y-93134502D01*
X142402622Y-93033880D01*
X142554876Y-92624987D01*
X142744534Y-93083995D01*
X143208563Y-93548834D01*
X143815155Y-93800713D01*
X144471963Y-93801286D01*
X145078995Y-93550466D01*
X145543834Y-93086437D01*
X145795713Y-92479845D01*
X145796286Y-91823037D01*
X145545466Y-91216005D01*
X145470986Y-91141395D01*
X145605705Y-91197335D01*
X145984633Y-91197665D01*
X146334843Y-91052961D01*
X146603020Y-90785253D01*
X146748335Y-90435295D01*
X146748665Y-90056367D01*
X146603961Y-89706157D01*
X146336253Y-89437980D01*
X146182282Y-89374046D01*
X145034000Y-88225764D01*
X145034000Y-85949058D01*
X145078995Y-85930466D01*
X145543834Y-85466437D01*
X145795713Y-84859845D01*
X145796286Y-84203037D01*
X145545466Y-83596005D01*
X145463604Y-83514000D01*
X146939000Y-83514000D01*
X146939000Y-86689000D01*
X147003507Y-87013300D01*
X147016338Y-87077807D01*
X147236580Y-87407420D01*
X156507580Y-96678421D01*
X156837193Y-96898662D01*
X156901700Y-96911493D01*
X157226000Y-96976000D01*
X168148000Y-96976000D01*
X168472300Y-96911493D01*
X168536807Y-96898662D01*
X168866420Y-96678420D01*
X170143841Y-95401000D01*
X175713728Y-95401000D01*
X175909853Y-95875658D01*
X176650443Y-96617542D01*
X177618567Y-97019542D01*
X178666834Y-97020457D01*
X179189973Y-96804300D01*
X179331194Y-96898662D01*
X179720000Y-96976000D01*
X181735601Y-96976000D01*
X181599267Y-97304330D01*
X181598735Y-97914991D01*
X181831932Y-98479371D01*
X181959755Y-98607417D01*
X181939282Y-98627890D01*
X182053839Y-98742447D01*
X181797357Y-98828852D01*
X181587542Y-99402336D01*
X181613161Y-100012460D01*
X181797357Y-100457148D01*
X182053841Y-100543554D01*
X182954395Y-99643000D01*
X182940253Y-99628858D01*
X183119858Y-99449253D01*
X183134000Y-99463395D01*
X183148143Y-99449253D01*
X183327748Y-99628858D01*
X183313605Y-99643000D01*
X183327748Y-99657143D01*
X183148143Y-99836748D01*
X183134000Y-99822605D01*
X182233446Y-100723159D01*
X182319852Y-100979643D01*
X182893336Y-101189458D01*
X183503460Y-101163839D01*
X183537588Y-101149703D01*
X183546072Y-101465384D01*
X183794141Y-102064275D01*
X184086911Y-102193483D01*
X185240395Y-101040000D01*
X185599605Y-101040000D01*
X186753089Y-102193483D01*
X187045859Y-102064275D01*
X187314071Y-101364117D01*
X187293928Y-100614616D01*
X187045859Y-100015725D01*
X186753089Y-99886517D01*
X185599605Y-101040000D01*
X185240395Y-101040000D01*
X185226252Y-101025858D01*
X185405858Y-100846252D01*
X185420000Y-100860395D01*
X186573483Y-99706911D01*
X186444275Y-99414141D01*
X185744117Y-99145929D01*
X184994616Y-99166072D01*
X184656212Y-99306244D01*
X184654839Y-99273540D01*
X184470643Y-98828852D01*
X184214161Y-98742447D01*
X184328718Y-98627890D01*
X184308401Y-98607573D01*
X184434551Y-98481643D01*
X184668733Y-97917670D01*
X184668786Y-97857120D01*
X186669680Y-97857120D01*
X186904997Y-97812842D01*
X187121121Y-97673770D01*
X187266111Y-97461570D01*
X187317120Y-97209680D01*
X187317120Y-94710320D01*
X187272842Y-94475003D01*
X187133770Y-94258879D01*
X186921570Y-94113889D01*
X186669680Y-94062880D01*
X184170320Y-94062880D01*
X183935003Y-94107158D01*
X183718879Y-94246230D01*
X183573889Y-94458430D01*
X183522880Y-94710320D01*
X183522880Y-94944000D01*
X180766019Y-94944000D01*
X180779542Y-94911433D01*
X180780457Y-93863166D01*
X180380147Y-92894342D01*
X179639557Y-92152458D01*
X178671433Y-91750458D01*
X177623166Y-91749543D01*
X176654342Y-92149853D01*
X175912458Y-92890443D01*
X175713744Y-93369000D01*
X169889840Y-93369000D01*
X178518420Y-84740421D01*
X178738662Y-84410807D01*
X178765476Y-84276000D01*
X178816000Y-84022000D01*
X178816000Y-83323089D01*
X184266517Y-83323089D01*
X184395725Y-83615859D01*
X185095883Y-83884071D01*
X185845384Y-83863928D01*
X186444275Y-83615859D01*
X186573483Y-83323089D01*
X185420000Y-82169605D01*
X184266517Y-83323089D01*
X178816000Y-83323089D01*
X178816000Y-71959203D01*
X178859910Y-72027441D01*
X179072110Y-72172431D01*
X179324000Y-72223440D01*
X179451000Y-72223440D01*
X179451000Y-79488177D01*
X179387665Y-79640705D01*
X179387335Y-80019633D01*
X179532039Y-80369843D01*
X179799747Y-80638020D01*
X180149705Y-80783335D01*
X180528633Y-80783665D01*
X180878843Y-80638961D01*
X181147020Y-80371253D01*
X181154875Y-80352336D01*
X181587542Y-80352336D01*
X181613161Y-80962460D01*
X181797357Y-81407148D01*
X182053841Y-81493554D01*
X182954395Y-80593000D01*
X182940253Y-80578858D01*
X183119858Y-80399253D01*
X183134000Y-80413395D01*
X183148143Y-80399253D01*
X183327748Y-80578858D01*
X183313605Y-80593000D01*
X183327748Y-80607143D01*
X183148143Y-80786748D01*
X183134000Y-80772605D01*
X182233446Y-81673159D01*
X182319852Y-81929643D01*
X182893336Y-82139458D01*
X183503460Y-82113839D01*
X183537588Y-82099703D01*
X183546072Y-82415384D01*
X183794141Y-83014275D01*
X184086911Y-83143483D01*
X185240395Y-81990000D01*
X185599605Y-81990000D01*
X186753089Y-83143483D01*
X187045859Y-83014275D01*
X187314071Y-82314117D01*
X187293928Y-81564616D01*
X187045859Y-80965725D01*
X186753089Y-80836517D01*
X185599605Y-81990000D01*
X185240395Y-81990000D01*
X185226252Y-81975858D01*
X185405858Y-81796252D01*
X185420000Y-81810395D01*
X186573483Y-80656911D01*
X186444275Y-80364141D01*
X185744117Y-80095929D01*
X184994616Y-80116072D01*
X184656212Y-80256244D01*
X184654839Y-80223540D01*
X184470643Y-79778852D01*
X184214161Y-79692447D01*
X184328718Y-79577890D01*
X184308401Y-79557573D01*
X184434551Y-79431643D01*
X184668733Y-78867670D01*
X184668786Y-78807120D01*
X186669680Y-78807120D01*
X186904997Y-78762842D01*
X187121121Y-78623770D01*
X187266111Y-78411570D01*
X187317120Y-78159680D01*
X187317120Y-75660320D01*
X187272842Y-75425003D01*
X187133770Y-75208879D01*
X186921570Y-75063889D01*
X186669680Y-75012880D01*
X184170320Y-75012880D01*
X183935003Y-75057158D01*
X183718879Y-75196230D01*
X183573889Y-75408430D01*
X183522880Y-75660320D01*
X183522880Y-76735279D01*
X183232074Y-77026085D01*
X182830009Y-77025735D01*
X182265629Y-77258932D01*
X181833449Y-77690357D01*
X181599267Y-78254330D01*
X181598735Y-78864991D01*
X181831932Y-79429371D01*
X181959755Y-79557417D01*
X181939282Y-79577890D01*
X182053839Y-79692447D01*
X181797357Y-79778852D01*
X181587542Y-80352336D01*
X181154875Y-80352336D01*
X181292335Y-80021295D01*
X181292665Y-79642367D01*
X181229000Y-79488286D01*
X181229000Y-72223440D01*
X181356000Y-72223440D01*
X181591317Y-72179162D01*
X181807441Y-72040090D01*
X181952431Y-71827890D01*
X182003440Y-71576000D01*
X182003440Y-69544000D01*
X181962762Y-69327815D01*
X186289630Y-69327815D01*
X186613980Y-70112800D01*
X187214041Y-70713909D01*
X187998459Y-71039628D01*
X188847815Y-71040370D01*
X189632800Y-70716020D01*
X190233909Y-70115959D01*
X190559628Y-69331541D01*
X190560370Y-68482185D01*
X190236020Y-67697200D01*
X189635959Y-67096091D01*
X188851541Y-66770372D01*
X188002185Y-66769630D01*
X187217200Y-67093980D01*
X186616091Y-67694041D01*
X186290372Y-68478459D01*
X186289630Y-69327815D01*
X181962762Y-69327815D01*
X181959162Y-69308683D01*
X181820090Y-69092559D01*
X181607890Y-68947569D01*
X181356000Y-68896560D01*
X179324000Y-68896560D01*
X179088683Y-68940838D01*
X178872559Y-69079910D01*
X178784287Y-69209100D01*
X178736437Y-69161166D01*
X178129845Y-68909287D01*
X177473037Y-68908714D01*
X176866005Y-69159534D01*
X176401166Y-69623563D01*
X176149287Y-70230155D01*
X176148714Y-70886963D01*
X176399534Y-71493995D01*
X176784000Y-71879132D01*
X176784000Y-83601159D01*
X171058872Y-89326288D01*
X171081338Y-89292665D01*
X171118662Y-89236806D01*
X171196000Y-88848000D01*
X171196000Y-71959203D01*
X171239910Y-72027441D01*
X171452110Y-72172431D01*
X171704000Y-72223440D01*
X171831000Y-72223440D01*
X171831000Y-82790177D01*
X171767665Y-82942705D01*
X171767335Y-83321633D01*
X171912039Y-83671843D01*
X172179747Y-83940020D01*
X172529705Y-84085335D01*
X172908633Y-84085665D01*
X173258843Y-83940961D01*
X173527020Y-83673253D01*
X173672335Y-83323295D01*
X173672665Y-82944367D01*
X173609000Y-82790286D01*
X173609000Y-72223440D01*
X173736000Y-72223440D01*
X173971317Y-72179162D01*
X174187441Y-72040090D01*
X174332431Y-71827890D01*
X174383440Y-71576000D01*
X174383440Y-69544000D01*
X174339162Y-69308683D01*
X174200090Y-69092559D01*
X173987890Y-68947569D01*
X173736000Y-68896560D01*
X171704000Y-68896560D01*
X171468683Y-68940838D01*
X171252559Y-69079910D01*
X171164287Y-69209100D01*
X171116437Y-69161166D01*
X170509845Y-68909287D01*
X169853037Y-68908714D01*
X169246005Y-69159534D01*
X168781166Y-69623563D01*
X168529287Y-70230155D01*
X168528714Y-70886963D01*
X168779534Y-71493995D01*
X169164000Y-71879132D01*
X169164000Y-88427159D01*
X166457160Y-91134000D01*
X161338604Y-91134000D01*
X160956437Y-90751166D01*
X160349845Y-90499287D01*
X159693037Y-90498714D01*
X159086005Y-90749534D01*
X158621166Y-91213563D01*
X158432346Y-91668291D01*
X158245466Y-91216005D01*
X157781437Y-90751166D01*
X157174845Y-90499287D01*
X156518037Y-90498714D01*
X155911005Y-90749534D01*
X155446166Y-91213563D01*
X155194287Y-91820155D01*
X155193714Y-92476963D01*
X155203509Y-92500668D01*
X148971000Y-86268160D01*
X148971000Y-81748440D01*
X149206317Y-81704162D01*
X149422441Y-81565090D01*
X149567431Y-81352890D01*
X149618440Y-81101000D01*
X149618440Y-79816642D01*
X151373184Y-79816642D01*
X151396986Y-80473019D01*
X151602378Y-80968880D01*
X151870893Y-81069502D01*
X152855395Y-80085000D01*
X151870893Y-79100498D01*
X151602378Y-79201120D01*
X151373184Y-79816642D01*
X149618440Y-79816642D01*
X149618440Y-79069000D01*
X149574162Y-78833683D01*
X149435090Y-78617559D01*
X149222890Y-78472569D01*
X148971000Y-78421560D01*
X146939000Y-78421560D01*
X146703683Y-78465838D01*
X146487559Y-78604910D01*
X146354221Y-78800057D01*
X146298880Y-78652378D01*
X145683358Y-78423184D01*
X145026981Y-78446986D01*
X144531120Y-78652378D01*
X144430498Y-78920893D01*
X145415000Y-79905395D01*
X145429143Y-79891253D01*
X145608748Y-80070858D01*
X145594605Y-80085000D01*
X145608748Y-80099143D01*
X145429143Y-80278748D01*
X145415000Y-80264605D01*
X144430498Y-81249107D01*
X144517771Y-81482000D01*
X139319000Y-81482000D01*
X139051665Y-81535176D01*
X140770199Y-79816642D01*
X143753184Y-79816642D01*
X143776986Y-80473019D01*
X143982378Y-80968880D01*
X144250893Y-81069502D01*
X145235395Y-80085000D01*
X144250893Y-79100498D01*
X143982378Y-79201120D01*
X143753184Y-79816642D01*
X140770199Y-79816642D01*
X141790021Y-78796820D01*
X142010262Y-78467207D01*
X142087600Y-78078400D01*
X142087600Y-76402000D01*
X159004000Y-76402000D01*
X159004000Y-83211396D01*
X158700868Y-83514000D01*
X158163604Y-83514000D01*
X157781437Y-83131166D01*
X157174845Y-82879287D01*
X156884874Y-82879034D01*
X156591000Y-82585160D01*
X156591000Y-81748440D01*
X156826317Y-81704162D01*
X157042441Y-81565090D01*
X157187431Y-81352890D01*
X157238440Y-81101000D01*
X157238440Y-79069000D01*
X157194162Y-78833683D01*
X157055090Y-78617559D01*
X156842890Y-78472569D01*
X156591000Y-78421560D01*
X154559000Y-78421560D01*
X154323683Y-78465838D01*
X154107559Y-78604910D01*
X153974221Y-78800057D01*
X153918880Y-78652378D01*
X153303358Y-78423184D01*
X152646981Y-78446986D01*
X152151120Y-78652378D01*
X152050498Y-78920893D01*
X153035000Y-79905395D01*
X153049143Y-79891253D01*
X153228748Y-80070858D01*
X153214605Y-80085000D01*
X153228748Y-80099143D01*
X153049143Y-80278748D01*
X153035000Y-80264605D01*
X152050498Y-81249107D01*
X152151120Y-81517622D01*
X152766642Y-81746816D01*
X153423019Y-81723014D01*
X153918880Y-81517622D01*
X153975419Y-81366746D01*
X154094910Y-81552441D01*
X154307110Y-81697431D01*
X154559000Y-81748440D01*
X154559000Y-83006000D01*
X154609524Y-83260000D01*
X154636338Y-83394807D01*
X154856580Y-83724420D01*
X155234785Y-84102625D01*
X155194287Y-84200155D01*
X155193714Y-84856963D01*
X155444534Y-85463995D01*
X155908563Y-85928834D01*
X156515155Y-86180713D01*
X157171963Y-86181286D01*
X157778995Y-85930466D01*
X158164132Y-85546000D01*
X158701396Y-85546000D01*
X159083563Y-85928834D01*
X159690155Y-86180713D01*
X160346963Y-86181286D01*
X160953995Y-85930466D01*
X161418834Y-85466437D01*
X161670713Y-84859845D01*
X161671286Y-84203037D01*
X161420466Y-83596005D01*
X161036000Y-83210868D01*
X161036000Y-75849130D01*
X161085662Y-75774806D01*
X161163000Y-75386000D01*
X161085662Y-74997194D01*
X161036000Y-74922870D01*
X161036000Y-74244495D01*
X161269371Y-74148068D01*
X161397417Y-74020245D01*
X161417890Y-74040718D01*
X161532447Y-73926161D01*
X161618852Y-74182643D01*
X162192336Y-74392458D01*
X162802460Y-74366839D01*
X163247148Y-74182643D01*
X163333554Y-73926159D01*
X162433000Y-73025605D01*
X162418858Y-73039748D01*
X162239253Y-72860143D01*
X162253395Y-72846000D01*
X162239253Y-72831858D01*
X162418858Y-72652253D01*
X162433000Y-72666395D01*
X162447143Y-72652253D01*
X162626748Y-72831858D01*
X162612605Y-72846000D01*
X163513159Y-73746554D01*
X163769643Y-73660148D01*
X163979458Y-73086664D01*
X163953839Y-72476540D01*
X163939703Y-72442412D01*
X164255384Y-72433928D01*
X164854275Y-72185859D01*
X164983483Y-71893089D01*
X163830000Y-70739605D01*
X163815858Y-70753748D01*
X163636252Y-70574142D01*
X163650395Y-70560000D01*
X164009605Y-70560000D01*
X165163089Y-71713483D01*
X165455859Y-71584275D01*
X165724071Y-70884117D01*
X165703928Y-70134616D01*
X165455859Y-69535725D01*
X165163089Y-69406517D01*
X164009605Y-70560000D01*
X163650395Y-70560000D01*
X162496911Y-69406517D01*
X162204141Y-69535725D01*
X161935929Y-70235883D01*
X161956072Y-70985384D01*
X162096244Y-71323788D01*
X162063540Y-71325161D01*
X161618852Y-71509357D01*
X161532447Y-71765839D01*
X161417890Y-71651282D01*
X161397573Y-71671599D01*
X161271643Y-71545449D01*
X160707670Y-71311267D01*
X160647120Y-71311214D01*
X160647120Y-69310320D01*
X160631426Y-69226911D01*
X162676517Y-69226911D01*
X163830000Y-70380395D01*
X164983483Y-69226911D01*
X164854275Y-68934141D01*
X164154117Y-68665929D01*
X163404616Y-68686072D01*
X162805725Y-68934141D01*
X162676517Y-69226911D01*
X160631426Y-69226911D01*
X160602842Y-69075003D01*
X160463770Y-68858879D01*
X160251570Y-68713889D01*
X159999680Y-68662880D01*
X157500320Y-68662880D01*
X157265003Y-68707158D01*
X157048879Y-68846230D01*
X156903889Y-69058430D01*
X156852880Y-69310320D01*
X156852880Y-71809680D01*
X156897158Y-72044997D01*
X157036230Y-72261121D01*
X157248430Y-72406111D01*
X157500320Y-72457120D01*
X158575280Y-72457120D01*
X158866085Y-72747926D01*
X158865735Y-73149991D01*
X159004000Y-73484618D01*
X159004000Y-74370000D01*
X142087600Y-74370000D01*
X142087600Y-71519024D01*
X142137791Y-71498286D01*
X142612472Y-71024431D01*
X143083641Y-71496422D01*
X143776089Y-71783952D01*
X144525861Y-71784606D01*
X145218811Y-71498286D01*
X145652781Y-71065071D01*
X146083381Y-71496422D01*
X146775829Y-71783952D01*
X147525601Y-71784606D01*
X148218551Y-71498286D01*
X148582349Y-71135122D01*
X148629346Y-71248863D01*
X149299688Y-71920376D01*
X150175981Y-72284245D01*
X151124816Y-72285073D01*
X152001743Y-71922734D01*
X152673256Y-71252392D01*
X153037125Y-70376099D01*
X153037953Y-69427264D01*
X152675614Y-68550337D01*
X152005272Y-67878824D01*
X151128979Y-67514955D01*
X150180144Y-67514127D01*
X149303217Y-67876466D01*
X148631704Y-68546808D01*
X148582716Y-68664785D01*
X148221339Y-68302778D01*
X147528891Y-68015248D01*
X146779119Y-68014594D01*
X146086169Y-68300914D01*
X145652199Y-68734129D01*
X145221599Y-68302778D01*
X144529151Y-68015248D01*
X143779379Y-68014594D01*
X143086429Y-68300914D01*
X142611748Y-68774769D01*
X142140579Y-68302778D01*
X141448131Y-68015248D01*
X140698359Y-68014594D01*
X140005409Y-68300914D01*
X139699156Y-68606634D01*
X139675894Y-68550337D01*
X139005552Y-67878824D01*
X138129259Y-67514955D01*
X137180424Y-67514127D01*
X136303497Y-67876466D01*
X135631984Y-68546808D01*
X135268115Y-69423101D01*
X135267287Y-70371936D01*
X135629626Y-71248863D01*
X136299968Y-71920376D01*
X137176261Y-72284245D01*
X138125096Y-72285073D01*
X139002023Y-71922734D01*
X139673536Y-71252392D01*
X139698647Y-71191918D01*
X140002621Y-71496422D01*
X140055600Y-71518421D01*
X140055600Y-77657559D01*
X132456864Y-85256295D01*
X132457242Y-84823339D01*
X132245010Y-84309697D01*
X131852370Y-83916371D01*
X131339100Y-83703243D01*
X130783339Y-83702758D01*
X130269697Y-83914990D01*
X129876371Y-84307630D01*
X129790051Y-84515512D01*
X129705010Y-84309697D01*
X129312370Y-83916371D01*
X128799100Y-83703243D01*
X128243339Y-83702758D01*
X127729697Y-83914990D01*
X127336371Y-84307630D01*
X127250051Y-84515512D01*
X127165010Y-84309697D01*
X126772370Y-83916371D01*
X126259100Y-83703243D01*
X125703339Y-83702758D01*
X125189697Y-83914990D01*
X124796371Y-84307630D01*
X124710051Y-84515512D01*
X124625010Y-84309697D01*
X124232370Y-83916371D01*
X123719100Y-83703243D01*
X123479875Y-83703034D01*
X121766840Y-81990000D01*
X130893421Y-72863420D01*
X131113662Y-72533807D01*
X131183539Y-72182507D01*
X131241191Y-72158686D01*
X131771822Y-71628979D01*
X132059352Y-70936531D01*
X132060006Y-70186759D01*
X131773686Y-69493809D01*
X131243979Y-68963178D01*
X130551531Y-68675648D01*
X129801759Y-68674994D01*
X129108809Y-68961314D01*
X128578178Y-69491021D01*
X128290648Y-70183469D01*
X128289994Y-70933241D01*
X128576314Y-71626191D01*
X128916344Y-71966815D01*
X119909160Y-80974000D01*
X107664424Y-80974000D01*
X107643686Y-80923809D01*
X107113979Y-80393178D01*
X106421531Y-80105648D01*
X105671759Y-80104994D01*
X104978809Y-80391314D01*
X104448178Y-80921021D01*
X104160648Y-81613469D01*
X104159994Y-82363241D01*
X104446314Y-83056191D01*
X104976021Y-83586822D01*
X105668469Y-83874352D01*
X106418241Y-83875006D01*
X107111191Y-83588686D01*
X107641822Y-83058979D01*
X107663821Y-83006000D01*
X119909160Y-83006000D01*
X122042965Y-85139805D01*
X122042758Y-85376661D01*
X122254990Y-85890303D01*
X122647630Y-86283629D01*
X123160900Y-86496757D01*
X123716661Y-86497242D01*
X124230303Y-86285010D01*
X124623629Y-85892370D01*
X124709949Y-85684488D01*
X124794990Y-85890303D01*
X125187630Y-86283629D01*
X125700900Y-86496757D01*
X126256661Y-86497242D01*
X126770303Y-86285010D01*
X127163629Y-85892370D01*
X127249949Y-85684488D01*
X127334990Y-85890303D01*
X127727630Y-86283629D01*
X128240900Y-86496757D01*
X128796661Y-86497242D01*
X129310303Y-86285010D01*
X129703629Y-85892370D01*
X129789949Y-85684488D01*
X129874990Y-85890303D01*
X130267630Y-86283629D01*
X130780900Y-86496757D01*
X131216023Y-86497137D01*
X128611160Y-89102000D01*
X106680000Y-89102000D01*
X106355700Y-89166507D01*
X106291193Y-89179338D01*
X105961580Y-89399579D01*
X102024580Y-93336580D01*
X101804338Y-93666193D01*
X101804338Y-93666194D01*
X101727000Y-94055000D01*
X99160000Y-94055000D01*
X99160000Y-75660320D01*
X104147880Y-75660320D01*
X104147880Y-78159680D01*
X104192158Y-78394997D01*
X104331230Y-78611121D01*
X104543430Y-78756111D01*
X104795320Y-78807120D01*
X107294680Y-78807120D01*
X107529997Y-78762842D01*
X107746121Y-78623770D01*
X107891111Y-78411570D01*
X107942120Y-78159680D01*
X107942120Y-75660320D01*
X107897842Y-75425003D01*
X107758770Y-75208879D01*
X107546570Y-75063889D01*
X107294680Y-75012880D01*
X104795320Y-75012880D01*
X104560003Y-75057158D01*
X104343879Y-75196230D01*
X104198889Y-75408430D01*
X104147880Y-75660320D01*
X99160000Y-75660320D01*
X99160000Y-69327815D01*
X101289630Y-69327815D01*
X101613980Y-70112800D01*
X102214041Y-70713909D01*
X102998459Y-71039628D01*
X103847815Y-71040370D01*
X104632800Y-70716020D01*
X105233909Y-70115959D01*
X105559628Y-69331541D01*
X105559646Y-69310320D01*
X123197880Y-69310320D01*
X123197880Y-71809680D01*
X123242158Y-72044997D01*
X123381230Y-72261121D01*
X123593430Y-72406111D01*
X123845320Y-72457120D01*
X126344680Y-72457120D01*
X126579997Y-72412842D01*
X126796121Y-72273770D01*
X126941111Y-72061570D01*
X126992120Y-71809680D01*
X126992120Y-69310320D01*
X126947842Y-69075003D01*
X126808770Y-68858879D01*
X126596570Y-68713889D01*
X126344680Y-68662880D01*
X123845320Y-68662880D01*
X123610003Y-68707158D01*
X123393879Y-68846230D01*
X123248889Y-69058430D01*
X123197880Y-69310320D01*
X105559646Y-69310320D01*
X105560370Y-68482185D01*
X105236020Y-67697200D01*
X104635959Y-67096091D01*
X103851541Y-66770372D01*
X103002185Y-66769630D01*
X102217200Y-67093980D01*
X101616091Y-67694041D01*
X101290372Y-68478459D01*
X101289630Y-69327815D01*
X99160000Y-69327815D01*
X99160000Y-68977390D01*
X99497957Y-67278366D01*
X100419371Y-65899371D01*
X101798366Y-64977957D01*
X103335512Y-64672200D01*
X103425000Y-64690000D01*
X188425000Y-64690000D01*
X188514488Y-64672200D01*
X190051634Y-64977957D01*
M02*
