G04 #@! TF.FileFunction,Legend,Bot*
%FSLAX46Y46*%
G04 Gerber Fmt 4.6, Leading zero omitted, Abs format (unit mm)*
G04 Created by KiCad (PCBNEW 4.0.4-stable) date 09/06/17 14:28:44*
%MOMM*%
%LPD*%
G01*
G04 APERTURE LIST*
%ADD10C,0.100000*%
%ADD11C,0.088900*%
G04 APERTURE END LIST*
D10*
D11*
X-3215952Y1220238D02*
X-5755952Y1220238D01*
X-5755952Y2187857D01*
X-5635000Y2429762D01*
X-5514048Y2550714D01*
X-5272143Y2671666D01*
X-4909286Y2671666D01*
X-4667381Y2550714D01*
X-4546429Y2429762D01*
X-4425476Y2187857D01*
X-4425476Y1220238D01*
X-3457857Y5211666D02*
X-3336905Y5090714D01*
X-3215952Y4727857D01*
X-3215952Y4485952D01*
X-3336905Y4123095D01*
X-3578810Y3881190D01*
X-3820714Y3760238D01*
X-4304524Y3639286D01*
X-4667381Y3639286D01*
X-5151190Y3760238D01*
X-5393095Y3881190D01*
X-5635000Y4123095D01*
X-5755952Y4485952D01*
X-5755952Y4727857D01*
X-5635000Y5090714D01*
X-5514048Y5211666D01*
X-4546429Y7146905D02*
X-4425476Y7509762D01*
X-4304524Y7630714D01*
X-4062619Y7751666D01*
X-3699762Y7751666D01*
X-3457857Y7630714D01*
X-3336905Y7509762D01*
X-3215952Y7267857D01*
X-3215952Y6300238D01*
X-5755952Y6300238D01*
X-5755952Y7146905D01*
X-5635000Y7388809D01*
X-5514048Y7509762D01*
X-5272143Y7630714D01*
X-5030238Y7630714D01*
X-4788333Y7509762D01*
X-4667381Y7388809D01*
X-4546429Y7146905D01*
X-4546429Y6300238D01*
X-3215952Y10170714D02*
X-3215952Y8719286D01*
X-3215952Y9445000D02*
X-5755952Y9445000D01*
X-5393095Y9203095D01*
X-5151190Y8961190D01*
X-5030238Y8719286D01*
X-7570238Y14485952D02*
X-7570238Y17025952D01*
X-6602619Y17025952D01*
X-6360714Y16905000D01*
X-6239762Y16784048D01*
X-6118810Y16542143D01*
X-6118810Y16179286D01*
X-6239762Y15937381D01*
X-6360714Y15816429D01*
X-6602619Y15695476D01*
X-7570238Y15695476D01*
X-3578810Y14727857D02*
X-3699762Y14606905D01*
X-4062619Y14485952D01*
X-4304524Y14485952D01*
X-4667381Y14606905D01*
X-4909286Y14848810D01*
X-5030238Y15090714D01*
X-5151190Y15574524D01*
X-5151190Y15937381D01*
X-5030238Y16421190D01*
X-4909286Y16663095D01*
X-4667381Y16905000D01*
X-4304524Y17025952D01*
X-4062619Y17025952D01*
X-3699762Y16905000D01*
X-3578810Y16784048D01*
X-1643571Y15816429D02*
X-1280714Y15695476D01*
X-1159762Y15574524D01*
X-1038810Y15332619D01*
X-1038810Y14969762D01*
X-1159762Y14727857D01*
X-1280714Y14606905D01*
X-1522619Y14485952D01*
X-2490238Y14485952D01*
X-2490238Y17025952D01*
X-1643571Y17025952D01*
X-1401667Y16905000D01*
X-1280714Y16784048D01*
X-1159762Y16542143D01*
X-1159762Y16300238D01*
X-1280714Y16058333D01*
X-1401667Y15937381D01*
X-1643571Y15816429D01*
X-2490238Y15816429D01*
M02*
