G04 #@! TF.FileFunction,Copper,L2,Bot,Signal*
%FSLAX46Y46*%
G04 Gerber Fmt 4.6, Leading zero omitted, Abs format (unit mm)*
G04 Created by KiCad (PCBNEW 4.0.5) date 12/24/17 12:48:09*
%MOMM*%
%LPD*%
G01*
G04 APERTURE LIST*
%ADD10C,0.100000*%
%ADD11C,0.600000*%
%ADD12C,2.032000*%
%ADD13R,2.032000X2.032000*%
%ADD14R,2.499360X2.499360*%
%ADD15C,2.499360*%
%ADD16R,2.000000X3.000000*%
%ADD17O,2.000000X3.000000*%
%ADD18C,1.800000*%
%ADD19C,2.000000*%
%ADD20O,1.200000X3.000000*%
%ADD21C,3.000000*%
%ADD22R,3.000000X3.000000*%
%ADD23C,1.524000*%
%ADD24C,1.501140*%
%ADD25C,2.999740*%
%ADD26C,0.635000*%
%ADD27C,0.762000*%
%ADD28C,0.508000*%
%ADD29C,0.254000*%
G04 APERTURE END LIST*
D10*
D11*
X66260000Y4992857D02*
X67974285Y4992857D01*
X67117143Y4992857D02*
X67117143Y7992857D01*
X67402857Y7564286D01*
X67688571Y7278571D01*
X67974285Y7135714D01*
X65117142Y7707143D02*
X64974285Y7850000D01*
X64688571Y7992857D01*
X63974285Y7992857D01*
X63688571Y7850000D01*
X63545714Y7707143D01*
X63402857Y7421429D01*
X63402857Y7135714D01*
X63545714Y6707143D01*
X65260000Y4992857D01*
X63402857Y4992857D01*
X59974285Y8135714D02*
X62545714Y4278571D01*
X57688571Y7992857D02*
X58260000Y7992857D01*
X58545714Y7850000D01*
X58688571Y7707143D01*
X58974285Y7278571D01*
X59117142Y6707143D01*
X59117142Y5564286D01*
X58974285Y5278571D01*
X58831428Y5135714D01*
X58545714Y4992857D01*
X57974285Y4992857D01*
X57688571Y5135714D01*
X57545714Y5278571D01*
X57402857Y5564286D01*
X57402857Y6278571D01*
X57545714Y6564286D01*
X57688571Y6707143D01*
X57974285Y6850000D01*
X58545714Y6850000D01*
X58831428Y6707143D01*
X58974285Y6564286D01*
X59117142Y6278571D01*
X53974285Y8135714D02*
X56545714Y4278571D01*
X53117142Y7707143D02*
X52974285Y7850000D01*
X52688571Y7992857D01*
X51974285Y7992857D01*
X51688571Y7850000D01*
X51545714Y7707143D01*
X51402857Y7421429D01*
X51402857Y7135714D01*
X51545714Y6707143D01*
X53260000Y4992857D01*
X51402857Y4992857D01*
X49545714Y7992857D02*
X49259999Y7992857D01*
X48974285Y7850000D01*
X48831428Y7707143D01*
X48688571Y7421429D01*
X48545714Y6850000D01*
X48545714Y6135714D01*
X48688571Y5564286D01*
X48831428Y5278571D01*
X48974285Y5135714D01*
X49259999Y4992857D01*
X49545714Y4992857D01*
X49831428Y5135714D01*
X49974285Y5278571D01*
X50117142Y5564286D01*
X50259999Y6135714D01*
X50259999Y6850000D01*
X50117142Y7421429D01*
X49974285Y7707143D01*
X49831428Y7850000D01*
X49545714Y7992857D01*
X45688571Y4992857D02*
X47402856Y4992857D01*
X46545714Y4992857D02*
X46545714Y7992857D01*
X46831428Y7564286D01*
X47117142Y7278571D01*
X47402856Y7135714D01*
X44688571Y7992857D02*
X42688571Y7992857D01*
X43974285Y4992857D01*
X37402857Y7992857D02*
X36402857Y4992857D01*
X35402857Y7992857D01*
X32831428Y4992857D02*
X34545713Y4992857D01*
X33688571Y4992857D02*
X33688571Y7992857D01*
X33974285Y7564286D01*
X34259999Y7278571D01*
X34545713Y7135714D01*
X31545713Y5278571D02*
X31402856Y5135714D01*
X31545713Y4992857D01*
X31688570Y5135714D01*
X31545713Y5278571D01*
X31545713Y4992857D01*
X30259999Y7707143D02*
X30117142Y7850000D01*
X29831428Y7992857D01*
X29117142Y7992857D01*
X28831428Y7850000D01*
X28688571Y7707143D01*
X28545714Y7421429D01*
X28545714Y7135714D01*
X28688571Y6707143D01*
X30402857Y4992857D01*
X28545714Y4992857D01*
X70545714Y10072857D02*
X70545714Y13072857D01*
X69831429Y13072857D01*
X69402857Y12930000D01*
X69117143Y12644286D01*
X68974286Y12358571D01*
X68831429Y11787143D01*
X68831429Y11358571D01*
X68974286Y10787143D01*
X69117143Y10501429D01*
X69402857Y10215714D01*
X69831429Y10072857D01*
X70545714Y10072857D01*
X67545714Y10072857D02*
X67545714Y13072857D01*
X65545715Y11501429D02*
X65545715Y10072857D01*
X66545715Y13072857D02*
X65545715Y11501429D01*
X64545715Y13072857D01*
X61402857Y10215714D02*
X60974286Y10072857D01*
X60260000Y10072857D01*
X59974286Y10215714D01*
X59831429Y10358571D01*
X59688572Y10644286D01*
X59688572Y10930000D01*
X59831429Y11215714D01*
X59974286Y11358571D01*
X60260000Y11501429D01*
X60831429Y11644286D01*
X61117143Y11787143D01*
X61260000Y11930000D01*
X61402857Y12215714D01*
X61402857Y12501429D01*
X61260000Y12787143D01*
X61117143Y12930000D01*
X60831429Y13072857D01*
X60117143Y13072857D01*
X59688572Y12930000D01*
X57831429Y13072857D02*
X57260000Y13072857D01*
X56974286Y12930000D01*
X56688572Y12644286D01*
X56545714Y12072857D01*
X56545714Y11072857D01*
X56688572Y10501429D01*
X56974286Y10215714D01*
X57260000Y10072857D01*
X57831429Y10072857D01*
X58117143Y10215714D01*
X58402857Y10501429D01*
X58545714Y11072857D01*
X58545714Y12072857D01*
X58402857Y12644286D01*
X58117143Y12930000D01*
X57831429Y13072857D01*
X53831429Y10072857D02*
X55260000Y10072857D01*
X55260000Y13072857D01*
X52974286Y10930000D02*
X51545715Y10930000D01*
X53260001Y10072857D02*
X52260001Y13072857D01*
X51260001Y10072857D01*
X48545715Y10072857D02*
X49545715Y11501429D01*
X50260000Y10072857D02*
X50260000Y13072857D01*
X49117143Y13072857D01*
X48831429Y12930000D01*
X48688572Y12787143D01*
X48545715Y12501429D01*
X48545715Y12072857D01*
X48688572Y11787143D01*
X48831429Y11644286D01*
X49117143Y11501429D01*
X50260000Y11501429D01*
X43260001Y10358571D02*
X43402858Y10215714D01*
X43831429Y10072857D01*
X44117143Y10072857D01*
X44545715Y10215714D01*
X44831429Y10501429D01*
X44974286Y10787143D01*
X45117143Y11358571D01*
X45117143Y11787143D01*
X44974286Y12358571D01*
X44831429Y12644286D01*
X44545715Y12930000D01*
X44117143Y13072857D01*
X43831429Y13072857D01*
X43402858Y12930000D01*
X43260001Y12787143D01*
X41974286Y10072857D02*
X41974286Y13072857D01*
X41974286Y11644286D02*
X40260001Y11644286D01*
X40260001Y10072857D02*
X40260001Y13072857D01*
X38974286Y10930000D02*
X37545715Y10930000D01*
X39260001Y10072857D02*
X38260001Y13072857D01*
X37260001Y10072857D01*
X34545715Y10072857D02*
X35545715Y11501429D01*
X36260000Y10072857D02*
X36260000Y13072857D01*
X35117143Y13072857D01*
X34831429Y12930000D01*
X34688572Y12787143D01*
X34545715Y12501429D01*
X34545715Y12072857D01*
X34688572Y11787143D01*
X34831429Y11644286D01*
X35117143Y11501429D01*
X36260000Y11501429D01*
X31688572Y12930000D02*
X31974286Y13072857D01*
X32402857Y13072857D01*
X32831429Y12930000D01*
X33117143Y12644286D01*
X33260000Y12358571D01*
X33402857Y11787143D01*
X33402857Y11358571D01*
X33260000Y10787143D01*
X33117143Y10501429D01*
X32831429Y10215714D01*
X32402857Y10072857D01*
X32117143Y10072857D01*
X31688572Y10215714D01*
X31545715Y10358571D01*
X31545715Y11358571D01*
X32117143Y11358571D01*
X30260000Y11644286D02*
X29260000Y11644286D01*
X28831429Y10072857D02*
X30260000Y10072857D01*
X30260000Y13072857D01*
X28831429Y13072857D01*
X25831429Y10072857D02*
X26831429Y11501429D01*
X27545714Y10072857D02*
X27545714Y13072857D01*
X26402857Y13072857D01*
X26117143Y12930000D01*
X25974286Y12787143D01*
X25831429Y12501429D01*
X25831429Y12072857D01*
X25974286Y11787143D01*
X26117143Y11644286D01*
X26402857Y11501429D01*
X27545714Y11501429D01*
X70180715Y15295714D02*
X70466429Y15152857D01*
X71037858Y15152857D01*
X71323572Y15295714D01*
X71466429Y15438571D01*
X71609286Y15724286D01*
X71609286Y16581429D01*
X71466429Y16867143D01*
X71323572Y17010000D01*
X71037858Y17152857D01*
X70466429Y17152857D01*
X70180715Y17010000D01*
X67609286Y17152857D02*
X67609286Y15152857D01*
X68895000Y17152857D02*
X68895000Y15581429D01*
X68752143Y15295714D01*
X68466429Y15152857D01*
X68037857Y15152857D01*
X67752143Y15295714D01*
X67609286Y15438571D01*
X66180714Y15152857D02*
X66180714Y17152857D01*
X66180714Y16581429D02*
X66037857Y16867143D01*
X65895000Y17010000D01*
X65609286Y17152857D01*
X65323571Y17152857D01*
X64323571Y15152857D02*
X64323571Y17152857D01*
X64323571Y18152857D02*
X64466428Y18010000D01*
X64323571Y17867143D01*
X64180714Y18010000D01*
X64323571Y18152857D01*
X64323571Y17867143D01*
X62466429Y15152857D02*
X62752143Y15295714D01*
X62895000Y15438571D01*
X63037857Y15724286D01*
X63037857Y16581429D01*
X62895000Y16867143D01*
X62752143Y17010000D01*
X62466429Y17152857D01*
X62037857Y17152857D01*
X61752143Y17010000D01*
X61609286Y16867143D01*
X61466429Y16581429D01*
X61466429Y15724286D01*
X61609286Y15438571D01*
X61752143Y15295714D01*
X62037857Y15152857D01*
X62466429Y15152857D01*
X58895000Y17152857D02*
X58895000Y15152857D01*
X60180714Y17152857D02*
X60180714Y15581429D01*
X60037857Y15295714D01*
X59752143Y15152857D01*
X59323571Y15152857D01*
X59037857Y15295714D01*
X58895000Y15438571D01*
X57609285Y15295714D02*
X57323571Y15152857D01*
X56752143Y15152857D01*
X56466428Y15295714D01*
X56323571Y15581429D01*
X56323571Y15724286D01*
X56466428Y16010000D01*
X56752143Y16152857D01*
X57180714Y16152857D01*
X57466428Y16295714D01*
X57609285Y16581429D01*
X57609285Y16724286D01*
X57466428Y17010000D01*
X57180714Y17152857D01*
X56752143Y17152857D01*
X56466428Y17010000D01*
X53895000Y15295714D02*
X54180714Y15152857D01*
X54752143Y15152857D01*
X55037857Y15295714D01*
X55180714Y15581429D01*
X55180714Y16724286D01*
X55037857Y17010000D01*
X54752143Y17152857D01*
X54180714Y17152857D01*
X53895000Y17010000D01*
X53752143Y16724286D01*
X53752143Y16438571D01*
X55180714Y16152857D01*
X52037857Y15152857D02*
X52323571Y15295714D01*
X52466428Y15581429D01*
X52466428Y18152857D01*
X49752142Y15295714D02*
X50037856Y15152857D01*
X50609285Y15152857D01*
X50894999Y15295714D01*
X51037856Y15581429D01*
X51037856Y16724286D01*
X50894999Y17010000D01*
X50609285Y17152857D01*
X50037856Y17152857D01*
X49752142Y17010000D01*
X49609285Y16724286D01*
X49609285Y16438571D01*
X51037856Y16152857D01*
X47037856Y15295714D02*
X47323570Y15152857D01*
X47894999Y15152857D01*
X48180713Y15295714D01*
X48323570Y15438571D01*
X48466427Y15724286D01*
X48466427Y16581429D01*
X48323570Y16867143D01*
X48180713Y17010000D01*
X47894999Y17152857D01*
X47323570Y17152857D01*
X47037856Y17010000D01*
X46180713Y17152857D02*
X45037856Y17152857D01*
X45752141Y18152857D02*
X45752141Y15581429D01*
X45609284Y15295714D01*
X45323570Y15152857D01*
X45037856Y15152857D01*
X44037855Y15152857D02*
X44037855Y17152857D01*
X44037855Y16581429D02*
X43894998Y16867143D01*
X43752141Y17010000D01*
X43466427Y17152857D01*
X43180712Y17152857D01*
X42180712Y15152857D02*
X42180712Y17152857D01*
X42180712Y18152857D02*
X42323569Y18010000D01*
X42180712Y17867143D01*
X42037855Y18010000D01*
X42180712Y18152857D01*
X42180712Y17867143D01*
X39466427Y15295714D02*
X39752141Y15152857D01*
X40323570Y15152857D01*
X40609284Y15295714D01*
X40752141Y15438571D01*
X40894998Y15724286D01*
X40894998Y16581429D01*
X40752141Y16867143D01*
X40609284Y17010000D01*
X40323570Y17152857D01*
X39752141Y17152857D01*
X39466427Y17010000D01*
X38180712Y15438571D02*
X38037855Y15295714D01*
X38180712Y15152857D01*
X38323569Y15295714D01*
X38180712Y15438571D01*
X38180712Y15152857D01*
X35466427Y15295714D02*
X35752141Y15152857D01*
X36323570Y15152857D01*
X36609284Y15295714D01*
X36752141Y15438571D01*
X36894998Y15724286D01*
X36894998Y16581429D01*
X36752141Y16867143D01*
X36609284Y17010000D01*
X36323570Y17152857D01*
X35752141Y17152857D01*
X35466427Y17010000D01*
X33752141Y15152857D02*
X34037855Y15295714D01*
X34180712Y15438571D01*
X34323569Y15724286D01*
X34323569Y16581429D01*
X34180712Y16867143D01*
X34037855Y17010000D01*
X33752141Y17152857D01*
X33323569Y17152857D01*
X33037855Y17010000D01*
X32894998Y16867143D01*
X32752141Y16581429D01*
X32752141Y15724286D01*
X32894998Y15438571D01*
X33037855Y15295714D01*
X33323569Y15152857D01*
X33752141Y15152857D01*
X31466426Y15438571D02*
X31323569Y15295714D01*
X31466426Y15152857D01*
X31609283Y15295714D01*
X31466426Y15438571D01*
X31466426Y15152857D01*
X28752141Y17152857D02*
X28752141Y15152857D01*
X30037855Y17152857D02*
X30037855Y15581429D01*
X29894998Y15295714D01*
X29609284Y15152857D01*
X29180712Y15152857D01*
X28894998Y15295714D01*
X28752141Y15438571D01*
X27323569Y15152857D02*
X27323569Y18152857D01*
X27037855Y16295714D02*
X26180712Y15152857D01*
X26180712Y17152857D02*
X27323569Y16010000D01*
X64895001Y21026429D02*
X65037859Y21169286D01*
X65323573Y21312143D01*
X65609287Y21312143D01*
X65895001Y21169286D01*
X66037859Y21026429D01*
X66180716Y20740714D01*
X66180716Y20455000D01*
X66037859Y20169286D01*
X65895001Y20026429D01*
X65609287Y19883571D01*
X65323573Y19883571D01*
X65037859Y20026429D01*
X64895001Y20169286D01*
X64895001Y21312143D02*
X64895001Y20169286D01*
X64752144Y20026429D01*
X64609287Y20026429D01*
X64323573Y20169286D01*
X64180716Y20455000D01*
X64180716Y21169286D01*
X64466430Y21597857D01*
X64895001Y21883571D01*
X65466430Y22026429D01*
X66037859Y21883571D01*
X66466430Y21597857D01*
X66752144Y21169286D01*
X66895001Y20597857D01*
X66752144Y20026429D01*
X66466430Y19597857D01*
X66037859Y19312143D01*
X65466430Y19169286D01*
X64895001Y19312143D01*
X64466430Y19597857D01*
X61609287Y19740714D02*
X61895001Y19597857D01*
X62466430Y19597857D01*
X62752144Y19740714D01*
X62895001Y19883571D01*
X63037858Y20169286D01*
X63037858Y21026429D01*
X62895001Y21312143D01*
X62752144Y21455000D01*
X62466430Y21597857D01*
X61895001Y21597857D01*
X61609287Y21455000D01*
X59037858Y21597857D02*
X59037858Y19597857D01*
X60323572Y21597857D02*
X60323572Y20026429D01*
X60180715Y19740714D01*
X59895001Y19597857D01*
X59466429Y19597857D01*
X59180715Y19740714D01*
X59037858Y19883571D01*
X57609286Y19597857D02*
X57609286Y21597857D01*
X57609286Y21026429D02*
X57466429Y21312143D01*
X57323572Y21455000D01*
X57037858Y21597857D01*
X56752143Y21597857D01*
X55752143Y19597857D02*
X55752143Y21597857D01*
X55752143Y22597857D02*
X55895000Y22455000D01*
X55752143Y22312143D01*
X55609286Y22455000D01*
X55752143Y22597857D01*
X55752143Y22312143D01*
X53895001Y19597857D02*
X54180715Y19740714D01*
X54323572Y19883571D01*
X54466429Y20169286D01*
X54466429Y21026429D01*
X54323572Y21312143D01*
X54180715Y21455000D01*
X53895001Y21597857D01*
X53466429Y21597857D01*
X53180715Y21455000D01*
X53037858Y21312143D01*
X52895001Y21026429D01*
X52895001Y20169286D01*
X53037858Y19883571D01*
X53180715Y19740714D01*
X53466429Y19597857D01*
X53895001Y19597857D01*
X50323572Y21597857D02*
X50323572Y19597857D01*
X51609286Y21597857D02*
X51609286Y20026429D01*
X51466429Y19740714D01*
X51180715Y19597857D01*
X50752143Y19597857D01*
X50466429Y19740714D01*
X50323572Y19883571D01*
X49037857Y19740714D02*
X48752143Y19597857D01*
X48180715Y19597857D01*
X47895000Y19740714D01*
X47752143Y20026429D01*
X47752143Y20169286D01*
X47895000Y20455000D01*
X48180715Y20597857D01*
X48609286Y20597857D01*
X48895000Y20740714D01*
X49037857Y21026429D01*
X49037857Y21169286D01*
X48895000Y21455000D01*
X48609286Y21597857D01*
X48180715Y21597857D01*
X47895000Y21455000D01*
X45323572Y19740714D02*
X45609286Y19597857D01*
X46180715Y19597857D01*
X46466429Y19740714D01*
X46609286Y20026429D01*
X46609286Y21169286D01*
X46466429Y21455000D01*
X46180715Y21597857D01*
X45609286Y21597857D01*
X45323572Y21455000D01*
X45180715Y21169286D01*
X45180715Y20883571D01*
X46609286Y20597857D01*
X43466429Y19597857D02*
X43752143Y19740714D01*
X43895000Y20026429D01*
X43895000Y22597857D01*
X41180714Y19740714D02*
X41466428Y19597857D01*
X42037857Y19597857D01*
X42323571Y19740714D01*
X42466428Y20026429D01*
X42466428Y21169286D01*
X42323571Y21455000D01*
X42037857Y21597857D01*
X41466428Y21597857D01*
X41180714Y21455000D01*
X41037857Y21169286D01*
X41037857Y20883571D01*
X42466428Y20597857D01*
X38466428Y19740714D02*
X38752142Y19597857D01*
X39323571Y19597857D01*
X39609285Y19740714D01*
X39752142Y19883571D01*
X39894999Y20169286D01*
X39894999Y21026429D01*
X39752142Y21312143D01*
X39609285Y21455000D01*
X39323571Y21597857D01*
X38752142Y21597857D01*
X38466428Y21455000D01*
X37609285Y21597857D02*
X36466428Y21597857D01*
X37180713Y22597857D02*
X37180713Y20026429D01*
X37037856Y19740714D01*
X36752142Y19597857D01*
X36466428Y19597857D01*
X35466427Y19597857D02*
X35466427Y21597857D01*
X35466427Y21026429D02*
X35323570Y21312143D01*
X35180713Y21455000D01*
X34894999Y21597857D01*
X34609284Y21597857D01*
X33609284Y19597857D02*
X33609284Y21597857D01*
X33609284Y22597857D02*
X33752141Y22455000D01*
X33609284Y22312143D01*
X33466427Y22455000D01*
X33609284Y22597857D01*
X33609284Y22312143D01*
X30894999Y19740714D02*
X31180713Y19597857D01*
X31752142Y19597857D01*
X32037856Y19740714D01*
X32180713Y19883571D01*
X32323570Y20169286D01*
X32323570Y21026429D01*
X32180713Y21312143D01*
X32037856Y21455000D01*
X31752142Y21597857D01*
X31180713Y21597857D01*
X30894999Y21455000D01*
D12*
X43180000Y45010000D03*
X43180000Y37390000D03*
X46355000Y37390000D03*
X46355000Y45010000D03*
X59055000Y45010000D03*
X59055000Y37390000D03*
X62230000Y45010000D03*
X62230000Y37390000D03*
D13*
X50165000Y49455000D03*
D12*
X47625000Y49455000D03*
D13*
X57785000Y49455000D03*
D12*
X55245000Y49455000D03*
D14*
X8890000Y46990000D03*
D15*
X8890000Y52070000D03*
D16*
X11890000Y12905000D03*
D17*
X83890000Y12905000D03*
D14*
X60960000Y58980000D03*
D15*
X66040000Y58980000D03*
D18*
X62611000Y56694000D03*
X64643000Y56694000D03*
D12*
X80010000Y58980000D03*
D13*
X82550000Y58980000D03*
D12*
X72390000Y58980000D03*
D13*
X74930000Y58980000D03*
D14*
X87630000Y52630000D03*
D15*
X87630000Y47550000D03*
D18*
X85344000Y50979000D03*
X85344000Y48947000D03*
D14*
X8255000Y28500000D03*
D15*
X8255000Y33580000D03*
D18*
X10541000Y30151000D03*
X10541000Y32183000D03*
D14*
X87630000Y33580000D03*
D15*
X87630000Y28500000D03*
D18*
X85344000Y31929000D03*
X85344000Y29897000D03*
D19*
X46362620Y59640400D03*
X43355000Y59615000D03*
X49355000Y59615000D03*
D20*
X40055000Y59615000D03*
X52655000Y59615000D03*
D21*
X35155000Y31570000D03*
D22*
X22755000Y31570000D03*
X22320000Y27190000D03*
D21*
X36820000Y27190000D03*
D23*
X25650000Y44440000D03*
X28190000Y44440000D03*
X30730000Y44440000D03*
X33270000Y44440000D03*
D24*
X25272140Y53337880D03*
X27812140Y53337880D03*
X29844140Y53337880D03*
X32384140Y53337880D03*
D25*
X22224140Y56004880D03*
X35940140Y56004880D03*
D19*
X15355000Y27155000D03*
X15355000Y35155000D03*
X80355000Y27155000D03*
X80355000Y35155000D03*
D26*
X74930000Y46407000D03*
X48006000Y39295000D03*
X82550000Y49709000D03*
D27*
X62230000Y54229000D02*
X43356600Y54229000D01*
X43356600Y54229000D02*
X43281600Y54154000D01*
X11890000Y12905000D02*
X9320000Y12905000D01*
X19431000Y39422000D02*
X31242000Y39422000D01*
X31242000Y39422000D02*
X43281600Y51461600D01*
X43281600Y51461600D02*
X43281600Y54154000D01*
X8890000Y39422000D02*
X4953000Y35485000D01*
X4953000Y35485000D02*
X4953000Y17272000D01*
X19431000Y39422000D02*
X8890000Y39422000D01*
X9320000Y12905000D02*
X4953000Y17272000D01*
X43281600Y54154000D02*
X43281600Y59640400D01*
X62230000Y45010000D02*
X62230000Y54229000D01*
X62230000Y54229000D02*
X62230000Y54154000D01*
X62230000Y54154000D02*
X62230000Y56313000D01*
X62230000Y56313000D02*
X62611000Y56694000D01*
X59055000Y45010000D02*
X59055000Y45264000D01*
X59055000Y45264000D02*
X57785000Y46534000D01*
X57785000Y46534000D02*
X57785000Y49455000D01*
X62230000Y45010000D02*
X59055000Y45010000D01*
X87630000Y52630000D02*
X86995000Y52630000D01*
X86995000Y52630000D02*
X85344000Y50979000D01*
X60960000Y58980000D02*
X60960000Y58345000D01*
X60960000Y58345000D02*
X62611000Y56694000D01*
X22755000Y31570000D02*
X26469000Y31570000D01*
X30849000Y27190000D02*
X36820000Y27190000D01*
X26469000Y31570000D02*
X30849000Y27190000D01*
X15355000Y30353000D02*
X18161000Y30353000D01*
X19378000Y31570000D02*
X22755000Y31570000D01*
X18161000Y30353000D02*
X19378000Y31570000D01*
X83820000Y28500000D02*
X83820000Y12975000D01*
X83820000Y12975000D02*
X83890000Y12905000D01*
X80355000Y27155000D02*
X81700000Y28500000D01*
X10541000Y32183000D02*
X13589000Y32183000D01*
X15355000Y30417000D02*
X15355000Y30353000D01*
X15355000Y30353000D02*
X15355000Y27155000D01*
X13589000Y32183000D02*
X15355000Y30417000D01*
X8255000Y33580000D02*
X9144000Y33580000D01*
X9144000Y33580000D02*
X10541000Y32183000D01*
X47625000Y49455000D02*
X47625000Y50598000D01*
X55245000Y50598000D02*
X55245000Y49455000D01*
X53975000Y51868000D02*
X55245000Y50598000D01*
X48895000Y51868000D02*
X53975000Y51868000D01*
X47625000Y50598000D02*
X48895000Y51868000D01*
X87630000Y47550000D02*
X90932000Y47550000D01*
X90932000Y47550000D02*
X91059000Y47550000D01*
X91059000Y47550000D02*
X90932000Y47550000D01*
X66040000Y58980000D02*
X66040000Y61647000D01*
X66040000Y61647000D02*
X67564000Y63171000D01*
X67564000Y63171000D02*
X82042000Y63171000D01*
X82042000Y63171000D02*
X90932000Y54281000D01*
X90932000Y54281000D02*
X90932000Y47550000D01*
X90932000Y47550000D02*
X90932000Y45645000D01*
X90932000Y30278000D02*
X90932000Y45645000D01*
X89154000Y28500000D02*
X90932000Y30278000D01*
X87630000Y28500000D02*
X89154000Y28500000D01*
X87630000Y28500000D02*
X83820000Y28500000D01*
X83820000Y28500000D02*
X83693000Y28500000D01*
X83693000Y28500000D02*
X81700000Y28500000D01*
X81700000Y28500000D02*
X80355000Y27155000D01*
X87630000Y47550000D02*
X86741000Y47550000D01*
X86741000Y47550000D02*
X85344000Y48947000D01*
X66040000Y58980000D02*
X66040000Y58091000D01*
X66040000Y58091000D02*
X64643000Y56694000D01*
X8255000Y28500000D02*
X9779000Y28500000D01*
X9779000Y28500000D02*
X10541000Y29262000D01*
X10541000Y29262000D02*
X10541000Y30151000D01*
X80355000Y35155000D02*
X71933000Y35155000D01*
X50165000Y42851000D02*
X50165000Y49455000D01*
X59436000Y33580000D02*
X50165000Y42851000D01*
X70358000Y33580000D02*
X59436000Y33580000D01*
X71933000Y35155000D02*
X70358000Y33580000D01*
X15355000Y35155000D02*
X32309000Y35155000D01*
X50165000Y47423000D02*
X50165000Y49455000D01*
X49784000Y47042000D02*
X50165000Y47423000D01*
X41529000Y47042000D02*
X49784000Y47042000D01*
X40005000Y45518000D02*
X41529000Y47042000D01*
X40005000Y42851000D02*
X40005000Y45518000D01*
X32309000Y35155000D02*
X40005000Y42851000D01*
X87630000Y33580000D02*
X81930000Y33580000D01*
X81930000Y33580000D02*
X80355000Y35155000D01*
X59055000Y37390000D02*
X59055000Y36374000D01*
X59055000Y36374000D02*
X60452000Y34977000D01*
X60452000Y34977000D02*
X69469000Y34977000D01*
X69469000Y34977000D02*
X80010000Y45518000D01*
X80010000Y45518000D02*
X80010000Y58980000D01*
X62230000Y37390000D02*
X69088000Y37390000D01*
X72390000Y40692000D02*
X72390000Y58980000D01*
X69088000Y37390000D02*
X72390000Y40692000D01*
D28*
X74930000Y58980000D02*
X74930000Y46407000D01*
X46355000Y40946000D02*
X48006000Y39295000D01*
X46355000Y40946000D02*
X46355000Y45010000D01*
X82550000Y58980000D02*
X82550000Y49709000D01*
D27*
X8890000Y46990000D02*
X32385000Y46990000D01*
X33270000Y46105000D02*
X33270000Y44440000D01*
X32385000Y46990000D02*
X33270000Y46105000D01*
X22285000Y27155000D02*
X22320000Y27190000D01*
D29*
G36*
X92261634Y64562043D02*
X93640629Y63640629D01*
X94562043Y62261634D01*
X94900000Y60562610D01*
X94900000Y5707390D01*
X94562043Y4008366D01*
X93640629Y2629371D01*
X92261634Y1707957D01*
X90724488Y1402200D01*
X90635000Y1420000D01*
X5635000Y1420000D01*
X5545512Y1402200D01*
X4008366Y1707957D01*
X2629371Y2629371D01*
X1707957Y4008366D01*
X1468503Y5212185D01*
X3499630Y5212185D01*
X3823980Y4427200D01*
X4424041Y3826091D01*
X5208459Y3500372D01*
X6057815Y3499630D01*
X6842800Y3823980D01*
X7443909Y4424041D01*
X7769628Y5208459D01*
X7770370Y6057815D01*
X7446020Y6842800D01*
X6845959Y7443909D01*
X6061541Y7769628D01*
X5212185Y7770370D01*
X4427200Y7446020D01*
X3826091Y6845959D01*
X3500372Y6061541D01*
X3499630Y5212185D01*
X1468503Y5212185D01*
X1370000Y5707390D01*
X1370000Y35485000D01*
X3937000Y35485000D01*
X3937000Y17272000D01*
X4001507Y16947700D01*
X4014338Y16883193D01*
X4234580Y16553580D01*
X8601580Y12186579D01*
X8931193Y11966338D01*
X9320000Y11889000D01*
X10242560Y11889000D01*
X10242560Y11405000D01*
X10286838Y11169683D01*
X10425910Y10953559D01*
X10638110Y10808569D01*
X10890000Y10757560D01*
X12890000Y10757560D01*
X13125317Y10801838D01*
X13341441Y10940910D01*
X13486431Y11153110D01*
X13537440Y11405000D01*
X13537440Y12531695D01*
X18504674Y12531695D01*
X18791043Y11838628D01*
X19320839Y11307907D01*
X20013405Y11020328D01*
X20763305Y11019674D01*
X21456372Y11306043D01*
X21987093Y11835839D01*
X22274672Y12528405D01*
X22275326Y13278305D01*
X21988957Y13971372D01*
X21496190Y14465000D01*
X24625000Y14465000D01*
X24625000Y8095000D01*
X27339286Y8095000D01*
X27339286Y3015000D01*
X69180715Y3015000D01*
X69180715Y5212185D01*
X88499630Y5212185D01*
X88823980Y4427200D01*
X89424041Y3826091D01*
X90208459Y3500372D01*
X91057815Y3499630D01*
X91842800Y3823980D01*
X92443909Y4424041D01*
X92769628Y5208459D01*
X92770370Y6057815D01*
X92446020Y6842800D01*
X91845959Y7443909D01*
X91061541Y7769628D01*
X90212185Y7770370D01*
X89427200Y7446020D01*
X88826091Y6845959D01*
X88500372Y6061541D01*
X88499630Y5212185D01*
X69180715Y5212185D01*
X69180715Y8095000D01*
X71895000Y8095000D01*
X71895000Y12531695D01*
X73504674Y12531695D01*
X73791043Y11838628D01*
X74320839Y11307907D01*
X75013405Y11020328D01*
X75763305Y11019674D01*
X76456372Y11306043D01*
X76987093Y11835839D01*
X77274672Y12528405D01*
X77274889Y12778000D01*
X82255000Y12778000D01*
X82255000Y12278000D01*
X82428058Y11661980D01*
X82823683Y11159078D01*
X83381645Y10845856D01*
X83509566Y10814876D01*
X83763000Y10934223D01*
X83763000Y12778000D01*
X84017000Y12778000D01*
X84017000Y10934223D01*
X84270434Y10814876D01*
X84398355Y10845856D01*
X84956317Y11159078D01*
X85351942Y11661980D01*
X85525000Y12278000D01*
X85525000Y12778000D01*
X84017000Y12778000D01*
X83763000Y12778000D01*
X82255000Y12778000D01*
X77274889Y12778000D01*
X77275326Y13278305D01*
X77170502Y13532000D01*
X82255000Y13532000D01*
X82255000Y13032000D01*
X83763000Y13032000D01*
X83763000Y14875777D01*
X84017000Y14875777D01*
X84017000Y13032000D01*
X85525000Y13032000D01*
X85525000Y13532000D01*
X85351942Y14148020D01*
X84956317Y14650922D01*
X84398355Y14964144D01*
X84270434Y14995124D01*
X84017000Y14875777D01*
X83763000Y14875777D01*
X83509566Y14995124D01*
X83381645Y14964144D01*
X82823683Y14650922D01*
X82428058Y14148020D01*
X82255000Y13532000D01*
X77170502Y13532000D01*
X76988957Y13971372D01*
X76459161Y14502093D01*
X75766595Y14789672D01*
X75016695Y14790326D01*
X74323628Y14503957D01*
X73792907Y13974161D01*
X73505328Y13281595D01*
X73504674Y12531695D01*
X71895000Y12531695D01*
X71895000Y13175000D01*
X72815716Y13175000D01*
X72815716Y19545000D01*
X68101430Y19545000D01*
X68101430Y23990000D01*
X29688570Y23990000D01*
X29688570Y19545000D01*
X24974285Y19545000D01*
X24974285Y14465000D01*
X24625000Y14465000D01*
X21496190Y14465000D01*
X21459161Y14502093D01*
X20766595Y14789672D01*
X20016695Y14790326D01*
X19323628Y14503957D01*
X18792907Y13974161D01*
X18505328Y13281595D01*
X18504674Y12531695D01*
X13537440Y12531695D01*
X13537440Y14405000D01*
X13493162Y14640317D01*
X13354090Y14856441D01*
X13141890Y15001431D01*
X12890000Y15052440D01*
X10890000Y15052440D01*
X10654683Y15008162D01*
X10438559Y14869090D01*
X10293569Y14656890D01*
X10242560Y14405000D01*
X10242560Y13921000D01*
X9740841Y13921000D01*
X5969000Y17692840D01*
X5969000Y26002468D01*
X14382073Y26002468D01*
X14480736Y25735613D01*
X15090461Y25509092D01*
X15740460Y25533144D01*
X16229264Y25735613D01*
X16327927Y26002468D01*
X15355000Y26975395D01*
X14382073Y26002468D01*
X5969000Y26002468D01*
X5969000Y29749680D01*
X6357880Y29749680D01*
X6357880Y27250320D01*
X6402158Y27015003D01*
X6541230Y26798879D01*
X6753430Y26653889D01*
X7005320Y26602880D01*
X9504680Y26602880D01*
X9739997Y26647158D01*
X9956121Y26786230D01*
X10101111Y26998430D01*
X10152120Y27250320D01*
X10152120Y27419539D01*
X13709092Y27419539D01*
X13733144Y26769540D01*
X13935613Y26280736D01*
X14202468Y26182073D01*
X15175395Y27155000D01*
X15534605Y27155000D01*
X16507532Y26182073D01*
X16774387Y26280736D01*
X17000908Y26890461D01*
X16976856Y27540460D01*
X16774387Y28029264D01*
X16507532Y28127927D01*
X15534605Y27155000D01*
X15175395Y27155000D01*
X14202468Y28127927D01*
X13935613Y28029264D01*
X13709092Y27419539D01*
X10152120Y27419539D01*
X10152120Y27558218D01*
X10167807Y27561338D01*
X10497420Y27781580D01*
X11023372Y28307532D01*
X14382073Y28307532D01*
X15355000Y27334605D01*
X16327927Y28307532D01*
X16229264Y28574387D01*
X15918070Y28690000D01*
X20172560Y28690000D01*
X20172560Y25690000D01*
X20216838Y25454683D01*
X20355910Y25238559D01*
X20568110Y25093569D01*
X20820000Y25042560D01*
X23820000Y25042560D01*
X24055317Y25086838D01*
X24271441Y25225910D01*
X24416431Y25438110D01*
X24464611Y25676030D01*
X35485635Y25676030D01*
X35645418Y25357261D01*
X36436187Y25047277D01*
X37285387Y25063503D01*
X37994582Y25357261D01*
X38154365Y25676030D01*
X36820000Y27010395D01*
X35485635Y25676030D01*
X24464611Y25676030D01*
X24467440Y25690000D01*
X24467440Y27573813D01*
X34677277Y27573813D01*
X34693503Y26724613D01*
X34987261Y26015418D01*
X35306030Y25855635D01*
X36640395Y27190000D01*
X36999605Y27190000D01*
X38333970Y25855635D01*
X38626903Y26002468D01*
X79382073Y26002468D01*
X79480736Y25735613D01*
X80090461Y25509092D01*
X80740460Y25533144D01*
X81229264Y25735613D01*
X81327927Y26002468D01*
X80355000Y26975395D01*
X79382073Y26002468D01*
X38626903Y26002468D01*
X38652739Y26015418D01*
X38962723Y26806187D01*
X38951004Y27419539D01*
X78709092Y27419539D01*
X78733144Y26769540D01*
X78935613Y26280736D01*
X79202468Y26182073D01*
X80175395Y27155000D01*
X80534605Y27155000D01*
X81507532Y26182073D01*
X81774387Y26280736D01*
X82000908Y26890461D01*
X81990679Y27166911D01*
X86476517Y27166911D01*
X86605725Y26874141D01*
X87305883Y26605929D01*
X88055384Y26626072D01*
X88654275Y26874141D01*
X88783483Y27166911D01*
X87630000Y28320395D01*
X86476517Y27166911D01*
X81990679Y27166911D01*
X81976856Y27540460D01*
X81774387Y28029264D01*
X81507532Y28127927D01*
X80534605Y27155000D01*
X80175395Y27155000D01*
X79202468Y28127927D01*
X78935613Y28029264D01*
X78709092Y27419539D01*
X38951004Y27419539D01*
X38946497Y27655387D01*
X38676370Y28307532D01*
X79382073Y28307532D01*
X80355000Y27334605D01*
X81327927Y28307532D01*
X81229264Y28574387D01*
X80619539Y28800908D01*
X79969540Y28776856D01*
X79480736Y28574387D01*
X79382073Y28307532D01*
X38676370Y28307532D01*
X38652739Y28364582D01*
X38333970Y28524365D01*
X36999605Y27190000D01*
X36640395Y27190000D01*
X35306030Y28524365D01*
X34987261Y28364582D01*
X34677277Y27573813D01*
X24467440Y27573813D01*
X24467440Y28690000D01*
X24464812Y28703970D01*
X35485635Y28703970D01*
X36820000Y27369605D01*
X38154365Y28703970D01*
X37994582Y29022739D01*
X37203813Y29332723D01*
X36354613Y29316497D01*
X35645418Y29022739D01*
X35485635Y28703970D01*
X24464812Y28703970D01*
X24423162Y28925317D01*
X24284090Y29141441D01*
X24071890Y29286431D01*
X23820000Y29337440D01*
X20820000Y29337440D01*
X20584683Y29293162D01*
X20368559Y29154090D01*
X20223569Y28941890D01*
X20172560Y28690000D01*
X15918070Y28690000D01*
X15619539Y28800908D01*
X14969540Y28776856D01*
X14480736Y28574387D01*
X14382073Y28307532D01*
X11023372Y28307532D01*
X11259421Y28543580D01*
X11479662Y28873193D01*
X11491056Y28930474D01*
X11841551Y29280357D01*
X12075733Y29844330D01*
X12076265Y30454991D01*
X11843068Y31019371D01*
X11715245Y31147417D01*
X11735718Y31167890D01*
X11621161Y31282447D01*
X11626512Y31284250D01*
X20620000Y31284250D01*
X20620000Y29943690D01*
X20716673Y29710301D01*
X20895302Y29531673D01*
X21128691Y29435000D01*
X22469250Y29435000D01*
X22628000Y29593750D01*
X22628000Y31443000D01*
X22882000Y31443000D01*
X22882000Y29593750D01*
X23040750Y29435000D01*
X24381309Y29435000D01*
X24614698Y29531673D01*
X24793327Y29710301D01*
X24890000Y29943690D01*
X24890000Y31147185D01*
X33019630Y31147185D01*
X33343980Y30362200D01*
X33944041Y29761091D01*
X34728459Y29435372D01*
X35577815Y29434630D01*
X36362800Y29758980D01*
X36963909Y30359041D01*
X37289628Y31143459D01*
X37290370Y31992815D01*
X36966020Y32777800D01*
X36365959Y33378909D01*
X35581541Y33704628D01*
X34732185Y33705370D01*
X33947200Y33381020D01*
X33346091Y32780959D01*
X33020372Y31996541D01*
X33019630Y31147185D01*
X24890000Y31147185D01*
X24890000Y31284250D01*
X24731250Y31443000D01*
X22882000Y31443000D01*
X22628000Y31443000D01*
X20778750Y31443000D01*
X20620000Y31284250D01*
X11626512Y31284250D01*
X11877643Y31368852D01*
X12087458Y31942336D01*
X12061839Y32552460D01*
X11877643Y32997148D01*
X11621159Y33083554D01*
X10720605Y32183000D01*
X10734748Y32168857D01*
X10555143Y31989252D01*
X10541000Y32003395D01*
X10526858Y31989252D01*
X10347253Y32168857D01*
X10361395Y32183000D01*
X10347253Y32197142D01*
X10526858Y32376747D01*
X10541000Y32362605D01*
X11374705Y33196310D01*
X20620000Y33196310D01*
X20620000Y31855750D01*
X20778750Y31697000D01*
X22628000Y31697000D01*
X22628000Y33546250D01*
X22882000Y33546250D01*
X22882000Y31697000D01*
X24731250Y31697000D01*
X24890000Y31855750D01*
X24890000Y33196310D01*
X24793327Y33429699D01*
X24614698Y33608327D01*
X24381309Y33705000D01*
X23040750Y33705000D01*
X22882000Y33546250D01*
X22628000Y33546250D01*
X22469250Y33705000D01*
X21128691Y33705000D01*
X20895302Y33608327D01*
X20716673Y33429699D01*
X20620000Y33196310D01*
X11374705Y33196310D01*
X11441554Y33263159D01*
X11355148Y33519643D01*
X10781664Y33729458D01*
X10171540Y33703839D01*
X10137412Y33689703D01*
X10128928Y34005384D01*
X9880859Y34604275D01*
X9588089Y34733483D01*
X8434605Y33580000D01*
X8448748Y33565858D01*
X8269142Y33386252D01*
X8255000Y33400395D01*
X7101517Y32246911D01*
X7230725Y31954141D01*
X7930883Y31685929D01*
X8680384Y31706072D01*
X9018788Y31846244D01*
X9020161Y31813540D01*
X9204357Y31368852D01*
X9460839Y31282447D01*
X9346282Y31167890D01*
X9366599Y31147573D01*
X9240449Y31021643D01*
X9006267Y30457670D01*
X9006214Y30397120D01*
X7005320Y30397120D01*
X6770003Y30352842D01*
X6553879Y30213770D01*
X6408889Y30001570D01*
X6357880Y29749680D01*
X5969000Y29749680D01*
X5969000Y33904117D01*
X6360929Y33904117D01*
X6381072Y33154616D01*
X6629141Y32555725D01*
X6921911Y32426517D01*
X8075395Y33580000D01*
X6921911Y34733483D01*
X6629141Y34604275D01*
X6360929Y33904117D01*
X5969000Y33904117D01*
X5969000Y34913089D01*
X7101517Y34913089D01*
X8255000Y33759605D01*
X9408483Y34913089D01*
X9279275Y35205859D01*
X8579117Y35474071D01*
X7829616Y35453928D01*
X7230725Y35205859D01*
X7101517Y34913089D01*
X5969000Y34913089D01*
X5969000Y35064160D01*
X9310841Y38406000D01*
X31242000Y38406000D01*
X31566300Y38470507D01*
X31630807Y38483338D01*
X31960420Y38703580D01*
X39042176Y45785336D01*
X38989000Y45518000D01*
X38989000Y43271841D01*
X31888160Y36171000D01*
X16650996Y36171000D01*
X16282363Y36540278D01*
X15681648Y36789716D01*
X15031205Y36790284D01*
X14430057Y36541894D01*
X13969722Y36082363D01*
X13720284Y35481648D01*
X13719716Y34831205D01*
X13968106Y34230057D01*
X14427637Y33769722D01*
X15028352Y33520284D01*
X15678795Y33519716D01*
X16279943Y33768106D01*
X16651486Y34139000D01*
X32309000Y34139000D01*
X32633300Y34203507D01*
X32697807Y34216338D01*
X33027420Y34436580D01*
X34816733Y36225893D01*
X42195498Y36225893D01*
X42296120Y35957378D01*
X42911642Y35728184D01*
X43568019Y35751986D01*
X44063880Y35957378D01*
X44164502Y36225893D01*
X43180000Y37210395D01*
X42195498Y36225893D01*
X34816733Y36225893D01*
X36249198Y37658358D01*
X41518184Y37658358D01*
X41541986Y37001981D01*
X41747378Y36506120D01*
X42015893Y36405498D01*
X43000395Y37390000D01*
X42015893Y38374502D01*
X41747378Y38273880D01*
X41518184Y37658358D01*
X36249198Y37658358D01*
X37144947Y38554107D01*
X42195498Y38554107D01*
X43180000Y37569605D01*
X44164502Y38554107D01*
X44063880Y38822622D01*
X43448358Y39051816D01*
X42791981Y39028014D01*
X42296120Y38822622D01*
X42195498Y38554107D01*
X37144947Y38554107D01*
X40723421Y42132580D01*
X40943662Y42462193D01*
X41021000Y42851000D01*
X41021000Y45097160D01*
X41717888Y45794048D01*
X41529287Y45339845D01*
X41528714Y44683037D01*
X41779534Y44076005D01*
X42243563Y43611166D01*
X42850155Y43359287D01*
X43506963Y43358714D01*
X44113995Y43609534D01*
X44578834Y44073563D01*
X44767654Y44528291D01*
X44954534Y44076005D01*
X45418563Y43611166D01*
X45466000Y43591468D01*
X45466000Y40946000D01*
X45533671Y40605794D01*
X45645788Y40438000D01*
X45726382Y40317382D01*
X47134971Y38908793D01*
X47162398Y38842416D01*
X46684845Y39040713D01*
X46028037Y39041286D01*
X45421005Y38790466D01*
X44956166Y38326437D01*
X44773284Y37886008D01*
X44612622Y38273880D01*
X44344107Y38374502D01*
X43359605Y37390000D01*
X44344107Y36405498D01*
X44612622Y36506120D01*
X44764876Y36915013D01*
X44954534Y36456005D01*
X45418563Y35991166D01*
X46025155Y35739287D01*
X46681963Y35738714D01*
X47288995Y35989534D01*
X47753834Y36453563D01*
X48005713Y37060155D01*
X48006286Y37716963D01*
X47755466Y38323995D01*
X47680986Y38398605D01*
X47815705Y38342665D01*
X48194633Y38342335D01*
X48544843Y38487039D01*
X48813020Y38754747D01*
X48958335Y39104705D01*
X48958665Y39483633D01*
X48813961Y39833843D01*
X48546253Y40102020D01*
X48392282Y40165954D01*
X47244000Y41314236D01*
X47244000Y43590942D01*
X47288995Y43609534D01*
X47753834Y44073563D01*
X48005713Y44680155D01*
X48006286Y45336963D01*
X47755466Y45943995D01*
X47673604Y46026000D01*
X49149000Y46026000D01*
X49149000Y42851000D01*
X49213507Y42526700D01*
X49226338Y42462193D01*
X49446580Y42132580D01*
X58717580Y32861579D01*
X59047193Y32641338D01*
X59111700Y32628507D01*
X59436000Y32564000D01*
X70358000Y32564000D01*
X70682300Y32628507D01*
X70746807Y32641338D01*
X71076420Y32861580D01*
X72353841Y34139000D01*
X79059004Y34139000D01*
X79427637Y33769722D01*
X80028352Y33520284D01*
X80553334Y33519826D01*
X81211579Y32861580D01*
X81307675Y32797371D01*
X81541194Y32641338D01*
X81930000Y32564000D01*
X83945601Y32564000D01*
X83809267Y32235670D01*
X83808735Y31625009D01*
X84041932Y31060629D01*
X84169755Y30932583D01*
X84149282Y30912110D01*
X84263839Y30797553D01*
X84007357Y30711148D01*
X83797542Y30137664D01*
X83823161Y29527540D01*
X84007357Y29082852D01*
X84263841Y28996446D01*
X85164395Y29897000D01*
X85150253Y29911142D01*
X85329858Y30090747D01*
X85344000Y30076605D01*
X85358143Y30090747D01*
X85537748Y29911142D01*
X85523605Y29897000D01*
X85537748Y29882857D01*
X85358143Y29703252D01*
X85344000Y29717395D01*
X84443446Y28816841D01*
X84529852Y28560357D01*
X85103336Y28350542D01*
X85713460Y28376161D01*
X85747588Y28390297D01*
X85756072Y28074616D01*
X86004141Y27475725D01*
X86296911Y27346517D01*
X87450395Y28500000D01*
X87809605Y28500000D01*
X88963089Y27346517D01*
X89255859Y27475725D01*
X89524071Y28175883D01*
X89503928Y28925384D01*
X89255859Y29524275D01*
X88963089Y29653483D01*
X87809605Y28500000D01*
X87450395Y28500000D01*
X87436252Y28514142D01*
X87615858Y28693748D01*
X87630000Y28679605D01*
X88783483Y29833089D01*
X88654275Y30125859D01*
X87954117Y30394071D01*
X87204616Y30373928D01*
X86866212Y30233756D01*
X86864839Y30266460D01*
X86680643Y30711148D01*
X86424161Y30797553D01*
X86538718Y30912110D01*
X86518401Y30932427D01*
X86644551Y31058357D01*
X86878733Y31622330D01*
X86878786Y31682880D01*
X88879680Y31682880D01*
X89114997Y31727158D01*
X89331121Y31866230D01*
X89476111Y32078430D01*
X89527120Y32330320D01*
X89527120Y34829680D01*
X89482842Y35064997D01*
X89343770Y35281121D01*
X89131570Y35426111D01*
X88879680Y35477120D01*
X86380320Y35477120D01*
X86145003Y35432842D01*
X85928879Y35293770D01*
X85783889Y35081570D01*
X85732880Y34829680D01*
X85732880Y34596000D01*
X82350841Y34596000D01*
X81989828Y34957012D01*
X81990284Y35478795D01*
X81741894Y36079943D01*
X81282363Y36540278D01*
X80681648Y36789716D01*
X80031205Y36790284D01*
X79430057Y36541894D01*
X79058514Y36171000D01*
X72099840Y36171000D01*
X80728420Y44799579D01*
X80948662Y45129193D01*
X80980425Y45288879D01*
X81026000Y45518000D01*
X81026000Y46216911D01*
X86476517Y46216911D01*
X86605725Y45924141D01*
X87305883Y45655929D01*
X88055384Y45676072D01*
X88654275Y45924141D01*
X88783483Y46216911D01*
X87630000Y47370395D01*
X86476517Y46216911D01*
X81026000Y46216911D01*
X81026000Y57580797D01*
X81069910Y57512559D01*
X81282110Y57367569D01*
X81534000Y57316560D01*
X81661000Y57316560D01*
X81661000Y50051823D01*
X81597665Y49899295D01*
X81597335Y49520367D01*
X81742039Y49170157D01*
X82009747Y48901980D01*
X82359705Y48756665D01*
X82738633Y48756335D01*
X83088843Y48901039D01*
X83357020Y49168747D01*
X83364875Y49187664D01*
X83797542Y49187664D01*
X83823161Y48577540D01*
X84007357Y48132852D01*
X84263841Y48046446D01*
X85164395Y48947000D01*
X85150253Y48961142D01*
X85329858Y49140747D01*
X85344000Y49126605D01*
X85358143Y49140747D01*
X85537748Y48961142D01*
X85523605Y48947000D01*
X85537748Y48932857D01*
X85358143Y48753252D01*
X85344000Y48767395D01*
X84443446Y47866841D01*
X84529852Y47610357D01*
X85103336Y47400542D01*
X85713460Y47426161D01*
X85747588Y47440297D01*
X85756072Y47124616D01*
X86004141Y46525725D01*
X86296911Y46396517D01*
X87450395Y47550000D01*
X87809605Y47550000D01*
X88963089Y46396517D01*
X89255859Y46525725D01*
X89524071Y47225883D01*
X89503928Y47975384D01*
X89255859Y48574275D01*
X88963089Y48703483D01*
X87809605Y47550000D01*
X87450395Y47550000D01*
X87436252Y47564142D01*
X87615858Y47743748D01*
X87630000Y47729605D01*
X88783483Y48883089D01*
X88654275Y49175859D01*
X87954117Y49444071D01*
X87204616Y49423928D01*
X86866212Y49283756D01*
X86864839Y49316460D01*
X86680643Y49761148D01*
X86424161Y49847553D01*
X86538718Y49962110D01*
X86518401Y49982427D01*
X86644551Y50108357D01*
X86878733Y50672330D01*
X86878786Y50732880D01*
X88879680Y50732880D01*
X89114997Y50777158D01*
X89331121Y50916230D01*
X89476111Y51128430D01*
X89527120Y51380320D01*
X89527120Y53879680D01*
X89482842Y54114997D01*
X89343770Y54331121D01*
X89131570Y54476111D01*
X88879680Y54527120D01*
X86380320Y54527120D01*
X86145003Y54482842D01*
X85928879Y54343770D01*
X85783889Y54131570D01*
X85732880Y53879680D01*
X85732880Y52804721D01*
X85442074Y52513915D01*
X85040009Y52514265D01*
X84475629Y52281068D01*
X84043449Y51849643D01*
X83809267Y51285670D01*
X83808735Y50675009D01*
X84041932Y50110629D01*
X84169755Y49982583D01*
X84149282Y49962110D01*
X84263839Y49847553D01*
X84007357Y49761148D01*
X83797542Y49187664D01*
X83364875Y49187664D01*
X83502335Y49518705D01*
X83502665Y49897633D01*
X83439000Y50051714D01*
X83439000Y57316560D01*
X83566000Y57316560D01*
X83801317Y57360838D01*
X84017441Y57499910D01*
X84162431Y57712110D01*
X84213440Y57964000D01*
X84213440Y59996000D01*
X84172762Y60212185D01*
X88499630Y60212185D01*
X88823980Y59427200D01*
X89424041Y58826091D01*
X90208459Y58500372D01*
X91057815Y58499630D01*
X91842800Y58823980D01*
X92443909Y59424041D01*
X92769628Y60208459D01*
X92770370Y61057815D01*
X92446020Y61842800D01*
X91845959Y62443909D01*
X91061541Y62769628D01*
X90212185Y62770370D01*
X89427200Y62446020D01*
X88826091Y61845959D01*
X88500372Y61061541D01*
X88499630Y60212185D01*
X84172762Y60212185D01*
X84169162Y60231317D01*
X84030090Y60447441D01*
X83817890Y60592431D01*
X83566000Y60643440D01*
X81534000Y60643440D01*
X81298683Y60599162D01*
X81082559Y60460090D01*
X80994287Y60330900D01*
X80946437Y60378834D01*
X80339845Y60630713D01*
X79683037Y60631286D01*
X79076005Y60380466D01*
X78611166Y59916437D01*
X78359287Y59309845D01*
X78358714Y58653037D01*
X78609534Y58046005D01*
X78994000Y57660868D01*
X78994000Y45938841D01*
X73268872Y40213712D01*
X73291338Y40247335D01*
X73328662Y40303194D01*
X73406000Y40692000D01*
X73406000Y57580797D01*
X73449910Y57512559D01*
X73662110Y57367569D01*
X73914000Y57316560D01*
X74041000Y57316560D01*
X74041000Y46749823D01*
X73977665Y46597295D01*
X73977335Y46218367D01*
X74122039Y45868157D01*
X74389747Y45599980D01*
X74739705Y45454665D01*
X75118633Y45454335D01*
X75468843Y45599039D01*
X75737020Y45866747D01*
X75882335Y46216705D01*
X75882665Y46595633D01*
X75819000Y46749714D01*
X75819000Y57316560D01*
X75946000Y57316560D01*
X76181317Y57360838D01*
X76397441Y57499910D01*
X76542431Y57712110D01*
X76593440Y57964000D01*
X76593440Y59996000D01*
X76549162Y60231317D01*
X76410090Y60447441D01*
X76197890Y60592431D01*
X75946000Y60643440D01*
X73914000Y60643440D01*
X73678683Y60599162D01*
X73462559Y60460090D01*
X73374287Y60330900D01*
X73326437Y60378834D01*
X72719845Y60630713D01*
X72063037Y60631286D01*
X71456005Y60380466D01*
X70991166Y59916437D01*
X70739287Y59309845D01*
X70738714Y58653037D01*
X70989534Y58046005D01*
X71374000Y57660868D01*
X71374000Y41112841D01*
X68667160Y38406000D01*
X63548604Y38406000D01*
X63166437Y38788834D01*
X62559845Y39040713D01*
X61903037Y39041286D01*
X61296005Y38790466D01*
X60831166Y38326437D01*
X60642346Y37871709D01*
X60455466Y38323995D01*
X59991437Y38788834D01*
X59384845Y39040713D01*
X58728037Y39041286D01*
X58121005Y38790466D01*
X57656166Y38326437D01*
X57404287Y37719845D01*
X57403714Y37063037D01*
X57413509Y37039332D01*
X51181000Y43271840D01*
X51181000Y47791560D01*
X51416317Y47835838D01*
X51632441Y47974910D01*
X51777431Y48187110D01*
X51828440Y48439000D01*
X51828440Y49723358D01*
X53583184Y49723358D01*
X53606986Y49066981D01*
X53812378Y48571120D01*
X54080893Y48470498D01*
X55065395Y49455000D01*
X54080893Y50439502D01*
X53812378Y50338880D01*
X53583184Y49723358D01*
X51828440Y49723358D01*
X51828440Y50471000D01*
X51784162Y50706317D01*
X51645090Y50922441D01*
X51432890Y51067431D01*
X51181000Y51118440D01*
X49149000Y51118440D01*
X48913683Y51074162D01*
X48697559Y50935090D01*
X48564221Y50739943D01*
X48508880Y50887622D01*
X47893358Y51116816D01*
X47236981Y51093014D01*
X46741120Y50887622D01*
X46640498Y50619107D01*
X47625000Y49634605D01*
X47639143Y49648747D01*
X47818748Y49469142D01*
X47804605Y49455000D01*
X47818748Y49440857D01*
X47639143Y49261252D01*
X47625000Y49275395D01*
X46640498Y48290893D01*
X46727771Y48058000D01*
X41529000Y48058000D01*
X41261665Y48004824D01*
X42980199Y49723358D01*
X45963184Y49723358D01*
X45986986Y49066981D01*
X46192378Y48571120D01*
X46460893Y48470498D01*
X47445395Y49455000D01*
X46460893Y50439502D01*
X46192378Y50338880D01*
X45963184Y49723358D01*
X42980199Y49723358D01*
X44000021Y50743180D01*
X44220262Y51072793D01*
X44297600Y51461600D01*
X44297600Y53213000D01*
X61214000Y53213000D01*
X61214000Y46328604D01*
X60910868Y46026000D01*
X60373604Y46026000D01*
X59991437Y46408834D01*
X59384845Y46660713D01*
X59094874Y46660966D01*
X58801000Y46954840D01*
X58801000Y47791560D01*
X59036317Y47835838D01*
X59252441Y47974910D01*
X59397431Y48187110D01*
X59448440Y48439000D01*
X59448440Y50471000D01*
X59404162Y50706317D01*
X59265090Y50922441D01*
X59052890Y51067431D01*
X58801000Y51118440D01*
X56769000Y51118440D01*
X56533683Y51074162D01*
X56317559Y50935090D01*
X56184221Y50739943D01*
X56128880Y50887622D01*
X55513358Y51116816D01*
X54856981Y51093014D01*
X54361120Y50887622D01*
X54260498Y50619107D01*
X55245000Y49634605D01*
X55259143Y49648747D01*
X55438748Y49469142D01*
X55424605Y49455000D01*
X55438748Y49440857D01*
X55259143Y49261252D01*
X55245000Y49275395D01*
X54260498Y48290893D01*
X54361120Y48022378D01*
X54976642Y47793184D01*
X55633019Y47816986D01*
X56128880Y48022378D01*
X56185419Y48173254D01*
X56304910Y47987559D01*
X56517110Y47842569D01*
X56769000Y47791560D01*
X56769000Y46534000D01*
X56828192Y46236420D01*
X56846338Y46145193D01*
X57066580Y45815580D01*
X57444785Y45437375D01*
X57404287Y45339845D01*
X57403714Y44683037D01*
X57654534Y44076005D01*
X58118563Y43611166D01*
X58725155Y43359287D01*
X59381963Y43358714D01*
X59988995Y43609534D01*
X60374132Y43994000D01*
X60911396Y43994000D01*
X61293563Y43611166D01*
X61900155Y43359287D01*
X62556963Y43358714D01*
X63163995Y43609534D01*
X63628834Y44073563D01*
X63880713Y44680155D01*
X63881286Y45336963D01*
X63630466Y45943995D01*
X63246000Y46329132D01*
X63246000Y55295505D01*
X63479371Y55391932D01*
X63607417Y55519755D01*
X63627890Y55499282D01*
X63742447Y55613839D01*
X63828852Y55357357D01*
X64402336Y55147542D01*
X65012460Y55173161D01*
X65457148Y55357357D01*
X65543554Y55613841D01*
X64643000Y56514395D01*
X64628858Y56500252D01*
X64449253Y56679857D01*
X64463395Y56694000D01*
X64449253Y56708142D01*
X64628858Y56887747D01*
X64643000Y56873605D01*
X64657143Y56887747D01*
X64836748Y56708142D01*
X64822605Y56694000D01*
X65723159Y55793446D01*
X65979643Y55879852D01*
X66189458Y56453336D01*
X66163839Y57063460D01*
X66149703Y57097588D01*
X66465384Y57106072D01*
X67064275Y57354141D01*
X67193483Y57646911D01*
X66040000Y58800395D01*
X66025858Y58786252D01*
X65846252Y58965858D01*
X65860395Y58980000D01*
X66219605Y58980000D01*
X67373089Y57826517D01*
X67665859Y57955725D01*
X67934071Y58655883D01*
X67913928Y59405384D01*
X67665859Y60004275D01*
X67373089Y60133483D01*
X66219605Y58980000D01*
X65860395Y58980000D01*
X64706911Y60133483D01*
X64414141Y60004275D01*
X64145929Y59304117D01*
X64166072Y58554616D01*
X64306244Y58216212D01*
X64273540Y58214839D01*
X63828852Y58030643D01*
X63742447Y57774161D01*
X63627890Y57888718D01*
X63607573Y57868401D01*
X63481643Y57994551D01*
X62917670Y58228733D01*
X62857120Y58228786D01*
X62857120Y60229680D01*
X62841426Y60313089D01*
X64886517Y60313089D01*
X66040000Y59159605D01*
X67193483Y60313089D01*
X67064275Y60605859D01*
X66364117Y60874071D01*
X65614616Y60853928D01*
X65015725Y60605859D01*
X64886517Y60313089D01*
X62841426Y60313089D01*
X62812842Y60464997D01*
X62673770Y60681121D01*
X62461570Y60826111D01*
X62209680Y60877120D01*
X59710320Y60877120D01*
X59475003Y60832842D01*
X59258879Y60693770D01*
X59113889Y60481570D01*
X59062880Y60229680D01*
X59062880Y57730320D01*
X59107158Y57495003D01*
X59246230Y57278879D01*
X59458430Y57133889D01*
X59710320Y57082880D01*
X60785280Y57082880D01*
X61076085Y56792074D01*
X61075735Y56390009D01*
X61214000Y56055382D01*
X61214000Y55245000D01*
X44297600Y55245000D01*
X44297600Y58245732D01*
X44740278Y58687637D01*
X44864054Y58985723D01*
X44975726Y58715457D01*
X45435257Y58255122D01*
X46035972Y58005684D01*
X46686415Y58005116D01*
X47287563Y58253506D01*
X47747898Y58713037D01*
X47853514Y58967390D01*
X47968106Y58690057D01*
X48427637Y58229722D01*
X49028352Y57980284D01*
X49678795Y57979716D01*
X50279943Y58228106D01*
X50740278Y58687637D01*
X50989716Y59288352D01*
X50990284Y59938795D01*
X50741894Y60539943D01*
X50725040Y60556827D01*
X51420000Y60556827D01*
X51420000Y58673173D01*
X51514009Y58200559D01*
X51781723Y57799896D01*
X52182386Y57532182D01*
X52655000Y57438173D01*
X53127614Y57532182D01*
X53528277Y57799896D01*
X53795991Y58200559D01*
X53890000Y58673173D01*
X53890000Y60556827D01*
X53795991Y61029441D01*
X53528277Y61430104D01*
X53127614Y61697818D01*
X52655000Y61791827D01*
X52182386Y61697818D01*
X51781723Y61430104D01*
X51514009Y61029441D01*
X51420000Y60556827D01*
X50725040Y60556827D01*
X50282363Y61000278D01*
X49681648Y61249716D01*
X49031205Y61250284D01*
X48430057Y61001894D01*
X47969722Y60542363D01*
X47864106Y60288010D01*
X47749514Y60565343D01*
X47289983Y61025678D01*
X46689268Y61275116D01*
X46038825Y61275684D01*
X45437677Y61027294D01*
X44977342Y60567763D01*
X44853566Y60269677D01*
X44741894Y60539943D01*
X44282363Y61000278D01*
X43681648Y61249716D01*
X43031205Y61250284D01*
X42430057Y61001894D01*
X41969722Y60542363D01*
X41720284Y59941648D01*
X41719716Y59291205D01*
X41968106Y58690057D01*
X42265600Y58392043D01*
X42265600Y51882441D01*
X34666864Y44283705D01*
X34667242Y44716661D01*
X34455010Y45230303D01*
X34286000Y45399608D01*
X34286000Y46105000D01*
X34208662Y46493806D01*
X34208662Y46493807D01*
X33988420Y46823420D01*
X33103420Y47708420D01*
X32773807Y47928662D01*
X32709300Y47941493D01*
X32385000Y48006000D01*
X10787120Y48006000D01*
X10787120Y48239680D01*
X10742842Y48474997D01*
X10603770Y48691121D01*
X10391570Y48836111D01*
X10139680Y48887120D01*
X7640320Y48887120D01*
X7405003Y48842842D01*
X7188879Y48703770D01*
X7043889Y48491570D01*
X6992880Y48239680D01*
X6992880Y45740320D01*
X7037158Y45505003D01*
X7176230Y45288879D01*
X7388430Y45143889D01*
X7640320Y45092880D01*
X10139680Y45092880D01*
X10374997Y45137158D01*
X10591121Y45276230D01*
X10736111Y45488430D01*
X10787120Y45740320D01*
X10787120Y45974000D01*
X31964160Y45974000D01*
X32254000Y45684160D01*
X32254000Y45399707D01*
X32086371Y45232370D01*
X32000051Y45024488D01*
X31915010Y45230303D01*
X31522370Y45623629D01*
X31009100Y45836757D01*
X30453339Y45837242D01*
X29939697Y45625010D01*
X29546371Y45232370D01*
X29460051Y45024488D01*
X29375010Y45230303D01*
X28982370Y45623629D01*
X28469100Y45836757D01*
X27913339Y45837242D01*
X27399697Y45625010D01*
X27006371Y45232370D01*
X26920051Y45024488D01*
X26835010Y45230303D01*
X26442370Y45623629D01*
X25929100Y45836757D01*
X25373339Y45837242D01*
X24859697Y45625010D01*
X24466371Y45232370D01*
X24253243Y44719100D01*
X24252758Y44163339D01*
X24464990Y43649697D01*
X24857630Y43256371D01*
X25370900Y43043243D01*
X25926661Y43042758D01*
X26440303Y43254990D01*
X26833629Y43647630D01*
X26919949Y43855512D01*
X27004990Y43649697D01*
X27397630Y43256371D01*
X27910900Y43043243D01*
X28466661Y43042758D01*
X28980303Y43254990D01*
X29373629Y43647630D01*
X29459949Y43855512D01*
X29544990Y43649697D01*
X29937630Y43256371D01*
X30450900Y43043243D01*
X31006661Y43042758D01*
X31520303Y43254990D01*
X31913629Y43647630D01*
X31999949Y43855512D01*
X32084990Y43649697D01*
X32477630Y43256371D01*
X32990900Y43043243D01*
X33426023Y43042863D01*
X30821160Y40438000D01*
X8890000Y40438000D01*
X8565700Y40373493D01*
X8501193Y40360662D01*
X8171580Y40140421D01*
X4234580Y36203420D01*
X4014338Y35873807D01*
X4014338Y35873806D01*
X3937000Y35485000D01*
X1370000Y35485000D01*
X1370000Y51696759D01*
X7004994Y51696759D01*
X7291314Y51003809D01*
X7821021Y50473178D01*
X8513469Y50185648D01*
X9263241Y50184994D01*
X9956191Y50471314D01*
X10486822Y51001021D01*
X10774352Y51693469D01*
X10775006Y52443241D01*
X10518729Y53063482D01*
X23886330Y53063482D01*
X24096826Y52554043D01*
X24486253Y52163936D01*
X24995324Y51952551D01*
X25546538Y51952070D01*
X26055977Y52162566D01*
X26446084Y52551993D01*
X26542115Y52783261D01*
X26636826Y52554043D01*
X27026253Y52163936D01*
X27535324Y51952551D01*
X28086538Y51952070D01*
X28595977Y52162566D01*
X28828203Y52394387D01*
X29058253Y52163936D01*
X29567324Y51952551D01*
X30118538Y51952070D01*
X30627977Y52162566D01*
X31018084Y52551993D01*
X31114115Y52783261D01*
X31208826Y52554043D01*
X31598253Y52163936D01*
X32107324Y51952551D01*
X32658538Y51952070D01*
X33167977Y52162566D01*
X33558084Y52551993D01*
X33769469Y53061064D01*
X33769950Y53612278D01*
X33559454Y54121717D01*
X33170027Y54511824D01*
X32660956Y54723209D01*
X32109742Y54723690D01*
X31600303Y54513194D01*
X31210196Y54123767D01*
X31114165Y53892499D01*
X31019454Y54121717D01*
X30630027Y54511824D01*
X30120956Y54723209D01*
X29569742Y54723690D01*
X29060303Y54513194D01*
X28828077Y54281373D01*
X28598027Y54511824D01*
X28088956Y54723209D01*
X27537742Y54723690D01*
X27028303Y54513194D01*
X26638196Y54123767D01*
X26542165Y53892499D01*
X26447454Y54121717D01*
X26058027Y54511824D01*
X25548956Y54723209D01*
X24997742Y54723690D01*
X24488303Y54513194D01*
X24098196Y54123767D01*
X23886811Y53614696D01*
X23886330Y53063482D01*
X10518729Y53063482D01*
X10488686Y53136191D01*
X9958979Y53666822D01*
X9266531Y53954352D01*
X8516759Y53955006D01*
X7823809Y53668686D01*
X7293178Y53138979D01*
X7005648Y52446531D01*
X7004994Y51696759D01*
X1370000Y51696759D01*
X1370000Y55582091D01*
X20088900Y55582091D01*
X20413230Y54797153D01*
X21013254Y54196080D01*
X21797625Y53870381D01*
X22646929Y53869640D01*
X23431867Y54193970D01*
X24032940Y54793994D01*
X24358639Y55578365D01*
X24358642Y55582091D01*
X33804900Y55582091D01*
X34129230Y54797153D01*
X34729254Y54196080D01*
X35513625Y53870381D01*
X36362929Y53869640D01*
X37147867Y54193970D01*
X37748940Y54793994D01*
X38074639Y55578365D01*
X38075380Y56427669D01*
X37751050Y57212607D01*
X37151026Y57813680D01*
X36366655Y58139379D01*
X35517351Y58140120D01*
X34732413Y57815790D01*
X34131340Y57215766D01*
X33805641Y56431395D01*
X33804900Y55582091D01*
X24358642Y55582091D01*
X24359380Y56427669D01*
X24035050Y57212607D01*
X23435026Y57813680D01*
X22650655Y58139379D01*
X21801351Y58140120D01*
X21016413Y57815790D01*
X20415340Y57215766D01*
X20089641Y56431395D01*
X20088900Y55582091D01*
X1370000Y55582091D01*
X1370000Y60212185D01*
X3499630Y60212185D01*
X3823980Y59427200D01*
X4424041Y58826091D01*
X5208459Y58500372D01*
X6057815Y58499630D01*
X6842800Y58823980D01*
X7443909Y59424041D01*
X7769628Y60208459D01*
X7769932Y60556827D01*
X38820000Y60556827D01*
X38820000Y58673173D01*
X38914009Y58200559D01*
X39181723Y57799896D01*
X39582386Y57532182D01*
X40055000Y57438173D01*
X40527614Y57532182D01*
X40928277Y57799896D01*
X41195991Y58200559D01*
X41290000Y58673173D01*
X41290000Y60556827D01*
X41195991Y61029441D01*
X40928277Y61430104D01*
X40527614Y61697818D01*
X40055000Y61791827D01*
X39582386Y61697818D01*
X39181723Y61430104D01*
X38914009Y61029441D01*
X38820000Y60556827D01*
X7769932Y60556827D01*
X7770370Y61057815D01*
X7446020Y61842800D01*
X6845959Y62443909D01*
X6061541Y62769628D01*
X5212185Y62770370D01*
X4427200Y62446020D01*
X3826091Y61845959D01*
X3500372Y61061541D01*
X3499630Y60212185D01*
X1370000Y60212185D01*
X1370000Y60562610D01*
X1707957Y62261634D01*
X2629371Y63640629D01*
X4008366Y64562043D01*
X5545512Y64867800D01*
X5635000Y64850000D01*
X90635000Y64850000D01*
X90724488Y64867800D01*
X92261634Y64562043D01*
X92261634Y64562043D01*
G37*
X92261634Y64562043D02*
X93640629Y63640629D01*
X94562043Y62261634D01*
X94900000Y60562610D01*
X94900000Y5707390D01*
X94562043Y4008366D01*
X93640629Y2629371D01*
X92261634Y1707957D01*
X90724488Y1402200D01*
X90635000Y1420000D01*
X5635000Y1420000D01*
X5545512Y1402200D01*
X4008366Y1707957D01*
X2629371Y2629371D01*
X1707957Y4008366D01*
X1468503Y5212185D01*
X3499630Y5212185D01*
X3823980Y4427200D01*
X4424041Y3826091D01*
X5208459Y3500372D01*
X6057815Y3499630D01*
X6842800Y3823980D01*
X7443909Y4424041D01*
X7769628Y5208459D01*
X7770370Y6057815D01*
X7446020Y6842800D01*
X6845959Y7443909D01*
X6061541Y7769628D01*
X5212185Y7770370D01*
X4427200Y7446020D01*
X3826091Y6845959D01*
X3500372Y6061541D01*
X3499630Y5212185D01*
X1468503Y5212185D01*
X1370000Y5707390D01*
X1370000Y35485000D01*
X3937000Y35485000D01*
X3937000Y17272000D01*
X4001507Y16947700D01*
X4014338Y16883193D01*
X4234580Y16553580D01*
X8601580Y12186579D01*
X8931193Y11966338D01*
X9320000Y11889000D01*
X10242560Y11889000D01*
X10242560Y11405000D01*
X10286838Y11169683D01*
X10425910Y10953559D01*
X10638110Y10808569D01*
X10890000Y10757560D01*
X12890000Y10757560D01*
X13125317Y10801838D01*
X13341441Y10940910D01*
X13486431Y11153110D01*
X13537440Y11405000D01*
X13537440Y12531695D01*
X18504674Y12531695D01*
X18791043Y11838628D01*
X19320839Y11307907D01*
X20013405Y11020328D01*
X20763305Y11019674D01*
X21456372Y11306043D01*
X21987093Y11835839D01*
X22274672Y12528405D01*
X22275326Y13278305D01*
X21988957Y13971372D01*
X21496190Y14465000D01*
X24625000Y14465000D01*
X24625000Y8095000D01*
X27339286Y8095000D01*
X27339286Y3015000D01*
X69180715Y3015000D01*
X69180715Y5212185D01*
X88499630Y5212185D01*
X88823980Y4427200D01*
X89424041Y3826091D01*
X90208459Y3500372D01*
X91057815Y3499630D01*
X91842800Y3823980D01*
X92443909Y4424041D01*
X92769628Y5208459D01*
X92770370Y6057815D01*
X92446020Y6842800D01*
X91845959Y7443909D01*
X91061541Y7769628D01*
X90212185Y7770370D01*
X89427200Y7446020D01*
X88826091Y6845959D01*
X88500372Y6061541D01*
X88499630Y5212185D01*
X69180715Y5212185D01*
X69180715Y8095000D01*
X71895000Y8095000D01*
X71895000Y12531695D01*
X73504674Y12531695D01*
X73791043Y11838628D01*
X74320839Y11307907D01*
X75013405Y11020328D01*
X75763305Y11019674D01*
X76456372Y11306043D01*
X76987093Y11835839D01*
X77274672Y12528405D01*
X77274889Y12778000D01*
X82255000Y12778000D01*
X82255000Y12278000D01*
X82428058Y11661980D01*
X82823683Y11159078D01*
X83381645Y10845856D01*
X83509566Y10814876D01*
X83763000Y10934223D01*
X83763000Y12778000D01*
X84017000Y12778000D01*
X84017000Y10934223D01*
X84270434Y10814876D01*
X84398355Y10845856D01*
X84956317Y11159078D01*
X85351942Y11661980D01*
X85525000Y12278000D01*
X85525000Y12778000D01*
X84017000Y12778000D01*
X83763000Y12778000D01*
X82255000Y12778000D01*
X77274889Y12778000D01*
X77275326Y13278305D01*
X77170502Y13532000D01*
X82255000Y13532000D01*
X82255000Y13032000D01*
X83763000Y13032000D01*
X83763000Y14875777D01*
X84017000Y14875777D01*
X84017000Y13032000D01*
X85525000Y13032000D01*
X85525000Y13532000D01*
X85351942Y14148020D01*
X84956317Y14650922D01*
X84398355Y14964144D01*
X84270434Y14995124D01*
X84017000Y14875777D01*
X83763000Y14875777D01*
X83509566Y14995124D01*
X83381645Y14964144D01*
X82823683Y14650922D01*
X82428058Y14148020D01*
X82255000Y13532000D01*
X77170502Y13532000D01*
X76988957Y13971372D01*
X76459161Y14502093D01*
X75766595Y14789672D01*
X75016695Y14790326D01*
X74323628Y14503957D01*
X73792907Y13974161D01*
X73505328Y13281595D01*
X73504674Y12531695D01*
X71895000Y12531695D01*
X71895000Y13175000D01*
X72815716Y13175000D01*
X72815716Y19545000D01*
X68101430Y19545000D01*
X68101430Y23990000D01*
X29688570Y23990000D01*
X29688570Y19545000D01*
X24974285Y19545000D01*
X24974285Y14465000D01*
X24625000Y14465000D01*
X21496190Y14465000D01*
X21459161Y14502093D01*
X20766595Y14789672D01*
X20016695Y14790326D01*
X19323628Y14503957D01*
X18792907Y13974161D01*
X18505328Y13281595D01*
X18504674Y12531695D01*
X13537440Y12531695D01*
X13537440Y14405000D01*
X13493162Y14640317D01*
X13354090Y14856441D01*
X13141890Y15001431D01*
X12890000Y15052440D01*
X10890000Y15052440D01*
X10654683Y15008162D01*
X10438559Y14869090D01*
X10293569Y14656890D01*
X10242560Y14405000D01*
X10242560Y13921000D01*
X9740841Y13921000D01*
X5969000Y17692840D01*
X5969000Y26002468D01*
X14382073Y26002468D01*
X14480736Y25735613D01*
X15090461Y25509092D01*
X15740460Y25533144D01*
X16229264Y25735613D01*
X16327927Y26002468D01*
X15355000Y26975395D01*
X14382073Y26002468D01*
X5969000Y26002468D01*
X5969000Y29749680D01*
X6357880Y29749680D01*
X6357880Y27250320D01*
X6402158Y27015003D01*
X6541230Y26798879D01*
X6753430Y26653889D01*
X7005320Y26602880D01*
X9504680Y26602880D01*
X9739997Y26647158D01*
X9956121Y26786230D01*
X10101111Y26998430D01*
X10152120Y27250320D01*
X10152120Y27419539D01*
X13709092Y27419539D01*
X13733144Y26769540D01*
X13935613Y26280736D01*
X14202468Y26182073D01*
X15175395Y27155000D01*
X15534605Y27155000D01*
X16507532Y26182073D01*
X16774387Y26280736D01*
X17000908Y26890461D01*
X16976856Y27540460D01*
X16774387Y28029264D01*
X16507532Y28127927D01*
X15534605Y27155000D01*
X15175395Y27155000D01*
X14202468Y28127927D01*
X13935613Y28029264D01*
X13709092Y27419539D01*
X10152120Y27419539D01*
X10152120Y27558218D01*
X10167807Y27561338D01*
X10497420Y27781580D01*
X11023372Y28307532D01*
X14382073Y28307532D01*
X15355000Y27334605D01*
X16327927Y28307532D01*
X16229264Y28574387D01*
X15918070Y28690000D01*
X20172560Y28690000D01*
X20172560Y25690000D01*
X20216838Y25454683D01*
X20355910Y25238559D01*
X20568110Y25093569D01*
X20820000Y25042560D01*
X23820000Y25042560D01*
X24055317Y25086838D01*
X24271441Y25225910D01*
X24416431Y25438110D01*
X24464611Y25676030D01*
X35485635Y25676030D01*
X35645418Y25357261D01*
X36436187Y25047277D01*
X37285387Y25063503D01*
X37994582Y25357261D01*
X38154365Y25676030D01*
X36820000Y27010395D01*
X35485635Y25676030D01*
X24464611Y25676030D01*
X24467440Y25690000D01*
X24467440Y27573813D01*
X34677277Y27573813D01*
X34693503Y26724613D01*
X34987261Y26015418D01*
X35306030Y25855635D01*
X36640395Y27190000D01*
X36999605Y27190000D01*
X38333970Y25855635D01*
X38626903Y26002468D01*
X79382073Y26002468D01*
X79480736Y25735613D01*
X80090461Y25509092D01*
X80740460Y25533144D01*
X81229264Y25735613D01*
X81327927Y26002468D01*
X80355000Y26975395D01*
X79382073Y26002468D01*
X38626903Y26002468D01*
X38652739Y26015418D01*
X38962723Y26806187D01*
X38951004Y27419539D01*
X78709092Y27419539D01*
X78733144Y26769540D01*
X78935613Y26280736D01*
X79202468Y26182073D01*
X80175395Y27155000D01*
X80534605Y27155000D01*
X81507532Y26182073D01*
X81774387Y26280736D01*
X82000908Y26890461D01*
X81990679Y27166911D01*
X86476517Y27166911D01*
X86605725Y26874141D01*
X87305883Y26605929D01*
X88055384Y26626072D01*
X88654275Y26874141D01*
X88783483Y27166911D01*
X87630000Y28320395D01*
X86476517Y27166911D01*
X81990679Y27166911D01*
X81976856Y27540460D01*
X81774387Y28029264D01*
X81507532Y28127927D01*
X80534605Y27155000D01*
X80175395Y27155000D01*
X79202468Y28127927D01*
X78935613Y28029264D01*
X78709092Y27419539D01*
X38951004Y27419539D01*
X38946497Y27655387D01*
X38676370Y28307532D01*
X79382073Y28307532D01*
X80355000Y27334605D01*
X81327927Y28307532D01*
X81229264Y28574387D01*
X80619539Y28800908D01*
X79969540Y28776856D01*
X79480736Y28574387D01*
X79382073Y28307532D01*
X38676370Y28307532D01*
X38652739Y28364582D01*
X38333970Y28524365D01*
X36999605Y27190000D01*
X36640395Y27190000D01*
X35306030Y28524365D01*
X34987261Y28364582D01*
X34677277Y27573813D01*
X24467440Y27573813D01*
X24467440Y28690000D01*
X24464812Y28703970D01*
X35485635Y28703970D01*
X36820000Y27369605D01*
X38154365Y28703970D01*
X37994582Y29022739D01*
X37203813Y29332723D01*
X36354613Y29316497D01*
X35645418Y29022739D01*
X35485635Y28703970D01*
X24464812Y28703970D01*
X24423162Y28925317D01*
X24284090Y29141441D01*
X24071890Y29286431D01*
X23820000Y29337440D01*
X20820000Y29337440D01*
X20584683Y29293162D01*
X20368559Y29154090D01*
X20223569Y28941890D01*
X20172560Y28690000D01*
X15918070Y28690000D01*
X15619539Y28800908D01*
X14969540Y28776856D01*
X14480736Y28574387D01*
X14382073Y28307532D01*
X11023372Y28307532D01*
X11259421Y28543580D01*
X11479662Y28873193D01*
X11491056Y28930474D01*
X11841551Y29280357D01*
X12075733Y29844330D01*
X12076265Y30454991D01*
X11843068Y31019371D01*
X11715245Y31147417D01*
X11735718Y31167890D01*
X11621161Y31282447D01*
X11626512Y31284250D01*
X20620000Y31284250D01*
X20620000Y29943690D01*
X20716673Y29710301D01*
X20895302Y29531673D01*
X21128691Y29435000D01*
X22469250Y29435000D01*
X22628000Y29593750D01*
X22628000Y31443000D01*
X22882000Y31443000D01*
X22882000Y29593750D01*
X23040750Y29435000D01*
X24381309Y29435000D01*
X24614698Y29531673D01*
X24793327Y29710301D01*
X24890000Y29943690D01*
X24890000Y31147185D01*
X33019630Y31147185D01*
X33343980Y30362200D01*
X33944041Y29761091D01*
X34728459Y29435372D01*
X35577815Y29434630D01*
X36362800Y29758980D01*
X36963909Y30359041D01*
X37289628Y31143459D01*
X37290370Y31992815D01*
X36966020Y32777800D01*
X36365959Y33378909D01*
X35581541Y33704628D01*
X34732185Y33705370D01*
X33947200Y33381020D01*
X33346091Y32780959D01*
X33020372Y31996541D01*
X33019630Y31147185D01*
X24890000Y31147185D01*
X24890000Y31284250D01*
X24731250Y31443000D01*
X22882000Y31443000D01*
X22628000Y31443000D01*
X20778750Y31443000D01*
X20620000Y31284250D01*
X11626512Y31284250D01*
X11877643Y31368852D01*
X12087458Y31942336D01*
X12061839Y32552460D01*
X11877643Y32997148D01*
X11621159Y33083554D01*
X10720605Y32183000D01*
X10734748Y32168857D01*
X10555143Y31989252D01*
X10541000Y32003395D01*
X10526858Y31989252D01*
X10347253Y32168857D01*
X10361395Y32183000D01*
X10347253Y32197142D01*
X10526858Y32376747D01*
X10541000Y32362605D01*
X11374705Y33196310D01*
X20620000Y33196310D01*
X20620000Y31855750D01*
X20778750Y31697000D01*
X22628000Y31697000D01*
X22628000Y33546250D01*
X22882000Y33546250D01*
X22882000Y31697000D01*
X24731250Y31697000D01*
X24890000Y31855750D01*
X24890000Y33196310D01*
X24793327Y33429699D01*
X24614698Y33608327D01*
X24381309Y33705000D01*
X23040750Y33705000D01*
X22882000Y33546250D01*
X22628000Y33546250D01*
X22469250Y33705000D01*
X21128691Y33705000D01*
X20895302Y33608327D01*
X20716673Y33429699D01*
X20620000Y33196310D01*
X11374705Y33196310D01*
X11441554Y33263159D01*
X11355148Y33519643D01*
X10781664Y33729458D01*
X10171540Y33703839D01*
X10137412Y33689703D01*
X10128928Y34005384D01*
X9880859Y34604275D01*
X9588089Y34733483D01*
X8434605Y33580000D01*
X8448748Y33565858D01*
X8269142Y33386252D01*
X8255000Y33400395D01*
X7101517Y32246911D01*
X7230725Y31954141D01*
X7930883Y31685929D01*
X8680384Y31706072D01*
X9018788Y31846244D01*
X9020161Y31813540D01*
X9204357Y31368852D01*
X9460839Y31282447D01*
X9346282Y31167890D01*
X9366599Y31147573D01*
X9240449Y31021643D01*
X9006267Y30457670D01*
X9006214Y30397120D01*
X7005320Y30397120D01*
X6770003Y30352842D01*
X6553879Y30213770D01*
X6408889Y30001570D01*
X6357880Y29749680D01*
X5969000Y29749680D01*
X5969000Y33904117D01*
X6360929Y33904117D01*
X6381072Y33154616D01*
X6629141Y32555725D01*
X6921911Y32426517D01*
X8075395Y33580000D01*
X6921911Y34733483D01*
X6629141Y34604275D01*
X6360929Y33904117D01*
X5969000Y33904117D01*
X5969000Y34913089D01*
X7101517Y34913089D01*
X8255000Y33759605D01*
X9408483Y34913089D01*
X9279275Y35205859D01*
X8579117Y35474071D01*
X7829616Y35453928D01*
X7230725Y35205859D01*
X7101517Y34913089D01*
X5969000Y34913089D01*
X5969000Y35064160D01*
X9310841Y38406000D01*
X31242000Y38406000D01*
X31566300Y38470507D01*
X31630807Y38483338D01*
X31960420Y38703580D01*
X39042176Y45785336D01*
X38989000Y45518000D01*
X38989000Y43271841D01*
X31888160Y36171000D01*
X16650996Y36171000D01*
X16282363Y36540278D01*
X15681648Y36789716D01*
X15031205Y36790284D01*
X14430057Y36541894D01*
X13969722Y36082363D01*
X13720284Y35481648D01*
X13719716Y34831205D01*
X13968106Y34230057D01*
X14427637Y33769722D01*
X15028352Y33520284D01*
X15678795Y33519716D01*
X16279943Y33768106D01*
X16651486Y34139000D01*
X32309000Y34139000D01*
X32633300Y34203507D01*
X32697807Y34216338D01*
X33027420Y34436580D01*
X34816733Y36225893D01*
X42195498Y36225893D01*
X42296120Y35957378D01*
X42911642Y35728184D01*
X43568019Y35751986D01*
X44063880Y35957378D01*
X44164502Y36225893D01*
X43180000Y37210395D01*
X42195498Y36225893D01*
X34816733Y36225893D01*
X36249198Y37658358D01*
X41518184Y37658358D01*
X41541986Y37001981D01*
X41747378Y36506120D01*
X42015893Y36405498D01*
X43000395Y37390000D01*
X42015893Y38374502D01*
X41747378Y38273880D01*
X41518184Y37658358D01*
X36249198Y37658358D01*
X37144947Y38554107D01*
X42195498Y38554107D01*
X43180000Y37569605D01*
X44164502Y38554107D01*
X44063880Y38822622D01*
X43448358Y39051816D01*
X42791981Y39028014D01*
X42296120Y38822622D01*
X42195498Y38554107D01*
X37144947Y38554107D01*
X40723421Y42132580D01*
X40943662Y42462193D01*
X41021000Y42851000D01*
X41021000Y45097160D01*
X41717888Y45794048D01*
X41529287Y45339845D01*
X41528714Y44683037D01*
X41779534Y44076005D01*
X42243563Y43611166D01*
X42850155Y43359287D01*
X43506963Y43358714D01*
X44113995Y43609534D01*
X44578834Y44073563D01*
X44767654Y44528291D01*
X44954534Y44076005D01*
X45418563Y43611166D01*
X45466000Y43591468D01*
X45466000Y40946000D01*
X45533671Y40605794D01*
X45645788Y40438000D01*
X45726382Y40317382D01*
X47134971Y38908793D01*
X47162398Y38842416D01*
X46684845Y39040713D01*
X46028037Y39041286D01*
X45421005Y38790466D01*
X44956166Y38326437D01*
X44773284Y37886008D01*
X44612622Y38273880D01*
X44344107Y38374502D01*
X43359605Y37390000D01*
X44344107Y36405498D01*
X44612622Y36506120D01*
X44764876Y36915013D01*
X44954534Y36456005D01*
X45418563Y35991166D01*
X46025155Y35739287D01*
X46681963Y35738714D01*
X47288995Y35989534D01*
X47753834Y36453563D01*
X48005713Y37060155D01*
X48006286Y37716963D01*
X47755466Y38323995D01*
X47680986Y38398605D01*
X47815705Y38342665D01*
X48194633Y38342335D01*
X48544843Y38487039D01*
X48813020Y38754747D01*
X48958335Y39104705D01*
X48958665Y39483633D01*
X48813961Y39833843D01*
X48546253Y40102020D01*
X48392282Y40165954D01*
X47244000Y41314236D01*
X47244000Y43590942D01*
X47288995Y43609534D01*
X47753834Y44073563D01*
X48005713Y44680155D01*
X48006286Y45336963D01*
X47755466Y45943995D01*
X47673604Y46026000D01*
X49149000Y46026000D01*
X49149000Y42851000D01*
X49213507Y42526700D01*
X49226338Y42462193D01*
X49446580Y42132580D01*
X58717580Y32861579D01*
X59047193Y32641338D01*
X59111700Y32628507D01*
X59436000Y32564000D01*
X70358000Y32564000D01*
X70682300Y32628507D01*
X70746807Y32641338D01*
X71076420Y32861580D01*
X72353841Y34139000D01*
X79059004Y34139000D01*
X79427637Y33769722D01*
X80028352Y33520284D01*
X80553334Y33519826D01*
X81211579Y32861580D01*
X81307675Y32797371D01*
X81541194Y32641338D01*
X81930000Y32564000D01*
X83945601Y32564000D01*
X83809267Y32235670D01*
X83808735Y31625009D01*
X84041932Y31060629D01*
X84169755Y30932583D01*
X84149282Y30912110D01*
X84263839Y30797553D01*
X84007357Y30711148D01*
X83797542Y30137664D01*
X83823161Y29527540D01*
X84007357Y29082852D01*
X84263841Y28996446D01*
X85164395Y29897000D01*
X85150253Y29911142D01*
X85329858Y30090747D01*
X85344000Y30076605D01*
X85358143Y30090747D01*
X85537748Y29911142D01*
X85523605Y29897000D01*
X85537748Y29882857D01*
X85358143Y29703252D01*
X85344000Y29717395D01*
X84443446Y28816841D01*
X84529852Y28560357D01*
X85103336Y28350542D01*
X85713460Y28376161D01*
X85747588Y28390297D01*
X85756072Y28074616D01*
X86004141Y27475725D01*
X86296911Y27346517D01*
X87450395Y28500000D01*
X87809605Y28500000D01*
X88963089Y27346517D01*
X89255859Y27475725D01*
X89524071Y28175883D01*
X89503928Y28925384D01*
X89255859Y29524275D01*
X88963089Y29653483D01*
X87809605Y28500000D01*
X87450395Y28500000D01*
X87436252Y28514142D01*
X87615858Y28693748D01*
X87630000Y28679605D01*
X88783483Y29833089D01*
X88654275Y30125859D01*
X87954117Y30394071D01*
X87204616Y30373928D01*
X86866212Y30233756D01*
X86864839Y30266460D01*
X86680643Y30711148D01*
X86424161Y30797553D01*
X86538718Y30912110D01*
X86518401Y30932427D01*
X86644551Y31058357D01*
X86878733Y31622330D01*
X86878786Y31682880D01*
X88879680Y31682880D01*
X89114997Y31727158D01*
X89331121Y31866230D01*
X89476111Y32078430D01*
X89527120Y32330320D01*
X89527120Y34829680D01*
X89482842Y35064997D01*
X89343770Y35281121D01*
X89131570Y35426111D01*
X88879680Y35477120D01*
X86380320Y35477120D01*
X86145003Y35432842D01*
X85928879Y35293770D01*
X85783889Y35081570D01*
X85732880Y34829680D01*
X85732880Y34596000D01*
X82350841Y34596000D01*
X81989828Y34957012D01*
X81990284Y35478795D01*
X81741894Y36079943D01*
X81282363Y36540278D01*
X80681648Y36789716D01*
X80031205Y36790284D01*
X79430057Y36541894D01*
X79058514Y36171000D01*
X72099840Y36171000D01*
X80728420Y44799579D01*
X80948662Y45129193D01*
X80980425Y45288879D01*
X81026000Y45518000D01*
X81026000Y46216911D01*
X86476517Y46216911D01*
X86605725Y45924141D01*
X87305883Y45655929D01*
X88055384Y45676072D01*
X88654275Y45924141D01*
X88783483Y46216911D01*
X87630000Y47370395D01*
X86476517Y46216911D01*
X81026000Y46216911D01*
X81026000Y57580797D01*
X81069910Y57512559D01*
X81282110Y57367569D01*
X81534000Y57316560D01*
X81661000Y57316560D01*
X81661000Y50051823D01*
X81597665Y49899295D01*
X81597335Y49520367D01*
X81742039Y49170157D01*
X82009747Y48901980D01*
X82359705Y48756665D01*
X82738633Y48756335D01*
X83088843Y48901039D01*
X83357020Y49168747D01*
X83364875Y49187664D01*
X83797542Y49187664D01*
X83823161Y48577540D01*
X84007357Y48132852D01*
X84263841Y48046446D01*
X85164395Y48947000D01*
X85150253Y48961142D01*
X85329858Y49140747D01*
X85344000Y49126605D01*
X85358143Y49140747D01*
X85537748Y48961142D01*
X85523605Y48947000D01*
X85537748Y48932857D01*
X85358143Y48753252D01*
X85344000Y48767395D01*
X84443446Y47866841D01*
X84529852Y47610357D01*
X85103336Y47400542D01*
X85713460Y47426161D01*
X85747588Y47440297D01*
X85756072Y47124616D01*
X86004141Y46525725D01*
X86296911Y46396517D01*
X87450395Y47550000D01*
X87809605Y47550000D01*
X88963089Y46396517D01*
X89255859Y46525725D01*
X89524071Y47225883D01*
X89503928Y47975384D01*
X89255859Y48574275D01*
X88963089Y48703483D01*
X87809605Y47550000D01*
X87450395Y47550000D01*
X87436252Y47564142D01*
X87615858Y47743748D01*
X87630000Y47729605D01*
X88783483Y48883089D01*
X88654275Y49175859D01*
X87954117Y49444071D01*
X87204616Y49423928D01*
X86866212Y49283756D01*
X86864839Y49316460D01*
X86680643Y49761148D01*
X86424161Y49847553D01*
X86538718Y49962110D01*
X86518401Y49982427D01*
X86644551Y50108357D01*
X86878733Y50672330D01*
X86878786Y50732880D01*
X88879680Y50732880D01*
X89114997Y50777158D01*
X89331121Y50916230D01*
X89476111Y51128430D01*
X89527120Y51380320D01*
X89527120Y53879680D01*
X89482842Y54114997D01*
X89343770Y54331121D01*
X89131570Y54476111D01*
X88879680Y54527120D01*
X86380320Y54527120D01*
X86145003Y54482842D01*
X85928879Y54343770D01*
X85783889Y54131570D01*
X85732880Y53879680D01*
X85732880Y52804721D01*
X85442074Y52513915D01*
X85040009Y52514265D01*
X84475629Y52281068D01*
X84043449Y51849643D01*
X83809267Y51285670D01*
X83808735Y50675009D01*
X84041932Y50110629D01*
X84169755Y49982583D01*
X84149282Y49962110D01*
X84263839Y49847553D01*
X84007357Y49761148D01*
X83797542Y49187664D01*
X83364875Y49187664D01*
X83502335Y49518705D01*
X83502665Y49897633D01*
X83439000Y50051714D01*
X83439000Y57316560D01*
X83566000Y57316560D01*
X83801317Y57360838D01*
X84017441Y57499910D01*
X84162431Y57712110D01*
X84213440Y57964000D01*
X84213440Y59996000D01*
X84172762Y60212185D01*
X88499630Y60212185D01*
X88823980Y59427200D01*
X89424041Y58826091D01*
X90208459Y58500372D01*
X91057815Y58499630D01*
X91842800Y58823980D01*
X92443909Y59424041D01*
X92769628Y60208459D01*
X92770370Y61057815D01*
X92446020Y61842800D01*
X91845959Y62443909D01*
X91061541Y62769628D01*
X90212185Y62770370D01*
X89427200Y62446020D01*
X88826091Y61845959D01*
X88500372Y61061541D01*
X88499630Y60212185D01*
X84172762Y60212185D01*
X84169162Y60231317D01*
X84030090Y60447441D01*
X83817890Y60592431D01*
X83566000Y60643440D01*
X81534000Y60643440D01*
X81298683Y60599162D01*
X81082559Y60460090D01*
X80994287Y60330900D01*
X80946437Y60378834D01*
X80339845Y60630713D01*
X79683037Y60631286D01*
X79076005Y60380466D01*
X78611166Y59916437D01*
X78359287Y59309845D01*
X78358714Y58653037D01*
X78609534Y58046005D01*
X78994000Y57660868D01*
X78994000Y45938841D01*
X73268872Y40213712D01*
X73291338Y40247335D01*
X73328662Y40303194D01*
X73406000Y40692000D01*
X73406000Y57580797D01*
X73449910Y57512559D01*
X73662110Y57367569D01*
X73914000Y57316560D01*
X74041000Y57316560D01*
X74041000Y46749823D01*
X73977665Y46597295D01*
X73977335Y46218367D01*
X74122039Y45868157D01*
X74389747Y45599980D01*
X74739705Y45454665D01*
X75118633Y45454335D01*
X75468843Y45599039D01*
X75737020Y45866747D01*
X75882335Y46216705D01*
X75882665Y46595633D01*
X75819000Y46749714D01*
X75819000Y57316560D01*
X75946000Y57316560D01*
X76181317Y57360838D01*
X76397441Y57499910D01*
X76542431Y57712110D01*
X76593440Y57964000D01*
X76593440Y59996000D01*
X76549162Y60231317D01*
X76410090Y60447441D01*
X76197890Y60592431D01*
X75946000Y60643440D01*
X73914000Y60643440D01*
X73678683Y60599162D01*
X73462559Y60460090D01*
X73374287Y60330900D01*
X73326437Y60378834D01*
X72719845Y60630713D01*
X72063037Y60631286D01*
X71456005Y60380466D01*
X70991166Y59916437D01*
X70739287Y59309845D01*
X70738714Y58653037D01*
X70989534Y58046005D01*
X71374000Y57660868D01*
X71374000Y41112841D01*
X68667160Y38406000D01*
X63548604Y38406000D01*
X63166437Y38788834D01*
X62559845Y39040713D01*
X61903037Y39041286D01*
X61296005Y38790466D01*
X60831166Y38326437D01*
X60642346Y37871709D01*
X60455466Y38323995D01*
X59991437Y38788834D01*
X59384845Y39040713D01*
X58728037Y39041286D01*
X58121005Y38790466D01*
X57656166Y38326437D01*
X57404287Y37719845D01*
X57403714Y37063037D01*
X57413509Y37039332D01*
X51181000Y43271840D01*
X51181000Y47791560D01*
X51416317Y47835838D01*
X51632441Y47974910D01*
X51777431Y48187110D01*
X51828440Y48439000D01*
X51828440Y49723358D01*
X53583184Y49723358D01*
X53606986Y49066981D01*
X53812378Y48571120D01*
X54080893Y48470498D01*
X55065395Y49455000D01*
X54080893Y50439502D01*
X53812378Y50338880D01*
X53583184Y49723358D01*
X51828440Y49723358D01*
X51828440Y50471000D01*
X51784162Y50706317D01*
X51645090Y50922441D01*
X51432890Y51067431D01*
X51181000Y51118440D01*
X49149000Y51118440D01*
X48913683Y51074162D01*
X48697559Y50935090D01*
X48564221Y50739943D01*
X48508880Y50887622D01*
X47893358Y51116816D01*
X47236981Y51093014D01*
X46741120Y50887622D01*
X46640498Y50619107D01*
X47625000Y49634605D01*
X47639143Y49648747D01*
X47818748Y49469142D01*
X47804605Y49455000D01*
X47818748Y49440857D01*
X47639143Y49261252D01*
X47625000Y49275395D01*
X46640498Y48290893D01*
X46727771Y48058000D01*
X41529000Y48058000D01*
X41261665Y48004824D01*
X42980199Y49723358D01*
X45963184Y49723358D01*
X45986986Y49066981D01*
X46192378Y48571120D01*
X46460893Y48470498D01*
X47445395Y49455000D01*
X46460893Y50439502D01*
X46192378Y50338880D01*
X45963184Y49723358D01*
X42980199Y49723358D01*
X44000021Y50743180D01*
X44220262Y51072793D01*
X44297600Y51461600D01*
X44297600Y53213000D01*
X61214000Y53213000D01*
X61214000Y46328604D01*
X60910868Y46026000D01*
X60373604Y46026000D01*
X59991437Y46408834D01*
X59384845Y46660713D01*
X59094874Y46660966D01*
X58801000Y46954840D01*
X58801000Y47791560D01*
X59036317Y47835838D01*
X59252441Y47974910D01*
X59397431Y48187110D01*
X59448440Y48439000D01*
X59448440Y50471000D01*
X59404162Y50706317D01*
X59265090Y50922441D01*
X59052890Y51067431D01*
X58801000Y51118440D01*
X56769000Y51118440D01*
X56533683Y51074162D01*
X56317559Y50935090D01*
X56184221Y50739943D01*
X56128880Y50887622D01*
X55513358Y51116816D01*
X54856981Y51093014D01*
X54361120Y50887622D01*
X54260498Y50619107D01*
X55245000Y49634605D01*
X55259143Y49648747D01*
X55438748Y49469142D01*
X55424605Y49455000D01*
X55438748Y49440857D01*
X55259143Y49261252D01*
X55245000Y49275395D01*
X54260498Y48290893D01*
X54361120Y48022378D01*
X54976642Y47793184D01*
X55633019Y47816986D01*
X56128880Y48022378D01*
X56185419Y48173254D01*
X56304910Y47987559D01*
X56517110Y47842569D01*
X56769000Y47791560D01*
X56769000Y46534000D01*
X56828192Y46236420D01*
X56846338Y46145193D01*
X57066580Y45815580D01*
X57444785Y45437375D01*
X57404287Y45339845D01*
X57403714Y44683037D01*
X57654534Y44076005D01*
X58118563Y43611166D01*
X58725155Y43359287D01*
X59381963Y43358714D01*
X59988995Y43609534D01*
X60374132Y43994000D01*
X60911396Y43994000D01*
X61293563Y43611166D01*
X61900155Y43359287D01*
X62556963Y43358714D01*
X63163995Y43609534D01*
X63628834Y44073563D01*
X63880713Y44680155D01*
X63881286Y45336963D01*
X63630466Y45943995D01*
X63246000Y46329132D01*
X63246000Y55295505D01*
X63479371Y55391932D01*
X63607417Y55519755D01*
X63627890Y55499282D01*
X63742447Y55613839D01*
X63828852Y55357357D01*
X64402336Y55147542D01*
X65012460Y55173161D01*
X65457148Y55357357D01*
X65543554Y55613841D01*
X64643000Y56514395D01*
X64628858Y56500252D01*
X64449253Y56679857D01*
X64463395Y56694000D01*
X64449253Y56708142D01*
X64628858Y56887747D01*
X64643000Y56873605D01*
X64657143Y56887747D01*
X64836748Y56708142D01*
X64822605Y56694000D01*
X65723159Y55793446D01*
X65979643Y55879852D01*
X66189458Y56453336D01*
X66163839Y57063460D01*
X66149703Y57097588D01*
X66465384Y57106072D01*
X67064275Y57354141D01*
X67193483Y57646911D01*
X66040000Y58800395D01*
X66025858Y58786252D01*
X65846252Y58965858D01*
X65860395Y58980000D01*
X66219605Y58980000D01*
X67373089Y57826517D01*
X67665859Y57955725D01*
X67934071Y58655883D01*
X67913928Y59405384D01*
X67665859Y60004275D01*
X67373089Y60133483D01*
X66219605Y58980000D01*
X65860395Y58980000D01*
X64706911Y60133483D01*
X64414141Y60004275D01*
X64145929Y59304117D01*
X64166072Y58554616D01*
X64306244Y58216212D01*
X64273540Y58214839D01*
X63828852Y58030643D01*
X63742447Y57774161D01*
X63627890Y57888718D01*
X63607573Y57868401D01*
X63481643Y57994551D01*
X62917670Y58228733D01*
X62857120Y58228786D01*
X62857120Y60229680D01*
X62841426Y60313089D01*
X64886517Y60313089D01*
X66040000Y59159605D01*
X67193483Y60313089D01*
X67064275Y60605859D01*
X66364117Y60874071D01*
X65614616Y60853928D01*
X65015725Y60605859D01*
X64886517Y60313089D01*
X62841426Y60313089D01*
X62812842Y60464997D01*
X62673770Y60681121D01*
X62461570Y60826111D01*
X62209680Y60877120D01*
X59710320Y60877120D01*
X59475003Y60832842D01*
X59258879Y60693770D01*
X59113889Y60481570D01*
X59062880Y60229680D01*
X59062880Y57730320D01*
X59107158Y57495003D01*
X59246230Y57278879D01*
X59458430Y57133889D01*
X59710320Y57082880D01*
X60785280Y57082880D01*
X61076085Y56792074D01*
X61075735Y56390009D01*
X61214000Y56055382D01*
X61214000Y55245000D01*
X44297600Y55245000D01*
X44297600Y58245732D01*
X44740278Y58687637D01*
X44864054Y58985723D01*
X44975726Y58715457D01*
X45435257Y58255122D01*
X46035972Y58005684D01*
X46686415Y58005116D01*
X47287563Y58253506D01*
X47747898Y58713037D01*
X47853514Y58967390D01*
X47968106Y58690057D01*
X48427637Y58229722D01*
X49028352Y57980284D01*
X49678795Y57979716D01*
X50279943Y58228106D01*
X50740278Y58687637D01*
X50989716Y59288352D01*
X50990284Y59938795D01*
X50741894Y60539943D01*
X50725040Y60556827D01*
X51420000Y60556827D01*
X51420000Y58673173D01*
X51514009Y58200559D01*
X51781723Y57799896D01*
X52182386Y57532182D01*
X52655000Y57438173D01*
X53127614Y57532182D01*
X53528277Y57799896D01*
X53795991Y58200559D01*
X53890000Y58673173D01*
X53890000Y60556827D01*
X53795991Y61029441D01*
X53528277Y61430104D01*
X53127614Y61697818D01*
X52655000Y61791827D01*
X52182386Y61697818D01*
X51781723Y61430104D01*
X51514009Y61029441D01*
X51420000Y60556827D01*
X50725040Y60556827D01*
X50282363Y61000278D01*
X49681648Y61249716D01*
X49031205Y61250284D01*
X48430057Y61001894D01*
X47969722Y60542363D01*
X47864106Y60288010D01*
X47749514Y60565343D01*
X47289983Y61025678D01*
X46689268Y61275116D01*
X46038825Y61275684D01*
X45437677Y61027294D01*
X44977342Y60567763D01*
X44853566Y60269677D01*
X44741894Y60539943D01*
X44282363Y61000278D01*
X43681648Y61249716D01*
X43031205Y61250284D01*
X42430057Y61001894D01*
X41969722Y60542363D01*
X41720284Y59941648D01*
X41719716Y59291205D01*
X41968106Y58690057D01*
X42265600Y58392043D01*
X42265600Y51882441D01*
X34666864Y44283705D01*
X34667242Y44716661D01*
X34455010Y45230303D01*
X34286000Y45399608D01*
X34286000Y46105000D01*
X34208662Y46493806D01*
X34208662Y46493807D01*
X33988420Y46823420D01*
X33103420Y47708420D01*
X32773807Y47928662D01*
X32709300Y47941493D01*
X32385000Y48006000D01*
X10787120Y48006000D01*
X10787120Y48239680D01*
X10742842Y48474997D01*
X10603770Y48691121D01*
X10391570Y48836111D01*
X10139680Y48887120D01*
X7640320Y48887120D01*
X7405003Y48842842D01*
X7188879Y48703770D01*
X7043889Y48491570D01*
X6992880Y48239680D01*
X6992880Y45740320D01*
X7037158Y45505003D01*
X7176230Y45288879D01*
X7388430Y45143889D01*
X7640320Y45092880D01*
X10139680Y45092880D01*
X10374997Y45137158D01*
X10591121Y45276230D01*
X10736111Y45488430D01*
X10787120Y45740320D01*
X10787120Y45974000D01*
X31964160Y45974000D01*
X32254000Y45684160D01*
X32254000Y45399707D01*
X32086371Y45232370D01*
X32000051Y45024488D01*
X31915010Y45230303D01*
X31522370Y45623629D01*
X31009100Y45836757D01*
X30453339Y45837242D01*
X29939697Y45625010D01*
X29546371Y45232370D01*
X29460051Y45024488D01*
X29375010Y45230303D01*
X28982370Y45623629D01*
X28469100Y45836757D01*
X27913339Y45837242D01*
X27399697Y45625010D01*
X27006371Y45232370D01*
X26920051Y45024488D01*
X26835010Y45230303D01*
X26442370Y45623629D01*
X25929100Y45836757D01*
X25373339Y45837242D01*
X24859697Y45625010D01*
X24466371Y45232370D01*
X24253243Y44719100D01*
X24252758Y44163339D01*
X24464990Y43649697D01*
X24857630Y43256371D01*
X25370900Y43043243D01*
X25926661Y43042758D01*
X26440303Y43254990D01*
X26833629Y43647630D01*
X26919949Y43855512D01*
X27004990Y43649697D01*
X27397630Y43256371D01*
X27910900Y43043243D01*
X28466661Y43042758D01*
X28980303Y43254990D01*
X29373629Y43647630D01*
X29459949Y43855512D01*
X29544990Y43649697D01*
X29937630Y43256371D01*
X30450900Y43043243D01*
X31006661Y43042758D01*
X31520303Y43254990D01*
X31913629Y43647630D01*
X31999949Y43855512D01*
X32084990Y43649697D01*
X32477630Y43256371D01*
X32990900Y43043243D01*
X33426023Y43042863D01*
X30821160Y40438000D01*
X8890000Y40438000D01*
X8565700Y40373493D01*
X8501193Y40360662D01*
X8171580Y40140421D01*
X4234580Y36203420D01*
X4014338Y35873807D01*
X4014338Y35873806D01*
X3937000Y35485000D01*
X1370000Y35485000D01*
X1370000Y51696759D01*
X7004994Y51696759D01*
X7291314Y51003809D01*
X7821021Y50473178D01*
X8513469Y50185648D01*
X9263241Y50184994D01*
X9956191Y50471314D01*
X10486822Y51001021D01*
X10774352Y51693469D01*
X10775006Y52443241D01*
X10518729Y53063482D01*
X23886330Y53063482D01*
X24096826Y52554043D01*
X24486253Y52163936D01*
X24995324Y51952551D01*
X25546538Y51952070D01*
X26055977Y52162566D01*
X26446084Y52551993D01*
X26542115Y52783261D01*
X26636826Y52554043D01*
X27026253Y52163936D01*
X27535324Y51952551D01*
X28086538Y51952070D01*
X28595977Y52162566D01*
X28828203Y52394387D01*
X29058253Y52163936D01*
X29567324Y51952551D01*
X30118538Y51952070D01*
X30627977Y52162566D01*
X31018084Y52551993D01*
X31114115Y52783261D01*
X31208826Y52554043D01*
X31598253Y52163936D01*
X32107324Y51952551D01*
X32658538Y51952070D01*
X33167977Y52162566D01*
X33558084Y52551993D01*
X33769469Y53061064D01*
X33769950Y53612278D01*
X33559454Y54121717D01*
X33170027Y54511824D01*
X32660956Y54723209D01*
X32109742Y54723690D01*
X31600303Y54513194D01*
X31210196Y54123767D01*
X31114165Y53892499D01*
X31019454Y54121717D01*
X30630027Y54511824D01*
X30120956Y54723209D01*
X29569742Y54723690D01*
X29060303Y54513194D01*
X28828077Y54281373D01*
X28598027Y54511824D01*
X28088956Y54723209D01*
X27537742Y54723690D01*
X27028303Y54513194D01*
X26638196Y54123767D01*
X26542165Y53892499D01*
X26447454Y54121717D01*
X26058027Y54511824D01*
X25548956Y54723209D01*
X24997742Y54723690D01*
X24488303Y54513194D01*
X24098196Y54123767D01*
X23886811Y53614696D01*
X23886330Y53063482D01*
X10518729Y53063482D01*
X10488686Y53136191D01*
X9958979Y53666822D01*
X9266531Y53954352D01*
X8516759Y53955006D01*
X7823809Y53668686D01*
X7293178Y53138979D01*
X7005648Y52446531D01*
X7004994Y51696759D01*
X1370000Y51696759D01*
X1370000Y55582091D01*
X20088900Y55582091D01*
X20413230Y54797153D01*
X21013254Y54196080D01*
X21797625Y53870381D01*
X22646929Y53869640D01*
X23431867Y54193970D01*
X24032940Y54793994D01*
X24358639Y55578365D01*
X24358642Y55582091D01*
X33804900Y55582091D01*
X34129230Y54797153D01*
X34729254Y54196080D01*
X35513625Y53870381D01*
X36362929Y53869640D01*
X37147867Y54193970D01*
X37748940Y54793994D01*
X38074639Y55578365D01*
X38075380Y56427669D01*
X37751050Y57212607D01*
X37151026Y57813680D01*
X36366655Y58139379D01*
X35517351Y58140120D01*
X34732413Y57815790D01*
X34131340Y57215766D01*
X33805641Y56431395D01*
X33804900Y55582091D01*
X24358642Y55582091D01*
X24359380Y56427669D01*
X24035050Y57212607D01*
X23435026Y57813680D01*
X22650655Y58139379D01*
X21801351Y58140120D01*
X21016413Y57815790D01*
X20415340Y57215766D01*
X20089641Y56431395D01*
X20088900Y55582091D01*
X1370000Y55582091D01*
X1370000Y60212185D01*
X3499630Y60212185D01*
X3823980Y59427200D01*
X4424041Y58826091D01*
X5208459Y58500372D01*
X6057815Y58499630D01*
X6842800Y58823980D01*
X7443909Y59424041D01*
X7769628Y60208459D01*
X7769932Y60556827D01*
X38820000Y60556827D01*
X38820000Y58673173D01*
X38914009Y58200559D01*
X39181723Y57799896D01*
X39582386Y57532182D01*
X40055000Y57438173D01*
X40527614Y57532182D01*
X40928277Y57799896D01*
X41195991Y58200559D01*
X41290000Y58673173D01*
X41290000Y60556827D01*
X41195991Y61029441D01*
X40928277Y61430104D01*
X40527614Y61697818D01*
X40055000Y61791827D01*
X39582386Y61697818D01*
X39181723Y61430104D01*
X38914009Y61029441D01*
X38820000Y60556827D01*
X7769932Y60556827D01*
X7770370Y61057815D01*
X7446020Y61842800D01*
X6845959Y62443909D01*
X6061541Y62769628D01*
X5212185Y62770370D01*
X4427200Y62446020D01*
X3826091Y61845959D01*
X3500372Y61061541D01*
X3499630Y60212185D01*
X1370000Y60212185D01*
X1370000Y60562610D01*
X1707957Y62261634D01*
X2629371Y63640629D01*
X4008366Y64562043D01*
X5545512Y64867800D01*
X5635000Y64850000D01*
X90635000Y64850000D01*
X90724488Y64867800D01*
X92261634Y64562043D01*
M02*
