M48
;DRILL file {KiCad 4.0.4-stable} date 06/12/17 15:43:09
;FORMAT={-:-/ absolute / inch / decimal}
FMAT,2
INCH,TZ
T1C0.020
T2C0.020
T3C0.030
T4C0.031
T5C0.032
T6C0.032
T7C0.035
T8C0.039
T9C0.039
T10C0.079
T11C0.098
T12C0.098
T13C0.118
%
G90
G05
M72
T2
X5.74Y-3.553
X6.8Y-3.273
X7.1Y-3.143
T3
X4.8598Y-3.3504
X4.9598Y-3.3504
X5.0598Y-3.3504
X5.1598Y-3.3504
T4
X4.265Y-3.833
X4.265Y-3.913
X6.315Y-2.868
X6.395Y-2.868
X7.21Y-3.093
X7.21Y-3.173
X7.21Y-3.843
X7.21Y-3.923
T5
X5.55Y-3.328
X5.55Y-3.628
X5.675Y-3.328
X5.675Y-3.628
X5.725Y-3.153
X5.825Y-3.153
X6.025Y-3.153
X6.125Y-3.153
X6.175Y-3.328
X6.175Y-3.628
X6.3Y-3.328
X6.3Y-3.628
T6
X6.7Y-2.778
X6.8Y-2.778
X7.Y-2.778
X7.1Y-2.778
T7
X5.554Y-2.752
X5.6753Y-2.752
X5.7934Y-2.752
T8
X4.7287Y-4.0295
X4.7459Y-3.8571
X5.2341Y-3.8571
X5.2996Y-4.0295
T9
X4.175Y-3.028
X4.175Y-3.228
X4.175Y-3.778
X4.175Y-3.978
X4.925Y-2.778
X5.125Y-2.778
X6.25Y-2.778
X6.45Y-2.778
X7.3Y-3.028
X7.3Y-3.228
X7.3Y-3.778
X7.3Y-3.978
T10
X4.4545Y-3.7159
X4.4545Y-4.0309
X7.0136Y-3.7159
X7.0136Y-4.0309
T11
X5.4194Y-2.752
X5.9312Y-2.752
T12
X4.6528Y-4.6449
X6.8181Y-4.6449
T13
X4.0719Y-2.7128
X4.0719Y-4.8781
X7.4183Y-2.7128
X7.4183Y-4.8781
T1
X4.3181Y-4.6232G85X4.3181Y-4.6665
G05
X7.1528Y-4.6232G85X7.1528Y-4.6665
G05
T0
M30
