G04 #@! TF.FileFunction,Copper,L1,Top,Signal*
%FSLAX46Y46*%
G04 Gerber Fmt 4.6, Leading zero omitted, Abs format (unit mm)*
G04 Created by KiCad (PCBNEW 4.0.4-stable) date 06/12/17 15:43:04*
%MOMM*%
%LPD*%
G01*
G04 APERTURE LIST*
%ADD10C,0.100000*%
%ADD11C,0.010000*%
%ADD12C,4.000000*%
%ADD13C,2.032000*%
%ADD14R,0.500000X0.250000*%
%ADD15R,0.840000X2.400000*%
%ADD16R,2.032000X2.032000*%
%ADD17C,0.010000*%
%ADD18R,2.499360X2.499360*%
%ADD19C,2.499360*%
%ADD20R,2.000000X3.000000*%
%ADD21O,2.000000X3.000000*%
%ADD22R,3.000000X3.000000*%
%ADD23C,3.000000*%
%ADD24C,1.524000*%
%ADD25C,1.800000*%
%ADD26C,3.500120*%
%ADD27C,0.635000*%
%ADD28C,0.762000*%
%ADD29C,0.200000*%
%ADD30C,0.508000*%
%ADD31C,0.254000*%
G04 APERTURE END LIST*
D10*
D11*
G36*
X150471092Y-93475514D02*
X151033908Y-93520571D01*
X151508235Y-93609193D01*
X151581706Y-93630458D01*
X152398578Y-93969701D01*
X153147366Y-94449797D01*
X153677072Y-94925239D01*
X154136128Y-95453331D01*
X154482358Y-95975243D01*
X154756748Y-96555620D01*
X154826661Y-96738432D01*
X154935208Y-97163009D01*
X155002463Y-97695995D01*
X155027724Y-98281399D01*
X155010288Y-98863234D01*
X154949454Y-99385509D01*
X154864268Y-99737333D01*
X154492352Y-100604343D01*
X153999998Y-101360829D01*
X153394541Y-101998203D01*
X152683312Y-102507878D01*
X152346847Y-102685610D01*
X151968794Y-102852278D01*
X151586020Y-102998212D01*
X151265552Y-103098467D01*
X151189332Y-103116372D01*
X150831714Y-103164643D01*
X150379732Y-103190962D01*
X149907094Y-103194002D01*
X149487508Y-103172436D01*
X149309666Y-103150214D01*
X148843855Y-103034206D01*
X148323494Y-102844832D01*
X147827263Y-102613238D01*
X147557875Y-102456727D01*
X146992718Y-102018076D01*
X147447000Y-102018076D01*
X147517788Y-102088508D01*
X147707380Y-102210526D01*
X147981614Y-102363085D01*
X148134137Y-102441410D01*
X148498528Y-102616379D01*
X148768621Y-102731080D01*
X148930182Y-102781029D01*
X148968980Y-102761741D01*
X148881224Y-102676807D01*
X148744753Y-102567403D01*
X148665248Y-102502574D01*
X149315106Y-102502574D01*
X149372397Y-102639183D01*
X149482298Y-102769368D01*
X149631337Y-102890280D01*
X149773111Y-102951021D01*
X149862631Y-102941933D01*
X149861264Y-102926244D01*
X150601409Y-102926244D01*
X150643507Y-102944152D01*
X150699702Y-102926721D01*
X150886329Y-102877170D01*
X150959202Y-102870000D01*
X151078498Y-102821907D01*
X151279601Y-102697910D01*
X151390702Y-102620145D01*
X151752351Y-102620145D01*
X151766151Y-102647207D01*
X151878851Y-102615468D01*
X151892000Y-102610843D01*
X152124427Y-102511103D01*
X152404446Y-102368201D01*
X152501457Y-102313442D01*
X152777293Y-102137645D01*
X152898844Y-102020174D01*
X152868950Y-101956231D01*
X152722496Y-101940408D01*
X152482535Y-102011368D01*
X152173671Y-102224596D01*
X152061333Y-102321471D01*
X151847421Y-102517246D01*
X151752351Y-102620145D01*
X151390702Y-102620145D01*
X151521736Y-102528428D01*
X151764129Y-102343881D01*
X151966007Y-102174688D01*
X152086597Y-102051270D01*
X152103666Y-102016156D01*
X152028142Y-101969251D01*
X151837770Y-101941708D01*
X151735920Y-101938666D01*
X151519331Y-101951337D01*
X151359297Y-102010591D01*
X151200046Y-102148292D01*
X151031977Y-102340833D01*
X150786686Y-102640380D01*
X150646149Y-102830252D01*
X150601409Y-102926244D01*
X149861264Y-102926244D01*
X149854908Y-102853355D01*
X149852401Y-102848833D01*
X149718805Y-102660262D01*
X149562586Y-102500742D01*
X149429855Y-102413100D01*
X149382026Y-102411939D01*
X149315106Y-102502574D01*
X148665248Y-102502574D01*
X148532294Y-102394164D01*
X148364504Y-102256166D01*
X148034333Y-102028620D01*
X147931854Y-101996000D01*
X148378333Y-101996000D01*
X148437398Y-102080977D01*
X148585525Y-102225497D01*
X148653500Y-102284346D01*
X148826547Y-102422509D01*
X148911722Y-102456385D01*
X148947791Y-102394099D01*
X148956528Y-102347855D01*
X148957978Y-102146459D01*
X148938019Y-102059509D01*
X148899566Y-102030250D01*
X149479000Y-102030250D01*
X149526861Y-102130567D01*
X149646633Y-102308218D01*
X149802600Y-102516718D01*
X149959043Y-102709577D01*
X150080245Y-102840309D01*
X150124199Y-102870000D01*
X150141802Y-102793397D01*
X150153474Y-102595806D01*
X150156333Y-102404333D01*
X150156333Y-101938666D01*
X150325666Y-101938666D01*
X150329460Y-102425500D01*
X150333254Y-102912333D01*
X150710460Y-102491318D01*
X150901959Y-102268404D01*
X151037726Y-102092853D01*
X151087666Y-102004485D01*
X151011958Y-101965224D01*
X150820417Y-101941680D01*
X150706666Y-101938666D01*
X150325666Y-101938666D01*
X150156333Y-101938666D01*
X149817666Y-101938666D01*
X149605498Y-101958978D01*
X149487603Y-102009741D01*
X149479000Y-102030250D01*
X148899566Y-102030250D01*
X148845317Y-101988973D01*
X148676297Y-101945262D01*
X148500992Y-101936322D01*
X148389440Y-101970100D01*
X148378333Y-101996000D01*
X147931854Y-101996000D01*
X147757739Y-101940578D01*
X147713446Y-101938666D01*
X147529774Y-101960681D01*
X147447337Y-102014072D01*
X147447000Y-102018076D01*
X146992718Y-102018076D01*
X146969751Y-102000250D01*
X146432538Y-101438101D01*
X145974426Y-100808811D01*
X145707818Y-100308833D01*
X146007983Y-100308833D01*
X146062525Y-100465604D01*
X146205001Y-100704897D01*
X146405223Y-100987908D01*
X146632998Y-101275831D01*
X146858137Y-101529864D01*
X147050450Y-101711200D01*
X147147343Y-101773295D01*
X147363144Y-101829343D01*
X147596227Y-101847618D01*
X147771318Y-101824676D01*
X147807907Y-101803536D01*
X147790774Y-101713203D01*
X147694198Y-101531849D01*
X147580663Y-101359036D01*
X147378561Y-101056868D01*
X147181688Y-100738438D01*
X147105387Y-100605166D01*
X146981949Y-100396237D01*
X146942619Y-100359206D01*
X147193000Y-100359206D01*
X147239288Y-100490223D01*
X147360069Y-100714216D01*
X147528213Y-100988711D01*
X147716591Y-101271234D01*
X147898074Y-101519309D01*
X148039437Y-101684437D01*
X148254938Y-101809331D01*
X148508473Y-101836716D01*
X148732447Y-101767510D01*
X148816560Y-101685458D01*
X149708104Y-101685458D01*
X149729657Y-101809738D01*
X149888158Y-101842441D01*
X149931489Y-101837675D01*
X150034449Y-101803842D01*
X150092260Y-101712156D01*
X150120242Y-101521487D01*
X150127356Y-101368894D01*
X150324959Y-101368894D01*
X150333513Y-101629435D01*
X150376354Y-101789521D01*
X150386014Y-101801458D01*
X150500335Y-101832710D01*
X150718659Y-101841366D01*
X150830514Y-101836736D01*
X151024913Y-101818870D01*
X151158140Y-101774714D01*
X151192281Y-101742301D01*
X151559578Y-101742301D01*
X151561044Y-101781809D01*
X151675653Y-101834221D01*
X151886996Y-101851824D01*
X152126244Y-101835356D01*
X152324570Y-101785555D01*
X152350152Y-101773354D01*
X152361173Y-101763684D01*
X152696333Y-101763684D01*
X152759506Y-101847278D01*
X152918627Y-101848474D01*
X153128094Y-101777816D01*
X153342308Y-101645846D01*
X153393497Y-101602481D01*
X153556695Y-101447825D01*
X153602178Y-101373912D01*
X153540169Y-101350550D01*
X153479500Y-101348481D01*
X153325796Y-101298149D01*
X153289000Y-101219000D01*
X153248622Y-101106251D01*
X153214382Y-101092000D01*
X153118714Y-101155553D01*
X152977618Y-101310111D01*
X152832861Y-101501520D01*
X152726208Y-101675626D01*
X152696333Y-101763684D01*
X152361173Y-101763684D01*
X152474730Y-101664049D01*
X152650473Y-101458803D01*
X152820079Y-101229187D01*
X152989036Y-100975322D01*
X153072541Y-100808900D01*
X153084586Y-100680307D01*
X153039162Y-100539929D01*
X153024158Y-100505499D01*
X152934082Y-100343160D01*
X152814344Y-100267303D01*
X152603513Y-100245920D01*
X152524866Y-100245333D01*
X152140735Y-100245333D01*
X151828582Y-100977476D01*
X151697422Y-101302776D01*
X151603527Y-101570427D01*
X151559578Y-101742301D01*
X151192281Y-101742301D01*
X151266305Y-101672026D01*
X151385516Y-101478561D01*
X151522327Y-101219000D01*
X151728740Y-100819428D01*
X151854378Y-100547383D01*
X151893113Y-100378399D01*
X151838813Y-100288009D01*
X151685350Y-100251746D01*
X151426594Y-100245145D01*
X151278386Y-100245333D01*
X150611029Y-100245333D01*
X150468347Y-100544539D01*
X150396045Y-100770446D01*
X150347026Y-101063898D01*
X150324959Y-101368894D01*
X150127356Y-101368894D01*
X150130397Y-101303666D01*
X150134267Y-101042351D01*
X150122065Y-100937650D01*
X150091355Y-100977394D01*
X150074825Y-101026232D01*
X149967903Y-101262785D01*
X149826748Y-101480684D01*
X149708104Y-101685458D01*
X148816560Y-101685458D01*
X148828561Y-101673752D01*
X148854821Y-101554523D01*
X148815298Y-101358630D01*
X148702649Y-101056926D01*
X148631299Y-100890585D01*
X148415917Y-100400487D01*
X148612638Y-100400487D01*
X148666183Y-100580258D01*
X148732980Y-100753333D01*
X148837430Y-100987592D01*
X148919587Y-101141327D01*
X148951102Y-101176666D01*
X148967029Y-101102178D01*
X148956822Y-100915131D01*
X148946234Y-100825797D01*
X148862194Y-100520201D01*
X148715840Y-100356202D01*
X148615858Y-100331296D01*
X148612638Y-100400487D01*
X148415917Y-100400487D01*
X148347731Y-100245333D01*
X147770365Y-100245333D01*
X147442564Y-100255141D01*
X147258598Y-100287791D01*
X147193930Y-100348124D01*
X147193000Y-100359206D01*
X146942619Y-100359206D01*
X146868567Y-100289485D01*
X146703518Y-100250617D01*
X146457742Y-100245333D01*
X146207660Y-100256116D01*
X146044383Y-100283844D01*
X146007983Y-100308833D01*
X145707818Y-100308833D01*
X145623607Y-100150911D01*
X145413346Y-99525619D01*
X145350905Y-99100586D01*
X145323937Y-98575066D01*
X145326590Y-98372936D01*
X145558938Y-98372936D01*
X145610193Y-98921818D01*
X145657980Y-99266185D01*
X145728670Y-99590120D01*
X145787904Y-99773350D01*
X145874012Y-99952808D01*
X145974206Y-100042198D01*
X146145760Y-100072802D01*
X146342013Y-100076000D01*
X146584627Y-100064690D01*
X146738925Y-100035743D01*
X146768244Y-100012500D01*
X146751674Y-99906371D01*
X146708475Y-99675223D01*
X146646395Y-99359846D01*
X146611447Y-99187000D01*
X146504731Y-98663632D01*
X146685000Y-98663632D01*
X146710688Y-98912517D01*
X146776716Y-99229058D01*
X146866531Y-99552782D01*
X146963578Y-99823221D01*
X147042672Y-99970166D01*
X147183018Y-100032824D01*
X147464505Y-100068851D01*
X147715203Y-100076000D01*
X148301339Y-100076000D01*
X148245597Y-99758500D01*
X148175106Y-99363064D01*
X148138326Y-99197609D01*
X148307217Y-99197609D01*
X148328315Y-99282172D01*
X148397836Y-99375889D01*
X148482708Y-99328157D01*
X148536998Y-99212571D01*
X148481344Y-99129144D01*
X148368548Y-99069611D01*
X148326951Y-99083159D01*
X148307217Y-99197609D01*
X148138326Y-99197609D01*
X148116087Y-99097573D01*
X148048342Y-98925628D01*
X147951673Y-98810830D01*
X147805879Y-98716778D01*
X147612808Y-98618195D01*
X147369592Y-98511542D01*
X148240384Y-98511542D01*
X148242274Y-98516591D01*
X148288835Y-98707319D01*
X148293666Y-98770591D01*
X148358917Y-98865612D01*
X148505607Y-98886175D01*
X148660137Y-98825928D01*
X148684773Y-98804359D01*
X148820410Y-98774619D01*
X149050605Y-98817108D01*
X149328002Y-98911678D01*
X149605245Y-99038174D01*
X149834980Y-99176447D01*
X149969850Y-99306345D01*
X149987000Y-99358507D01*
X150033409Y-99469776D01*
X150071666Y-99483333D01*
X150115910Y-99405575D01*
X150146201Y-99199593D01*
X150156333Y-98933000D01*
X150156333Y-98382666D01*
X150325666Y-98382666D01*
X150325666Y-98961743D01*
X150330747Y-99272021D01*
X150355192Y-99457117D01*
X150412807Y-99561089D01*
X150517398Y-99627998D01*
X150537333Y-99637261D01*
X150703710Y-99773610D01*
X150749000Y-99904851D01*
X150763654Y-99992536D01*
X150831116Y-100043871D01*
X150986633Y-100068417D01*
X151265454Y-100075735D01*
X151380020Y-100076000D01*
X152011040Y-100076000D01*
X152192566Y-100076000D01*
X152613783Y-100076000D01*
X152870064Y-100065447D01*
X152996623Y-100024633D01*
X153032259Y-99939819D01*
X153032307Y-99927833D01*
X152980589Y-99742154D01*
X152979311Y-99739966D01*
X154420576Y-99739966D01*
X154436587Y-99829422D01*
X154504019Y-99877315D01*
X154567654Y-99774046D01*
X154623656Y-99601340D01*
X154637715Y-99528690D01*
X154594366Y-99514681D01*
X154506648Y-99584065D01*
X154420576Y-99739966D01*
X152979311Y-99739966D01*
X152911122Y-99623270D01*
X152835044Y-99452595D01*
X152838206Y-99348103D01*
X152833310Y-99244321D01*
X152796983Y-99229333D01*
X152645556Y-99201039D01*
X152577434Y-99178393D01*
X152462888Y-99193175D01*
X152365584Y-99343454D01*
X152277949Y-99643430D01*
X152245375Y-99800833D01*
X152192566Y-100076000D01*
X152011040Y-100076000D01*
X152099214Y-99758500D01*
X152169803Y-99466854D01*
X152177439Y-99302738D01*
X152120453Y-99235828D01*
X152070104Y-99229333D01*
X151953553Y-99176540D01*
X151800361Y-99045777D01*
X151646443Y-98878465D01*
X151562536Y-98763666D01*
X154643666Y-98763666D01*
X154686000Y-98806000D01*
X154728333Y-98763666D01*
X154686000Y-98721333D01*
X154643666Y-98763666D01*
X151562536Y-98763666D01*
X151527715Y-98716025D01*
X151480091Y-98599879D01*
X151498624Y-98570236D01*
X151554721Y-98519203D01*
X154418770Y-98519203D01*
X154432000Y-98552000D01*
X154508082Y-98632770D01*
X154521663Y-98636666D01*
X154558029Y-98571160D01*
X154559000Y-98552000D01*
X154493912Y-98470586D01*
X154469336Y-98467333D01*
X154418770Y-98519203D01*
X151554721Y-98519203D01*
X151590655Y-98486513D01*
X151595666Y-98460277D01*
X151517925Y-98423181D01*
X151312281Y-98395739D01*
X151020101Y-98383006D01*
X150960666Y-98382666D01*
X150325666Y-98382666D01*
X150156333Y-98382666D01*
X149694650Y-98382666D01*
X149388532Y-98400932D01*
X149119414Y-98447528D01*
X149015020Y-98481970D01*
X148826458Y-98538896D01*
X148704080Y-98488107D01*
X148697770Y-98481970D01*
X148539088Y-98403241D01*
X148394674Y-98382666D01*
X148248802Y-98411332D01*
X148240384Y-98511542D01*
X147369592Y-98511542D01*
X147323173Y-98491187D01*
X147057587Y-98406077D01*
X146917833Y-98384085D01*
X146758115Y-98403406D01*
X146694885Y-98498351D01*
X146685000Y-98663632D01*
X146504731Y-98663632D01*
X146456072Y-98425000D01*
X145558938Y-98372936D01*
X145326590Y-98372936D01*
X145331311Y-98013433D01*
X145333624Y-97983036D01*
X145559497Y-97983036D01*
X145580394Y-98131135D01*
X145659192Y-98212884D01*
X145660061Y-98213394D01*
X145863329Y-98275624D01*
X146122550Y-98291433D01*
X146346209Y-98258382D01*
X146401825Y-98233156D01*
X146451381Y-98125593D01*
X146467695Y-98048764D01*
X146658937Y-98048764D01*
X146698810Y-98186886D01*
X146702873Y-98192166D01*
X146820275Y-98287733D01*
X146956733Y-98255237D01*
X147013003Y-98221715D01*
X147076879Y-98146057D01*
X147061834Y-98080680D01*
X147663062Y-98080680D01*
X147663805Y-98224055D01*
X147684913Y-98253690D01*
X147817584Y-98291638D01*
X147953375Y-98212357D01*
X148024388Y-98064301D01*
X148018515Y-98012955D01*
X148209000Y-98012955D01*
X148235461Y-98180303D01*
X148293519Y-98259150D01*
X148351186Y-98217398D01*
X148365106Y-98169602D01*
X148342122Y-97994837D01*
X148301606Y-97933406D01*
X148228729Y-97902652D01*
X148209000Y-98012955D01*
X148018515Y-98012955D01*
X148007257Y-97914532D01*
X147927582Y-97888316D01*
X148559180Y-97888316D01*
X148563829Y-98090859D01*
X148680744Y-98220245D01*
X148738166Y-98238247D01*
X149091645Y-98278127D01*
X149493986Y-98283349D01*
X149846067Y-98253324D01*
X149891750Y-98245083D01*
X150156333Y-98192166D01*
X150156333Y-97399927D01*
X150325666Y-97399927D01*
X150327744Y-97790784D01*
X150349852Y-98043364D01*
X150415797Y-98188682D01*
X150549390Y-98257751D01*
X150774439Y-98281586D01*
X151007557Y-98288178D01*
X151266354Y-98276751D01*
X151453578Y-98203089D01*
X151585176Y-98088898D01*
X154157564Y-98088898D01*
X154174518Y-98123033D01*
X154255251Y-98210566D01*
X154270102Y-98148837D01*
X154249549Y-98082681D01*
X154187216Y-97990475D01*
X154159062Y-97992382D01*
X154157564Y-98088898D01*
X151585176Y-98088898D01*
X151649952Y-98032691D01*
X151682060Y-97999884D01*
X151863003Y-97788522D01*
X151943280Y-97599878D01*
X151955678Y-97352438D01*
X151954501Y-97322551D01*
X151955299Y-97264270D01*
X152459321Y-97264270D01*
X152483100Y-97345226D01*
X152643633Y-97366666D01*
X152844176Y-97415182D01*
X152946410Y-97488939D01*
X153094490Y-97579154D01*
X153324092Y-97639686D01*
X153358944Y-97644040D01*
X153582011Y-97669308D01*
X153727840Y-97688943D01*
X153739708Y-97691100D01*
X153785194Y-97636343D01*
X153781311Y-97557166D01*
X153766376Y-97536000D01*
X153966333Y-97536000D01*
X153995220Y-97618465D01*
X154003669Y-97620666D01*
X154075955Y-97561337D01*
X154093333Y-97536000D01*
X154086620Y-97457981D01*
X154055996Y-97451333D01*
X153969778Y-97512793D01*
X153966333Y-97536000D01*
X153766376Y-97536000D01*
X153707036Y-97451906D01*
X153513072Y-97395412D01*
X153387044Y-97382620D01*
X153148233Y-97347800D01*
X153059523Y-97284340D01*
X153063574Y-97244990D01*
X153029136Y-97131180D01*
X152909427Y-97044055D01*
X152731812Y-97001013D01*
X152592126Y-97087879D01*
X152577461Y-97103685D01*
X152459321Y-97264270D01*
X151955299Y-97264270D01*
X151957853Y-97078029D01*
X152003123Y-96964285D01*
X152069373Y-96943333D01*
X152168907Y-96879751D01*
X152172371Y-96795166D01*
X152139271Y-96728227D01*
X152050673Y-96682776D01*
X151876947Y-96653371D01*
X151588464Y-96634571D01*
X151234829Y-96622968D01*
X150325666Y-96598937D01*
X150325666Y-97399927D01*
X150156333Y-97399927D01*
X150156333Y-96604666D01*
X149869058Y-96604666D01*
X149637808Y-96641935D01*
X149533048Y-96731666D01*
X149422337Y-96844258D01*
X149359019Y-96858666D01*
X149202616Y-96918853D01*
X149017276Y-97062566D01*
X148862792Y-97234531D01*
X148798973Y-97376375D01*
X148748675Y-97532621D01*
X148671973Y-97658015D01*
X148559180Y-97888316D01*
X147927582Y-97888316D01*
X147886096Y-97874666D01*
X147750623Y-97938852D01*
X147663062Y-98080680D01*
X147061834Y-98080680D01*
X147048278Y-98021776D01*
X146973582Y-97884344D01*
X146856997Y-97710790D01*
X146770641Y-97623218D01*
X146761282Y-97620666D01*
X146697640Y-97692588D01*
X146661036Y-97859642D01*
X146658937Y-98048764D01*
X146467695Y-98048764D01*
X146501563Y-97889272D01*
X146544771Y-97564565D01*
X146560912Y-97387785D01*
X146622174Y-96604666D01*
X146243655Y-96604666D01*
X146007298Y-96613631D01*
X145880673Y-96669321D01*
X145804218Y-96814934D01*
X145760063Y-96955369D01*
X145679686Y-97267080D01*
X145606803Y-97618824D01*
X145589556Y-97720005D01*
X145559497Y-97983036D01*
X145333624Y-97983036D01*
X145371899Y-97480063D01*
X145444568Y-97039330D01*
X145457938Y-96986044D01*
X145677549Y-96401942D01*
X146047187Y-96401942D01*
X146140969Y-96492610D01*
X146325782Y-96479765D01*
X146499112Y-96432289D01*
X146574618Y-96404603D01*
X146573016Y-96318970D01*
X146550284Y-96118736D01*
X146529009Y-95966985D01*
X146514683Y-95870673D01*
X148648488Y-95870673D01*
X148739534Y-95924268D01*
X148792608Y-95927333D01*
X148959335Y-95853045D01*
X149045548Y-95640104D01*
X149055666Y-95497075D01*
X149099916Y-95355608D01*
X149214883Y-95334554D01*
X149373893Y-95415800D01*
X149550272Y-95581234D01*
X149717345Y-95812747D01*
X149819090Y-96015437D01*
X149886016Y-96217114D01*
X149866459Y-96313226D01*
X149833868Y-96331154D01*
X149769220Y-96408811D01*
X149779802Y-96442564D01*
X149839564Y-96510580D01*
X149936017Y-96500263D01*
X150022408Y-96468608D01*
X150115986Y-96343735D01*
X150152629Y-96091302D01*
X150325666Y-96091302D01*
X150337443Y-96308261D01*
X150399922Y-96410562D01*
X150553828Y-96452587D01*
X150600833Y-96458752D01*
X151144063Y-96504815D01*
X151534438Y-96489486D01*
X151769679Y-96412900D01*
X151801285Y-96386952D01*
X151901702Y-96194657D01*
X151912391Y-95954786D01*
X151847344Y-95723027D01*
X151720555Y-95555065D01*
X151579419Y-95504000D01*
X151428837Y-95446187D01*
X151359161Y-95318124D01*
X151399535Y-95187873D01*
X151432710Y-95161391D01*
X151500352Y-95067801D01*
X151483530Y-95024975D01*
X151370498Y-95013089D01*
X151254298Y-95062705D01*
X151071341Y-95145863D01*
X150970178Y-95165333D01*
X150854805Y-95232514D01*
X150714633Y-95399894D01*
X150675551Y-95461666D01*
X150545791Y-95648271D01*
X150436110Y-95751053D01*
X150413188Y-95758000D01*
X150358025Y-95833025D01*
X150327689Y-96020111D01*
X150325666Y-96091302D01*
X150152629Y-96091302D01*
X150156021Y-96067936D01*
X150141831Y-95651158D01*
X150102491Y-95304150D01*
X150059091Y-94987508D01*
X151693764Y-94987508D01*
X151728982Y-95090837D01*
X151807333Y-95165333D01*
X151908963Y-95329836D01*
X151934333Y-95470081D01*
X152009321Y-95677469D01*
X152146000Y-95808119D01*
X152297669Y-95938016D01*
X152357666Y-96047137D01*
X152424276Y-96219219D01*
X152580635Y-96290750D01*
X152704588Y-96261581D01*
X152853356Y-96158504D01*
X152903720Y-96103590D01*
X152876411Y-96012000D01*
X153162000Y-96012000D01*
X153168712Y-96090018D01*
X153199336Y-96096666D01*
X153285554Y-96035206D01*
X153289000Y-96012000D01*
X153260113Y-95929534D01*
X153251663Y-95927333D01*
X153179377Y-95986662D01*
X153162000Y-96012000D01*
X152876411Y-96012000D01*
X152875259Y-96008138D01*
X152743037Y-95875725D01*
X152719082Y-95857668D01*
X152648082Y-95800333D01*
X153373666Y-95800333D01*
X153416000Y-95842666D01*
X153458333Y-95800333D01*
X153416000Y-95758000D01*
X153373666Y-95800333D01*
X152648082Y-95800333D01*
X152568586Y-95736138D01*
X152558381Y-95701555D01*
X153655888Y-95701555D01*
X153667511Y-95751889D01*
X153712333Y-95758000D01*
X153782023Y-95727021D01*
X153768777Y-95701555D01*
X153668298Y-95691422D01*
X153655888Y-95701555D01*
X152558381Y-95701555D01*
X152542797Y-95648750D01*
X152617708Y-95546333D01*
X153204333Y-95546333D01*
X153246666Y-95588666D01*
X153289000Y-95546333D01*
X153246666Y-95504000D01*
X153204333Y-95546333D01*
X152617708Y-95546333D01*
X152626136Y-95534811D01*
X152633979Y-95526122D01*
X152759291Y-95352953D01*
X152750928Y-95211907D01*
X152640877Y-95066166D01*
X152474756Y-94963499D01*
X152809769Y-94963499D01*
X152823333Y-94996000D01*
X152935492Y-95077505D01*
X152960326Y-95080666D01*
X153006230Y-95028500D01*
X152992666Y-94996000D01*
X152880507Y-94914494D01*
X152855673Y-94911333D01*
X152809769Y-94963499D01*
X152474756Y-94963499D01*
X152460661Y-94954788D01*
X152165514Y-94912443D01*
X152090544Y-94911333D01*
X151812276Y-94929476D01*
X151693764Y-94987508D01*
X150059091Y-94987508D01*
X150048650Y-94911333D01*
X149607614Y-94911333D01*
X149306097Y-94931864D01*
X149096420Y-95015715D01*
X148929259Y-95196273D01*
X148769543Y-95478628D01*
X148658929Y-95730632D01*
X148648488Y-95870673D01*
X146514683Y-95870673D01*
X146480692Y-95642174D01*
X148383958Y-95642174D01*
X148449409Y-95673333D01*
X148531116Y-95604676D01*
X148625828Y-95442132D01*
X148693242Y-95285585D01*
X148674567Y-95267225D01*
X148554751Y-95370587D01*
X148412761Y-95531823D01*
X148383958Y-95642174D01*
X146480692Y-95642174D01*
X146466434Y-95546333D01*
X146231015Y-95914044D01*
X146076795Y-96206654D01*
X146047187Y-96401942D01*
X145677549Y-96401942D01*
X145749444Y-96210725D01*
X146186688Y-95492574D01*
X146750433Y-94850582D01*
X146989087Y-94656089D01*
X149309666Y-94656089D01*
X149385811Y-94705096D01*
X149580502Y-94736201D01*
X149733000Y-94742000D01*
X150156333Y-94742000D01*
X150156333Y-94572666D01*
X151765000Y-94572666D01*
X151814608Y-94705451D01*
X151976666Y-94742000D01*
X152135797Y-94714030D01*
X152188333Y-94660312D01*
X152122773Y-94566657D01*
X151978291Y-94463705D01*
X151833188Y-94405050D01*
X151812899Y-94403333D01*
X151773927Y-94474513D01*
X151765000Y-94572666D01*
X150156333Y-94572666D01*
X150156333Y-94456033D01*
X150117170Y-94221687D01*
X150052133Y-94110555D01*
X151893532Y-94110555D01*
X151964728Y-94213052D01*
X152114504Y-94350807D01*
X152309442Y-94498065D01*
X152516126Y-94629071D01*
X152701140Y-94718070D01*
X152807163Y-94741770D01*
X152965810Y-94716869D01*
X152991576Y-94655569D01*
X152879617Y-94555251D01*
X152668101Y-94417018D01*
X152411334Y-94270998D01*
X152163626Y-94147317D01*
X151979283Y-94076102D01*
X151934333Y-94069071D01*
X151893532Y-94110555D01*
X150052133Y-94110555D01*
X150021465Y-94058152D01*
X150020016Y-94056934D01*
X149922962Y-94005705D01*
X149817608Y-94042303D01*
X149662403Y-94186363D01*
X149596683Y-94256990D01*
X149430805Y-94453902D01*
X149327145Y-94607566D01*
X149309666Y-94656089D01*
X146989087Y-94656089D01*
X147093945Y-94570635D01*
X148440029Y-94570635D01*
X148464768Y-94611153D01*
X148624419Y-94617743D01*
X148707226Y-94615953D01*
X148903262Y-94594752D01*
X149066850Y-94522819D01*
X149246220Y-94370471D01*
X149437047Y-94166792D01*
X149620939Y-93951358D01*
X149736289Y-93794330D01*
X149760627Y-93726661D01*
X149757031Y-93726000D01*
X149639807Y-93769492D01*
X149427745Y-93881862D01*
X149165472Y-94035948D01*
X148897613Y-94204589D01*
X148668796Y-94360624D01*
X148524191Y-94476353D01*
X148440029Y-94570635D01*
X147093945Y-94570635D01*
X147321625Y-94385087D01*
X147920218Y-94385087D01*
X147958602Y-94450006D01*
X148017826Y-94511291D01*
X148084695Y-94526663D01*
X148191748Y-94482868D01*
X148371524Y-94366651D01*
X148653500Y-94166948D01*
X148868929Y-94008144D01*
X149014881Y-93891372D01*
X149055666Y-93848813D01*
X148986141Y-93851964D01*
X148809257Y-93906058D01*
X148572553Y-93993623D01*
X148323567Y-94097186D01*
X148127967Y-94189787D01*
X147955984Y-94296630D01*
X147920218Y-94385087D01*
X147321625Y-94385087D01*
X147421445Y-94303739D01*
X148180487Y-93871034D01*
X148880533Y-93607157D01*
X149331522Y-93518265D01*
X149882670Y-93474565D01*
X150471092Y-93475514D01*
X150471092Y-93475514D01*
G37*
X150471092Y-93475514D02*
X151033908Y-93520571D01*
X151508235Y-93609193D01*
X151581706Y-93630458D01*
X152398578Y-93969701D01*
X153147366Y-94449797D01*
X153677072Y-94925239D01*
X154136128Y-95453331D01*
X154482358Y-95975243D01*
X154756748Y-96555620D01*
X154826661Y-96738432D01*
X154935208Y-97163009D01*
X155002463Y-97695995D01*
X155027724Y-98281399D01*
X155010288Y-98863234D01*
X154949454Y-99385509D01*
X154864268Y-99737333D01*
X154492352Y-100604343D01*
X153999998Y-101360829D01*
X153394541Y-101998203D01*
X152683312Y-102507878D01*
X152346847Y-102685610D01*
X151968794Y-102852278D01*
X151586020Y-102998212D01*
X151265552Y-103098467D01*
X151189332Y-103116372D01*
X150831714Y-103164643D01*
X150379732Y-103190962D01*
X149907094Y-103194002D01*
X149487508Y-103172436D01*
X149309666Y-103150214D01*
X148843855Y-103034206D01*
X148323494Y-102844832D01*
X147827263Y-102613238D01*
X147557875Y-102456727D01*
X146992718Y-102018076D01*
X147447000Y-102018076D01*
X147517788Y-102088508D01*
X147707380Y-102210526D01*
X147981614Y-102363085D01*
X148134137Y-102441410D01*
X148498528Y-102616379D01*
X148768621Y-102731080D01*
X148930182Y-102781029D01*
X148968980Y-102761741D01*
X148881224Y-102676807D01*
X148744753Y-102567403D01*
X148665248Y-102502574D01*
X149315106Y-102502574D01*
X149372397Y-102639183D01*
X149482298Y-102769368D01*
X149631337Y-102890280D01*
X149773111Y-102951021D01*
X149862631Y-102941933D01*
X149861264Y-102926244D01*
X150601409Y-102926244D01*
X150643507Y-102944152D01*
X150699702Y-102926721D01*
X150886329Y-102877170D01*
X150959202Y-102870000D01*
X151078498Y-102821907D01*
X151279601Y-102697910D01*
X151390702Y-102620145D01*
X151752351Y-102620145D01*
X151766151Y-102647207D01*
X151878851Y-102615468D01*
X151892000Y-102610843D01*
X152124427Y-102511103D01*
X152404446Y-102368201D01*
X152501457Y-102313442D01*
X152777293Y-102137645D01*
X152898844Y-102020174D01*
X152868950Y-101956231D01*
X152722496Y-101940408D01*
X152482535Y-102011368D01*
X152173671Y-102224596D01*
X152061333Y-102321471D01*
X151847421Y-102517246D01*
X151752351Y-102620145D01*
X151390702Y-102620145D01*
X151521736Y-102528428D01*
X151764129Y-102343881D01*
X151966007Y-102174688D01*
X152086597Y-102051270D01*
X152103666Y-102016156D01*
X152028142Y-101969251D01*
X151837770Y-101941708D01*
X151735920Y-101938666D01*
X151519331Y-101951337D01*
X151359297Y-102010591D01*
X151200046Y-102148292D01*
X151031977Y-102340833D01*
X150786686Y-102640380D01*
X150646149Y-102830252D01*
X150601409Y-102926244D01*
X149861264Y-102926244D01*
X149854908Y-102853355D01*
X149852401Y-102848833D01*
X149718805Y-102660262D01*
X149562586Y-102500742D01*
X149429855Y-102413100D01*
X149382026Y-102411939D01*
X149315106Y-102502574D01*
X148665248Y-102502574D01*
X148532294Y-102394164D01*
X148364504Y-102256166D01*
X148034333Y-102028620D01*
X147931854Y-101996000D01*
X148378333Y-101996000D01*
X148437398Y-102080977D01*
X148585525Y-102225497D01*
X148653500Y-102284346D01*
X148826547Y-102422509D01*
X148911722Y-102456385D01*
X148947791Y-102394099D01*
X148956528Y-102347855D01*
X148957978Y-102146459D01*
X148938019Y-102059509D01*
X148899566Y-102030250D01*
X149479000Y-102030250D01*
X149526861Y-102130567D01*
X149646633Y-102308218D01*
X149802600Y-102516718D01*
X149959043Y-102709577D01*
X150080245Y-102840309D01*
X150124199Y-102870000D01*
X150141802Y-102793397D01*
X150153474Y-102595806D01*
X150156333Y-102404333D01*
X150156333Y-101938666D01*
X150325666Y-101938666D01*
X150329460Y-102425500D01*
X150333254Y-102912333D01*
X150710460Y-102491318D01*
X150901959Y-102268404D01*
X151037726Y-102092853D01*
X151087666Y-102004485D01*
X151011958Y-101965224D01*
X150820417Y-101941680D01*
X150706666Y-101938666D01*
X150325666Y-101938666D01*
X150156333Y-101938666D01*
X149817666Y-101938666D01*
X149605498Y-101958978D01*
X149487603Y-102009741D01*
X149479000Y-102030250D01*
X148899566Y-102030250D01*
X148845317Y-101988973D01*
X148676297Y-101945262D01*
X148500992Y-101936322D01*
X148389440Y-101970100D01*
X148378333Y-101996000D01*
X147931854Y-101996000D01*
X147757739Y-101940578D01*
X147713446Y-101938666D01*
X147529774Y-101960681D01*
X147447337Y-102014072D01*
X147447000Y-102018076D01*
X146992718Y-102018076D01*
X146969751Y-102000250D01*
X146432538Y-101438101D01*
X145974426Y-100808811D01*
X145707818Y-100308833D01*
X146007983Y-100308833D01*
X146062525Y-100465604D01*
X146205001Y-100704897D01*
X146405223Y-100987908D01*
X146632998Y-101275831D01*
X146858137Y-101529864D01*
X147050450Y-101711200D01*
X147147343Y-101773295D01*
X147363144Y-101829343D01*
X147596227Y-101847618D01*
X147771318Y-101824676D01*
X147807907Y-101803536D01*
X147790774Y-101713203D01*
X147694198Y-101531849D01*
X147580663Y-101359036D01*
X147378561Y-101056868D01*
X147181688Y-100738438D01*
X147105387Y-100605166D01*
X146981949Y-100396237D01*
X146942619Y-100359206D01*
X147193000Y-100359206D01*
X147239288Y-100490223D01*
X147360069Y-100714216D01*
X147528213Y-100988711D01*
X147716591Y-101271234D01*
X147898074Y-101519309D01*
X148039437Y-101684437D01*
X148254938Y-101809331D01*
X148508473Y-101836716D01*
X148732447Y-101767510D01*
X148816560Y-101685458D01*
X149708104Y-101685458D01*
X149729657Y-101809738D01*
X149888158Y-101842441D01*
X149931489Y-101837675D01*
X150034449Y-101803842D01*
X150092260Y-101712156D01*
X150120242Y-101521487D01*
X150127356Y-101368894D01*
X150324959Y-101368894D01*
X150333513Y-101629435D01*
X150376354Y-101789521D01*
X150386014Y-101801458D01*
X150500335Y-101832710D01*
X150718659Y-101841366D01*
X150830514Y-101836736D01*
X151024913Y-101818870D01*
X151158140Y-101774714D01*
X151192281Y-101742301D01*
X151559578Y-101742301D01*
X151561044Y-101781809D01*
X151675653Y-101834221D01*
X151886996Y-101851824D01*
X152126244Y-101835356D01*
X152324570Y-101785555D01*
X152350152Y-101773354D01*
X152361173Y-101763684D01*
X152696333Y-101763684D01*
X152759506Y-101847278D01*
X152918627Y-101848474D01*
X153128094Y-101777816D01*
X153342308Y-101645846D01*
X153393497Y-101602481D01*
X153556695Y-101447825D01*
X153602178Y-101373912D01*
X153540169Y-101350550D01*
X153479500Y-101348481D01*
X153325796Y-101298149D01*
X153289000Y-101219000D01*
X153248622Y-101106251D01*
X153214382Y-101092000D01*
X153118714Y-101155553D01*
X152977618Y-101310111D01*
X152832861Y-101501520D01*
X152726208Y-101675626D01*
X152696333Y-101763684D01*
X152361173Y-101763684D01*
X152474730Y-101664049D01*
X152650473Y-101458803D01*
X152820079Y-101229187D01*
X152989036Y-100975322D01*
X153072541Y-100808900D01*
X153084586Y-100680307D01*
X153039162Y-100539929D01*
X153024158Y-100505499D01*
X152934082Y-100343160D01*
X152814344Y-100267303D01*
X152603513Y-100245920D01*
X152524866Y-100245333D01*
X152140735Y-100245333D01*
X151828582Y-100977476D01*
X151697422Y-101302776D01*
X151603527Y-101570427D01*
X151559578Y-101742301D01*
X151192281Y-101742301D01*
X151266305Y-101672026D01*
X151385516Y-101478561D01*
X151522327Y-101219000D01*
X151728740Y-100819428D01*
X151854378Y-100547383D01*
X151893113Y-100378399D01*
X151838813Y-100288009D01*
X151685350Y-100251746D01*
X151426594Y-100245145D01*
X151278386Y-100245333D01*
X150611029Y-100245333D01*
X150468347Y-100544539D01*
X150396045Y-100770446D01*
X150347026Y-101063898D01*
X150324959Y-101368894D01*
X150127356Y-101368894D01*
X150130397Y-101303666D01*
X150134267Y-101042351D01*
X150122065Y-100937650D01*
X150091355Y-100977394D01*
X150074825Y-101026232D01*
X149967903Y-101262785D01*
X149826748Y-101480684D01*
X149708104Y-101685458D01*
X148816560Y-101685458D01*
X148828561Y-101673752D01*
X148854821Y-101554523D01*
X148815298Y-101358630D01*
X148702649Y-101056926D01*
X148631299Y-100890585D01*
X148415917Y-100400487D01*
X148612638Y-100400487D01*
X148666183Y-100580258D01*
X148732980Y-100753333D01*
X148837430Y-100987592D01*
X148919587Y-101141327D01*
X148951102Y-101176666D01*
X148967029Y-101102178D01*
X148956822Y-100915131D01*
X148946234Y-100825797D01*
X148862194Y-100520201D01*
X148715840Y-100356202D01*
X148615858Y-100331296D01*
X148612638Y-100400487D01*
X148415917Y-100400487D01*
X148347731Y-100245333D01*
X147770365Y-100245333D01*
X147442564Y-100255141D01*
X147258598Y-100287791D01*
X147193930Y-100348124D01*
X147193000Y-100359206D01*
X146942619Y-100359206D01*
X146868567Y-100289485D01*
X146703518Y-100250617D01*
X146457742Y-100245333D01*
X146207660Y-100256116D01*
X146044383Y-100283844D01*
X146007983Y-100308833D01*
X145707818Y-100308833D01*
X145623607Y-100150911D01*
X145413346Y-99525619D01*
X145350905Y-99100586D01*
X145323937Y-98575066D01*
X145326590Y-98372936D01*
X145558938Y-98372936D01*
X145610193Y-98921818D01*
X145657980Y-99266185D01*
X145728670Y-99590120D01*
X145787904Y-99773350D01*
X145874012Y-99952808D01*
X145974206Y-100042198D01*
X146145760Y-100072802D01*
X146342013Y-100076000D01*
X146584627Y-100064690D01*
X146738925Y-100035743D01*
X146768244Y-100012500D01*
X146751674Y-99906371D01*
X146708475Y-99675223D01*
X146646395Y-99359846D01*
X146611447Y-99187000D01*
X146504731Y-98663632D01*
X146685000Y-98663632D01*
X146710688Y-98912517D01*
X146776716Y-99229058D01*
X146866531Y-99552782D01*
X146963578Y-99823221D01*
X147042672Y-99970166D01*
X147183018Y-100032824D01*
X147464505Y-100068851D01*
X147715203Y-100076000D01*
X148301339Y-100076000D01*
X148245597Y-99758500D01*
X148175106Y-99363064D01*
X148138326Y-99197609D01*
X148307217Y-99197609D01*
X148328315Y-99282172D01*
X148397836Y-99375889D01*
X148482708Y-99328157D01*
X148536998Y-99212571D01*
X148481344Y-99129144D01*
X148368548Y-99069611D01*
X148326951Y-99083159D01*
X148307217Y-99197609D01*
X148138326Y-99197609D01*
X148116087Y-99097573D01*
X148048342Y-98925628D01*
X147951673Y-98810830D01*
X147805879Y-98716778D01*
X147612808Y-98618195D01*
X147369592Y-98511542D01*
X148240384Y-98511542D01*
X148242274Y-98516591D01*
X148288835Y-98707319D01*
X148293666Y-98770591D01*
X148358917Y-98865612D01*
X148505607Y-98886175D01*
X148660137Y-98825928D01*
X148684773Y-98804359D01*
X148820410Y-98774619D01*
X149050605Y-98817108D01*
X149328002Y-98911678D01*
X149605245Y-99038174D01*
X149834980Y-99176447D01*
X149969850Y-99306345D01*
X149987000Y-99358507D01*
X150033409Y-99469776D01*
X150071666Y-99483333D01*
X150115910Y-99405575D01*
X150146201Y-99199593D01*
X150156333Y-98933000D01*
X150156333Y-98382666D01*
X150325666Y-98382666D01*
X150325666Y-98961743D01*
X150330747Y-99272021D01*
X150355192Y-99457117D01*
X150412807Y-99561089D01*
X150517398Y-99627998D01*
X150537333Y-99637261D01*
X150703710Y-99773610D01*
X150749000Y-99904851D01*
X150763654Y-99992536D01*
X150831116Y-100043871D01*
X150986633Y-100068417D01*
X151265454Y-100075735D01*
X151380020Y-100076000D01*
X152011040Y-100076000D01*
X152192566Y-100076000D01*
X152613783Y-100076000D01*
X152870064Y-100065447D01*
X152996623Y-100024633D01*
X153032259Y-99939819D01*
X153032307Y-99927833D01*
X152980589Y-99742154D01*
X152979311Y-99739966D01*
X154420576Y-99739966D01*
X154436587Y-99829422D01*
X154504019Y-99877315D01*
X154567654Y-99774046D01*
X154623656Y-99601340D01*
X154637715Y-99528690D01*
X154594366Y-99514681D01*
X154506648Y-99584065D01*
X154420576Y-99739966D01*
X152979311Y-99739966D01*
X152911122Y-99623270D01*
X152835044Y-99452595D01*
X152838206Y-99348103D01*
X152833310Y-99244321D01*
X152796983Y-99229333D01*
X152645556Y-99201039D01*
X152577434Y-99178393D01*
X152462888Y-99193175D01*
X152365584Y-99343454D01*
X152277949Y-99643430D01*
X152245375Y-99800833D01*
X152192566Y-100076000D01*
X152011040Y-100076000D01*
X152099214Y-99758500D01*
X152169803Y-99466854D01*
X152177439Y-99302738D01*
X152120453Y-99235828D01*
X152070104Y-99229333D01*
X151953553Y-99176540D01*
X151800361Y-99045777D01*
X151646443Y-98878465D01*
X151562536Y-98763666D01*
X154643666Y-98763666D01*
X154686000Y-98806000D01*
X154728333Y-98763666D01*
X154686000Y-98721333D01*
X154643666Y-98763666D01*
X151562536Y-98763666D01*
X151527715Y-98716025D01*
X151480091Y-98599879D01*
X151498624Y-98570236D01*
X151554721Y-98519203D01*
X154418770Y-98519203D01*
X154432000Y-98552000D01*
X154508082Y-98632770D01*
X154521663Y-98636666D01*
X154558029Y-98571160D01*
X154559000Y-98552000D01*
X154493912Y-98470586D01*
X154469336Y-98467333D01*
X154418770Y-98519203D01*
X151554721Y-98519203D01*
X151590655Y-98486513D01*
X151595666Y-98460277D01*
X151517925Y-98423181D01*
X151312281Y-98395739D01*
X151020101Y-98383006D01*
X150960666Y-98382666D01*
X150325666Y-98382666D01*
X150156333Y-98382666D01*
X149694650Y-98382666D01*
X149388532Y-98400932D01*
X149119414Y-98447528D01*
X149015020Y-98481970D01*
X148826458Y-98538896D01*
X148704080Y-98488107D01*
X148697770Y-98481970D01*
X148539088Y-98403241D01*
X148394674Y-98382666D01*
X148248802Y-98411332D01*
X148240384Y-98511542D01*
X147369592Y-98511542D01*
X147323173Y-98491187D01*
X147057587Y-98406077D01*
X146917833Y-98384085D01*
X146758115Y-98403406D01*
X146694885Y-98498351D01*
X146685000Y-98663632D01*
X146504731Y-98663632D01*
X146456072Y-98425000D01*
X145558938Y-98372936D01*
X145326590Y-98372936D01*
X145331311Y-98013433D01*
X145333624Y-97983036D01*
X145559497Y-97983036D01*
X145580394Y-98131135D01*
X145659192Y-98212884D01*
X145660061Y-98213394D01*
X145863329Y-98275624D01*
X146122550Y-98291433D01*
X146346209Y-98258382D01*
X146401825Y-98233156D01*
X146451381Y-98125593D01*
X146467695Y-98048764D01*
X146658937Y-98048764D01*
X146698810Y-98186886D01*
X146702873Y-98192166D01*
X146820275Y-98287733D01*
X146956733Y-98255237D01*
X147013003Y-98221715D01*
X147076879Y-98146057D01*
X147061834Y-98080680D01*
X147663062Y-98080680D01*
X147663805Y-98224055D01*
X147684913Y-98253690D01*
X147817584Y-98291638D01*
X147953375Y-98212357D01*
X148024388Y-98064301D01*
X148018515Y-98012955D01*
X148209000Y-98012955D01*
X148235461Y-98180303D01*
X148293519Y-98259150D01*
X148351186Y-98217398D01*
X148365106Y-98169602D01*
X148342122Y-97994837D01*
X148301606Y-97933406D01*
X148228729Y-97902652D01*
X148209000Y-98012955D01*
X148018515Y-98012955D01*
X148007257Y-97914532D01*
X147927582Y-97888316D01*
X148559180Y-97888316D01*
X148563829Y-98090859D01*
X148680744Y-98220245D01*
X148738166Y-98238247D01*
X149091645Y-98278127D01*
X149493986Y-98283349D01*
X149846067Y-98253324D01*
X149891750Y-98245083D01*
X150156333Y-98192166D01*
X150156333Y-97399927D01*
X150325666Y-97399927D01*
X150327744Y-97790784D01*
X150349852Y-98043364D01*
X150415797Y-98188682D01*
X150549390Y-98257751D01*
X150774439Y-98281586D01*
X151007557Y-98288178D01*
X151266354Y-98276751D01*
X151453578Y-98203089D01*
X151585176Y-98088898D01*
X154157564Y-98088898D01*
X154174518Y-98123033D01*
X154255251Y-98210566D01*
X154270102Y-98148837D01*
X154249549Y-98082681D01*
X154187216Y-97990475D01*
X154159062Y-97992382D01*
X154157564Y-98088898D01*
X151585176Y-98088898D01*
X151649952Y-98032691D01*
X151682060Y-97999884D01*
X151863003Y-97788522D01*
X151943280Y-97599878D01*
X151955678Y-97352438D01*
X151954501Y-97322551D01*
X151955299Y-97264270D01*
X152459321Y-97264270D01*
X152483100Y-97345226D01*
X152643633Y-97366666D01*
X152844176Y-97415182D01*
X152946410Y-97488939D01*
X153094490Y-97579154D01*
X153324092Y-97639686D01*
X153358944Y-97644040D01*
X153582011Y-97669308D01*
X153727840Y-97688943D01*
X153739708Y-97691100D01*
X153785194Y-97636343D01*
X153781311Y-97557166D01*
X153766376Y-97536000D01*
X153966333Y-97536000D01*
X153995220Y-97618465D01*
X154003669Y-97620666D01*
X154075955Y-97561337D01*
X154093333Y-97536000D01*
X154086620Y-97457981D01*
X154055996Y-97451333D01*
X153969778Y-97512793D01*
X153966333Y-97536000D01*
X153766376Y-97536000D01*
X153707036Y-97451906D01*
X153513072Y-97395412D01*
X153387044Y-97382620D01*
X153148233Y-97347800D01*
X153059523Y-97284340D01*
X153063574Y-97244990D01*
X153029136Y-97131180D01*
X152909427Y-97044055D01*
X152731812Y-97001013D01*
X152592126Y-97087879D01*
X152577461Y-97103685D01*
X152459321Y-97264270D01*
X151955299Y-97264270D01*
X151957853Y-97078029D01*
X152003123Y-96964285D01*
X152069373Y-96943333D01*
X152168907Y-96879751D01*
X152172371Y-96795166D01*
X152139271Y-96728227D01*
X152050673Y-96682776D01*
X151876947Y-96653371D01*
X151588464Y-96634571D01*
X151234829Y-96622968D01*
X150325666Y-96598937D01*
X150325666Y-97399927D01*
X150156333Y-97399927D01*
X150156333Y-96604666D01*
X149869058Y-96604666D01*
X149637808Y-96641935D01*
X149533048Y-96731666D01*
X149422337Y-96844258D01*
X149359019Y-96858666D01*
X149202616Y-96918853D01*
X149017276Y-97062566D01*
X148862792Y-97234531D01*
X148798973Y-97376375D01*
X148748675Y-97532621D01*
X148671973Y-97658015D01*
X148559180Y-97888316D01*
X147927582Y-97888316D01*
X147886096Y-97874666D01*
X147750623Y-97938852D01*
X147663062Y-98080680D01*
X147061834Y-98080680D01*
X147048278Y-98021776D01*
X146973582Y-97884344D01*
X146856997Y-97710790D01*
X146770641Y-97623218D01*
X146761282Y-97620666D01*
X146697640Y-97692588D01*
X146661036Y-97859642D01*
X146658937Y-98048764D01*
X146467695Y-98048764D01*
X146501563Y-97889272D01*
X146544771Y-97564565D01*
X146560912Y-97387785D01*
X146622174Y-96604666D01*
X146243655Y-96604666D01*
X146007298Y-96613631D01*
X145880673Y-96669321D01*
X145804218Y-96814934D01*
X145760063Y-96955369D01*
X145679686Y-97267080D01*
X145606803Y-97618824D01*
X145589556Y-97720005D01*
X145559497Y-97983036D01*
X145333624Y-97983036D01*
X145371899Y-97480063D01*
X145444568Y-97039330D01*
X145457938Y-96986044D01*
X145677549Y-96401942D01*
X146047187Y-96401942D01*
X146140969Y-96492610D01*
X146325782Y-96479765D01*
X146499112Y-96432289D01*
X146574618Y-96404603D01*
X146573016Y-96318970D01*
X146550284Y-96118736D01*
X146529009Y-95966985D01*
X146514683Y-95870673D01*
X148648488Y-95870673D01*
X148739534Y-95924268D01*
X148792608Y-95927333D01*
X148959335Y-95853045D01*
X149045548Y-95640104D01*
X149055666Y-95497075D01*
X149099916Y-95355608D01*
X149214883Y-95334554D01*
X149373893Y-95415800D01*
X149550272Y-95581234D01*
X149717345Y-95812747D01*
X149819090Y-96015437D01*
X149886016Y-96217114D01*
X149866459Y-96313226D01*
X149833868Y-96331154D01*
X149769220Y-96408811D01*
X149779802Y-96442564D01*
X149839564Y-96510580D01*
X149936017Y-96500263D01*
X150022408Y-96468608D01*
X150115986Y-96343735D01*
X150152629Y-96091302D01*
X150325666Y-96091302D01*
X150337443Y-96308261D01*
X150399922Y-96410562D01*
X150553828Y-96452587D01*
X150600833Y-96458752D01*
X151144063Y-96504815D01*
X151534438Y-96489486D01*
X151769679Y-96412900D01*
X151801285Y-96386952D01*
X151901702Y-96194657D01*
X151912391Y-95954786D01*
X151847344Y-95723027D01*
X151720555Y-95555065D01*
X151579419Y-95504000D01*
X151428837Y-95446187D01*
X151359161Y-95318124D01*
X151399535Y-95187873D01*
X151432710Y-95161391D01*
X151500352Y-95067801D01*
X151483530Y-95024975D01*
X151370498Y-95013089D01*
X151254298Y-95062705D01*
X151071341Y-95145863D01*
X150970178Y-95165333D01*
X150854805Y-95232514D01*
X150714633Y-95399894D01*
X150675551Y-95461666D01*
X150545791Y-95648271D01*
X150436110Y-95751053D01*
X150413188Y-95758000D01*
X150358025Y-95833025D01*
X150327689Y-96020111D01*
X150325666Y-96091302D01*
X150152629Y-96091302D01*
X150156021Y-96067936D01*
X150141831Y-95651158D01*
X150102491Y-95304150D01*
X150059091Y-94987508D01*
X151693764Y-94987508D01*
X151728982Y-95090837D01*
X151807333Y-95165333D01*
X151908963Y-95329836D01*
X151934333Y-95470081D01*
X152009321Y-95677469D01*
X152146000Y-95808119D01*
X152297669Y-95938016D01*
X152357666Y-96047137D01*
X152424276Y-96219219D01*
X152580635Y-96290750D01*
X152704588Y-96261581D01*
X152853356Y-96158504D01*
X152903720Y-96103590D01*
X152876411Y-96012000D01*
X153162000Y-96012000D01*
X153168712Y-96090018D01*
X153199336Y-96096666D01*
X153285554Y-96035206D01*
X153289000Y-96012000D01*
X153260113Y-95929534D01*
X153251663Y-95927333D01*
X153179377Y-95986662D01*
X153162000Y-96012000D01*
X152876411Y-96012000D01*
X152875259Y-96008138D01*
X152743037Y-95875725D01*
X152719082Y-95857668D01*
X152648082Y-95800333D01*
X153373666Y-95800333D01*
X153416000Y-95842666D01*
X153458333Y-95800333D01*
X153416000Y-95758000D01*
X153373666Y-95800333D01*
X152648082Y-95800333D01*
X152568586Y-95736138D01*
X152558381Y-95701555D01*
X153655888Y-95701555D01*
X153667511Y-95751889D01*
X153712333Y-95758000D01*
X153782023Y-95727021D01*
X153768777Y-95701555D01*
X153668298Y-95691422D01*
X153655888Y-95701555D01*
X152558381Y-95701555D01*
X152542797Y-95648750D01*
X152617708Y-95546333D01*
X153204333Y-95546333D01*
X153246666Y-95588666D01*
X153289000Y-95546333D01*
X153246666Y-95504000D01*
X153204333Y-95546333D01*
X152617708Y-95546333D01*
X152626136Y-95534811D01*
X152633979Y-95526122D01*
X152759291Y-95352953D01*
X152750928Y-95211907D01*
X152640877Y-95066166D01*
X152474756Y-94963499D01*
X152809769Y-94963499D01*
X152823333Y-94996000D01*
X152935492Y-95077505D01*
X152960326Y-95080666D01*
X153006230Y-95028500D01*
X152992666Y-94996000D01*
X152880507Y-94914494D01*
X152855673Y-94911333D01*
X152809769Y-94963499D01*
X152474756Y-94963499D01*
X152460661Y-94954788D01*
X152165514Y-94912443D01*
X152090544Y-94911333D01*
X151812276Y-94929476D01*
X151693764Y-94987508D01*
X150059091Y-94987508D01*
X150048650Y-94911333D01*
X149607614Y-94911333D01*
X149306097Y-94931864D01*
X149096420Y-95015715D01*
X148929259Y-95196273D01*
X148769543Y-95478628D01*
X148658929Y-95730632D01*
X148648488Y-95870673D01*
X146514683Y-95870673D01*
X146480692Y-95642174D01*
X148383958Y-95642174D01*
X148449409Y-95673333D01*
X148531116Y-95604676D01*
X148625828Y-95442132D01*
X148693242Y-95285585D01*
X148674567Y-95267225D01*
X148554751Y-95370587D01*
X148412761Y-95531823D01*
X148383958Y-95642174D01*
X146480692Y-95642174D01*
X146466434Y-95546333D01*
X146231015Y-95914044D01*
X146076795Y-96206654D01*
X146047187Y-96401942D01*
X145677549Y-96401942D01*
X145749444Y-96210725D01*
X146186688Y-95492574D01*
X146750433Y-94850582D01*
X146989087Y-94656089D01*
X149309666Y-94656089D01*
X149385811Y-94705096D01*
X149580502Y-94736201D01*
X149733000Y-94742000D01*
X150156333Y-94742000D01*
X150156333Y-94572666D01*
X151765000Y-94572666D01*
X151814608Y-94705451D01*
X151976666Y-94742000D01*
X152135797Y-94714030D01*
X152188333Y-94660312D01*
X152122773Y-94566657D01*
X151978291Y-94463705D01*
X151833188Y-94405050D01*
X151812899Y-94403333D01*
X151773927Y-94474513D01*
X151765000Y-94572666D01*
X150156333Y-94572666D01*
X150156333Y-94456033D01*
X150117170Y-94221687D01*
X150052133Y-94110555D01*
X151893532Y-94110555D01*
X151964728Y-94213052D01*
X152114504Y-94350807D01*
X152309442Y-94498065D01*
X152516126Y-94629071D01*
X152701140Y-94718070D01*
X152807163Y-94741770D01*
X152965810Y-94716869D01*
X152991576Y-94655569D01*
X152879617Y-94555251D01*
X152668101Y-94417018D01*
X152411334Y-94270998D01*
X152163626Y-94147317D01*
X151979283Y-94076102D01*
X151934333Y-94069071D01*
X151893532Y-94110555D01*
X150052133Y-94110555D01*
X150021465Y-94058152D01*
X150020016Y-94056934D01*
X149922962Y-94005705D01*
X149817608Y-94042303D01*
X149662403Y-94186363D01*
X149596683Y-94256990D01*
X149430805Y-94453902D01*
X149327145Y-94607566D01*
X149309666Y-94656089D01*
X146989087Y-94656089D01*
X147093945Y-94570635D01*
X148440029Y-94570635D01*
X148464768Y-94611153D01*
X148624419Y-94617743D01*
X148707226Y-94615953D01*
X148903262Y-94594752D01*
X149066850Y-94522819D01*
X149246220Y-94370471D01*
X149437047Y-94166792D01*
X149620939Y-93951358D01*
X149736289Y-93794330D01*
X149760627Y-93726661D01*
X149757031Y-93726000D01*
X149639807Y-93769492D01*
X149427745Y-93881862D01*
X149165472Y-94035948D01*
X148897613Y-94204589D01*
X148668796Y-94360624D01*
X148524191Y-94476353D01*
X148440029Y-94570635D01*
X147093945Y-94570635D01*
X147321625Y-94385087D01*
X147920218Y-94385087D01*
X147958602Y-94450006D01*
X148017826Y-94511291D01*
X148084695Y-94526663D01*
X148191748Y-94482868D01*
X148371524Y-94366651D01*
X148653500Y-94166948D01*
X148868929Y-94008144D01*
X149014881Y-93891372D01*
X149055666Y-93848813D01*
X148986141Y-93851964D01*
X148809257Y-93906058D01*
X148572553Y-93993623D01*
X148323567Y-94097186D01*
X148127967Y-94189787D01*
X147955984Y-94296630D01*
X147920218Y-94385087D01*
X147321625Y-94385087D01*
X147421445Y-94303739D01*
X148180487Y-93871034D01*
X148880533Y-93607157D01*
X149331522Y-93518265D01*
X149882670Y-93474565D01*
X150471092Y-93475514D01*
D12*
X113145000Y-102385000D03*
X113145000Y-94385000D03*
X178145000Y-102385000D03*
X178145000Y-94385000D03*
D13*
X140970000Y-84530000D03*
X140970000Y-92150000D03*
X144145000Y-92150000D03*
X144145000Y-84530000D03*
X156845000Y-84530000D03*
X156845000Y-92150000D03*
X160020000Y-84530000D03*
X160020000Y-92150000D03*
D14*
X152080000Y-87975000D03*
X152080000Y-88475000D03*
X152080000Y-89975000D03*
X152080000Y-89475000D03*
X152080000Y-88975000D03*
X150180000Y-89975000D03*
X150180000Y-89475000D03*
X150180000Y-87975000D03*
X150180000Y-88475000D03*
D15*
X151130000Y-88975000D03*
D14*
X150180000Y-88975000D03*
D16*
X147955000Y-80085000D03*
D13*
X145415000Y-80085000D03*
D16*
X155575000Y-80085000D03*
D13*
X153035000Y-80085000D03*
D17*
X150241000Y-98298000D03*
D18*
X125095000Y-70560000D03*
D19*
X130175000Y-70560000D03*
D20*
X109680000Y-117980000D03*
D21*
X181680000Y-117980000D03*
D22*
X132945000Y-97970000D03*
D23*
X120545000Y-97970000D03*
D22*
X120110000Y-102350000D03*
D23*
X134610000Y-102350000D03*
D24*
X123440000Y-85100000D03*
X125980000Y-85100000D03*
X128520000Y-85100000D03*
X131060000Y-85100000D03*
D18*
X158750000Y-70560000D03*
D19*
X163830000Y-70560000D03*
D25*
X160401000Y-72846000D03*
X162433000Y-72846000D03*
D13*
X177800000Y-70560000D03*
D16*
X180340000Y-70560000D03*
D13*
X170180000Y-70560000D03*
D16*
X172720000Y-70560000D03*
D19*
X144152620Y-69899600D03*
X141071600Y-69899600D03*
X147152360Y-69899600D03*
D26*
X137652760Y-69899600D03*
X150652480Y-69899600D03*
D18*
X185420000Y-76910000D03*
D19*
X185420000Y-81990000D03*
D25*
X183134000Y-78561000D03*
X183134000Y-80593000D03*
D18*
X106045000Y-76910000D03*
D19*
X106045000Y-81990000D03*
D18*
X106045000Y-101040000D03*
D19*
X106045000Y-95960000D03*
D25*
X108331000Y-99389000D03*
X108331000Y-97357000D03*
D18*
X185420000Y-95960000D03*
D19*
X185420000Y-101040000D03*
D25*
X183134000Y-97611000D03*
X183134000Y-99643000D03*
D27*
X172720000Y-83133000D03*
X145796000Y-90245000D03*
X180340000Y-79831000D03*
D28*
X153162000Y-87975000D02*
X154543000Y-87975000D01*
X154543000Y-87975000D02*
X156845000Y-85673000D01*
X156845000Y-85673000D02*
X156845000Y-84530000D01*
D29*
X152080000Y-87975000D02*
X153162000Y-87975000D01*
X156845000Y-85673000D02*
X156845000Y-84530000D01*
X154543000Y-87975000D02*
X156845000Y-85673000D01*
D28*
X183134000Y-78561000D02*
X165989000Y-78561000D01*
X165989000Y-78561000D02*
X160020000Y-84530000D01*
X185420000Y-101040000D02*
X184531000Y-101040000D01*
X184531000Y-101040000D02*
X183134000Y-99643000D01*
X143510000Y-88721000D02*
X138176000Y-88721000D01*
X138176000Y-88721000D02*
X138430000Y-88721000D01*
X138430000Y-88721000D02*
X138176000Y-88721000D01*
X140970000Y-92150000D02*
X138176000Y-92150000D01*
X138176000Y-92150000D02*
X138303000Y-92150000D01*
X138303000Y-92150000D02*
X138176000Y-92150000D01*
X134610000Y-102350000D02*
X135596000Y-102350000D01*
X135596000Y-102350000D02*
X138176000Y-99770000D01*
X138176000Y-99770000D02*
X138176000Y-92150000D01*
X141351000Y-80085000D02*
X145415000Y-80085000D01*
X138176000Y-83260000D02*
X141351000Y-80085000D01*
X138176000Y-88721000D02*
X138176000Y-83260000D01*
X138176000Y-92150000D02*
X138176000Y-88721000D01*
D30*
X151130000Y-86689000D02*
X151130000Y-81990000D01*
X151130000Y-81990000D02*
X153035000Y-80085000D01*
D31*
X151130000Y-88975000D02*
X151130000Y-86689000D01*
X151130000Y-81990000D02*
X153035000Y-80085000D01*
X150180000Y-88975000D02*
X151130000Y-88975000D01*
X147447000Y-88721000D02*
X148336000Y-88721000D01*
D30*
X143510000Y-88721000D02*
X147447000Y-88721000D01*
D31*
X148590000Y-88975000D02*
X150180000Y-88975000D01*
X148336000Y-88721000D02*
X148590000Y-88975000D01*
D28*
X153035000Y-80085000D02*
X153035000Y-77926000D01*
X153035000Y-77926000D02*
X155067000Y-75894000D01*
X155067000Y-75894000D02*
X161671000Y-75894000D01*
X161671000Y-75894000D02*
X162433000Y-75132000D01*
X162433000Y-75132000D02*
X162433000Y-72846000D01*
D29*
X140970000Y-91261000D02*
X140970000Y-92150000D01*
D28*
X120545000Y-97970000D02*
X124946000Y-97970000D01*
X129326000Y-102350000D02*
X134610000Y-102350000D01*
X124946000Y-97970000D02*
X129326000Y-102350000D01*
X113145000Y-102385000D02*
X113209000Y-102385000D01*
X113209000Y-102385000D02*
X117624000Y-97970000D01*
X117624000Y-97970000D02*
X120545000Y-97970000D01*
X108331000Y-99389000D02*
X111252000Y-99389000D01*
X113145000Y-97496000D02*
X113145000Y-94385000D01*
X111252000Y-99389000D02*
X113145000Y-97496000D01*
X185420000Y-95960000D02*
X184785000Y-95960000D01*
X184785000Y-95960000D02*
X183134000Y-97611000D01*
X149034500Y-87641500D02*
X147955000Y-86562000D01*
X147955000Y-86562000D02*
X147955000Y-80085000D01*
D29*
X150180000Y-87975000D02*
X149368000Y-87975000D01*
X149368000Y-87975000D02*
X149034500Y-87641500D01*
X147955000Y-86562000D02*
X147955000Y-80085000D01*
D30*
X172720000Y-83133000D02*
X172720000Y-85546000D01*
X172720000Y-85546000D02*
X168529000Y-89737000D01*
X168529000Y-89737000D02*
X152908000Y-89737000D01*
D29*
X152908000Y-89737000D02*
X168529000Y-89737000D01*
X168529000Y-89737000D02*
X172720000Y-85546000D01*
X152080000Y-89975000D02*
X152797000Y-89975000D01*
X152773000Y-89475000D02*
X152080000Y-89475000D01*
X152908000Y-89610000D02*
X152773000Y-89475000D01*
X152908000Y-89864000D02*
X152908000Y-89737000D01*
X152908000Y-89737000D02*
X152908000Y-89610000D01*
X152797000Y-89975000D02*
X152908000Y-89864000D01*
D28*
X132945000Y-97970000D02*
X132945000Y-78966000D01*
X141587220Y-72465000D02*
X144152620Y-69899600D01*
X139446000Y-72465000D02*
X141587220Y-72465000D01*
X132945000Y-78966000D02*
X139446000Y-72465000D01*
D31*
X147320000Y-87705000D02*
X148082000Y-87705000D01*
D30*
X140970000Y-85800000D02*
X142875000Y-87705000D01*
X142875000Y-87705000D02*
X147320000Y-87705000D01*
X140970000Y-84530000D02*
X140970000Y-85800000D01*
D31*
X148852000Y-88475000D02*
X150180000Y-88475000D01*
X148082000Y-87705000D02*
X148852000Y-88475000D01*
X150180000Y-89975000D02*
X149114000Y-89975000D01*
D30*
X146939000Y-92150000D02*
X148717000Y-90372000D01*
X146939000Y-92150000D02*
X144145000Y-92150000D01*
D31*
X149114000Y-89975000D02*
X148717000Y-90372000D01*
D28*
X144145000Y-92150000D02*
X144399000Y-92150000D01*
D31*
X150180000Y-89475000D02*
X148471000Y-89475000D01*
D30*
X145796000Y-90245000D02*
X146812000Y-90245000D01*
X146812000Y-90245000D02*
X147320000Y-89737000D01*
X147320000Y-89737000D02*
X147701000Y-89737000D01*
D31*
X148209000Y-89737000D02*
X147701000Y-89737000D01*
X148471000Y-89475000D02*
X148209000Y-89737000D01*
D30*
X153670000Y-88975000D02*
X168021000Y-88975000D01*
X168021000Y-88975000D02*
X171577000Y-85419000D01*
X171577000Y-85419000D02*
X171577000Y-83006000D01*
X171577000Y-83006000D02*
X174752000Y-79831000D01*
X174752000Y-79831000D02*
X180340000Y-79831000D01*
D29*
X152080000Y-88975000D02*
X153670000Y-88975000D01*
X174752000Y-79831000D02*
X180340000Y-79831000D01*
X171577000Y-83006000D02*
X174752000Y-79831000D01*
X171577000Y-85419000D02*
X171577000Y-83006000D01*
X168021000Y-88975000D02*
X171577000Y-85419000D01*
D28*
X125095000Y-70560000D02*
X125095000Y-76910000D01*
X125095000Y-76910000D02*
X125095000Y-76656000D01*
X125095000Y-76656000D02*
X125095000Y-76910000D01*
X106045000Y-76910000D02*
X125095000Y-76910000D01*
X125095000Y-76910000D02*
X126492000Y-76910000D01*
X131060000Y-81478000D02*
X131060000Y-85100000D01*
X126492000Y-76910000D02*
X131060000Y-81478000D01*
D31*
G36*
X190051634Y-64977957D02*
X191430629Y-65899371D01*
X192352043Y-67278366D01*
X192690000Y-68977390D01*
X192690000Y-123832610D01*
X192352043Y-125531634D01*
X191430629Y-126910629D01*
X190051634Y-127832043D01*
X188514488Y-128137800D01*
X188425000Y-128120000D01*
X103425000Y-128120000D01*
X103335512Y-128137800D01*
X101798366Y-127832043D01*
X100419371Y-126910629D01*
X99497957Y-125531634D01*
X99258503Y-124327815D01*
X101289630Y-124327815D01*
X101613980Y-125112800D01*
X102214041Y-125713909D01*
X102998459Y-126039628D01*
X103847815Y-126040370D01*
X104632800Y-125716020D01*
X105233909Y-125115959D01*
X105559628Y-124331541D01*
X105559631Y-124327815D01*
X186289630Y-124327815D01*
X186613980Y-125112800D01*
X187214041Y-125713909D01*
X187998459Y-126039628D01*
X188847815Y-126040370D01*
X189632800Y-125716020D01*
X190233909Y-125115959D01*
X190559628Y-124331541D01*
X190560370Y-123482185D01*
X190236020Y-122697200D01*
X189635959Y-122096091D01*
X188851541Y-121770372D01*
X188002185Y-121769630D01*
X187217200Y-122093980D01*
X186616091Y-122694041D01*
X186290372Y-123478459D01*
X186289630Y-124327815D01*
X105559631Y-124327815D01*
X105560370Y-123482185D01*
X105236020Y-122697200D01*
X104635959Y-122096091D01*
X103851541Y-121770372D01*
X103002185Y-121769630D01*
X102217200Y-122093980D01*
X101616091Y-122694041D01*
X101290372Y-123478459D01*
X101289630Y-124327815D01*
X99258503Y-124327815D01*
X99160000Y-123832610D01*
X99160000Y-116480000D01*
X108032560Y-116480000D01*
X108032560Y-119480000D01*
X108076838Y-119715317D01*
X108215910Y-119931441D01*
X108428110Y-120076431D01*
X108680000Y-120127440D01*
X110680000Y-120127440D01*
X110915317Y-120083162D01*
X111131441Y-119944090D01*
X111276431Y-119731890D01*
X111327440Y-119480000D01*
X111327440Y-118353305D01*
X116294674Y-118353305D01*
X116581043Y-119046372D01*
X117110839Y-119577093D01*
X117803405Y-119864672D01*
X118553305Y-119865326D01*
X119246372Y-119578957D01*
X119777093Y-119049161D01*
X120064672Y-118356595D01*
X120064674Y-118353305D01*
X171294674Y-118353305D01*
X171581043Y-119046372D01*
X172110839Y-119577093D01*
X172803405Y-119864672D01*
X173553305Y-119865326D01*
X174246372Y-119578957D01*
X174777093Y-119049161D01*
X175064672Y-118356595D01*
X175064889Y-118107000D01*
X180045000Y-118107000D01*
X180045000Y-118607000D01*
X180218058Y-119223020D01*
X180613683Y-119725922D01*
X181171645Y-120039144D01*
X181299566Y-120070124D01*
X181553000Y-119950777D01*
X181553000Y-118107000D01*
X181807000Y-118107000D01*
X181807000Y-119950777D01*
X182060434Y-120070124D01*
X182188355Y-120039144D01*
X182746317Y-119725922D01*
X183141942Y-119223020D01*
X183315000Y-118607000D01*
X183315000Y-118107000D01*
X181807000Y-118107000D01*
X181553000Y-118107000D01*
X180045000Y-118107000D01*
X175064889Y-118107000D01*
X175065326Y-117606695D01*
X174960502Y-117353000D01*
X180045000Y-117353000D01*
X180045000Y-117853000D01*
X181553000Y-117853000D01*
X181553000Y-116009223D01*
X181807000Y-116009223D01*
X181807000Y-117853000D01*
X183315000Y-117853000D01*
X183315000Y-117353000D01*
X183141942Y-116736980D01*
X182746317Y-116234078D01*
X182188355Y-115920856D01*
X182060434Y-115889876D01*
X181807000Y-116009223D01*
X181553000Y-116009223D01*
X181299566Y-115889876D01*
X181171645Y-115920856D01*
X180613683Y-116234078D01*
X180218058Y-116736980D01*
X180045000Y-117353000D01*
X174960502Y-117353000D01*
X174778957Y-116913628D01*
X174249161Y-116382907D01*
X173556595Y-116095328D01*
X172806695Y-116094674D01*
X172113628Y-116381043D01*
X171582907Y-116910839D01*
X171295328Y-117603405D01*
X171294674Y-118353305D01*
X120064674Y-118353305D01*
X120065326Y-117606695D01*
X119778957Y-116913628D01*
X119249161Y-116382907D01*
X118556595Y-116095328D01*
X117806695Y-116094674D01*
X117113628Y-116381043D01*
X116582907Y-116910839D01*
X116295328Y-117603405D01*
X116294674Y-118353305D01*
X111327440Y-118353305D01*
X111327440Y-116480000D01*
X111283162Y-116244683D01*
X111144090Y-116028559D01*
X110931890Y-115883569D01*
X110680000Y-115832560D01*
X108680000Y-115832560D01*
X108444683Y-115876838D01*
X108228559Y-116015910D01*
X108083569Y-116228110D01*
X108032560Y-116480000D01*
X99160000Y-116480000D01*
X99160000Y-104260022D01*
X111449584Y-104260022D01*
X111670353Y-104630743D01*
X112642012Y-105024119D01*
X113690247Y-105015713D01*
X114619647Y-104630743D01*
X114840416Y-104260022D01*
X113145000Y-102564605D01*
X111449584Y-104260022D01*
X99160000Y-104260022D01*
X99160000Y-99790320D01*
X104147880Y-99790320D01*
X104147880Y-102289680D01*
X104192158Y-102524997D01*
X104331230Y-102741121D01*
X104543430Y-102886111D01*
X104795320Y-102937120D01*
X107294680Y-102937120D01*
X107529997Y-102892842D01*
X107746121Y-102753770D01*
X107891111Y-102541570D01*
X107942120Y-102289680D01*
X107942120Y-101882012D01*
X110505881Y-101882012D01*
X110514287Y-102930247D01*
X110899257Y-103859647D01*
X111269978Y-104080416D01*
X112965395Y-102385000D01*
X113324605Y-102385000D01*
X115020022Y-104080416D01*
X115390743Y-103859647D01*
X115784119Y-102887988D01*
X115775713Y-101839753D01*
X115390743Y-100910353D01*
X115289397Y-100850000D01*
X117962560Y-100850000D01*
X117962560Y-103850000D01*
X118006838Y-104085317D01*
X118145910Y-104301441D01*
X118358110Y-104446431D01*
X118610000Y-104497440D01*
X121610000Y-104497440D01*
X121845317Y-104453162D01*
X122061441Y-104314090D01*
X122206431Y-104101890D01*
X122254611Y-103863970D01*
X133275635Y-103863970D01*
X133435418Y-104182739D01*
X134226187Y-104492723D01*
X135075387Y-104476497D01*
X135598004Y-104260022D01*
X176449584Y-104260022D01*
X176670353Y-104630743D01*
X177642012Y-105024119D01*
X178690247Y-105015713D01*
X179619647Y-104630743D01*
X179840416Y-104260022D01*
X178145000Y-102564605D01*
X176449584Y-104260022D01*
X135598004Y-104260022D01*
X135784582Y-104182739D01*
X135944365Y-103863970D01*
X134610000Y-102529605D01*
X133275635Y-103863970D01*
X122254611Y-103863970D01*
X122257440Y-103850000D01*
X122257440Y-101966187D01*
X132467277Y-101966187D01*
X132483503Y-102815387D01*
X132777261Y-103524582D01*
X133096030Y-103684365D01*
X134430395Y-102350000D01*
X134789605Y-102350000D01*
X136123970Y-103684365D01*
X136442739Y-103524582D01*
X136752723Y-102733813D01*
X136736497Y-101884613D01*
X136442739Y-101175418D01*
X136123970Y-101015635D01*
X134789605Y-102350000D01*
X134430395Y-102350000D01*
X133096030Y-101015635D01*
X132777261Y-101175418D01*
X132467277Y-101966187D01*
X122257440Y-101966187D01*
X122257440Y-100850000D01*
X122254812Y-100836030D01*
X133275635Y-100836030D01*
X134610000Y-102170395D01*
X135944365Y-100836030D01*
X135784582Y-100517261D01*
X134993813Y-100207277D01*
X134144613Y-100223503D01*
X133435418Y-100517261D01*
X133275635Y-100836030D01*
X122254812Y-100836030D01*
X122213162Y-100614683D01*
X122074090Y-100398559D01*
X121861890Y-100253569D01*
X121610000Y-100202560D01*
X118610000Y-100202560D01*
X118374683Y-100246838D01*
X118158559Y-100385910D01*
X118013569Y-100598110D01*
X117962560Y-100850000D01*
X115289397Y-100850000D01*
X115020022Y-100689584D01*
X113324605Y-102385000D01*
X112965395Y-102385000D01*
X111269978Y-100689584D01*
X110899257Y-100910353D01*
X110505881Y-101882012D01*
X107942120Y-101882012D01*
X107942120Y-100889596D01*
X108024330Y-100923733D01*
X108634991Y-100924265D01*
X109199371Y-100691068D01*
X109485940Y-100405000D01*
X111252000Y-100405000D01*
X111547050Y-100346311D01*
X111449584Y-100509978D01*
X113145000Y-102205395D01*
X114840416Y-100509978D01*
X114619647Y-100139257D01*
X113647988Y-99745881D01*
X112599753Y-99754287D01*
X112128250Y-99949590D01*
X112593870Y-99483970D01*
X119210635Y-99483970D01*
X119370418Y-99802739D01*
X120161187Y-100112723D01*
X121010387Y-100096497D01*
X121719582Y-99802739D01*
X121879365Y-99483970D01*
X120545000Y-98149605D01*
X119210635Y-99483970D01*
X112593870Y-99483970D01*
X113863420Y-98214421D01*
X114014228Y-97988721D01*
X114083662Y-97884806D01*
X114143060Y-97586187D01*
X118402277Y-97586187D01*
X118418503Y-98435387D01*
X118712261Y-99144582D01*
X119031030Y-99304365D01*
X120365395Y-97970000D01*
X120724605Y-97970000D01*
X122058970Y-99304365D01*
X122377739Y-99144582D01*
X122687723Y-98353813D01*
X122671497Y-97504613D01*
X122377739Y-96795418D01*
X122058970Y-96635635D01*
X120724605Y-97970000D01*
X120365395Y-97970000D01*
X119031030Y-96635635D01*
X118712261Y-96795418D01*
X118402277Y-97586187D01*
X114143060Y-97586187D01*
X114161000Y-97496000D01*
X114161000Y-96816272D01*
X114635658Y-96620147D01*
X114800061Y-96456030D01*
X119210635Y-96456030D01*
X120545000Y-97790395D01*
X121879365Y-96456030D01*
X121719582Y-96137261D01*
X120928813Y-95827277D01*
X120079613Y-95843503D01*
X119370418Y-96137261D01*
X119210635Y-96456030D01*
X114800061Y-96456030D01*
X115377542Y-95879557D01*
X115779542Y-94911433D01*
X115780457Y-93863166D01*
X115380147Y-92894342D01*
X114639557Y-92152458D01*
X113671433Y-91750458D01*
X112623166Y-91749543D01*
X111654342Y-92149853D01*
X110912458Y-92890443D01*
X110510458Y-93858567D01*
X110509543Y-94906834D01*
X110909853Y-95875658D01*
X111650443Y-96617542D01*
X112129000Y-96816256D01*
X112129000Y-97075159D01*
X110831160Y-98373000D01*
X109524828Y-98373000D01*
X109525718Y-98372110D01*
X109411161Y-98257553D01*
X109667643Y-98171148D01*
X109877458Y-97597664D01*
X109851839Y-96987540D01*
X109667643Y-96542852D01*
X109411159Y-96456446D01*
X108510605Y-97357000D01*
X108524748Y-97371143D01*
X108345143Y-97550748D01*
X108331000Y-97536605D01*
X108316858Y-97550748D01*
X108137253Y-97371143D01*
X108151395Y-97357000D01*
X108137253Y-97342858D01*
X108316858Y-97163253D01*
X108331000Y-97177395D01*
X109231554Y-96276841D01*
X109145148Y-96020357D01*
X108571664Y-95810542D01*
X107961540Y-95836161D01*
X107927412Y-95850297D01*
X107918928Y-95534616D01*
X107670859Y-94935725D01*
X107378089Y-94806517D01*
X106224605Y-95960000D01*
X106238748Y-95974142D01*
X106059142Y-96153748D01*
X106045000Y-96139605D01*
X104891517Y-97293089D01*
X105020725Y-97585859D01*
X105720883Y-97854071D01*
X106470384Y-97833928D01*
X106808788Y-97693756D01*
X106810161Y-97726460D01*
X106994357Y-98171148D01*
X107250839Y-98257553D01*
X107136282Y-98372110D01*
X107156599Y-98392427D01*
X107030449Y-98518357D01*
X106796267Y-99082330D01*
X106796214Y-99142880D01*
X104795320Y-99142880D01*
X104560003Y-99187158D01*
X104343879Y-99326230D01*
X104198889Y-99538430D01*
X104147880Y-99790320D01*
X99160000Y-99790320D01*
X99160000Y-95635883D01*
X104150929Y-95635883D01*
X104171072Y-96385384D01*
X104419141Y-96984275D01*
X104711911Y-97113483D01*
X105865395Y-95960000D01*
X104711911Y-94806517D01*
X104419141Y-94935725D01*
X104150929Y-95635883D01*
X99160000Y-95635883D01*
X99160000Y-94626911D01*
X104891517Y-94626911D01*
X106045000Y-95780395D01*
X107198483Y-94626911D01*
X107069275Y-94334141D01*
X106369117Y-94065929D01*
X105619616Y-94086072D01*
X105020725Y-94334141D01*
X104891517Y-94626911D01*
X99160000Y-94626911D01*
X99160000Y-82363241D01*
X104159994Y-82363241D01*
X104446314Y-83056191D01*
X104976021Y-83586822D01*
X105668469Y-83874352D01*
X106418241Y-83875006D01*
X107111191Y-83588686D01*
X107641822Y-83058979D01*
X107929352Y-82366531D01*
X107930006Y-81616759D01*
X107643686Y-80923809D01*
X107113979Y-80393178D01*
X106421531Y-80105648D01*
X105671759Y-80104994D01*
X104978809Y-80391314D01*
X104448178Y-80921021D01*
X104160648Y-81613469D01*
X104159994Y-82363241D01*
X99160000Y-82363241D01*
X99160000Y-75660320D01*
X104147880Y-75660320D01*
X104147880Y-78159680D01*
X104192158Y-78394997D01*
X104331230Y-78611121D01*
X104543430Y-78756111D01*
X104795320Y-78807120D01*
X107294680Y-78807120D01*
X107529997Y-78762842D01*
X107746121Y-78623770D01*
X107891111Y-78411570D01*
X107942120Y-78159680D01*
X107942120Y-77926000D01*
X126071160Y-77926000D01*
X130044000Y-81898841D01*
X130044000Y-84140293D01*
X129876371Y-84307630D01*
X129790051Y-84515512D01*
X129705010Y-84309697D01*
X129312370Y-83916371D01*
X128799100Y-83703243D01*
X128243339Y-83702758D01*
X127729697Y-83914990D01*
X127336371Y-84307630D01*
X127250051Y-84515512D01*
X127165010Y-84309697D01*
X126772370Y-83916371D01*
X126259100Y-83703243D01*
X125703339Y-83702758D01*
X125189697Y-83914990D01*
X124796371Y-84307630D01*
X124710051Y-84515512D01*
X124625010Y-84309697D01*
X124232370Y-83916371D01*
X123719100Y-83703243D01*
X123163339Y-83702758D01*
X122649697Y-83914990D01*
X122256371Y-84307630D01*
X122043243Y-84820900D01*
X122042758Y-85376661D01*
X122254990Y-85890303D01*
X122647630Y-86283629D01*
X123160900Y-86496757D01*
X123716661Y-86497242D01*
X124230303Y-86285010D01*
X124623629Y-85892370D01*
X124709949Y-85684488D01*
X124794990Y-85890303D01*
X125187630Y-86283629D01*
X125700900Y-86496757D01*
X126256661Y-86497242D01*
X126770303Y-86285010D01*
X127163629Y-85892370D01*
X127249949Y-85684488D01*
X127334990Y-85890303D01*
X127727630Y-86283629D01*
X128240900Y-86496757D01*
X128796661Y-86497242D01*
X129310303Y-86285010D01*
X129703629Y-85892370D01*
X129789949Y-85684488D01*
X129874990Y-85890303D01*
X130267630Y-86283629D01*
X130780900Y-86496757D01*
X131336661Y-86497242D01*
X131850303Y-86285010D01*
X131929000Y-86206450D01*
X131929000Y-95822560D01*
X131445000Y-95822560D01*
X131209683Y-95866838D01*
X130993559Y-96005910D01*
X130848569Y-96218110D01*
X130797560Y-96470000D01*
X130797560Y-99470000D01*
X130841838Y-99705317D01*
X130980910Y-99921441D01*
X131193110Y-100066431D01*
X131445000Y-100117440D01*
X134445000Y-100117440D01*
X134680317Y-100073162D01*
X134896441Y-99934090D01*
X135041431Y-99721890D01*
X135092440Y-99470000D01*
X135092440Y-98566667D01*
X144683992Y-98566667D01*
X144687797Y-98587201D01*
X144684778Y-98607866D01*
X144711746Y-99133386D01*
X144719245Y-99163049D01*
X144717701Y-99193609D01*
X144780142Y-99618642D01*
X144799397Y-99672694D01*
X144806723Y-99729602D01*
X145016985Y-100354894D01*
X145043473Y-100401079D01*
X145058880Y-100452048D01*
X145143091Y-100609971D01*
X145143093Y-100609973D01*
X145409698Y-101109947D01*
X145438165Y-101144704D01*
X145457010Y-101185481D01*
X145915122Y-101814771D01*
X145946751Y-101843953D01*
X145969844Y-101880271D01*
X146507057Y-102442420D01*
X146533912Y-102461259D01*
X146540170Y-102470624D01*
X146555951Y-102481169D01*
X146577340Y-102505832D01*
X146600307Y-102523658D01*
X147165464Y-102962309D01*
X147204027Y-102981592D01*
X147236367Y-103010110D01*
X147505755Y-103166621D01*
X147533206Y-103176023D01*
X147556598Y-103193186D01*
X148052829Y-103424781D01*
X148080377Y-103431532D01*
X148104623Y-103446243D01*
X148624984Y-103635617D01*
X148658509Y-103640776D01*
X148689190Y-103655236D01*
X149155001Y-103771244D01*
X149193621Y-103773089D01*
X149230313Y-103785275D01*
X149408155Y-103807497D01*
X149431735Y-103805795D01*
X149454656Y-103811592D01*
X149874243Y-103833158D01*
X149892795Y-103830449D01*
X149911210Y-103833989D01*
X150383849Y-103830949D01*
X150400300Y-103827566D01*
X150416936Y-103829880D01*
X150868919Y-103803561D01*
X150892751Y-103797361D01*
X150917324Y-103798891D01*
X151274942Y-103750620D01*
X151304480Y-103740485D01*
X151335692Y-103739412D01*
X151411912Y-103721507D01*
X151433287Y-103711779D01*
X151456637Y-103709275D01*
X151777105Y-103609020D01*
X151794489Y-103599533D01*
X151814014Y-103596224D01*
X152196788Y-103450290D01*
X152210808Y-103441489D01*
X152226968Y-103437894D01*
X152605021Y-103271226D01*
X152623796Y-103258060D01*
X152645774Y-103251510D01*
X152982239Y-103073778D01*
X153016221Y-103046167D01*
X153056105Y-103028095D01*
X153767334Y-102518420D01*
X153808894Y-102474046D01*
X153858558Y-102438984D01*
X154387639Y-101882012D01*
X175505881Y-101882012D01*
X175514287Y-102930247D01*
X175899257Y-103859647D01*
X176269978Y-104080416D01*
X177965395Y-102385000D01*
X178324605Y-102385000D01*
X180020022Y-104080416D01*
X180390743Y-103859647D01*
X180784119Y-102887988D01*
X180779990Y-102373089D01*
X184266517Y-102373089D01*
X184395725Y-102665859D01*
X185095883Y-102934071D01*
X185845384Y-102913928D01*
X186444275Y-102665859D01*
X186573483Y-102373089D01*
X185420000Y-101219605D01*
X184266517Y-102373089D01*
X180779990Y-102373089D01*
X180775713Y-101839753D01*
X180390743Y-100910353D01*
X180020022Y-100689584D01*
X178324605Y-102385000D01*
X177965395Y-102385000D01*
X176269978Y-100689584D01*
X175899257Y-100910353D01*
X175505881Y-101882012D01*
X154387639Y-101882012D01*
X154464015Y-101801610D01*
X154495374Y-101751964D01*
X154536395Y-101709940D01*
X155028749Y-100953454D01*
X155049267Y-100902177D01*
X155080521Y-100856646D01*
X155229229Y-100509978D01*
X176449584Y-100509978D01*
X178145000Y-102205395D01*
X179840416Y-100509978D01*
X179619647Y-100139257D01*
X178647988Y-99745881D01*
X177599753Y-99754287D01*
X176670353Y-100139257D01*
X176449584Y-100509978D01*
X155229229Y-100509978D01*
X155452437Y-99989636D01*
X155463621Y-99936876D01*
X155486294Y-99887942D01*
X155571480Y-99536118D01*
X155573097Y-99496905D01*
X155585156Y-99459555D01*
X155591820Y-99402336D01*
X181587542Y-99402336D01*
X181613161Y-100012460D01*
X181797357Y-100457148D01*
X182053841Y-100543554D01*
X182954395Y-99643000D01*
X182940253Y-99628858D01*
X183119858Y-99449253D01*
X183134000Y-99463395D01*
X183148143Y-99449253D01*
X183327748Y-99628858D01*
X183313605Y-99643000D01*
X183327748Y-99657143D01*
X183148143Y-99836748D01*
X183134000Y-99822605D01*
X182233446Y-100723159D01*
X182319852Y-100979643D01*
X182893336Y-101189458D01*
X183503460Y-101163839D01*
X183537588Y-101149703D01*
X183546072Y-101465384D01*
X183794141Y-102064275D01*
X184086911Y-102193483D01*
X185240395Y-101040000D01*
X185599605Y-101040000D01*
X186753089Y-102193483D01*
X187045859Y-102064275D01*
X187314071Y-101364117D01*
X187293928Y-100614616D01*
X187045859Y-100015725D01*
X186753089Y-99886517D01*
X185599605Y-101040000D01*
X185240395Y-101040000D01*
X185226252Y-101025858D01*
X185405858Y-100846252D01*
X185420000Y-100860395D01*
X186573483Y-99706911D01*
X186444275Y-99414141D01*
X185744117Y-99145929D01*
X184994616Y-99166072D01*
X184656212Y-99306244D01*
X184654839Y-99273540D01*
X184470643Y-98828852D01*
X184214161Y-98742447D01*
X184328718Y-98627890D01*
X184308401Y-98607573D01*
X184434551Y-98481643D01*
X184668733Y-97917670D01*
X184668786Y-97857120D01*
X186669680Y-97857120D01*
X186904997Y-97812842D01*
X187121121Y-97673770D01*
X187266111Y-97461570D01*
X187317120Y-97209680D01*
X187317120Y-94710320D01*
X187272842Y-94475003D01*
X187133770Y-94258879D01*
X186921570Y-94113889D01*
X186669680Y-94062880D01*
X184170320Y-94062880D01*
X183935003Y-94107158D01*
X183718879Y-94246230D01*
X183573889Y-94458430D01*
X183522880Y-94710320D01*
X183522880Y-95785279D01*
X183232074Y-96076085D01*
X182830009Y-96075735D01*
X182265629Y-96308932D01*
X181833449Y-96740357D01*
X181599267Y-97304330D01*
X181598735Y-97914991D01*
X181831932Y-98479371D01*
X181959755Y-98607417D01*
X181939282Y-98627890D01*
X182053839Y-98742447D01*
X181797357Y-98828852D01*
X181587542Y-99402336D01*
X155591820Y-99402336D01*
X155645990Y-98937280D01*
X155643754Y-98909533D01*
X155650001Y-98882404D01*
X155667437Y-98300570D01*
X155663514Y-98277213D01*
X155667129Y-98253808D01*
X155641868Y-97668404D01*
X155635540Y-97642486D01*
X155637428Y-97615872D01*
X155570173Y-97082886D01*
X155557436Y-97044691D01*
X155555265Y-97004486D01*
X155446718Y-96579909D01*
X155430680Y-96546421D01*
X155424438Y-96509823D01*
X155354526Y-96327011D01*
X155341351Y-96306072D01*
X155335343Y-96282072D01*
X155060953Y-95701696D01*
X155033301Y-95664399D01*
X155015676Y-95621447D01*
X154669446Y-95099534D01*
X154639929Y-95069820D01*
X154619146Y-95033457D01*
X154509076Y-94906834D01*
X175509543Y-94906834D01*
X175909853Y-95875658D01*
X176650443Y-96617542D01*
X177618567Y-97019542D01*
X178666834Y-97020457D01*
X179635658Y-96620147D01*
X180377542Y-95879557D01*
X180779542Y-94911433D01*
X180780457Y-93863166D01*
X180380147Y-92894342D01*
X179639557Y-92152458D01*
X178671433Y-91750458D01*
X177623166Y-91749543D01*
X176654342Y-92149853D01*
X175912458Y-92890443D01*
X175510458Y-93858567D01*
X175509543Y-94906834D01*
X154509076Y-94906834D01*
X154160089Y-94505365D01*
X154128514Y-94480916D01*
X154104567Y-94448953D01*
X153574861Y-93973511D01*
X153530204Y-93947038D01*
X153492806Y-93911028D01*
X152744017Y-93430932D01*
X152691193Y-93410213D01*
X152644041Y-93378644D01*
X151827169Y-93039401D01*
X151791730Y-93032318D01*
X151759641Y-93015690D01*
X151686170Y-92994425D01*
X151654905Y-92991749D01*
X151625777Y-92980079D01*
X151151450Y-92891457D01*
X151117574Y-92891851D01*
X151084981Y-92882612D01*
X150522165Y-92837555D01*
X150496982Y-92840501D01*
X150472124Y-92835515D01*
X149883702Y-92834566D01*
X149858052Y-92839625D01*
X149832084Y-92836567D01*
X149280936Y-92880267D01*
X149245048Y-92890411D01*
X149207756Y-92890346D01*
X148756767Y-92979238D01*
X148707434Y-92999572D01*
X148654795Y-93008290D01*
X147954749Y-93272167D01*
X147911670Y-93298985D01*
X147863529Y-93315033D01*
X147104487Y-93747738D01*
X147064225Y-93782658D01*
X147017135Y-93807621D01*
X146917315Y-93888969D01*
X146917314Y-93888970D01*
X146689638Y-94074515D01*
X146689634Y-94074517D01*
X146584776Y-94159971D01*
X146584775Y-94159973D01*
X146584774Y-94159973D01*
X146346120Y-94354466D01*
X146312017Y-94395731D01*
X146269528Y-94428291D01*
X145705783Y-95070282D01*
X145677827Y-95118631D01*
X145640038Y-95159748D01*
X145202794Y-95877899D01*
X145182137Y-95934393D01*
X145150388Y-95985488D01*
X145078493Y-96176705D01*
X145078493Y-96176707D01*
X145078492Y-96176708D01*
X144858881Y-96760810D01*
X144852907Y-96797071D01*
X144837180Y-96830289D01*
X144823810Y-96883575D01*
X144822490Y-96910231D01*
X144813094Y-96935211D01*
X144740425Y-97375944D01*
X144741357Y-97404236D01*
X144733744Y-97431501D01*
X144695469Y-97934474D01*
X144695469Y-97934477D01*
X144693156Y-97964874D01*
X144694699Y-97977630D01*
X144693624Y-97983036D01*
X144694793Y-97988911D01*
X144691366Y-98005029D01*
X144686645Y-98364532D01*
X144686645Y-98364537D01*
X144683992Y-98566667D01*
X135092440Y-98566667D01*
X135092440Y-96470000D01*
X135048162Y-96234683D01*
X134909090Y-96018559D01*
X134696890Y-95873569D01*
X134445000Y-95822560D01*
X133961000Y-95822560D01*
X133961000Y-93314107D01*
X139985498Y-93314107D01*
X140086120Y-93582622D01*
X140701642Y-93811816D01*
X141358019Y-93788014D01*
X141853880Y-93582622D01*
X141954502Y-93314107D01*
X140970000Y-92329605D01*
X139985498Y-93314107D01*
X133961000Y-93314107D01*
X133961000Y-91881642D01*
X139308184Y-91881642D01*
X139331986Y-92538019D01*
X139537378Y-93033880D01*
X139805893Y-93134502D01*
X140790395Y-92150000D01*
X139805893Y-91165498D01*
X139537378Y-91266120D01*
X139308184Y-91881642D01*
X133961000Y-91881642D01*
X133961000Y-90985893D01*
X139985498Y-90985893D01*
X140970000Y-91970395D01*
X141954502Y-90985893D01*
X141853880Y-90717378D01*
X141238358Y-90488184D01*
X140581981Y-90511986D01*
X140086120Y-90717378D01*
X139985498Y-90985893D01*
X133961000Y-90985893D01*
X133961000Y-84856963D01*
X139318714Y-84856963D01*
X139569534Y-85463995D01*
X140033563Y-85928834D01*
X140113205Y-85961904D01*
X140148671Y-86140206D01*
X140341382Y-86428618D01*
X142246382Y-88333618D01*
X142534794Y-88526329D01*
X142875000Y-88594000D01*
X147320000Y-88594000D01*
X147660206Y-88526329D01*
X147748998Y-88467000D01*
X147766370Y-88467000D01*
X148114041Y-88814672D01*
X148064163Y-88848000D01*
X147980853Y-88903666D01*
X147701000Y-88848000D01*
X147320000Y-88848000D01*
X146979794Y-88915671D01*
X146691382Y-89108382D01*
X146443764Y-89356000D01*
X146138823Y-89356000D01*
X145986295Y-89292665D01*
X145607367Y-89292335D01*
X145257157Y-89437039D01*
X144988980Y-89704747D01*
X144843665Y-90054705D01*
X144843335Y-90433633D01*
X144952398Y-90697584D01*
X144474845Y-90499287D01*
X143818037Y-90498714D01*
X143211005Y-90749534D01*
X142746166Y-91213563D01*
X142563284Y-91653992D01*
X142402622Y-91266120D01*
X142134107Y-91165498D01*
X141149605Y-92150000D01*
X142134107Y-93134502D01*
X142402622Y-93033880D01*
X142554876Y-92624987D01*
X142744534Y-93083995D01*
X143208563Y-93548834D01*
X143815155Y-93800713D01*
X144471963Y-93801286D01*
X145078995Y-93550466D01*
X145543834Y-93086437D01*
X145563532Y-93039000D01*
X146939000Y-93039000D01*
X147279206Y-92971329D01*
X147567618Y-92778618D01*
X149345618Y-91000618D01*
X149521762Y-90737000D01*
X149878446Y-90737000D01*
X149930000Y-90747440D01*
X150430000Y-90747440D01*
X150431828Y-90747096D01*
X150583691Y-90810000D01*
X150844250Y-90810000D01*
X151003000Y-90651250D01*
X151003000Y-90386182D01*
X151026431Y-90351890D01*
X151077440Y-90100000D01*
X151077440Y-89850000D01*
X151053056Y-89720411D01*
X151077440Y-89600000D01*
X151077440Y-89350000D01*
X151057550Y-89244295D01*
X151065000Y-89226310D01*
X151065000Y-89196250D01*
X151044688Y-89175938D01*
X151033162Y-89114683D01*
X150983000Y-89036730D01*
X150983000Y-88915453D01*
X151026431Y-88851890D01*
X151041558Y-88777192D01*
X151065000Y-88753750D01*
X151065000Y-88723690D01*
X151056532Y-88703247D01*
X151077440Y-88600000D01*
X151077440Y-88350000D01*
X151053056Y-88220411D01*
X151077440Y-88100000D01*
X151077440Y-87850000D01*
X151182560Y-87850000D01*
X151182560Y-88100000D01*
X151206944Y-88229589D01*
X151182560Y-88350000D01*
X151182560Y-88600000D01*
X151206944Y-88729589D01*
X151182560Y-88850000D01*
X151182560Y-89100000D01*
X151206944Y-89229589D01*
X151182560Y-89350000D01*
X151182560Y-89600000D01*
X151206944Y-89729589D01*
X151182560Y-89850000D01*
X151182560Y-90100000D01*
X151226838Y-90335317D01*
X151257000Y-90382190D01*
X151257000Y-90651250D01*
X151415750Y-90810000D01*
X151676309Y-90810000D01*
X151828215Y-90747078D01*
X151830000Y-90747440D01*
X152330000Y-90747440D01*
X152528976Y-90710000D01*
X152797000Y-90710000D01*
X153078272Y-90654051D01*
X153120253Y-90626000D01*
X156209981Y-90626000D01*
X155911005Y-90749534D01*
X155446166Y-91213563D01*
X155194287Y-91820155D01*
X155193714Y-92476963D01*
X155444534Y-93083995D01*
X155908563Y-93548834D01*
X156515155Y-93800713D01*
X157171963Y-93801286D01*
X157778995Y-93550466D01*
X158243834Y-93086437D01*
X158432654Y-92631709D01*
X158619534Y-93083995D01*
X159083563Y-93548834D01*
X159690155Y-93800713D01*
X160346963Y-93801286D01*
X160953995Y-93550466D01*
X161418834Y-93086437D01*
X161670713Y-92479845D01*
X161671286Y-91823037D01*
X161420466Y-91216005D01*
X160956437Y-90751166D01*
X160655004Y-90626000D01*
X168529000Y-90626000D01*
X168869206Y-90558329D01*
X169157618Y-90365618D01*
X173348618Y-86174618D01*
X173349570Y-86173193D01*
X173541329Y-85886206D01*
X173609000Y-85546000D01*
X173609000Y-83475823D01*
X173672335Y-83323295D01*
X173672335Y-83323089D01*
X184266517Y-83323089D01*
X184395725Y-83615859D01*
X185095883Y-83884071D01*
X185845384Y-83863928D01*
X186444275Y-83615859D01*
X186573483Y-83323089D01*
X185420000Y-82169605D01*
X184266517Y-83323089D01*
X173672335Y-83323089D01*
X173672665Y-82944367D01*
X173527961Y-82594157D01*
X173387143Y-82453093D01*
X175120236Y-80720000D01*
X179997177Y-80720000D01*
X180149705Y-80783335D01*
X180528633Y-80783665D01*
X180878843Y-80638961D01*
X181147020Y-80371253D01*
X181292335Y-80021295D01*
X181292665Y-79642367D01*
X181265656Y-79577000D01*
X181940172Y-79577000D01*
X181939282Y-79577890D01*
X182053839Y-79692447D01*
X181797357Y-79778852D01*
X181587542Y-80352336D01*
X181613161Y-80962460D01*
X181797357Y-81407148D01*
X182053841Y-81493554D01*
X182954395Y-80593000D01*
X182940253Y-80578858D01*
X183119858Y-80399253D01*
X183134000Y-80413395D01*
X183148143Y-80399253D01*
X183327748Y-80578858D01*
X183313605Y-80593000D01*
X183327748Y-80607143D01*
X183148143Y-80786748D01*
X183134000Y-80772605D01*
X182233446Y-81673159D01*
X182319852Y-81929643D01*
X182893336Y-82139458D01*
X183503460Y-82113839D01*
X183537588Y-82099703D01*
X183546072Y-82415384D01*
X183794141Y-83014275D01*
X184086911Y-83143483D01*
X185240395Y-81990000D01*
X185599605Y-81990000D01*
X186753089Y-83143483D01*
X187045859Y-83014275D01*
X187314071Y-82314117D01*
X187293928Y-81564616D01*
X187045859Y-80965725D01*
X186753089Y-80836517D01*
X185599605Y-81990000D01*
X185240395Y-81990000D01*
X185226252Y-81975858D01*
X185405858Y-81796252D01*
X185420000Y-81810395D01*
X186573483Y-80656911D01*
X186444275Y-80364141D01*
X185744117Y-80095929D01*
X184994616Y-80116072D01*
X184656212Y-80256244D01*
X184654839Y-80223540D01*
X184470643Y-79778852D01*
X184214161Y-79692447D01*
X184328718Y-79577890D01*
X184308401Y-79557573D01*
X184434551Y-79431643D01*
X184668733Y-78867670D01*
X184668786Y-78807120D01*
X186669680Y-78807120D01*
X186904997Y-78762842D01*
X187121121Y-78623770D01*
X187266111Y-78411570D01*
X187317120Y-78159680D01*
X187317120Y-75660320D01*
X187272842Y-75425003D01*
X187133770Y-75208879D01*
X186921570Y-75063889D01*
X186669680Y-75012880D01*
X184170320Y-75012880D01*
X183935003Y-75057158D01*
X183718879Y-75196230D01*
X183573889Y-75408430D01*
X183522880Y-75660320D01*
X183522880Y-77060404D01*
X183440670Y-77026267D01*
X182830009Y-77025735D01*
X182265629Y-77258932D01*
X181979060Y-77545000D01*
X165989000Y-77545000D01*
X165664700Y-77609507D01*
X165600193Y-77622338D01*
X165270580Y-77842579D01*
X160233974Y-82879186D01*
X159693037Y-82878714D01*
X159086005Y-83129534D01*
X158621166Y-83593563D01*
X158432346Y-84048291D01*
X158245466Y-83596005D01*
X157781437Y-83131166D01*
X157174845Y-82879287D01*
X156518037Y-82878714D01*
X155911005Y-83129534D01*
X155446166Y-83593563D01*
X155194287Y-84200155D01*
X155193714Y-84856963D01*
X155444534Y-85463995D01*
X155530774Y-85550385D01*
X154122160Y-86959000D01*
X153162000Y-86959000D01*
X152773194Y-87036338D01*
X152479206Y-87232775D01*
X152330000Y-87202560D01*
X151830000Y-87202560D01*
X151828172Y-87202904D01*
X151676309Y-87140000D01*
X151415750Y-87140000D01*
X151257000Y-87298750D01*
X151257000Y-87563818D01*
X151233569Y-87598110D01*
X151182560Y-87850000D01*
X151077440Y-87850000D01*
X151033162Y-87614683D01*
X151003000Y-87567810D01*
X151003000Y-87298750D01*
X150844250Y-87140000D01*
X150583691Y-87140000D01*
X150431785Y-87202922D01*
X150430000Y-87202560D01*
X149939664Y-87202560D01*
X149752921Y-86923080D01*
X148971000Y-86141160D01*
X148971000Y-81748440D01*
X149206317Y-81704162D01*
X149422441Y-81565090D01*
X149567431Y-81352890D01*
X149618440Y-81101000D01*
X149618440Y-79816642D01*
X151373184Y-79816642D01*
X151396986Y-80473019D01*
X151602378Y-80968880D01*
X151870893Y-81069502D01*
X152855395Y-80085000D01*
X151870893Y-79100498D01*
X151602378Y-79201120D01*
X151373184Y-79816642D01*
X149618440Y-79816642D01*
X149618440Y-79069000D01*
X149590572Y-78920893D01*
X152050498Y-78920893D01*
X153035000Y-79905395D01*
X153049143Y-79891253D01*
X153228748Y-80070858D01*
X153214605Y-80085000D01*
X153228748Y-80099143D01*
X153049143Y-80278748D01*
X153035000Y-80264605D01*
X152050498Y-81249107D01*
X152151120Y-81517622D01*
X152766642Y-81746816D01*
X153423019Y-81723014D01*
X153918880Y-81517622D01*
X153975419Y-81366746D01*
X154094910Y-81552441D01*
X154307110Y-81697431D01*
X154559000Y-81748440D01*
X156591000Y-81748440D01*
X156826317Y-81704162D01*
X157042441Y-81565090D01*
X157187431Y-81352890D01*
X157238440Y-81101000D01*
X157238440Y-79069000D01*
X157194162Y-78833683D01*
X157055090Y-78617559D01*
X156842890Y-78472569D01*
X156591000Y-78421560D01*
X154559000Y-78421560D01*
X154323683Y-78465838D01*
X154107559Y-78604910D01*
X153974221Y-78800057D01*
X153918880Y-78652378D01*
X153303358Y-78423184D01*
X152646981Y-78446986D01*
X152151120Y-78652378D01*
X152050498Y-78920893D01*
X149590572Y-78920893D01*
X149574162Y-78833683D01*
X149435090Y-78617559D01*
X149222890Y-78472569D01*
X148971000Y-78421560D01*
X146939000Y-78421560D01*
X146703683Y-78465838D01*
X146487559Y-78604910D01*
X146354221Y-78800057D01*
X146298880Y-78652378D01*
X145683358Y-78423184D01*
X145026981Y-78446986D01*
X144531120Y-78652378D01*
X144430498Y-78920893D01*
X145415000Y-79905395D01*
X145429143Y-79891253D01*
X145608748Y-80070858D01*
X145594605Y-80085000D01*
X145608748Y-80099143D01*
X145429143Y-80278748D01*
X145415000Y-80264605D01*
X144430498Y-81249107D01*
X144531120Y-81517622D01*
X145146642Y-81746816D01*
X145803019Y-81723014D01*
X146298880Y-81517622D01*
X146355419Y-81366746D01*
X146474910Y-81552441D01*
X146687110Y-81697431D01*
X146939000Y-81748440D01*
X146939000Y-86562000D01*
X146989524Y-86816000D01*
X143243236Y-86816000D01*
X142131046Y-85703810D01*
X142368834Y-85466437D01*
X142557654Y-85011709D01*
X142744534Y-85463995D01*
X143208563Y-85928834D01*
X143815155Y-86180713D01*
X144471963Y-86181286D01*
X145078995Y-85930466D01*
X145543834Y-85466437D01*
X145795713Y-84859845D01*
X145796286Y-84203037D01*
X145545466Y-83596005D01*
X145081437Y-83131166D01*
X144474845Y-82879287D01*
X143818037Y-82878714D01*
X143211005Y-83129534D01*
X142746166Y-83593563D01*
X142557346Y-84048291D01*
X142370466Y-83596005D01*
X141906437Y-83131166D01*
X141299845Y-82879287D01*
X140643037Y-82878714D01*
X140036005Y-83129534D01*
X139571166Y-83593563D01*
X139319287Y-84200155D01*
X139318714Y-84856963D01*
X133961000Y-84856963D01*
X133961000Y-79816642D01*
X143753184Y-79816642D01*
X143776986Y-80473019D01*
X143982378Y-80968880D01*
X144250893Y-81069502D01*
X145235395Y-80085000D01*
X144250893Y-79100498D01*
X143982378Y-79201120D01*
X143753184Y-79816642D01*
X133961000Y-79816642D01*
X133961000Y-79386840D01*
X139866841Y-73481000D01*
X141587220Y-73481000D01*
X141911520Y-73416493D01*
X141976027Y-73403662D01*
X142305640Y-73183420D01*
X143725935Y-71763126D01*
X143776089Y-71783952D01*
X144525861Y-71784606D01*
X145218811Y-71498286D01*
X145652781Y-71065071D01*
X146083381Y-71496422D01*
X146775829Y-71783952D01*
X147525601Y-71784606D01*
X148218551Y-71498286D01*
X148582349Y-71135122D01*
X148629346Y-71248863D01*
X149299688Y-71920376D01*
X150175981Y-72284245D01*
X151124816Y-72285073D01*
X152001743Y-71922734D01*
X152673256Y-71252392D01*
X153037125Y-70376099D01*
X153037953Y-69427264D01*
X152989633Y-69310320D01*
X156852880Y-69310320D01*
X156852880Y-71809680D01*
X156897158Y-72044997D01*
X157036230Y-72261121D01*
X157248430Y-72406111D01*
X157500320Y-72457120D01*
X158900404Y-72457120D01*
X158866267Y-72539330D01*
X158865735Y-73149991D01*
X159098932Y-73714371D01*
X159530357Y-74146551D01*
X160094330Y-74380733D01*
X160704991Y-74381265D01*
X161269371Y-74148068D01*
X161397417Y-74020245D01*
X161417890Y-74040718D01*
X161532447Y-73926161D01*
X161618852Y-74182643D01*
X162192336Y-74392458D01*
X162802460Y-74366839D01*
X163247148Y-74182643D01*
X163333554Y-73926159D01*
X162433000Y-73025605D01*
X162418858Y-73039748D01*
X162239253Y-72860143D01*
X162253395Y-72846000D01*
X162239253Y-72831858D01*
X162418858Y-72652253D01*
X162433000Y-72666395D01*
X162447143Y-72652253D01*
X162626748Y-72831858D01*
X162612605Y-72846000D01*
X163513159Y-73746554D01*
X163769643Y-73660148D01*
X163979458Y-73086664D01*
X163953839Y-72476540D01*
X163939703Y-72442412D01*
X164255384Y-72433928D01*
X164854275Y-72185859D01*
X164983483Y-71893089D01*
X163830000Y-70739605D01*
X163815858Y-70753748D01*
X163636252Y-70574142D01*
X163650395Y-70560000D01*
X164009605Y-70560000D01*
X165163089Y-71713483D01*
X165455859Y-71584275D01*
X165722980Y-70886963D01*
X168528714Y-70886963D01*
X168779534Y-71493995D01*
X169243563Y-71958834D01*
X169850155Y-72210713D01*
X170506963Y-72211286D01*
X171113995Y-71960466D01*
X171164421Y-71910128D01*
X171239910Y-72027441D01*
X171452110Y-72172431D01*
X171704000Y-72223440D01*
X173736000Y-72223440D01*
X173971317Y-72179162D01*
X174187441Y-72040090D01*
X174332431Y-71827890D01*
X174383440Y-71576000D01*
X174383440Y-70886963D01*
X176148714Y-70886963D01*
X176399534Y-71493995D01*
X176863563Y-71958834D01*
X177470155Y-72210713D01*
X178126963Y-72211286D01*
X178733995Y-71960466D01*
X178784421Y-71910128D01*
X178859910Y-72027441D01*
X179072110Y-72172431D01*
X179324000Y-72223440D01*
X181356000Y-72223440D01*
X181591317Y-72179162D01*
X181807441Y-72040090D01*
X181952431Y-71827890D01*
X182003440Y-71576000D01*
X182003440Y-69544000D01*
X181962762Y-69327815D01*
X186289630Y-69327815D01*
X186613980Y-70112800D01*
X187214041Y-70713909D01*
X187998459Y-71039628D01*
X188847815Y-71040370D01*
X189632800Y-70716020D01*
X190233909Y-70115959D01*
X190559628Y-69331541D01*
X190560370Y-68482185D01*
X190236020Y-67697200D01*
X189635959Y-67096091D01*
X188851541Y-66770372D01*
X188002185Y-66769630D01*
X187217200Y-67093980D01*
X186616091Y-67694041D01*
X186290372Y-68478459D01*
X186289630Y-69327815D01*
X181962762Y-69327815D01*
X181959162Y-69308683D01*
X181820090Y-69092559D01*
X181607890Y-68947569D01*
X181356000Y-68896560D01*
X179324000Y-68896560D01*
X179088683Y-68940838D01*
X178872559Y-69079910D01*
X178784287Y-69209100D01*
X178736437Y-69161166D01*
X178129845Y-68909287D01*
X177473037Y-68908714D01*
X176866005Y-69159534D01*
X176401166Y-69623563D01*
X176149287Y-70230155D01*
X176148714Y-70886963D01*
X174383440Y-70886963D01*
X174383440Y-69544000D01*
X174339162Y-69308683D01*
X174200090Y-69092559D01*
X173987890Y-68947569D01*
X173736000Y-68896560D01*
X171704000Y-68896560D01*
X171468683Y-68940838D01*
X171252559Y-69079910D01*
X171164287Y-69209100D01*
X171116437Y-69161166D01*
X170509845Y-68909287D01*
X169853037Y-68908714D01*
X169246005Y-69159534D01*
X168781166Y-69623563D01*
X168529287Y-70230155D01*
X168528714Y-70886963D01*
X165722980Y-70886963D01*
X165724071Y-70884117D01*
X165703928Y-70134616D01*
X165455859Y-69535725D01*
X165163089Y-69406517D01*
X164009605Y-70560000D01*
X163650395Y-70560000D01*
X162496911Y-69406517D01*
X162204141Y-69535725D01*
X161935929Y-70235883D01*
X161956072Y-70985384D01*
X162096244Y-71323788D01*
X162063540Y-71325161D01*
X161618852Y-71509357D01*
X161532447Y-71765839D01*
X161417890Y-71651282D01*
X161397573Y-71671599D01*
X161271643Y-71545449D01*
X160707670Y-71311267D01*
X160647120Y-71311214D01*
X160647120Y-69310320D01*
X160631426Y-69226911D01*
X162676517Y-69226911D01*
X163830000Y-70380395D01*
X164983483Y-69226911D01*
X164854275Y-68934141D01*
X164154117Y-68665929D01*
X163404616Y-68686072D01*
X162805725Y-68934141D01*
X162676517Y-69226911D01*
X160631426Y-69226911D01*
X160602842Y-69075003D01*
X160463770Y-68858879D01*
X160251570Y-68713889D01*
X159999680Y-68662880D01*
X157500320Y-68662880D01*
X157265003Y-68707158D01*
X157048879Y-68846230D01*
X156903889Y-69058430D01*
X156852880Y-69310320D01*
X152989633Y-69310320D01*
X152675614Y-68550337D01*
X152005272Y-67878824D01*
X151128979Y-67514955D01*
X150180144Y-67514127D01*
X149303217Y-67876466D01*
X148631704Y-68546808D01*
X148582716Y-68664785D01*
X148221339Y-68302778D01*
X147528891Y-68015248D01*
X146779119Y-68014594D01*
X146086169Y-68300914D01*
X145652199Y-68734129D01*
X145221599Y-68302778D01*
X144529151Y-68015248D01*
X143779379Y-68014594D01*
X143086429Y-68300914D01*
X142611748Y-68774769D01*
X142140579Y-68302778D01*
X141448131Y-68015248D01*
X140698359Y-68014594D01*
X140005409Y-68300914D01*
X139699156Y-68606634D01*
X139675894Y-68550337D01*
X139005552Y-67878824D01*
X138129259Y-67514955D01*
X137180424Y-67514127D01*
X136303497Y-67876466D01*
X135631984Y-68546808D01*
X135268115Y-69423101D01*
X135267287Y-70371936D01*
X135629626Y-71248863D01*
X136299968Y-71920376D01*
X137176261Y-72284245D01*
X138125096Y-72285073D01*
X138234144Y-72240015D01*
X132226580Y-78247580D01*
X132006338Y-78577193D01*
X131998309Y-78617559D01*
X131929000Y-78966000D01*
X131929000Y-80984937D01*
X131778421Y-80759580D01*
X127210420Y-76191580D01*
X126880807Y-75971338D01*
X126816300Y-75958507D01*
X126492000Y-75894000D01*
X126111000Y-75894000D01*
X126111000Y-72457120D01*
X126344680Y-72457120D01*
X126579997Y-72412842D01*
X126796121Y-72273770D01*
X126941111Y-72061570D01*
X126992120Y-71809680D01*
X126992120Y-70933241D01*
X128289994Y-70933241D01*
X128576314Y-71626191D01*
X129106021Y-72156822D01*
X129798469Y-72444352D01*
X130548241Y-72445006D01*
X131241191Y-72158686D01*
X131771822Y-71628979D01*
X132059352Y-70936531D01*
X132060006Y-70186759D01*
X131773686Y-69493809D01*
X131243979Y-68963178D01*
X130551531Y-68675648D01*
X129801759Y-68674994D01*
X129108809Y-68961314D01*
X128578178Y-69491021D01*
X128290648Y-70183469D01*
X128289994Y-70933241D01*
X126992120Y-70933241D01*
X126992120Y-69310320D01*
X126947842Y-69075003D01*
X126808770Y-68858879D01*
X126596570Y-68713889D01*
X126344680Y-68662880D01*
X123845320Y-68662880D01*
X123610003Y-68707158D01*
X123393879Y-68846230D01*
X123248889Y-69058430D01*
X123197880Y-69310320D01*
X123197880Y-71809680D01*
X123242158Y-72044997D01*
X123381230Y-72261121D01*
X123593430Y-72406111D01*
X123845320Y-72457120D01*
X124079000Y-72457120D01*
X124079000Y-75894000D01*
X107942120Y-75894000D01*
X107942120Y-75660320D01*
X107897842Y-75425003D01*
X107758770Y-75208879D01*
X107546570Y-75063889D01*
X107294680Y-75012880D01*
X104795320Y-75012880D01*
X104560003Y-75057158D01*
X104343879Y-75196230D01*
X104198889Y-75408430D01*
X104147880Y-75660320D01*
X99160000Y-75660320D01*
X99160000Y-69327815D01*
X101289630Y-69327815D01*
X101613980Y-70112800D01*
X102214041Y-70713909D01*
X102998459Y-71039628D01*
X103847815Y-71040370D01*
X104632800Y-70716020D01*
X105233909Y-70115959D01*
X105559628Y-69331541D01*
X105560370Y-68482185D01*
X105236020Y-67697200D01*
X104635959Y-67096091D01*
X103851541Y-66770372D01*
X103002185Y-66769630D01*
X102217200Y-67093980D01*
X101616091Y-67694041D01*
X101290372Y-68478459D01*
X101289630Y-69327815D01*
X99160000Y-69327815D01*
X99160000Y-68977390D01*
X99497957Y-67278366D01*
X100419371Y-65899371D01*
X101798366Y-64977957D01*
X103335512Y-64672200D01*
X103425000Y-64690000D01*
X188425000Y-64690000D01*
X188514488Y-64672200D01*
X190051634Y-64977957D01*
X190051634Y-64977957D01*
G37*
X190051634Y-64977957D02*
X191430629Y-65899371D01*
X192352043Y-67278366D01*
X192690000Y-68977390D01*
X192690000Y-123832610D01*
X192352043Y-125531634D01*
X191430629Y-126910629D01*
X190051634Y-127832043D01*
X188514488Y-128137800D01*
X188425000Y-128120000D01*
X103425000Y-128120000D01*
X103335512Y-128137800D01*
X101798366Y-127832043D01*
X100419371Y-126910629D01*
X99497957Y-125531634D01*
X99258503Y-124327815D01*
X101289630Y-124327815D01*
X101613980Y-125112800D01*
X102214041Y-125713909D01*
X102998459Y-126039628D01*
X103847815Y-126040370D01*
X104632800Y-125716020D01*
X105233909Y-125115959D01*
X105559628Y-124331541D01*
X105559631Y-124327815D01*
X186289630Y-124327815D01*
X186613980Y-125112800D01*
X187214041Y-125713909D01*
X187998459Y-126039628D01*
X188847815Y-126040370D01*
X189632800Y-125716020D01*
X190233909Y-125115959D01*
X190559628Y-124331541D01*
X190560370Y-123482185D01*
X190236020Y-122697200D01*
X189635959Y-122096091D01*
X188851541Y-121770372D01*
X188002185Y-121769630D01*
X187217200Y-122093980D01*
X186616091Y-122694041D01*
X186290372Y-123478459D01*
X186289630Y-124327815D01*
X105559631Y-124327815D01*
X105560370Y-123482185D01*
X105236020Y-122697200D01*
X104635959Y-122096091D01*
X103851541Y-121770372D01*
X103002185Y-121769630D01*
X102217200Y-122093980D01*
X101616091Y-122694041D01*
X101290372Y-123478459D01*
X101289630Y-124327815D01*
X99258503Y-124327815D01*
X99160000Y-123832610D01*
X99160000Y-116480000D01*
X108032560Y-116480000D01*
X108032560Y-119480000D01*
X108076838Y-119715317D01*
X108215910Y-119931441D01*
X108428110Y-120076431D01*
X108680000Y-120127440D01*
X110680000Y-120127440D01*
X110915317Y-120083162D01*
X111131441Y-119944090D01*
X111276431Y-119731890D01*
X111327440Y-119480000D01*
X111327440Y-118353305D01*
X116294674Y-118353305D01*
X116581043Y-119046372D01*
X117110839Y-119577093D01*
X117803405Y-119864672D01*
X118553305Y-119865326D01*
X119246372Y-119578957D01*
X119777093Y-119049161D01*
X120064672Y-118356595D01*
X120064674Y-118353305D01*
X171294674Y-118353305D01*
X171581043Y-119046372D01*
X172110839Y-119577093D01*
X172803405Y-119864672D01*
X173553305Y-119865326D01*
X174246372Y-119578957D01*
X174777093Y-119049161D01*
X175064672Y-118356595D01*
X175064889Y-118107000D01*
X180045000Y-118107000D01*
X180045000Y-118607000D01*
X180218058Y-119223020D01*
X180613683Y-119725922D01*
X181171645Y-120039144D01*
X181299566Y-120070124D01*
X181553000Y-119950777D01*
X181553000Y-118107000D01*
X181807000Y-118107000D01*
X181807000Y-119950777D01*
X182060434Y-120070124D01*
X182188355Y-120039144D01*
X182746317Y-119725922D01*
X183141942Y-119223020D01*
X183315000Y-118607000D01*
X183315000Y-118107000D01*
X181807000Y-118107000D01*
X181553000Y-118107000D01*
X180045000Y-118107000D01*
X175064889Y-118107000D01*
X175065326Y-117606695D01*
X174960502Y-117353000D01*
X180045000Y-117353000D01*
X180045000Y-117853000D01*
X181553000Y-117853000D01*
X181553000Y-116009223D01*
X181807000Y-116009223D01*
X181807000Y-117853000D01*
X183315000Y-117853000D01*
X183315000Y-117353000D01*
X183141942Y-116736980D01*
X182746317Y-116234078D01*
X182188355Y-115920856D01*
X182060434Y-115889876D01*
X181807000Y-116009223D01*
X181553000Y-116009223D01*
X181299566Y-115889876D01*
X181171645Y-115920856D01*
X180613683Y-116234078D01*
X180218058Y-116736980D01*
X180045000Y-117353000D01*
X174960502Y-117353000D01*
X174778957Y-116913628D01*
X174249161Y-116382907D01*
X173556595Y-116095328D01*
X172806695Y-116094674D01*
X172113628Y-116381043D01*
X171582907Y-116910839D01*
X171295328Y-117603405D01*
X171294674Y-118353305D01*
X120064674Y-118353305D01*
X120065326Y-117606695D01*
X119778957Y-116913628D01*
X119249161Y-116382907D01*
X118556595Y-116095328D01*
X117806695Y-116094674D01*
X117113628Y-116381043D01*
X116582907Y-116910839D01*
X116295328Y-117603405D01*
X116294674Y-118353305D01*
X111327440Y-118353305D01*
X111327440Y-116480000D01*
X111283162Y-116244683D01*
X111144090Y-116028559D01*
X110931890Y-115883569D01*
X110680000Y-115832560D01*
X108680000Y-115832560D01*
X108444683Y-115876838D01*
X108228559Y-116015910D01*
X108083569Y-116228110D01*
X108032560Y-116480000D01*
X99160000Y-116480000D01*
X99160000Y-104260022D01*
X111449584Y-104260022D01*
X111670353Y-104630743D01*
X112642012Y-105024119D01*
X113690247Y-105015713D01*
X114619647Y-104630743D01*
X114840416Y-104260022D01*
X113145000Y-102564605D01*
X111449584Y-104260022D01*
X99160000Y-104260022D01*
X99160000Y-99790320D01*
X104147880Y-99790320D01*
X104147880Y-102289680D01*
X104192158Y-102524997D01*
X104331230Y-102741121D01*
X104543430Y-102886111D01*
X104795320Y-102937120D01*
X107294680Y-102937120D01*
X107529997Y-102892842D01*
X107746121Y-102753770D01*
X107891111Y-102541570D01*
X107942120Y-102289680D01*
X107942120Y-101882012D01*
X110505881Y-101882012D01*
X110514287Y-102930247D01*
X110899257Y-103859647D01*
X111269978Y-104080416D01*
X112965395Y-102385000D01*
X113324605Y-102385000D01*
X115020022Y-104080416D01*
X115390743Y-103859647D01*
X115784119Y-102887988D01*
X115775713Y-101839753D01*
X115390743Y-100910353D01*
X115289397Y-100850000D01*
X117962560Y-100850000D01*
X117962560Y-103850000D01*
X118006838Y-104085317D01*
X118145910Y-104301441D01*
X118358110Y-104446431D01*
X118610000Y-104497440D01*
X121610000Y-104497440D01*
X121845317Y-104453162D01*
X122061441Y-104314090D01*
X122206431Y-104101890D01*
X122254611Y-103863970D01*
X133275635Y-103863970D01*
X133435418Y-104182739D01*
X134226187Y-104492723D01*
X135075387Y-104476497D01*
X135598004Y-104260022D01*
X176449584Y-104260022D01*
X176670353Y-104630743D01*
X177642012Y-105024119D01*
X178690247Y-105015713D01*
X179619647Y-104630743D01*
X179840416Y-104260022D01*
X178145000Y-102564605D01*
X176449584Y-104260022D01*
X135598004Y-104260022D01*
X135784582Y-104182739D01*
X135944365Y-103863970D01*
X134610000Y-102529605D01*
X133275635Y-103863970D01*
X122254611Y-103863970D01*
X122257440Y-103850000D01*
X122257440Y-101966187D01*
X132467277Y-101966187D01*
X132483503Y-102815387D01*
X132777261Y-103524582D01*
X133096030Y-103684365D01*
X134430395Y-102350000D01*
X134789605Y-102350000D01*
X136123970Y-103684365D01*
X136442739Y-103524582D01*
X136752723Y-102733813D01*
X136736497Y-101884613D01*
X136442739Y-101175418D01*
X136123970Y-101015635D01*
X134789605Y-102350000D01*
X134430395Y-102350000D01*
X133096030Y-101015635D01*
X132777261Y-101175418D01*
X132467277Y-101966187D01*
X122257440Y-101966187D01*
X122257440Y-100850000D01*
X122254812Y-100836030D01*
X133275635Y-100836030D01*
X134610000Y-102170395D01*
X135944365Y-100836030D01*
X135784582Y-100517261D01*
X134993813Y-100207277D01*
X134144613Y-100223503D01*
X133435418Y-100517261D01*
X133275635Y-100836030D01*
X122254812Y-100836030D01*
X122213162Y-100614683D01*
X122074090Y-100398559D01*
X121861890Y-100253569D01*
X121610000Y-100202560D01*
X118610000Y-100202560D01*
X118374683Y-100246838D01*
X118158559Y-100385910D01*
X118013569Y-100598110D01*
X117962560Y-100850000D01*
X115289397Y-100850000D01*
X115020022Y-100689584D01*
X113324605Y-102385000D01*
X112965395Y-102385000D01*
X111269978Y-100689584D01*
X110899257Y-100910353D01*
X110505881Y-101882012D01*
X107942120Y-101882012D01*
X107942120Y-100889596D01*
X108024330Y-100923733D01*
X108634991Y-100924265D01*
X109199371Y-100691068D01*
X109485940Y-100405000D01*
X111252000Y-100405000D01*
X111547050Y-100346311D01*
X111449584Y-100509978D01*
X113145000Y-102205395D01*
X114840416Y-100509978D01*
X114619647Y-100139257D01*
X113647988Y-99745881D01*
X112599753Y-99754287D01*
X112128250Y-99949590D01*
X112593870Y-99483970D01*
X119210635Y-99483970D01*
X119370418Y-99802739D01*
X120161187Y-100112723D01*
X121010387Y-100096497D01*
X121719582Y-99802739D01*
X121879365Y-99483970D01*
X120545000Y-98149605D01*
X119210635Y-99483970D01*
X112593870Y-99483970D01*
X113863420Y-98214421D01*
X114014228Y-97988721D01*
X114083662Y-97884806D01*
X114143060Y-97586187D01*
X118402277Y-97586187D01*
X118418503Y-98435387D01*
X118712261Y-99144582D01*
X119031030Y-99304365D01*
X120365395Y-97970000D01*
X120724605Y-97970000D01*
X122058970Y-99304365D01*
X122377739Y-99144582D01*
X122687723Y-98353813D01*
X122671497Y-97504613D01*
X122377739Y-96795418D01*
X122058970Y-96635635D01*
X120724605Y-97970000D01*
X120365395Y-97970000D01*
X119031030Y-96635635D01*
X118712261Y-96795418D01*
X118402277Y-97586187D01*
X114143060Y-97586187D01*
X114161000Y-97496000D01*
X114161000Y-96816272D01*
X114635658Y-96620147D01*
X114800061Y-96456030D01*
X119210635Y-96456030D01*
X120545000Y-97790395D01*
X121879365Y-96456030D01*
X121719582Y-96137261D01*
X120928813Y-95827277D01*
X120079613Y-95843503D01*
X119370418Y-96137261D01*
X119210635Y-96456030D01*
X114800061Y-96456030D01*
X115377542Y-95879557D01*
X115779542Y-94911433D01*
X115780457Y-93863166D01*
X115380147Y-92894342D01*
X114639557Y-92152458D01*
X113671433Y-91750458D01*
X112623166Y-91749543D01*
X111654342Y-92149853D01*
X110912458Y-92890443D01*
X110510458Y-93858567D01*
X110509543Y-94906834D01*
X110909853Y-95875658D01*
X111650443Y-96617542D01*
X112129000Y-96816256D01*
X112129000Y-97075159D01*
X110831160Y-98373000D01*
X109524828Y-98373000D01*
X109525718Y-98372110D01*
X109411161Y-98257553D01*
X109667643Y-98171148D01*
X109877458Y-97597664D01*
X109851839Y-96987540D01*
X109667643Y-96542852D01*
X109411159Y-96456446D01*
X108510605Y-97357000D01*
X108524748Y-97371143D01*
X108345143Y-97550748D01*
X108331000Y-97536605D01*
X108316858Y-97550748D01*
X108137253Y-97371143D01*
X108151395Y-97357000D01*
X108137253Y-97342858D01*
X108316858Y-97163253D01*
X108331000Y-97177395D01*
X109231554Y-96276841D01*
X109145148Y-96020357D01*
X108571664Y-95810542D01*
X107961540Y-95836161D01*
X107927412Y-95850297D01*
X107918928Y-95534616D01*
X107670859Y-94935725D01*
X107378089Y-94806517D01*
X106224605Y-95960000D01*
X106238748Y-95974142D01*
X106059142Y-96153748D01*
X106045000Y-96139605D01*
X104891517Y-97293089D01*
X105020725Y-97585859D01*
X105720883Y-97854071D01*
X106470384Y-97833928D01*
X106808788Y-97693756D01*
X106810161Y-97726460D01*
X106994357Y-98171148D01*
X107250839Y-98257553D01*
X107136282Y-98372110D01*
X107156599Y-98392427D01*
X107030449Y-98518357D01*
X106796267Y-99082330D01*
X106796214Y-99142880D01*
X104795320Y-99142880D01*
X104560003Y-99187158D01*
X104343879Y-99326230D01*
X104198889Y-99538430D01*
X104147880Y-99790320D01*
X99160000Y-99790320D01*
X99160000Y-95635883D01*
X104150929Y-95635883D01*
X104171072Y-96385384D01*
X104419141Y-96984275D01*
X104711911Y-97113483D01*
X105865395Y-95960000D01*
X104711911Y-94806517D01*
X104419141Y-94935725D01*
X104150929Y-95635883D01*
X99160000Y-95635883D01*
X99160000Y-94626911D01*
X104891517Y-94626911D01*
X106045000Y-95780395D01*
X107198483Y-94626911D01*
X107069275Y-94334141D01*
X106369117Y-94065929D01*
X105619616Y-94086072D01*
X105020725Y-94334141D01*
X104891517Y-94626911D01*
X99160000Y-94626911D01*
X99160000Y-82363241D01*
X104159994Y-82363241D01*
X104446314Y-83056191D01*
X104976021Y-83586822D01*
X105668469Y-83874352D01*
X106418241Y-83875006D01*
X107111191Y-83588686D01*
X107641822Y-83058979D01*
X107929352Y-82366531D01*
X107930006Y-81616759D01*
X107643686Y-80923809D01*
X107113979Y-80393178D01*
X106421531Y-80105648D01*
X105671759Y-80104994D01*
X104978809Y-80391314D01*
X104448178Y-80921021D01*
X104160648Y-81613469D01*
X104159994Y-82363241D01*
X99160000Y-82363241D01*
X99160000Y-75660320D01*
X104147880Y-75660320D01*
X104147880Y-78159680D01*
X104192158Y-78394997D01*
X104331230Y-78611121D01*
X104543430Y-78756111D01*
X104795320Y-78807120D01*
X107294680Y-78807120D01*
X107529997Y-78762842D01*
X107746121Y-78623770D01*
X107891111Y-78411570D01*
X107942120Y-78159680D01*
X107942120Y-77926000D01*
X126071160Y-77926000D01*
X130044000Y-81898841D01*
X130044000Y-84140293D01*
X129876371Y-84307630D01*
X129790051Y-84515512D01*
X129705010Y-84309697D01*
X129312370Y-83916371D01*
X128799100Y-83703243D01*
X128243339Y-83702758D01*
X127729697Y-83914990D01*
X127336371Y-84307630D01*
X127250051Y-84515512D01*
X127165010Y-84309697D01*
X126772370Y-83916371D01*
X126259100Y-83703243D01*
X125703339Y-83702758D01*
X125189697Y-83914990D01*
X124796371Y-84307630D01*
X124710051Y-84515512D01*
X124625010Y-84309697D01*
X124232370Y-83916371D01*
X123719100Y-83703243D01*
X123163339Y-83702758D01*
X122649697Y-83914990D01*
X122256371Y-84307630D01*
X122043243Y-84820900D01*
X122042758Y-85376661D01*
X122254990Y-85890303D01*
X122647630Y-86283629D01*
X123160900Y-86496757D01*
X123716661Y-86497242D01*
X124230303Y-86285010D01*
X124623629Y-85892370D01*
X124709949Y-85684488D01*
X124794990Y-85890303D01*
X125187630Y-86283629D01*
X125700900Y-86496757D01*
X126256661Y-86497242D01*
X126770303Y-86285010D01*
X127163629Y-85892370D01*
X127249949Y-85684488D01*
X127334990Y-85890303D01*
X127727630Y-86283629D01*
X128240900Y-86496757D01*
X128796661Y-86497242D01*
X129310303Y-86285010D01*
X129703629Y-85892370D01*
X129789949Y-85684488D01*
X129874990Y-85890303D01*
X130267630Y-86283629D01*
X130780900Y-86496757D01*
X131336661Y-86497242D01*
X131850303Y-86285010D01*
X131929000Y-86206450D01*
X131929000Y-95822560D01*
X131445000Y-95822560D01*
X131209683Y-95866838D01*
X130993559Y-96005910D01*
X130848569Y-96218110D01*
X130797560Y-96470000D01*
X130797560Y-99470000D01*
X130841838Y-99705317D01*
X130980910Y-99921441D01*
X131193110Y-100066431D01*
X131445000Y-100117440D01*
X134445000Y-100117440D01*
X134680317Y-100073162D01*
X134896441Y-99934090D01*
X135041431Y-99721890D01*
X135092440Y-99470000D01*
X135092440Y-98566667D01*
X144683992Y-98566667D01*
X144687797Y-98587201D01*
X144684778Y-98607866D01*
X144711746Y-99133386D01*
X144719245Y-99163049D01*
X144717701Y-99193609D01*
X144780142Y-99618642D01*
X144799397Y-99672694D01*
X144806723Y-99729602D01*
X145016985Y-100354894D01*
X145043473Y-100401079D01*
X145058880Y-100452048D01*
X145143091Y-100609971D01*
X145143093Y-100609973D01*
X145409698Y-101109947D01*
X145438165Y-101144704D01*
X145457010Y-101185481D01*
X145915122Y-101814771D01*
X145946751Y-101843953D01*
X145969844Y-101880271D01*
X146507057Y-102442420D01*
X146533912Y-102461259D01*
X146540170Y-102470624D01*
X146555951Y-102481169D01*
X146577340Y-102505832D01*
X146600307Y-102523658D01*
X147165464Y-102962309D01*
X147204027Y-102981592D01*
X147236367Y-103010110D01*
X147505755Y-103166621D01*
X147533206Y-103176023D01*
X147556598Y-103193186D01*
X148052829Y-103424781D01*
X148080377Y-103431532D01*
X148104623Y-103446243D01*
X148624984Y-103635617D01*
X148658509Y-103640776D01*
X148689190Y-103655236D01*
X149155001Y-103771244D01*
X149193621Y-103773089D01*
X149230313Y-103785275D01*
X149408155Y-103807497D01*
X149431735Y-103805795D01*
X149454656Y-103811592D01*
X149874243Y-103833158D01*
X149892795Y-103830449D01*
X149911210Y-103833989D01*
X150383849Y-103830949D01*
X150400300Y-103827566D01*
X150416936Y-103829880D01*
X150868919Y-103803561D01*
X150892751Y-103797361D01*
X150917324Y-103798891D01*
X151274942Y-103750620D01*
X151304480Y-103740485D01*
X151335692Y-103739412D01*
X151411912Y-103721507D01*
X151433287Y-103711779D01*
X151456637Y-103709275D01*
X151777105Y-103609020D01*
X151794489Y-103599533D01*
X151814014Y-103596224D01*
X152196788Y-103450290D01*
X152210808Y-103441489D01*
X152226968Y-103437894D01*
X152605021Y-103271226D01*
X152623796Y-103258060D01*
X152645774Y-103251510D01*
X152982239Y-103073778D01*
X153016221Y-103046167D01*
X153056105Y-103028095D01*
X153767334Y-102518420D01*
X153808894Y-102474046D01*
X153858558Y-102438984D01*
X154387639Y-101882012D01*
X175505881Y-101882012D01*
X175514287Y-102930247D01*
X175899257Y-103859647D01*
X176269978Y-104080416D01*
X177965395Y-102385000D01*
X178324605Y-102385000D01*
X180020022Y-104080416D01*
X180390743Y-103859647D01*
X180784119Y-102887988D01*
X180779990Y-102373089D01*
X184266517Y-102373089D01*
X184395725Y-102665859D01*
X185095883Y-102934071D01*
X185845384Y-102913928D01*
X186444275Y-102665859D01*
X186573483Y-102373089D01*
X185420000Y-101219605D01*
X184266517Y-102373089D01*
X180779990Y-102373089D01*
X180775713Y-101839753D01*
X180390743Y-100910353D01*
X180020022Y-100689584D01*
X178324605Y-102385000D01*
X177965395Y-102385000D01*
X176269978Y-100689584D01*
X175899257Y-100910353D01*
X175505881Y-101882012D01*
X154387639Y-101882012D01*
X154464015Y-101801610D01*
X154495374Y-101751964D01*
X154536395Y-101709940D01*
X155028749Y-100953454D01*
X155049267Y-100902177D01*
X155080521Y-100856646D01*
X155229229Y-100509978D01*
X176449584Y-100509978D01*
X178145000Y-102205395D01*
X179840416Y-100509978D01*
X179619647Y-100139257D01*
X178647988Y-99745881D01*
X177599753Y-99754287D01*
X176670353Y-100139257D01*
X176449584Y-100509978D01*
X155229229Y-100509978D01*
X155452437Y-99989636D01*
X155463621Y-99936876D01*
X155486294Y-99887942D01*
X155571480Y-99536118D01*
X155573097Y-99496905D01*
X155585156Y-99459555D01*
X155591820Y-99402336D01*
X181587542Y-99402336D01*
X181613161Y-100012460D01*
X181797357Y-100457148D01*
X182053841Y-100543554D01*
X182954395Y-99643000D01*
X182940253Y-99628858D01*
X183119858Y-99449253D01*
X183134000Y-99463395D01*
X183148143Y-99449253D01*
X183327748Y-99628858D01*
X183313605Y-99643000D01*
X183327748Y-99657143D01*
X183148143Y-99836748D01*
X183134000Y-99822605D01*
X182233446Y-100723159D01*
X182319852Y-100979643D01*
X182893336Y-101189458D01*
X183503460Y-101163839D01*
X183537588Y-101149703D01*
X183546072Y-101465384D01*
X183794141Y-102064275D01*
X184086911Y-102193483D01*
X185240395Y-101040000D01*
X185599605Y-101040000D01*
X186753089Y-102193483D01*
X187045859Y-102064275D01*
X187314071Y-101364117D01*
X187293928Y-100614616D01*
X187045859Y-100015725D01*
X186753089Y-99886517D01*
X185599605Y-101040000D01*
X185240395Y-101040000D01*
X185226252Y-101025858D01*
X185405858Y-100846252D01*
X185420000Y-100860395D01*
X186573483Y-99706911D01*
X186444275Y-99414141D01*
X185744117Y-99145929D01*
X184994616Y-99166072D01*
X184656212Y-99306244D01*
X184654839Y-99273540D01*
X184470643Y-98828852D01*
X184214161Y-98742447D01*
X184328718Y-98627890D01*
X184308401Y-98607573D01*
X184434551Y-98481643D01*
X184668733Y-97917670D01*
X184668786Y-97857120D01*
X186669680Y-97857120D01*
X186904997Y-97812842D01*
X187121121Y-97673770D01*
X187266111Y-97461570D01*
X187317120Y-97209680D01*
X187317120Y-94710320D01*
X187272842Y-94475003D01*
X187133770Y-94258879D01*
X186921570Y-94113889D01*
X186669680Y-94062880D01*
X184170320Y-94062880D01*
X183935003Y-94107158D01*
X183718879Y-94246230D01*
X183573889Y-94458430D01*
X183522880Y-94710320D01*
X183522880Y-95785279D01*
X183232074Y-96076085D01*
X182830009Y-96075735D01*
X182265629Y-96308932D01*
X181833449Y-96740357D01*
X181599267Y-97304330D01*
X181598735Y-97914991D01*
X181831932Y-98479371D01*
X181959755Y-98607417D01*
X181939282Y-98627890D01*
X182053839Y-98742447D01*
X181797357Y-98828852D01*
X181587542Y-99402336D01*
X155591820Y-99402336D01*
X155645990Y-98937280D01*
X155643754Y-98909533D01*
X155650001Y-98882404D01*
X155667437Y-98300570D01*
X155663514Y-98277213D01*
X155667129Y-98253808D01*
X155641868Y-97668404D01*
X155635540Y-97642486D01*
X155637428Y-97615872D01*
X155570173Y-97082886D01*
X155557436Y-97044691D01*
X155555265Y-97004486D01*
X155446718Y-96579909D01*
X155430680Y-96546421D01*
X155424438Y-96509823D01*
X155354526Y-96327011D01*
X155341351Y-96306072D01*
X155335343Y-96282072D01*
X155060953Y-95701696D01*
X155033301Y-95664399D01*
X155015676Y-95621447D01*
X154669446Y-95099534D01*
X154639929Y-95069820D01*
X154619146Y-95033457D01*
X154509076Y-94906834D01*
X175509543Y-94906834D01*
X175909853Y-95875658D01*
X176650443Y-96617542D01*
X177618567Y-97019542D01*
X178666834Y-97020457D01*
X179635658Y-96620147D01*
X180377542Y-95879557D01*
X180779542Y-94911433D01*
X180780457Y-93863166D01*
X180380147Y-92894342D01*
X179639557Y-92152458D01*
X178671433Y-91750458D01*
X177623166Y-91749543D01*
X176654342Y-92149853D01*
X175912458Y-92890443D01*
X175510458Y-93858567D01*
X175509543Y-94906834D01*
X154509076Y-94906834D01*
X154160089Y-94505365D01*
X154128514Y-94480916D01*
X154104567Y-94448953D01*
X153574861Y-93973511D01*
X153530204Y-93947038D01*
X153492806Y-93911028D01*
X152744017Y-93430932D01*
X152691193Y-93410213D01*
X152644041Y-93378644D01*
X151827169Y-93039401D01*
X151791730Y-93032318D01*
X151759641Y-93015690D01*
X151686170Y-92994425D01*
X151654905Y-92991749D01*
X151625777Y-92980079D01*
X151151450Y-92891457D01*
X151117574Y-92891851D01*
X151084981Y-92882612D01*
X150522165Y-92837555D01*
X150496982Y-92840501D01*
X150472124Y-92835515D01*
X149883702Y-92834566D01*
X149858052Y-92839625D01*
X149832084Y-92836567D01*
X149280936Y-92880267D01*
X149245048Y-92890411D01*
X149207756Y-92890346D01*
X148756767Y-92979238D01*
X148707434Y-92999572D01*
X148654795Y-93008290D01*
X147954749Y-93272167D01*
X147911670Y-93298985D01*
X147863529Y-93315033D01*
X147104487Y-93747738D01*
X147064225Y-93782658D01*
X147017135Y-93807621D01*
X146917315Y-93888969D01*
X146917314Y-93888970D01*
X146689638Y-94074515D01*
X146689634Y-94074517D01*
X146584776Y-94159971D01*
X146584775Y-94159973D01*
X146584774Y-94159973D01*
X146346120Y-94354466D01*
X146312017Y-94395731D01*
X146269528Y-94428291D01*
X145705783Y-95070282D01*
X145677827Y-95118631D01*
X145640038Y-95159748D01*
X145202794Y-95877899D01*
X145182137Y-95934393D01*
X145150388Y-95985488D01*
X145078493Y-96176705D01*
X145078493Y-96176707D01*
X145078492Y-96176708D01*
X144858881Y-96760810D01*
X144852907Y-96797071D01*
X144837180Y-96830289D01*
X144823810Y-96883575D01*
X144822490Y-96910231D01*
X144813094Y-96935211D01*
X144740425Y-97375944D01*
X144741357Y-97404236D01*
X144733744Y-97431501D01*
X144695469Y-97934474D01*
X144695469Y-97934477D01*
X144693156Y-97964874D01*
X144694699Y-97977630D01*
X144693624Y-97983036D01*
X144694793Y-97988911D01*
X144691366Y-98005029D01*
X144686645Y-98364532D01*
X144686645Y-98364537D01*
X144683992Y-98566667D01*
X135092440Y-98566667D01*
X135092440Y-96470000D01*
X135048162Y-96234683D01*
X134909090Y-96018559D01*
X134696890Y-95873569D01*
X134445000Y-95822560D01*
X133961000Y-95822560D01*
X133961000Y-93314107D01*
X139985498Y-93314107D01*
X140086120Y-93582622D01*
X140701642Y-93811816D01*
X141358019Y-93788014D01*
X141853880Y-93582622D01*
X141954502Y-93314107D01*
X140970000Y-92329605D01*
X139985498Y-93314107D01*
X133961000Y-93314107D01*
X133961000Y-91881642D01*
X139308184Y-91881642D01*
X139331986Y-92538019D01*
X139537378Y-93033880D01*
X139805893Y-93134502D01*
X140790395Y-92150000D01*
X139805893Y-91165498D01*
X139537378Y-91266120D01*
X139308184Y-91881642D01*
X133961000Y-91881642D01*
X133961000Y-90985893D01*
X139985498Y-90985893D01*
X140970000Y-91970395D01*
X141954502Y-90985893D01*
X141853880Y-90717378D01*
X141238358Y-90488184D01*
X140581981Y-90511986D01*
X140086120Y-90717378D01*
X139985498Y-90985893D01*
X133961000Y-90985893D01*
X133961000Y-84856963D01*
X139318714Y-84856963D01*
X139569534Y-85463995D01*
X140033563Y-85928834D01*
X140113205Y-85961904D01*
X140148671Y-86140206D01*
X140341382Y-86428618D01*
X142246382Y-88333618D01*
X142534794Y-88526329D01*
X142875000Y-88594000D01*
X147320000Y-88594000D01*
X147660206Y-88526329D01*
X147748998Y-88467000D01*
X147766370Y-88467000D01*
X148114041Y-88814672D01*
X148064163Y-88848000D01*
X147980853Y-88903666D01*
X147701000Y-88848000D01*
X147320000Y-88848000D01*
X146979794Y-88915671D01*
X146691382Y-89108382D01*
X146443764Y-89356000D01*
X146138823Y-89356000D01*
X145986295Y-89292665D01*
X145607367Y-89292335D01*
X145257157Y-89437039D01*
X144988980Y-89704747D01*
X144843665Y-90054705D01*
X144843335Y-90433633D01*
X144952398Y-90697584D01*
X144474845Y-90499287D01*
X143818037Y-90498714D01*
X143211005Y-90749534D01*
X142746166Y-91213563D01*
X142563284Y-91653992D01*
X142402622Y-91266120D01*
X142134107Y-91165498D01*
X141149605Y-92150000D01*
X142134107Y-93134502D01*
X142402622Y-93033880D01*
X142554876Y-92624987D01*
X142744534Y-93083995D01*
X143208563Y-93548834D01*
X143815155Y-93800713D01*
X144471963Y-93801286D01*
X145078995Y-93550466D01*
X145543834Y-93086437D01*
X145563532Y-93039000D01*
X146939000Y-93039000D01*
X147279206Y-92971329D01*
X147567618Y-92778618D01*
X149345618Y-91000618D01*
X149521762Y-90737000D01*
X149878446Y-90737000D01*
X149930000Y-90747440D01*
X150430000Y-90747440D01*
X150431828Y-90747096D01*
X150583691Y-90810000D01*
X150844250Y-90810000D01*
X151003000Y-90651250D01*
X151003000Y-90386182D01*
X151026431Y-90351890D01*
X151077440Y-90100000D01*
X151077440Y-89850000D01*
X151053056Y-89720411D01*
X151077440Y-89600000D01*
X151077440Y-89350000D01*
X151057550Y-89244295D01*
X151065000Y-89226310D01*
X151065000Y-89196250D01*
X151044688Y-89175938D01*
X151033162Y-89114683D01*
X150983000Y-89036730D01*
X150983000Y-88915453D01*
X151026431Y-88851890D01*
X151041558Y-88777192D01*
X151065000Y-88753750D01*
X151065000Y-88723690D01*
X151056532Y-88703247D01*
X151077440Y-88600000D01*
X151077440Y-88350000D01*
X151053056Y-88220411D01*
X151077440Y-88100000D01*
X151077440Y-87850000D01*
X151182560Y-87850000D01*
X151182560Y-88100000D01*
X151206944Y-88229589D01*
X151182560Y-88350000D01*
X151182560Y-88600000D01*
X151206944Y-88729589D01*
X151182560Y-88850000D01*
X151182560Y-89100000D01*
X151206944Y-89229589D01*
X151182560Y-89350000D01*
X151182560Y-89600000D01*
X151206944Y-89729589D01*
X151182560Y-89850000D01*
X151182560Y-90100000D01*
X151226838Y-90335317D01*
X151257000Y-90382190D01*
X151257000Y-90651250D01*
X151415750Y-90810000D01*
X151676309Y-90810000D01*
X151828215Y-90747078D01*
X151830000Y-90747440D01*
X152330000Y-90747440D01*
X152528976Y-90710000D01*
X152797000Y-90710000D01*
X153078272Y-90654051D01*
X153120253Y-90626000D01*
X156209981Y-90626000D01*
X155911005Y-90749534D01*
X155446166Y-91213563D01*
X155194287Y-91820155D01*
X155193714Y-92476963D01*
X155444534Y-93083995D01*
X155908563Y-93548834D01*
X156515155Y-93800713D01*
X157171963Y-93801286D01*
X157778995Y-93550466D01*
X158243834Y-93086437D01*
X158432654Y-92631709D01*
X158619534Y-93083995D01*
X159083563Y-93548834D01*
X159690155Y-93800713D01*
X160346963Y-93801286D01*
X160953995Y-93550466D01*
X161418834Y-93086437D01*
X161670713Y-92479845D01*
X161671286Y-91823037D01*
X161420466Y-91216005D01*
X160956437Y-90751166D01*
X160655004Y-90626000D01*
X168529000Y-90626000D01*
X168869206Y-90558329D01*
X169157618Y-90365618D01*
X173348618Y-86174618D01*
X173349570Y-86173193D01*
X173541329Y-85886206D01*
X173609000Y-85546000D01*
X173609000Y-83475823D01*
X173672335Y-83323295D01*
X173672335Y-83323089D01*
X184266517Y-83323089D01*
X184395725Y-83615859D01*
X185095883Y-83884071D01*
X185845384Y-83863928D01*
X186444275Y-83615859D01*
X186573483Y-83323089D01*
X185420000Y-82169605D01*
X184266517Y-83323089D01*
X173672335Y-83323089D01*
X173672665Y-82944367D01*
X173527961Y-82594157D01*
X173387143Y-82453093D01*
X175120236Y-80720000D01*
X179997177Y-80720000D01*
X180149705Y-80783335D01*
X180528633Y-80783665D01*
X180878843Y-80638961D01*
X181147020Y-80371253D01*
X181292335Y-80021295D01*
X181292665Y-79642367D01*
X181265656Y-79577000D01*
X181940172Y-79577000D01*
X181939282Y-79577890D01*
X182053839Y-79692447D01*
X181797357Y-79778852D01*
X181587542Y-80352336D01*
X181613161Y-80962460D01*
X181797357Y-81407148D01*
X182053841Y-81493554D01*
X182954395Y-80593000D01*
X182940253Y-80578858D01*
X183119858Y-80399253D01*
X183134000Y-80413395D01*
X183148143Y-80399253D01*
X183327748Y-80578858D01*
X183313605Y-80593000D01*
X183327748Y-80607143D01*
X183148143Y-80786748D01*
X183134000Y-80772605D01*
X182233446Y-81673159D01*
X182319852Y-81929643D01*
X182893336Y-82139458D01*
X183503460Y-82113839D01*
X183537588Y-82099703D01*
X183546072Y-82415384D01*
X183794141Y-83014275D01*
X184086911Y-83143483D01*
X185240395Y-81990000D01*
X185599605Y-81990000D01*
X186753089Y-83143483D01*
X187045859Y-83014275D01*
X187314071Y-82314117D01*
X187293928Y-81564616D01*
X187045859Y-80965725D01*
X186753089Y-80836517D01*
X185599605Y-81990000D01*
X185240395Y-81990000D01*
X185226252Y-81975858D01*
X185405858Y-81796252D01*
X185420000Y-81810395D01*
X186573483Y-80656911D01*
X186444275Y-80364141D01*
X185744117Y-80095929D01*
X184994616Y-80116072D01*
X184656212Y-80256244D01*
X184654839Y-80223540D01*
X184470643Y-79778852D01*
X184214161Y-79692447D01*
X184328718Y-79577890D01*
X184308401Y-79557573D01*
X184434551Y-79431643D01*
X184668733Y-78867670D01*
X184668786Y-78807120D01*
X186669680Y-78807120D01*
X186904997Y-78762842D01*
X187121121Y-78623770D01*
X187266111Y-78411570D01*
X187317120Y-78159680D01*
X187317120Y-75660320D01*
X187272842Y-75425003D01*
X187133770Y-75208879D01*
X186921570Y-75063889D01*
X186669680Y-75012880D01*
X184170320Y-75012880D01*
X183935003Y-75057158D01*
X183718879Y-75196230D01*
X183573889Y-75408430D01*
X183522880Y-75660320D01*
X183522880Y-77060404D01*
X183440670Y-77026267D01*
X182830009Y-77025735D01*
X182265629Y-77258932D01*
X181979060Y-77545000D01*
X165989000Y-77545000D01*
X165664700Y-77609507D01*
X165600193Y-77622338D01*
X165270580Y-77842579D01*
X160233974Y-82879186D01*
X159693037Y-82878714D01*
X159086005Y-83129534D01*
X158621166Y-83593563D01*
X158432346Y-84048291D01*
X158245466Y-83596005D01*
X157781437Y-83131166D01*
X157174845Y-82879287D01*
X156518037Y-82878714D01*
X155911005Y-83129534D01*
X155446166Y-83593563D01*
X155194287Y-84200155D01*
X155193714Y-84856963D01*
X155444534Y-85463995D01*
X155530774Y-85550385D01*
X154122160Y-86959000D01*
X153162000Y-86959000D01*
X152773194Y-87036338D01*
X152479206Y-87232775D01*
X152330000Y-87202560D01*
X151830000Y-87202560D01*
X151828172Y-87202904D01*
X151676309Y-87140000D01*
X151415750Y-87140000D01*
X151257000Y-87298750D01*
X151257000Y-87563818D01*
X151233569Y-87598110D01*
X151182560Y-87850000D01*
X151077440Y-87850000D01*
X151033162Y-87614683D01*
X151003000Y-87567810D01*
X151003000Y-87298750D01*
X150844250Y-87140000D01*
X150583691Y-87140000D01*
X150431785Y-87202922D01*
X150430000Y-87202560D01*
X149939664Y-87202560D01*
X149752921Y-86923080D01*
X148971000Y-86141160D01*
X148971000Y-81748440D01*
X149206317Y-81704162D01*
X149422441Y-81565090D01*
X149567431Y-81352890D01*
X149618440Y-81101000D01*
X149618440Y-79816642D01*
X151373184Y-79816642D01*
X151396986Y-80473019D01*
X151602378Y-80968880D01*
X151870893Y-81069502D01*
X152855395Y-80085000D01*
X151870893Y-79100498D01*
X151602378Y-79201120D01*
X151373184Y-79816642D01*
X149618440Y-79816642D01*
X149618440Y-79069000D01*
X149590572Y-78920893D01*
X152050498Y-78920893D01*
X153035000Y-79905395D01*
X153049143Y-79891253D01*
X153228748Y-80070858D01*
X153214605Y-80085000D01*
X153228748Y-80099143D01*
X153049143Y-80278748D01*
X153035000Y-80264605D01*
X152050498Y-81249107D01*
X152151120Y-81517622D01*
X152766642Y-81746816D01*
X153423019Y-81723014D01*
X153918880Y-81517622D01*
X153975419Y-81366746D01*
X154094910Y-81552441D01*
X154307110Y-81697431D01*
X154559000Y-81748440D01*
X156591000Y-81748440D01*
X156826317Y-81704162D01*
X157042441Y-81565090D01*
X157187431Y-81352890D01*
X157238440Y-81101000D01*
X157238440Y-79069000D01*
X157194162Y-78833683D01*
X157055090Y-78617559D01*
X156842890Y-78472569D01*
X156591000Y-78421560D01*
X154559000Y-78421560D01*
X154323683Y-78465838D01*
X154107559Y-78604910D01*
X153974221Y-78800057D01*
X153918880Y-78652378D01*
X153303358Y-78423184D01*
X152646981Y-78446986D01*
X152151120Y-78652378D01*
X152050498Y-78920893D01*
X149590572Y-78920893D01*
X149574162Y-78833683D01*
X149435090Y-78617559D01*
X149222890Y-78472569D01*
X148971000Y-78421560D01*
X146939000Y-78421560D01*
X146703683Y-78465838D01*
X146487559Y-78604910D01*
X146354221Y-78800057D01*
X146298880Y-78652378D01*
X145683358Y-78423184D01*
X145026981Y-78446986D01*
X144531120Y-78652378D01*
X144430498Y-78920893D01*
X145415000Y-79905395D01*
X145429143Y-79891253D01*
X145608748Y-80070858D01*
X145594605Y-80085000D01*
X145608748Y-80099143D01*
X145429143Y-80278748D01*
X145415000Y-80264605D01*
X144430498Y-81249107D01*
X144531120Y-81517622D01*
X145146642Y-81746816D01*
X145803019Y-81723014D01*
X146298880Y-81517622D01*
X146355419Y-81366746D01*
X146474910Y-81552441D01*
X146687110Y-81697431D01*
X146939000Y-81748440D01*
X146939000Y-86562000D01*
X146989524Y-86816000D01*
X143243236Y-86816000D01*
X142131046Y-85703810D01*
X142368834Y-85466437D01*
X142557654Y-85011709D01*
X142744534Y-85463995D01*
X143208563Y-85928834D01*
X143815155Y-86180713D01*
X144471963Y-86181286D01*
X145078995Y-85930466D01*
X145543834Y-85466437D01*
X145795713Y-84859845D01*
X145796286Y-84203037D01*
X145545466Y-83596005D01*
X145081437Y-83131166D01*
X144474845Y-82879287D01*
X143818037Y-82878714D01*
X143211005Y-83129534D01*
X142746166Y-83593563D01*
X142557346Y-84048291D01*
X142370466Y-83596005D01*
X141906437Y-83131166D01*
X141299845Y-82879287D01*
X140643037Y-82878714D01*
X140036005Y-83129534D01*
X139571166Y-83593563D01*
X139319287Y-84200155D01*
X139318714Y-84856963D01*
X133961000Y-84856963D01*
X133961000Y-79816642D01*
X143753184Y-79816642D01*
X143776986Y-80473019D01*
X143982378Y-80968880D01*
X144250893Y-81069502D01*
X145235395Y-80085000D01*
X144250893Y-79100498D01*
X143982378Y-79201120D01*
X143753184Y-79816642D01*
X133961000Y-79816642D01*
X133961000Y-79386840D01*
X139866841Y-73481000D01*
X141587220Y-73481000D01*
X141911520Y-73416493D01*
X141976027Y-73403662D01*
X142305640Y-73183420D01*
X143725935Y-71763126D01*
X143776089Y-71783952D01*
X144525861Y-71784606D01*
X145218811Y-71498286D01*
X145652781Y-71065071D01*
X146083381Y-71496422D01*
X146775829Y-71783952D01*
X147525601Y-71784606D01*
X148218551Y-71498286D01*
X148582349Y-71135122D01*
X148629346Y-71248863D01*
X149299688Y-71920376D01*
X150175981Y-72284245D01*
X151124816Y-72285073D01*
X152001743Y-71922734D01*
X152673256Y-71252392D01*
X153037125Y-70376099D01*
X153037953Y-69427264D01*
X152989633Y-69310320D01*
X156852880Y-69310320D01*
X156852880Y-71809680D01*
X156897158Y-72044997D01*
X157036230Y-72261121D01*
X157248430Y-72406111D01*
X157500320Y-72457120D01*
X158900404Y-72457120D01*
X158866267Y-72539330D01*
X158865735Y-73149991D01*
X159098932Y-73714371D01*
X159530357Y-74146551D01*
X160094330Y-74380733D01*
X160704991Y-74381265D01*
X161269371Y-74148068D01*
X161397417Y-74020245D01*
X161417890Y-74040718D01*
X161532447Y-73926161D01*
X161618852Y-74182643D01*
X162192336Y-74392458D01*
X162802460Y-74366839D01*
X163247148Y-74182643D01*
X163333554Y-73926159D01*
X162433000Y-73025605D01*
X162418858Y-73039748D01*
X162239253Y-72860143D01*
X162253395Y-72846000D01*
X162239253Y-72831858D01*
X162418858Y-72652253D01*
X162433000Y-72666395D01*
X162447143Y-72652253D01*
X162626748Y-72831858D01*
X162612605Y-72846000D01*
X163513159Y-73746554D01*
X163769643Y-73660148D01*
X163979458Y-73086664D01*
X163953839Y-72476540D01*
X163939703Y-72442412D01*
X164255384Y-72433928D01*
X164854275Y-72185859D01*
X164983483Y-71893089D01*
X163830000Y-70739605D01*
X163815858Y-70753748D01*
X163636252Y-70574142D01*
X163650395Y-70560000D01*
X164009605Y-70560000D01*
X165163089Y-71713483D01*
X165455859Y-71584275D01*
X165722980Y-70886963D01*
X168528714Y-70886963D01*
X168779534Y-71493995D01*
X169243563Y-71958834D01*
X169850155Y-72210713D01*
X170506963Y-72211286D01*
X171113995Y-71960466D01*
X171164421Y-71910128D01*
X171239910Y-72027441D01*
X171452110Y-72172431D01*
X171704000Y-72223440D01*
X173736000Y-72223440D01*
X173971317Y-72179162D01*
X174187441Y-72040090D01*
X174332431Y-71827890D01*
X174383440Y-71576000D01*
X174383440Y-70886963D01*
X176148714Y-70886963D01*
X176399534Y-71493995D01*
X176863563Y-71958834D01*
X177470155Y-72210713D01*
X178126963Y-72211286D01*
X178733995Y-71960466D01*
X178784421Y-71910128D01*
X178859910Y-72027441D01*
X179072110Y-72172431D01*
X179324000Y-72223440D01*
X181356000Y-72223440D01*
X181591317Y-72179162D01*
X181807441Y-72040090D01*
X181952431Y-71827890D01*
X182003440Y-71576000D01*
X182003440Y-69544000D01*
X181962762Y-69327815D01*
X186289630Y-69327815D01*
X186613980Y-70112800D01*
X187214041Y-70713909D01*
X187998459Y-71039628D01*
X188847815Y-71040370D01*
X189632800Y-70716020D01*
X190233909Y-70115959D01*
X190559628Y-69331541D01*
X190560370Y-68482185D01*
X190236020Y-67697200D01*
X189635959Y-67096091D01*
X188851541Y-66770372D01*
X188002185Y-66769630D01*
X187217200Y-67093980D01*
X186616091Y-67694041D01*
X186290372Y-68478459D01*
X186289630Y-69327815D01*
X181962762Y-69327815D01*
X181959162Y-69308683D01*
X181820090Y-69092559D01*
X181607890Y-68947569D01*
X181356000Y-68896560D01*
X179324000Y-68896560D01*
X179088683Y-68940838D01*
X178872559Y-69079910D01*
X178784287Y-69209100D01*
X178736437Y-69161166D01*
X178129845Y-68909287D01*
X177473037Y-68908714D01*
X176866005Y-69159534D01*
X176401166Y-69623563D01*
X176149287Y-70230155D01*
X176148714Y-70886963D01*
X174383440Y-70886963D01*
X174383440Y-69544000D01*
X174339162Y-69308683D01*
X174200090Y-69092559D01*
X173987890Y-68947569D01*
X173736000Y-68896560D01*
X171704000Y-68896560D01*
X171468683Y-68940838D01*
X171252559Y-69079910D01*
X171164287Y-69209100D01*
X171116437Y-69161166D01*
X170509845Y-68909287D01*
X169853037Y-68908714D01*
X169246005Y-69159534D01*
X168781166Y-69623563D01*
X168529287Y-70230155D01*
X168528714Y-70886963D01*
X165722980Y-70886963D01*
X165724071Y-70884117D01*
X165703928Y-70134616D01*
X165455859Y-69535725D01*
X165163089Y-69406517D01*
X164009605Y-70560000D01*
X163650395Y-70560000D01*
X162496911Y-69406517D01*
X162204141Y-69535725D01*
X161935929Y-70235883D01*
X161956072Y-70985384D01*
X162096244Y-71323788D01*
X162063540Y-71325161D01*
X161618852Y-71509357D01*
X161532447Y-71765839D01*
X161417890Y-71651282D01*
X161397573Y-71671599D01*
X161271643Y-71545449D01*
X160707670Y-71311267D01*
X160647120Y-71311214D01*
X160647120Y-69310320D01*
X160631426Y-69226911D01*
X162676517Y-69226911D01*
X163830000Y-70380395D01*
X164983483Y-69226911D01*
X164854275Y-68934141D01*
X164154117Y-68665929D01*
X163404616Y-68686072D01*
X162805725Y-68934141D01*
X162676517Y-69226911D01*
X160631426Y-69226911D01*
X160602842Y-69075003D01*
X160463770Y-68858879D01*
X160251570Y-68713889D01*
X159999680Y-68662880D01*
X157500320Y-68662880D01*
X157265003Y-68707158D01*
X157048879Y-68846230D01*
X156903889Y-69058430D01*
X156852880Y-69310320D01*
X152989633Y-69310320D01*
X152675614Y-68550337D01*
X152005272Y-67878824D01*
X151128979Y-67514955D01*
X150180144Y-67514127D01*
X149303217Y-67876466D01*
X148631704Y-68546808D01*
X148582716Y-68664785D01*
X148221339Y-68302778D01*
X147528891Y-68015248D01*
X146779119Y-68014594D01*
X146086169Y-68300914D01*
X145652199Y-68734129D01*
X145221599Y-68302778D01*
X144529151Y-68015248D01*
X143779379Y-68014594D01*
X143086429Y-68300914D01*
X142611748Y-68774769D01*
X142140579Y-68302778D01*
X141448131Y-68015248D01*
X140698359Y-68014594D01*
X140005409Y-68300914D01*
X139699156Y-68606634D01*
X139675894Y-68550337D01*
X139005552Y-67878824D01*
X138129259Y-67514955D01*
X137180424Y-67514127D01*
X136303497Y-67876466D01*
X135631984Y-68546808D01*
X135268115Y-69423101D01*
X135267287Y-70371936D01*
X135629626Y-71248863D01*
X136299968Y-71920376D01*
X137176261Y-72284245D01*
X138125096Y-72285073D01*
X138234144Y-72240015D01*
X132226580Y-78247580D01*
X132006338Y-78577193D01*
X131998309Y-78617559D01*
X131929000Y-78966000D01*
X131929000Y-80984937D01*
X131778421Y-80759580D01*
X127210420Y-76191580D01*
X126880807Y-75971338D01*
X126816300Y-75958507D01*
X126492000Y-75894000D01*
X126111000Y-75894000D01*
X126111000Y-72457120D01*
X126344680Y-72457120D01*
X126579997Y-72412842D01*
X126796121Y-72273770D01*
X126941111Y-72061570D01*
X126992120Y-71809680D01*
X126992120Y-70933241D01*
X128289994Y-70933241D01*
X128576314Y-71626191D01*
X129106021Y-72156822D01*
X129798469Y-72444352D01*
X130548241Y-72445006D01*
X131241191Y-72158686D01*
X131771822Y-71628979D01*
X132059352Y-70936531D01*
X132060006Y-70186759D01*
X131773686Y-69493809D01*
X131243979Y-68963178D01*
X130551531Y-68675648D01*
X129801759Y-68674994D01*
X129108809Y-68961314D01*
X128578178Y-69491021D01*
X128290648Y-70183469D01*
X128289994Y-70933241D01*
X126992120Y-70933241D01*
X126992120Y-69310320D01*
X126947842Y-69075003D01*
X126808770Y-68858879D01*
X126596570Y-68713889D01*
X126344680Y-68662880D01*
X123845320Y-68662880D01*
X123610003Y-68707158D01*
X123393879Y-68846230D01*
X123248889Y-69058430D01*
X123197880Y-69310320D01*
X123197880Y-71809680D01*
X123242158Y-72044997D01*
X123381230Y-72261121D01*
X123593430Y-72406111D01*
X123845320Y-72457120D01*
X124079000Y-72457120D01*
X124079000Y-75894000D01*
X107942120Y-75894000D01*
X107942120Y-75660320D01*
X107897842Y-75425003D01*
X107758770Y-75208879D01*
X107546570Y-75063889D01*
X107294680Y-75012880D01*
X104795320Y-75012880D01*
X104560003Y-75057158D01*
X104343879Y-75196230D01*
X104198889Y-75408430D01*
X104147880Y-75660320D01*
X99160000Y-75660320D01*
X99160000Y-69327815D01*
X101289630Y-69327815D01*
X101613980Y-70112800D01*
X102214041Y-70713909D01*
X102998459Y-71039628D01*
X103847815Y-71040370D01*
X104632800Y-70716020D01*
X105233909Y-70115959D01*
X105559628Y-69331541D01*
X105560370Y-68482185D01*
X105236020Y-67697200D01*
X104635959Y-67096091D01*
X103851541Y-66770372D01*
X103002185Y-66769630D01*
X102217200Y-67093980D01*
X101616091Y-67694041D01*
X101290372Y-68478459D01*
X101289630Y-69327815D01*
X99160000Y-69327815D01*
X99160000Y-68977390D01*
X99497957Y-67278366D01*
X100419371Y-65899371D01*
X101798366Y-64977957D01*
X103335512Y-64672200D01*
X103425000Y-64690000D01*
X188425000Y-64690000D01*
X188514488Y-64672200D01*
X190051634Y-64977957D01*
M02*
