<?xml version="1.0" standalone="no"?>
 <!DOCTYPE svg PUBLIC "-//W3C//DTD SVG 1.1//EN" 
 "http://www.w3.org/Graphics/SVG/1.1/DTD/svg11.dtd"> 
<svg xmlns="http://www.w3.org/2000/svg" version="1.1" 
    width="11.463cm" height="6.985cm" viewBox="0 0 45130 27500 ">
<title>SVG Picture created as SolarCharger2017-B.Cu.svg date 2017/10/24 20:01:04 </title>
  <desc>Picture generated by PCBNEW </desc>
<g style="fill:#000000; fill-opacity:1;stroke:#000000; stroke-opacity:1;
stroke-linecap:round; stroke-linejoin:round; "
 transform="translate(0 0) scale(1 1)">
</g>
<g style="fill:#008400; fill-opacity:0.0; 
stroke:#008400; stroke-width:-0.000393701; stroke-opacity:1; 
stroke-linecap:round; stroke-linejoin:round;">
</g>
<g style="fill:#008400; fill-opacity:0.0; 
stroke:#008400; stroke-width:236.22; stroke-opacity:1; 
stroke-linecap:round; stroke-linejoin:round;">
<path d="M32974 24784
L33649 24784
" />
<path d="M33311 24784
L33311 23603
L33424 23771
L33536 23884
L33649 23940
" />
<path d="M32524 23715
L32468 23659
L32355 23603
L32074 23603
L31962 23659
L31905 23715
L31849 23828
L31849 23940
L31905 24109
L32580 24784
L31849 24784
" />
<path d="M30499 23546
L31512 25065
" />
<path d="M29599 23603
L29824 23603
L29937 23659
L29993 23715
L30106 23884
L30162 24109
L30162 24559
L30106 24671
L30049 24728
L29937 24784
L29712 24784
L29599 24728
L29543 24671
L29487 24559
L29487 24278
L29543 24165
L29599 24109
L29712 24053
L29937 24053
L30049 24109
L30106 24165
L30162 24278
" />
<path d="M28137 23546
L29149 25065
" />
<path d="M27800 23715
L27743 23659
L27631 23603
L27350 23603
L27237 23659
L27181 23715
L27125 23828
L27125 23940
L27181 24109
L27856 24784
L27125 24784
" />
<path d="M26393 23603
L26281 23603
L26169 23659
L26112 23715
L26056 23828
L26000 24053
L26000 24334
L26056 24559
L26112 24671
L26169 24728
L26281 24784
L26393 24784
L26506 24728
L26562 24671
L26618 24559
L26675 24334
L26675 24053
L26618 23828
L26562 23715
L26506 23659
L26393 23603
" />
<path d="M24875 24784
L25550 24784
" />
<path d="M25212 24784
L25212 23603
L25325 23771
L25437 23884
L25550 23940
" />
<path d="M24481 23603
L23694 23603
L24200 24784
" />
<path d="M21613 23603
L21219 24784
L20825 23603
" />
<path d="M19813 24784
L20488 24784
" />
<path d="M20151 24784
L20151 23603
L20263 23771
L20375 23884
L20488 23940
" />
<path d="M19307 24671
L19251 24728
L19307 24784
L19363 24728
L19307 24671
L19307 24784
" />
<path d="M18801 23715
L18744 23659
L18632 23603
L18351 23603
L18238 23659
L18182 23715
L18126 23828
L18126 23940
L18182 24109
L18857 24784
L18126 24784
" />
<path d="M34661 22784
L34661 21603
L34380 21603
L34211 21659
L34099 21771
L34043 21884
L33986 22109
L33986 22278
L34043 22503
L34099 22615
L34211 22728
L34380 22784
L34661 22784
" />
<path d="M33480 22784
L33480 21603
" />
<path d="M32693 22221
L32693 22784
" />
<path d="M33086 21603
L32693 22221
L32299 21603
" />
<path d="M31062 22728
L30893 22784
L30612 22784
L30499 22728
L30443 22671
L30387 22559
L30387 22446
L30443 22334
L30499 22278
L30612 22221
L30837 22165
L30949 22109
L31005 22053
L31062 21940
L31062 21828
L31005 21715
L30949 21659
L30837 21603
L30555 21603
L30387 21659
" />
<path d="M29656 21603
L29431 21603
L29318 21659
L29206 21771
L29149 21996
L29149 22390
L29206 22615
L29318 22728
L29431 22784
L29656 22784
L29768 22728
L29881 22615
L29937 22390
L29937 21996
L29881 21771
L29768 21659
L29656 21603
" />
<path d="M28081 22784
L28643 22784
L28643 21603
" />
<path d="M27743 22446
L27181 22446
" />
<path d="M27856 22784
L27462 21603
L27068 22784
" />
<path d="M26000 22784
L26393 22221
" />
<path d="M26675 22784
L26675 21603
L26225 21603
L26112 21659
L26056 21715
L26000 21828
L26000 21996
L26056 22109
L26112 22165
L26225 22221
L26675 22221
" />
<path d="M23919 22671
L23975 22728
L24144 22784
L24256 22784
L24425 22728
L24537 22615
L24594 22503
L24650 22278
L24650 22109
L24594 21884
L24537 21771
L24425 21659
L24256 21603
L24144 21603
L23975 21659
L23919 21715
" />
<path d="M23413 22784
L23413 21603
" />
<path d="M23413 22165
L22738 22165
" />
<path d="M22738 22784
L22738 21603
" />
<path d="M22232 22446
L21669 22446
" />
<path d="M22344 22784
L21950 21603
L21557 22784
" />
<path d="M20488 22784
L20882 22221
" />
<path d="M21163 22784
L21163 21603
L20713 21603
L20600 21659
L20544 21715
L20488 21828
L20488 21996
L20544 22109
L20600 22165
L20713 22221
L21163 22221
" />
<path d="M19363 21659
L19476 21603
L19644 21603
L19813 21659
L19926 21771
L19982 21884
L20038 22109
L20038 22278
L19982 22503
L19926 22615
L19813 22728
L19644 22784
L19532 22784
L19363 22728
L19307 22671
L19307 22278
L19532 22278
" />
<path d="M18801 22165
L18407 22165
" />
<path d="M18238 22784
L18801 22784
L18801 21603
L18238 21603
" />
<path d="M17057 22784
L17451 22221
" />
<path d="M17732 22784
L17732 21603
L17282 21603
L17170 21659
L17113 21715
L17057 21828
L17057 21996
L17113 22109
L17170 22165
L17282 22221
L17732 22221
" />
<path d="M34517 20728
L34630 20784
L34855 20784
L34967 20728
L35024 20671
L35080 20559
L35080 20221
L35024 20109
L34967 20053
L34855 19996
L34630 19996
L34517 20053
" />
<path d="M33505 19996
L33505 20784
" />
<path d="M34011 19996
L34011 20615
L33955 20728
L33843 20784
L33674 20784
L33561 20728
L33505 20671
" />
<path d="M32943 20784
L32943 19996
" />
<path d="M32943 20221
L32886 20109
L32830 20053
L32718 19996
L32605 19996
" />
<path d="M32212 20784
L32212 19996
" />
<path d="M32212 19603
L32268 19659
L32212 19715
L32155 19659
L32212 19603
L32212 19715
" />
<path d="M31480 20784
L31593 20728
L31649 20671
L31705 20559
L31705 20221
L31649 20109
L31593 20053
L31480 19996
L31312 19996
L31199 20053
L31143 20109
L31087 20221
L31087 20559
L31143 20671
L31199 20728
L31312 20784
L31480 20784
" />
<path d="M30074 19996
L30074 20784
" />
<path d="M30580 19996
L30580 20615
L30524 20728
L30412 20784
L30243 20784
L30131 20728
L30074 20671
" />
<path d="M29568 20728
L29456 20784
L29231 20784
L29118 20728
L29062 20615
L29062 20559
L29118 20446
L29231 20390
L29399 20390
L29512 20334
L29568 20221
L29568 20165
L29512 20053
L29399 19996
L29231 19996
L29118 20053
" />
<path d="M28106 20728
L28218 20784
L28443 20784
L28556 20728
L28612 20615
L28612 20165
L28556 20053
L28443 19996
L28218 19996
L28106 20053
L28050 20165
L28050 20278
L28612 20390
" />
<path d="M27375 20784
L27487 20728
L27543 20615
L27543 19603
" />
<path d="M26475 20728
L26587 20784
L26812 20784
L26925 20728
L26981 20615
L26981 20165
L26925 20053
L26812 19996
L26587 19996
L26475 20053
L26419 20165
L26419 20278
L26981 20390
" />
<path d="M25406 20728
L25519 20784
L25744 20784
L25856 20728
L25912 20671
L25969 20559
L25969 20221
L25912 20109
L25856 20053
L25744 19996
L25519 19996
L25406 20053
" />
<path d="M25069 19996
L24619 19996
" />
<path d="M24900 19603
L24900 20615
L24844 20728
L24731 20784
L24619 20784
" />
<path d="M24225 20784
L24225 19996
" />
<path d="M24225 20221
L24169 20109
L24113 20053
L24000 19996
L23888 19996
" />
<path d="M23494 20784
L23494 19996
" />
<path d="M23494 19603
L23550 19659
L23494 19715
L23438 19659
L23494 19603
L23494 19715
" />
<path d="M22425 20728
L22538 20784
L22763 20784
L22875 20728
L22931 20671
L22988 20559
L22988 20221
L22931 20109
L22875 20053
L22763 19996
L22538 19996
L22425 20053
" />
<path d="M21919 20671
L21863 20728
L21919 20784
L21975 20728
L21919 20671
L21919 20784
" />
<path d="M20850 20728
L20963 20784
L21188 20784
L21300 20728
L21357 20671
L21413 20559
L21413 20221
L21357 20109
L21300 20053
L21188 19996
L20963 19996
L20850 20053
" />
<path d="M20176 20784
L20288 20728
L20344 20671
L20401 20559
L20401 20221
L20344 20109
L20288 20053
L20176 19996
L20007 19996
L19894 20053
L19838 20109
L19782 20221
L19782 20559
L19838 20671
L19894 20728
L20007 20784
L20176 20784
" />
<path d="M19276 20671
L19219 20728
L19276 20784
L19332 20728
L19276 20671
L19276 20784
" />
<path d="M18207 19996
L18207 20784
" />
<path d="M18713 19996
L18713 20615
L18657 20728
L18544 20784
L18376 20784
L18263 20728
L18207 20671
" />
<path d="M17645 20784
L17645 19603
" />
<path d="M17532 20334
L17195 20784
" />
<path d="M17195 19996
L17645 20446
" />
<path d="M32437 18471
L32493 18415
L32605 18359
L32718 18359
L32830 18415
L32886 18471
L32943 18584
L32943 18696
L32886 18809
L32830 18865
L32718 18921
L32605 18921
L32493 18865
L32437 18809
" />
<path d="M32437 18359
L32437 18809
L32380 18865
L32324 18865
L32212 18809
L32155 18696
L32155 18415
L32268 18246
L32437 18134
L32661 18078
L32886 18134
L33055 18246
L33168 18415
L33224 18640
L33168 18865
L33055 19034
L32886 19146
L32661 19203
L32437 19146
L32268 19034
" />
<path d="M31143 18978
L31255 19034
L31480 19034
L31593 18978
L31649 18921
L31705 18809
L31705 18471
L31649 18359
L31593 18303
L31480 18246
L31255 18246
L31143 18303
" />
<path d="M30131 18246
L30131 19034
" />
<path d="M30637 18246
L30637 18865
L30580 18978
L30468 19034
L30299 19034
L30187 18978
L30131 18921
" />
<path d="M29568 19034
L29568 18246
" />
<path d="M29568 18471
L29512 18359
L29456 18303
L29343 18246
L29231 18246
" />
<path d="M28837 19034
L28837 18246
" />
<path d="M28837 17853
L28893 17909
L28837 17965
L28781 17909
L28837 17853
L28837 17965
" />
<path d="M28106 19034
L28218 18978
L28275 18921
L28331 18809
L28331 18471
L28275 18359
L28218 18303
L28106 18246
L27937 18246
L27825 18303
L27768 18359
L27712 18471
L27712 18809
L27768 18921
L27825 18978
L27937 19034
L28106 19034
" />
<path d="M26700 18246
L26700 19034
" />
<path d="M27206 18246
L27206 18865
L27150 18978
L27037 19034
L26868 19034
L26756 18978
L26700 18921
" />
<path d="M26194 18978
L26081 19034
L25856 19034
L25744 18978
L25687 18865
L25687 18809
L25744 18696
L25856 18640
L26025 18640
L26137 18584
L26194 18471
L26194 18415
L26137 18303
L26025 18246
L25856 18246
L25744 18303
" />
<path d="M24731 18978
L24844 19034
L25069 19034
L25181 18978
L25237 18865
L25237 18415
L25181 18303
L25069 18246
L24844 18246
L24731 18303
L24675 18415
L24675 18528
L25237 18640
" />
<path d="M24000 19034
L24113 18978
L24169 18865
L24169 17853
" />
<path d="M23100 18978
L23213 19034
L23438 19034
L23550 18978
L23606 18865
L23606 18415
L23550 18303
L23438 18246
L23213 18246
L23100 18303
L23044 18415
L23044 18528
L23606 18640
" />
<path d="M22032 18978
L22144 19034
L22369 19034
L22482 18978
L22538 18921
L22594 18809
L22594 18471
L22538 18359
L22482 18303
L22369 18246
L22144 18246
L22032 18303
" />
<path d="M21694 18246
L21244 18246
" />
<path d="M21525 17853
L21525 18865
L21469 18978
L21357 19034
L21244 19034
" />
<path d="M20850 19034
L20850 18246
" />
<path d="M20850 18471
L20794 18359
L20738 18303
L20625 18246
L20513 18246
" />
<path d="M20119 19034
L20119 18246
" />
<path d="M20119 17853
L20176 17909
L20119 17965
L20063 17909
L20119 17853
L20119 17965
" />
<path d="M19051 18978
L19163 19034
L19388 19034
L19501 18978
L19557 18921
L19613 18809
L19613 18471
L19557 18359
L19501 18303
L19388 18246
L19163 18246
L19051 18303
" />
</g>
<g style="fill:#C2C200; fill-opacity:0.0; 
stroke:#C2C200; stroke-width:236.22; stroke-opacity:1; 
stroke-linecap:round; stroke-linejoin:round;">
</g>
<g style="fill:#C2C200; fill-opacity:0.0; 
stroke:#C2C200; stroke-width:118.11; stroke-opacity:1; 
stroke-linecap:round; stroke-linejoin:round;">
<path d="M9106 26500
L42570 26500
" />
<path d="M9106 909
L42570 909
" />
</g>
<g style="fill:#C2C200; fill-opacity:0.0; 
stroke:#C2C200; stroke-width:78.7402; stroke-opacity:1; 
stroke-linecap:round; stroke-linejoin:round;">
<path d="M7137 2877
L7137 24531
" />
<path d="M44539 24531
L44539 2877
" />
<path d="M42570.9 26500 A1968.5 1968.5 0.0 0 0 44539.4 24531.5 " />
<path d="M7137.8 24531.5 A1968.5 1968.5 0.0 0 0 9106.3 26500 " />
<path d="M9106.3 909.449 A1968.5 1968.5 0.0 0 0 7137.8 2877.95 " />
<path d="M44539.4 2877.95 A1968.5 1968.5 0.0 0 0 42570.9 909.449 " />
</g>
<g style="fill:#840000; fill-opacity:0.0; 
stroke:#840000; stroke-width:78.7402; stroke-opacity:1; 
stroke-linecap:round; stroke-linejoin:round;">
</g>
<g style="fill:#840000; fill-opacity:1.0; 
stroke:#840000; stroke-width:0; stroke-opacity:1; 
stroke-linecap:round; stroke-linejoin:round;">
<circle cx="12933.1" cy="16059.1" r="393.701" /> 
</g>
<g style="fill:#840000; fill-opacity:1.0; 
stroke:#840000; stroke-width:39.3701; stroke-opacity:1; 
stroke-linecap:round; stroke-linejoin:round;">
</g>
<g style="fill:#840000; fill-opacity:1.0; 
stroke:#840000; stroke-width:0; stroke-opacity:1; 
stroke-linecap:round; stroke-linejoin:round;">
<circle cx="12933.1" cy="12909.4" r="393.701" /> 
</g>
<g style="fill:#840000; fill-opacity:1.0; 
stroke:#840000; stroke-width:39.3701; stroke-opacity:1; 
stroke-linecap:round; stroke-linejoin:round;">
</g>
<g style="fill:#840000; fill-opacity:1.0; 
stroke:#840000; stroke-width:0; stroke-opacity:1; 
stroke-linecap:round; stroke-linejoin:round;">
<circle cx="38523.6" cy="16059.1" r="393.701" /> 
</g>
<g style="fill:#840000; fill-opacity:1.0; 
stroke:#840000; stroke-width:39.3701; stroke-opacity:1; 
stroke-linecap:round; stroke-linejoin:round;">
</g>
<g style="fill:#840000; fill-opacity:1.0; 
stroke:#840000; stroke-width:0; stroke-opacity:1; 
stroke-linecap:round; stroke-linejoin:round;">
<circle cx="38523.6" cy="12909.4" r="393.701" /> 
</g>
<g style="fill:#840000; fill-opacity:1.0; 
stroke:#840000; stroke-width:39.3701; stroke-opacity:1; 
stroke-linecap:round; stroke-linejoin:round;">
</g>
<g style="fill:#840000; fill-opacity:1.0; 
stroke:#840000; stroke-width:0; stroke-opacity:1; 
stroke-linecap:round; stroke-linejoin:round;">
<circle cx="20728.3" cy="14320.9" r="590.551" /> 
</g>
<g style="fill:#840000; fill-opacity:1.0; 
stroke:#840000; stroke-width:39.3701; stroke-opacity:1; 
stroke-linecap:round; stroke-linejoin:round;">
</g>
<g style="fill:#840000; fill-opacity:1.0; 
stroke:#840000; stroke-width:0; stroke-opacity:1; 
stroke-linecap:round; stroke-linejoin:round;">
<polyline style="fill-rule:evenodd;"
points="15255,14911
15255,13730
16437,13730
16437,14911
15255,14911
" /> 
<polyline style="fill-rule:evenodd;"
points="15084,16635
15084,15454
16265,15454
16265,16635
15084,16635
" /> 
<circle cx="21383.9" cy="16045.3" r="590.551" /> 
</g>
<g style="fill:#840000; fill-opacity:1.0; 
stroke:#840000; stroke-width:39.3701; stroke-opacity:1; 
stroke-linecap:round; stroke-linejoin:round;">
</g>
<g style="fill:#840000; fill-opacity:1.0; 
stroke:#840000; stroke-width:0; stroke-opacity:1; 
stroke-linecap:round; stroke-linejoin:round;">
<circle cx="16986.2" cy="9253.94" r="300" /> 
</g>
<g style="fill:#840000; fill-opacity:1.0; 
stroke:#840000; stroke-width:39.3701; stroke-opacity:1; 
stroke-linecap:round; stroke-linejoin:round;">
</g>
<g style="fill:#840000; fill-opacity:1.0; 
stroke:#840000; stroke-width:0; stroke-opacity:1; 
stroke-linecap:round; stroke-linejoin:round;">
<circle cx="17986.2" cy="9253.94" r="300" /> 
</g>
<g style="fill:#840000; fill-opacity:1.0; 
stroke:#840000; stroke-width:39.3701; stroke-opacity:1; 
stroke-linecap:round; stroke-linejoin:round;">
</g>
<g style="fill:#840000; fill-opacity:1.0; 
stroke:#840000; stroke-width:0; stroke-opacity:1; 
stroke-linecap:round; stroke-linejoin:round;">
<circle cx="18986.2" cy="9253.94" r="300" /> 
</g>
<g style="fill:#840000; fill-opacity:1.0; 
stroke:#840000; stroke-width:39.3701; stroke-opacity:1; 
stroke-linecap:round; stroke-linejoin:round;">
</g>
<g style="fill:#840000; fill-opacity:1.0; 
stroke:#840000; stroke-width:0; stroke-opacity:1; 
stroke-linecap:round; stroke-linejoin:round;">
<circle cx="19986.2" cy="9253.94" r="300" /> 
</g>
<g style="fill:#840000; fill-opacity:1.0; 
stroke:#840000; stroke-width:39.3701; stroke-opacity:1; 
stroke-linecap:round; stroke-linejoin:round;">
</g>
<g style="fill:#840000; fill-opacity:1.0; 
stroke:#840000; stroke-width:0; stroke-opacity:1; 
stroke-linecap:round; stroke-linejoin:round;">
<circle cx="23887.8" cy="9029.53" r="400" /> 
</g>
<g style="fill:#840000; fill-opacity:1.0; 
stroke:#840000; stroke-width:39.3701; stroke-opacity:1; 
stroke-linecap:round; stroke-linejoin:round;">
</g>
<g style="fill:#840000; fill-opacity:1.0; 
stroke:#840000; stroke-width:0; stroke-opacity:1; 
stroke-linecap:round; stroke-linejoin:round;">
<circle cx="23887.8" cy="12029.5" r="400" /> 
</g>
<g style="fill:#840000; fill-opacity:1.0; 
stroke:#840000; stroke-width:39.3701; stroke-opacity:1; 
stroke-linecap:round; stroke-linejoin:round;">
</g>
<g style="fill:#840000; fill-opacity:1.0; 
stroke:#840000; stroke-width:0; stroke-opacity:1; 
stroke-linecap:round; stroke-linejoin:round;">
<circle cx="25137.8" cy="12029.5" r="400" /> 
</g>
<g style="fill:#840000; fill-opacity:1.0; 
stroke:#840000; stroke-width:39.3701; stroke-opacity:1; 
stroke-linecap:round; stroke-linejoin:round;">
</g>
<g style="fill:#840000; fill-opacity:1.0; 
stroke:#840000; stroke-width:0; stroke-opacity:1; 
stroke-linecap:round; stroke-linejoin:round;">
<circle cx="25137.8" cy="9029.53" r="400" /> 
</g>
<g style="fill:#840000; fill-opacity:1.0; 
stroke:#840000; stroke-width:39.3701; stroke-opacity:1; 
stroke-linecap:round; stroke-linejoin:round;">
</g>
<g style="fill:#840000; fill-opacity:1.0; 
stroke:#840000; stroke-width:0; stroke-opacity:1; 
stroke-linecap:round; stroke-linejoin:round;">
<circle cx="30137.8" cy="9029.53" r="400" /> 
</g>
<g style="fill:#840000; fill-opacity:1.0; 
stroke:#840000; stroke-width:39.3701; stroke-opacity:1; 
stroke-linecap:round; stroke-linejoin:round;">
</g>
<g style="fill:#840000; fill-opacity:1.0; 
stroke:#840000; stroke-width:0; stroke-opacity:1; 
stroke-linecap:round; stroke-linejoin:round;">
<circle cx="30137.8" cy="12029.5" r="400" /> 
</g>
<g style="fill:#840000; fill-opacity:1.0; 
stroke:#840000; stroke-width:39.3701; stroke-opacity:1; 
stroke-linecap:round; stroke-linejoin:round;">
</g>
<g style="fill:#840000; fill-opacity:1.0; 
stroke:#840000; stroke-width:0; stroke-opacity:1; 
stroke-linecap:round; stroke-linejoin:round;">
<circle cx="31387.8" cy="9029.53" r="400" /> 
</g>
<g style="fill:#840000; fill-opacity:1.0; 
stroke:#840000; stroke-width:39.3701; stroke-opacity:1; 
stroke-linecap:round; stroke-linejoin:round;">
</g>
<g style="fill:#840000; fill-opacity:1.0; 
stroke:#840000; stroke-width:0; stroke-opacity:1; 
stroke-linecap:round; stroke-linejoin:round;">
<circle cx="31387.8" cy="12029.5" r="400" /> 
</g>
<g style="fill:#840000; fill-opacity:1.0; 
stroke:#840000; stroke-width:39.3701; stroke-opacity:1; 
stroke-linecap:round; stroke-linejoin:round;">
</g>
<g style="fill:#840000; fill-opacity:1.0; 
stroke:#840000; stroke-width:0; stroke-opacity:1; 
stroke-linecap:round; stroke-linejoin:round;">
<polyline style="fill-rule:evenodd;"
points="27037,6879
27037,7679
26237,7679
26237,6879
27037,6879
" /> 
<circle cx="25637.8" cy="7279.53" r="400" /> 
</g>
<g style="fill:#840000; fill-opacity:1.0; 
stroke:#840000; stroke-width:39.3701; stroke-opacity:1; 
stroke-linecap:round; stroke-linejoin:round;">
</g>
<g style="fill:#840000; fill-opacity:1.0; 
stroke:#840000; stroke-width:0; stroke-opacity:1; 
stroke-linecap:round; stroke-linejoin:round;">
<polyline style="fill-rule:evenodd;"
points="30037,6879
30037,7679
29237,7679
29237,6879
30037,6879
" /> 
<circle cx="28637.8" cy="7279.53" r="400" /> 
</g>
<g style="fill:#840000; fill-opacity:1.0; 
stroke:#840000; stroke-width:39.3701; stroke-opacity:1; 
stroke-linecap:round; stroke-linejoin:round;">
</g>
<g style="fill:#840000; fill-opacity:1.0; 
stroke:#840000; stroke-width:0; stroke-opacity:1; 
stroke-linecap:round; stroke-linejoin:round;">
<polyline style="fill-rule:evenodd;"
points="17145,4021
17145,3037
18129,3037
18129,4021
17145,4021
" /> 
<circle cx="19637.8" cy="3529.53" r="492" /> 
</g>
<g style="fill:#840000; fill-opacity:1.0; 
stroke:#840000; stroke-width:39.3701; stroke-opacity:1; 
stroke-linecap:round; stroke-linejoin:round;">
</g>
<g style="fill:#840000; fill-opacity:1.0; 
stroke:#840000; stroke-width:0; stroke-opacity:1; 
stroke-linecap:round; stroke-linejoin:round;">
<circle cx="36568.9" cy="21669.3" r="492.126" /> 
</g>
<g style="fill:#840000; fill-opacity:1.0; 
stroke:#840000; stroke-width:39.3701; stroke-opacity:1; 
stroke-linecap:round; stroke-linejoin:round;">
</g>
<g style="fill:#840000; fill-opacity:1.0; 
stroke:#840000; stroke-width:0; stroke-opacity:1; 
stroke-linecap:round; stroke-linejoin:round;">
<polyline style="fill-rule:evenodd;"
points="11175,22259
11175,21078
11962,21078
11962,22259
11175,22259
" /> 
</g>
<g style="fill:#840000; fill-opacity:1.0; 
stroke:#840000; stroke-width:787.402; stroke-opacity:1; 
stroke-linecap:round; stroke-linejoin:round;">
</g>
<g style="fill:#840000; fill-opacity:0.0; 
stroke:#840000; stroke-width:787.402; stroke-opacity:1; 
stroke-linecap:round; stroke-linejoin:round;">
<path d="M39915 21472
L39915 21866
" />
</g>
<g style="fill:#840000; fill-opacity:1.0; 
stroke:#840000; stroke-width:0; stroke-opacity:1; 
stroke-linecap:round; stroke-linejoin:round;">
<circle cx="14915.4" cy="21669.3" r="492.126" /> 
</g>
<g style="fill:#840000; fill-opacity:1.0; 
stroke:#840000; stroke-width:39.3701; stroke-opacity:1; 
stroke-linecap:round; stroke-linejoin:round;">
</g>
<g style="fill:#840000; fill-opacity:1.0; 
stroke:#840000; stroke-width:0; stroke-opacity:1; 
stroke-linecap:round; stroke-linejoin:round;">
<polyline style="fill-rule:evenodd;"
points="30395,4021
30395,3037
31379,3037
31379,4021
30395,4021
" /> 
<circle cx="32887.8" cy="3529.53" r="492" /> 
</g>
<g style="fill:#840000; fill-opacity:1.0; 
stroke:#840000; stroke-width:39.3701; stroke-opacity:1; 
stroke-linecap:round; stroke-linejoin:round;">
</g>
<g style="fill:#840000; fill-opacity:1.0; 
stroke:#840000; stroke-width:0; stroke-opacity:1; 
stroke-linecap:round; stroke-linejoin:round;">
<circle cx="31537.8" cy="4429.53" r="354.331" /> 
</g>
<g style="fill:#840000; fill-opacity:1.0; 
stroke:#840000; stroke-width:39.3701; stroke-opacity:1; 
stroke-linecap:round; stroke-linejoin:round;">
</g>
<g style="fill:#840000; fill-opacity:1.0; 
stroke:#840000; stroke-width:0; stroke-opacity:1; 
stroke-linecap:round; stroke-linejoin:round;">
<circle cx="32337.8" cy="4429.53" r="354.331" /> 
</g>
<g style="fill:#840000; fill-opacity:1.0; 
stroke:#840000; stroke-width:39.3701; stroke-opacity:1; 
stroke-linecap:round; stroke-linejoin:round;">
</g>
<g style="fill:#840000; fill-opacity:1.0; 
stroke:#840000; stroke-width:0; stroke-opacity:1; 
stroke-linecap:round; stroke-linejoin:round;">
<circle cx="38387.8" cy="3529.53" r="400" /> 
</g>
<g style="fill:#840000; fill-opacity:1.0; 
stroke:#840000; stroke-width:39.3701; stroke-opacity:1; 
stroke-linecap:round; stroke-linejoin:round;">
</g>
<g style="fill:#840000; fill-opacity:1.0; 
stroke:#840000; stroke-width:0; stroke-opacity:1; 
stroke-linecap:round; stroke-linejoin:round;">
<polyline style="fill-rule:evenodd;"
points="38987,3929
38987,3129
39787,3129
39787,3929
38987,3929
" /> 
<circle cx="35387.8" cy="3529.53" r="400" /> 
</g>
<g style="fill:#840000; fill-opacity:1.0; 
stroke:#840000; stroke-width:39.3701; stroke-opacity:1; 
stroke-linecap:round; stroke-linejoin:round;">
</g>
<g style="fill:#840000; fill-opacity:1.0; 
stroke:#840000; stroke-width:0; stroke-opacity:1; 
stroke-linecap:round; stroke-linejoin:round;">
<polyline style="fill-rule:evenodd;"
points="35987,3929
35987,3129
36787,3129
36787,3929
35987,3929
" /> 
<polyline style="fill-rule:evenodd;"
points="40895,5537
41879,5537
41879,6521
40895,6521
40895,5537
" /> 
<circle cx="41387.8" cy="8029.53" r="492" /> 
</g>
<g style="fill:#840000; fill-opacity:1.0; 
stroke:#840000; stroke-width:39.3701; stroke-opacity:1; 
stroke-linecap:round; stroke-linejoin:round;">
</g>
<g style="fill:#840000; fill-opacity:1.0; 
stroke:#840000; stroke-width:0; stroke-opacity:1; 
stroke-linecap:round; stroke-linejoin:round;">
<circle cx="40487.8" cy="6679.53" r="354.331" /> 
</g>
<g style="fill:#840000; fill-opacity:1.0; 
stroke:#840000; stroke-width:39.3701; stroke-opacity:1; 
stroke-linecap:round; stroke-linejoin:round;">
</g>
<g style="fill:#840000; fill-opacity:1.0; 
stroke:#840000; stroke-width:0; stroke-opacity:1; 
stroke-linecap:round; stroke-linejoin:round;">
<circle cx="40487.8" cy="7479.53" r="354.331" /> 
</g>
<g style="fill:#840000; fill-opacity:1.0; 
stroke:#840000; stroke-width:39.3701; stroke-opacity:1; 
stroke-linecap:round; stroke-linejoin:round;">
</g>
<g style="fill:#840000; fill-opacity:1.0; 
stroke:#840000; stroke-width:0; stroke-opacity:1; 
stroke-linecap:round; stroke-linejoin:round;">
<polyline style="fill-rule:evenodd;"
points="10629,8742
9645,8742
9645,7758
10629,7758
10629,8742
" /> 
<circle cx="10137.8" cy="6250" r="492" /> 
</g>
<g style="fill:#840000; fill-opacity:1.0; 
stroke:#840000; stroke-width:39.3701; stroke-opacity:1; 
stroke-linecap:round; stroke-linejoin:round;">
</g>
<g style="fill:#840000; fill-opacity:1.0; 
stroke:#840000; stroke-width:0; stroke-opacity:1; 
stroke-linecap:round; stroke-linejoin:round;">
<polyline style="fill-rule:evenodd;"
points="10629,16021
9645,16021
9645,15037
10629,15037
10629,16021
" /> 
<circle cx="10137.8" cy="13529.5" r="492" /> 
</g>
<g style="fill:#840000; fill-opacity:1.0; 
stroke:#840000; stroke-width:39.3701; stroke-opacity:1; 
stroke-linecap:round; stroke-linejoin:round;">
</g>
<g style="fill:#840000; fill-opacity:1.0; 
stroke:#840000; stroke-width:0; stroke-opacity:1; 
stroke-linecap:round; stroke-linejoin:round;">
<circle cx="11037.8" cy="14879.5" r="354.331" /> 
</g>
<g style="fill:#840000; fill-opacity:1.0; 
stroke:#840000; stroke-width:39.3701; stroke-opacity:1; 
stroke-linecap:round; stroke-linejoin:round;">
</g>
<g style="fill:#840000; fill-opacity:1.0; 
stroke:#840000; stroke-width:0; stroke-opacity:1; 
stroke-linecap:round; stroke-linejoin:round;">
<circle cx="11037.8" cy="14079.5" r="354.331" /> 
</g>
<g style="fill:#840000; fill-opacity:1.0; 
stroke:#840000; stroke-width:39.3701; stroke-opacity:1; 
stroke-linecap:round; stroke-linejoin:round;">
</g>
<g style="fill:#840000; fill-opacity:1.0; 
stroke:#840000; stroke-width:0; stroke-opacity:1; 
stroke-linecap:round; stroke-linejoin:round;">
<polyline style="fill-rule:evenodd;"
points="40895,13037
41879,13037
41879,14021
40895,14021
40895,13037
" /> 
<circle cx="41387.8" cy="15529.5" r="492" /> 
</g>
<g style="fill:#840000; fill-opacity:1.0; 
stroke:#840000; stroke-width:39.3701; stroke-opacity:1; 
stroke-linecap:round; stroke-linejoin:round;">
</g>
<g style="fill:#840000; fill-opacity:1.0; 
stroke:#840000; stroke-width:0; stroke-opacity:1; 
stroke-linecap:round; stroke-linejoin:round;">
<circle cx="40487.8" cy="14179.5" r="354.331" /> 
</g>
<g style="fill:#840000; fill-opacity:1.0; 
stroke:#840000; stroke-width:39.3701; stroke-opacity:1; 
stroke-linecap:round; stroke-linejoin:round;">
</g>
<g style="fill:#840000; fill-opacity:1.0; 
stroke:#840000; stroke-width:0; stroke-opacity:1; 
stroke-linecap:round; stroke-linejoin:round;">
<circle cx="40487.8" cy="14979.5" r="354.331" /> 
</g>
<g style="fill:#840000; fill-opacity:1.0; 
stroke:#840000; stroke-width:39.3701; stroke-opacity:1; 
stroke-linecap:round; stroke-linejoin:round;">
</g>
<g style="fill:#840000; fill-opacity:1.0; 
stroke:#840000; stroke-width:0; stroke-opacity:1; 
stroke-linecap:round; stroke-linejoin:round;">
<circle cx="42570.9" cy="2877.95" r="590.551" /> 
</g>
<g style="fill:#840000; fill-opacity:1.0; 
stroke:#840000; stroke-width:39.3701; stroke-opacity:1; 
stroke-linecap:round; stroke-linejoin:round;">
</g>
<g style="fill:#840000; fill-opacity:1.0; 
stroke:#840000; stroke-width:0; stroke-opacity:1; 
stroke-linecap:round; stroke-linejoin:round;">
<circle cx="9106.3" cy="2877.95" r="590.551" /> 
</g>
<g style="fill:#840000; fill-opacity:1.0; 
stroke:#840000; stroke-width:39.3701; stroke-opacity:1; 
stroke-linecap:round; stroke-linejoin:round;">
</g>
<g style="fill:#840000; fill-opacity:1.0; 
stroke:#840000; stroke-width:0; stroke-opacity:1; 
stroke-linecap:round; stroke-linejoin:round;">
<circle cx="9106.3" cy="24531.5" r="590.551" /> 
</g>
<g style="fill:#840000; fill-opacity:1.0; 
stroke:#840000; stroke-width:39.3701; stroke-opacity:1; 
stroke-linecap:round; stroke-linejoin:round;">
</g>
<g style="fill:#840000; fill-opacity:1.0; 
stroke:#840000; stroke-width:0; stroke-opacity:1; 
stroke-linecap:round; stroke-linejoin:round;">
<circle cx="42570.9" cy="24531.5" r="590.551" /> 
</g>
<g style="fill:#840000; fill-opacity:1.0; 
stroke:#840000; stroke-width:39.3701; stroke-opacity:1; 
stroke-linecap:round; stroke-linejoin:round;">
</g>
<g style="fill:#840000; fill-opacity:1.0; 
stroke:#840000; stroke-width:0; stroke-opacity:1; 
stroke-linecap:round; stroke-linejoin:round;">
<circle cx="25140.8" cy="3269.53" r="393.701" /> 
</g>
<g style="fill:#840000; fill-opacity:1.0; 
stroke:#840000; stroke-width:39.3701; stroke-opacity:1; 
stroke-linecap:round; stroke-linejoin:round;">
</g>
<g style="fill:#840000; fill-opacity:1.0; 
stroke:#840000; stroke-width:0; stroke-opacity:1; 
stroke-linecap:round; stroke-linejoin:round;">
<circle cx="23956.7" cy="3279.53" r="393.701" /> 
</g>
<g style="fill:#840000; fill-opacity:1.0; 
stroke:#840000; stroke-width:39.3701; stroke-opacity:1; 
stroke-linecap:round; stroke-linejoin:round;">
</g>
<g style="fill:#840000; fill-opacity:1.0; 
stroke:#840000; stroke-width:0; stroke-opacity:1; 
stroke-linecap:round; stroke-linejoin:round;">
<circle cx="26318.9" cy="3279.53" r="393.701" /> 
</g>
<g style="fill:#840000; fill-opacity:1.0; 
stroke:#840000; stroke-width:39.3701; stroke-opacity:1; 
stroke-linecap:round; stroke-linejoin:round;">
</g>
<g style="fill:#840000; fill-opacity:1.0; 
stroke:#840000; stroke-width:472.441; stroke-opacity:1; 
stroke-linecap:round; stroke-linejoin:round;">
</g>
<g style="fill:#840000; fill-opacity:0.0; 
stroke:#840000; stroke-width:472.441; stroke-opacity:1; 
stroke-linecap:round; stroke-linejoin:round;">
<path d="M22657 3633
L22657 2925
" />
<path d="M27618 3633
L27618 2925
" />
</g>
<g style="fill:#C2C2C2; fill-opacity:0.0; 
stroke:#C2C2C2; stroke-width:472.441; stroke-opacity:1; 
stroke-linecap:round; stroke-linejoin:round;">
</g>
<g style="fill:#C2C2C2; fill-opacity:1.0; 
stroke:#C2C2C2; stroke-width:0; stroke-opacity:1; 
stroke-linecap:round; stroke-linejoin:round;">
<circle cx="36387.8" cy="8479.53" r="125" /> 
</g>
<g style="fill:#C2C2C2; fill-opacity:1.0; 
stroke:#C2C2C2; stroke-width:39.3701; stroke-opacity:1; 
stroke-linecap:round; stroke-linejoin:round;">
</g>
<g style="fill:#C2C2C2; fill-opacity:1.0; 
stroke:#C2C2C2; stroke-width:0; stroke-opacity:1; 
stroke-linecap:round; stroke-linejoin:round;">
<circle cx="25787.8" cy="11279.5" r="125" /> 
</g>
<g style="fill:#C2C2C2; fill-opacity:1.0; 
stroke:#C2C2C2; stroke-width:39.3701; stroke-opacity:1; 
stroke-linecap:round; stroke-linejoin:round;">
</g>
<g style="fill:#C2C2C2; fill-opacity:1.0; 
stroke:#C2C2C2; stroke-width:0; stroke-opacity:1; 
stroke-linecap:round; stroke-linejoin:round;">
<circle cx="39387.8" cy="7179.53" r="125" /> 
</g>
<g style="fill:#C2C2C2; fill-opacity:1.0; 
stroke:#C2C2C2; stroke-width:39.3701; stroke-opacity:1; 
stroke-linecap:round; stroke-linejoin:round;">
</g>
<g style="fill:#008400; fill-opacity:1.0; 
stroke:#008400; stroke-width:39.3701; stroke-opacity:1; 
stroke-linecap:round; stroke-linejoin:round;">
</g>
<g style="fill:#008400; fill-opacity:1.0; 
stroke:#008400; stroke-width:300; stroke-opacity:1; 
stroke-linecap:round; stroke-linejoin:round;">
</g>
<g style="fill:#008400; fill-opacity:0.0; 
stroke:#008400; stroke-width:300; stroke-opacity:1; 
stroke-linecap:round; stroke-linejoin:round;">
<path d="M31387 5400
L23957 5400
" />
<path d="M23957 5400
L23927 5429
" />
<path d="M11568 21669
L10557 21669
" />
<path d="M14537 11229
L19187 11229
" />
<path d="M19187 11229
L23927 6489
" />
<path d="M23927 6489
L23927 5429
" />
<path d="M10387 11229
L8837 12779
" />
<path d="M8837 12779
L8837 19950
" />
<path d="M14537 11229
L10387 11229
" />
<path d="M10557 21669
L8837 19950
" />
<path d="M23927 5429
L23927 3269
" />
<path d="M31387 9029
L31387 5400
" />
<path d="M31387 5400
L31387 5429
" />
<path d="M31387 5429
L31387 4579
" />
<path d="M31387 4579
L31537 4429
" />
<path d="M30137 9029
L30137 8929
" />
<path d="M30137 8929
L29637 8429
" />
<path d="M29637 8429
L29637 7279
" />
<path d="M31387 9029
L30137 9029
" />
<path d="M41387 6029
L41137 6029
" />
<path d="M41137 6029
L40487 6679
" />
<path d="M30887 3529
L30887 3779
" />
<path d="M30887 3779
L31537 4429
" />
<path d="M15846 14320
L17308 14320
" />
<path d="M19033 16045
L21383 16045
" />
<path d="M17308 14320
L19033 16045
" />
<path d="M12933 14800
L14037 14800
" />
<path d="M14516 14320
L15846 14320
" />
<path d="M14037 14800
L14516 14320
" />
<path d="M39887 15529
L39887 21641
" />
<path d="M39887 21641
L39915 21669
" />
<path d="M38523 16059
L39053 15529
" />
<path d="M11037 14079
L12237 14079
" />
<path d="M12933 14774
L12933 14800
" />
<path d="M12933 14800
L12933 16059
" />
<path d="M12237 14079
L12933 14774
" />
<path d="M10137 13529
L10487 13529
" />
<path d="M10487 13529
L11037 14079
" />
<path d="M25637 7279
L25637 6829
" />
<path d="M28637 6829
L28637 7279
" />
<path d="M28137 6329
L28637 6829
" />
<path d="M26137 6329
L28137 6329
" />
<path d="M25637 6829
L26137 6329
" />
<path d="M41387 8029
L42687 8029
" />
<path d="M42687 8029
L42737 8029
" />
<path d="M42737 8029
L42687 8029
" />
<path d="M32887 3529
L32887 2479
" />
<path d="M32887 2479
L33487 1879
" />
<path d="M33487 1879
L39187 1879
" />
<path d="M39187 1879
L42687 5379
" />
<path d="M42687 5379
L42687 8029
" />
<path d="M42687 8029
L42687 8779
" />
<path d="M42687 14829
L42687 8779
" />
<path d="M41987 15529
L42687 14829
" />
<path d="M41387 15529
L41987 15529
" />
<path d="M41387 15529
L39887 15529
" />
<path d="M39887 15529
L39837 15529
" />
<path d="M39837 15529
L39053 15529
" />
<path d="M39053 15529
L38523 16059
" />
<path d="M41387 8029
L41037 8029
" />
<path d="M41037 8029
L40487 7479
" />
<path d="M32887 3529
L32887 3879
" />
<path d="M32887 3879
L32337 4429
" />
<path d="M10137 15529
L10737 15529
" />
<path d="M10737 15529
L11037 15229
" />
<path d="M11037 15229
L11037 14879
" />
<path d="M38523 12909
L35207 12909
" />
<path d="M26637 9879
L26637 7279
" />
<path d="M30287 13529
L26637 9879
" />
<path d="M34587 13529
L30287 13529
" />
<path d="M35207 12909
L34587 13529
" />
<path d="M12933 12909
L19607 12909
" />
<path d="M26637 8079
L26637 7279
" />
<path d="M26487 8229
L26637 8079
" />
<path d="M23237 8229
L26487 8229
" />
<path d="M22637 8829
L23237 8229
" />
<path d="M22637 9879
L22637 8829
" />
<path d="M19607 12909
L22637 9879
" />
<path d="M41387 13529
L39143 13529
" />
<path d="M39143 13529
L38523 12909
" />
<path d="M30137 12029
L30137 12429
" />
<path d="M30137 12429
L30687 12979
" />
<path d="M30687 12979
L34237 12979
" />
<path d="M34237 12979
L38387 8829
" />
<path d="M38387 8829
L38387 3529
" />
<path d="M31387 12029
L34087 12029
" />
<path d="M35387 10729
L35387 3529
" />
<path d="M34087 12029
L35387 10729
" />
</g>
<g style="fill:#008400; fill-opacity:0.0; 
stroke:#008400; stroke-width:200; stroke-opacity:1; 
stroke-linecap:round; stroke-linejoin:round;">
<path d="M36387 3529
L36387 8479
" />
<path d="M25137 10629
L25787 11279
" />
<path d="M25137 10629
L25137 9029
" />
<path d="M39387 3529
L39387 7179
" />
</g>
<g style="fill:#008400; fill-opacity:0.0; 
stroke:#008400; stroke-width:300; stroke-opacity:1; 
stroke-linecap:round; stroke-linejoin:round;">
<path d="M10137 6250
L18137 6250
" />
<path d="M19637 4750
L19637 3529
" />
<path d="M18137 6250
L19637 4750
" />
<path d="M15661 16059
L15675 16045
" />
</g>
<g style="fill:#008400; fill-opacity:1.0; 
stroke:#008400; stroke-width:100; stroke-opacity:1; 
stroke-linecap:round; stroke-linejoin:round;">
<polyline style="fill-rule:evenodd;"
points="43211,1331
43754,1694
44116,2237
44250,2906
44250,24502
44116,25171
43754,25714
43211,26077
42606,26197
42570,26190
9106,26190
9071,26197
8465,26077
7922,25714
7560,25171
7465,24697
8265,24697
8393,25007
8629,25243
8938,25371
9272,25372
9581,25244
9818,25008
9946,24699
9946,24365
9819,24055
9583,23819
9274,23691
8939,23690
8630,23818
8394,24054
8265,24363
8265,24697
7465,24697
7427,24502
7427,12779
8437,12779
8437,19950
8463,20077
8468,20103
8554,20232
10274,21952
10404,22038
10557,22069
10920,22069
10920,22259
10937,22352
10992,22437
11076,22494
11175,22514
11962,22514
12055,22497
12140,22442
12197,22359
12217,22259
12217,21816
14173,21816
14285,22089
14494,22298
14767,22411
15062,22411
15335,22298
15544,22090
15657,21817
15657,21522
15544,21249
15350,21055
16582,21055
16582,23562
17651,23562
17651,25562
34124,25562
34124,24697
41730,24697
41857,25007
42094,25243
42402,25371
42737,25372
43046,25244
43283,25008
43411,24699
43411,24365
43283,24055
43047,23819
42738,23691
42404,23690
42095,23818
41858,24054
41730,24363
41730,24697
34124,24697
34124,23562
35192,23562
35192,21816
35826,21816
35939,22089
36147,22298
36420,22411
36715,22411
36988,22298
37197,22090
37310,21817
37310,21719
39271,21719
39271,21916
39339,22158
39495,22356
39715,22479
39765,22492
39865,22445
39865,21719
39965,21719
39965,22445
40065,22492
40115,22479
40335,22356
40490,22158
40559,21916
40559,21719
39965,21719
39865,21719
39271,21719
37310,21719
37311,21522
37269,21422
39271,21422
39271,21619
39865,21619
39865,20893
39965,20893
39965,21619
40559,21619
40559,21422
40490,21179
40335,20981
40115,20858
40065,20846
39965,20893
39865,20893
39765,20846
39715,20858
39495,20981
39339,21179
39271,21422
37269,21422
37198,21249
36989,21040
36717,20927
36421,20927
36149,21039
35940,21248
35826,21521
35826,21816
35192,21816
35192,21562
35555,21562
35555,19055
33699,19055
33699,17305
18576,17305
18576,19055
16720,19055
16720,21055
16582,21055
15350,21055
15336,21040
15063,20927
14768,20927
14495,21039
14286,21248
14173,21521
14173,21816
12217,21816
12217,21078
12200,20986
12145,20901
12061,20843
11962,20823
11175,20823
11082,20841
10997,20896
10940,20979
10920,21078
10920,21269
10722,21269
9237,19784
9237,16512
12550,16512
12588,16617
12828,16707
13084,16697
13277,16617
13316,16512
12933,16129
12550,16512
9237,16512
9237,15037
9390,15037
9390,16021
9408,16114
9463,16199
9546,16256
9645,16276
10629,16276
10722,16258
10807,16204
10864,16120
10884,16021
10884,15954
12285,15954
12294,16210
12374,16403
12479,16442
12862,16059
13003,16059
13386,16442
13491,16403
13581,16163
13571,15907
13491,15714
13386,15676
13003,16059
12862,16059
12479,15676
12374,15714
12285,15954
10884,15954
10884,15900
10890,15899
11020,15812
11227,15605
12550,15605
12933,15988
13316,15605
13277,15500
13154,15454
14829,15454
14829,16635
14847,16728
14901,16813
14985,16870
15084,16890
16265,16890
16358,16873
16443,16818
16500,16734
16519,16641
20858,16641
20921,16766
21232,16888
21567,16882
21846,16766
21909,16641
21383,16115
20858,16641
16519,16641
16520,16635
16520,15894
20540,15894
20546,16228
20662,16507
20787,16570
21313,16045
21454,16045
21979,16570
22095,16512
38140,16512
38179,16617
38419,16707
38675,16697
38867,16617
38906,16512
38523,16129
38140,16512
22095,16512
22105,16507
22227,16196
22222,15954
37875,15954
37885,16210
37964,16403
38069,16442
38452,16059
38594,16059
38977,16442
39082,16403
39171,16163
39167,16054
40933,16054
40984,16169
41260,16275
41555,16267
41791,16169
41841,16054
41387,15600
40933,16054
39167,16054
39162,15907
39082,15714
38977,15676
38594,16059
38452,16059
38069,15676
37964,15714
37875,15954
22222,15954
22221,15862
22114,15605
38140,15605
38523,15988
38906,15605
38867,15500
38627,15411
38371,15420
38179,15500
38140,15605
22114,15605
22105,15582
21979,15519
21454,16045
21313,16045
20787,15519
20662,15582
20540,15894
16520,15894
16520,15454
16519,15449
20858,15449
21383,15974
21909,15449
21846,15323
21534,15201
21200,15208
20921,15323
20858,15449
16519,15449
16503,15362
16448,15276
16364,15219
16265,15199
15084,15199
14992,15217
14906,15272
14849,15355
14829,15454
13154,15454
13037,15411
12781,15420
12588,15500
12550,15605
11227,15605
11320,15512
11407,15382
11411,15360
11549,15222
11642,15000
11642,14759
11550,14537
11500,14487
11508,14479
11463,14434
11465,14433
15005,14433
15005,14961
15043,15053
15114,15123
15206,15161
15733,15161
15796,15098
15796,14370
15896,14370
15896,15098
15958,15161
16486,15161
16578,15123
16648,15053
16687,14961
16687,14487
19887,14487
20015,14796
20251,15033
20560,15161
20894,15161
21203,15033
21440,14797
21568,14488
21569,14154
21441,13845
21205,13608
20896,13480
20561,13480
20252,13607
20016,13844
19887,14152
19887,14487
16687,14487
16687,14433
16624,14370
15896,14370
15796,14370
15068,14370
15005,14433
11465,14433
11564,14400
11646,14174
11636,13934
11564,13758
11463,13724
11108,14079
11114,14085
11043,14155
11037,14150
11032,14155
10961,14085
10967,14079
10961,14073
11032,14003
11037,14008
11366,13680
15005,13680
15005,14208
15068,14270
15796,14270
15796,13542
15896,13542
15896,14270
16624,14270
16687,14208
16687,13680
16648,13588
16578,13518
16486,13480
15958,13480
15896,13542
15796,13542
15733,13480
15206,13480
15114,13518
15043,13588
15005,13680
11366,13680
11392,13654
11358,13553
11132,13470
10892,13480
10878,13486
10875,13362
10777,13126
10662,13075
10208,13529
10214,13535
10143,13605
10137,13600
9683,14054
9734,14169
10010,14275
10305,14267
10438,14212
10439,14224
10511,14400
10612,14434
10567,14479
10575,14487
10525,14536
10433,14758
10433,14782
9645,14782
9553,14800
9468,14854
9410,14938
9390,15037
9237,15037
9237,13401
9392,13401
9400,13697
9497,13932
9612,13983
10067,13529
9612,13075
9497,13126
9392,13401
9237,13401
9237,13004
9683,13004
10137,13458
10591,13004
10541,12889
10265,12783
9970,12791
9734,12889
9683,13004
9237,13004
9237,12945
10553,11629
19187,11629
19315,11604
19340,11599
19470,11512
22258,8724
22237,8829
22237,9713
19442,12509
13443,12509
13298,12364
13061,12265
12805,12265
12568,12363
12387,12544
12289,12780
12289,13036
12387,13273
12567,13454
12804,13553
13060,13553
13297,13455
13443,13309
19607,13309
19735,13284
19760,13279
19890,13192
20595,12487
23500,12487
23539,12593
23782,12683
24040,12674
24235,12593
24275,12487
23887,12100
23500,12487
20595,12487
21159,11923
23233,11923
23242,12182
23323,12377
23429,12417
23817,12029
23429,11641
23323,11681
23233,11923
21159,11923
21511,11571
23500,11571
23887,11958
24275,11571
24235,11465
23993,11375
23735,11384
23539,11465
23500,11571
21511,11571
22920,10162
23007,10032
23037,9879
23037,8995
23312,8720
23237,8899
23237,9158
23336,9397
23519,9580
23757,9679
24016,9679
24255,9580
24438,9398
24512,9219
24586,9397
24769,9580
24787,9588
24787,10629
24814,10763
24858,10829
24890,10877
25444,11431
25455,11457
25267,11379
25009,11379
24770,11478
24587,11660
24515,11834
24451,11681
24346,11641
23958,12029
24346,12417
24451,12377
24511,12216
24586,12397
24769,12580
25007,12679
25266,12679
25505,12580
25688,12398
25787,12159
25787,11900
25689,11661
25659,11632
25712,11654
25862,11654
25999,11597
26105,11492
26162,11354
26162,11205
26105,11067
26000,10961
25939,10936
25487,10484
25487,9588
25505,9580
25688,9398
25787,9159
25787,8900
25689,8661
25656,8629
26237,8629
26237,9879
26263,10007
26268,10032
26354,10162
30004,13812
30134,13899
30160,13904
30287,13929
34587,13929
34715,13904
34740,13899
34870,13812
35373,13309
38013,13309
38158,13454
38395,13553
38601,13553
38860,13812
38898,13837
38990,13899
39143,13929
39937,13929
39883,14058
39883,14299
39975,14521
40025,14571
40017,14579
40062,14624
39961,14658
39878,14884
39889,15124
39961,15300
40062,15334
40417,14979
40411,14973
40482,14903
40487,14908
40493,14903
40564,14973
40558,14979
40564,14985
40493,15055
40487,15050
40133,15404
40167,15505
40393,15588
40633,15578
40646,15572
40650,15697
40747,15932
40862,15983
41317,15529
41458,15529
41912,15983
42027,15932
42133,15657
42125,15362
42027,15126
41912,15075
41458,15529
41317,15529
41311,15523
41382,15453
41387,15458
41841,15004
41791,14889
41515,14783
41220,14791
41087,14846
41086,14834
41014,14658
40913,14624
40958,14579
40950,14571
40999,14522
41092,14300
41092,14276
41879,14276
41972,14258
42057,14204
42114,14120
42134,14021
42134,13037
42117,12944
42062,12859
41978,12802
41879,12782
40895,12782
40803,12800
40718,12854
40660,12938
40640,13037
40640,13129
39309,13129
39167,12987
39167,12781
39069,12545
38888,12364
38652,12265
38396,12265
38159,12363
38013,12509
35273,12509
38670,9112
38757,8982
38769,8919
38787,8829
38787,8554
40933,8554
40984,8669
41260,8775
41555,8767
41791,8669
41841,8554
41387,8100
40933,8554
38787,8554
38787,4080
38805,4107
38888,4164
38987,4184
39037,4184
39037,7044
39012,7104
39012,7253
39069,7391
39175,7497
39312,7554
39462,7554
39599,7497
39705,7392
39708,7384
39878,7384
39889,7624
39961,7800
40062,7834
40417,7479
40411,7473
40482,7403
40487,7408
40493,7403
40564,7473
40558,7479
40564,7485
40493,7555
40487,7550
40133,7904
40167,8005
40393,8088
40633,8078
40646,8072
40650,8197
40747,8432
40862,8483
41317,8029
41458,8029
41912,8483
42027,8432
42133,8157
42125,7862
42027,7626
41912,7575
41458,8029
41317,8029
41311,8023
41382,7953
41387,7958
41841,7504
41791,7389
41515,7283
41220,7291
41087,7346
41086,7334
41014,7158
40913,7124
40958,7079
40950,7071
40999,7022
41092,6800
41092,6776
41879,6776
41972,6758
42057,6704
42114,6620
42134,6521
42134,5537
42117,5444
42062,5359
41978,5302
41879,5282
40895,5282
40803,5300
40718,5354
40660,5438
40640,5537
40640,5960
40526,6075
40368,6075
40145,6166
39975,6336
39883,6558
39883,6799
39975,7021
40025,7071
40017,7079
40062,7124
39961,7158
39878,7384
39708,7384
39762,7254
39762,7105
39737,7044
39737,4184
39787,4184
39880,4166
39965,4112
40022,4028
40042,3929
40042,3129
40026,3044
41730,3044
41857,3353
42094,3590
42402,3718
42737,3718
43046,3590
43283,3354
43411,3045
43411,2711
43283,2402
43047,2165
42738,2037
42404,2037
42095,2164
41858,2401
41730,2710
41730,3044
40026,3044
40025,3036
39970,2951
39886,2894
39787,2874
38987,2874
38895,2892
38810,2946
38775,2997
38756,2978
38517,2879
38259,2879
38020,2978
37837,3160
37737,3399
37737,3658
37836,3897
37987,4048
37987,8663
35733,10917
35742,10904
35757,10882
35787,10729
35787,4080
35805,4107
35888,4164
35987,4184
36037,4184
36037,8344
36012,8404
36012,8553
36069,8691
36175,8797
36312,8854
36462,8854
36599,8797
36705,8692
36762,8554
36762,8405
36737,8344
36737,4184
36787,4184
36880,4166
36965,4112
37022,4028
37042,3929
37042,3129
37025,3036
36970,2951
36886,2894
36787,2874
35987,2874
35895,2892
35810,2946
35775,2997
35756,2978
35517,2879
35259,2879
35020,2978
34837,3160
34737,3399
34737,3658
34836,3897
34987,4048
34987,10563
33922,11629
31906,11629
31756,11478
31517,11379
31259,11379
31020,11478
30837,11660
30762,11839
30689,11661
30506,11478
30267,11379
30009,11379
29770,11478
29587,11660
29487,11899
29487,12158
29491,12167
27037,9713
27037,7934
27130,7916
27215,7862
27272,7778
27292,7679
27292,7173
27983,7173
27992,7432
28073,7627
28179,7667
28567,7279
28179,6891
28073,6931
27983,7173
27292,7173
27292,6879
27275,6786
27220,6701
27136,6644
27037,6624
26237,6624
26145,6642
26060,6696
26007,6773
25985,6715
25743,6625
25485,6634
25289,6715
25250,6821
25637,7208
25643,7203
25714,7273
25708,7279
25714,7285
25643,7355
25637,7350
25250,7737
25284,7829
23237,7829
23132,7850
23809,7173
24983,7173
24992,7432
25073,7627
25179,7667
25567,7279
25179,6891
25073,6931
24983,7173
23809,7173
24210,6772
24297,6642
24327,6489
24327,5800
30987,5800
30987,8510
30868,8629
30656,8629
30506,8478
30267,8379
30153,8379
30037,8263
30037,7934
30130,7916
30215,7862
30272,7778
30292,7679
30292,6879
30275,6786
30220,6701
30136,6644
30037,6624
29237,6624
29145,6642
29060,6696
29007,6773
28985,6715
28743,6625
28485,6634
28289,6715
28250,6821
28637,7208
28643,7203
28714,7273
28708,7279
28714,7285
28643,7355
28637,7350
28250,7737
28289,7843
28532,7933
28790,7924
28985,7843
29008,7784
29055,7857
29138,7914
29237,7934
29237,8429
29257,8529
29268,8582
29354,8712
29503,8861
29487,8899
29487,9158
29586,9397
29769,9580
30007,9679
30266,9679
30505,9580
30657,9429
30868,9429
31019,9580
31257,9679
31516,9679
31755,9580
31938,9398
32037,9159
32037,8900
31939,8661
31787,8510
31787,4980
31879,4942
31930,4891
31938,4899
31983,4854
32017,4955
32243,5038
32483,5028
32658,4955
32692,4854
32337,4500
32332,4505
32261,4435
32267,4429
32261,4423
32332,4353
32337,4358
32343,4353
32414,4423
32408,4429
32763,4784
32864,4750
32946,4524
32936,4284
32930,4270
33055,4267
33291,4169
33341,4054
32887,3600
32882,3605
32811,3535
32817,3529
32958,3529
33412,3983
33527,3932
33633,3657
33625,3362
33527,3126
33412,3075
32958,3529
32817,3529
32362,3075
32247,3126
32142,3401
32150,3697
32205,3830
32192,3830
32017,3903
31983,4004
31938,3959
31930,3967
31880,3917
31658,3825
31634,3825
31634,3037
31628,3004
32433,3004
32887,3458
33341,3004
33291,2889
33015,2783
32720,2791
32484,2889
32433,3004
31628,3004
31617,2944
31562,2859
31478,2802
31379,2782
30395,2782
30303,2800
30218,2854
30160,2938
30140,3037
30140,4021
30158,4114
30213,4199
30296,4256
30395,4276
30819,4276
30933,4390
30933,4549
30987,4680
30987,5000
24327,5000
24327,3818
24502,3644
24550,3527
24594,3633
24775,3814
25012,3913
25268,3913
25504,3815
25686,3634
25727,3534
25772,3643
25953,3824
26190,3923
26446,3923
26683,3825
26864,3644
26962,3408
26962,3152
26864,2915
26858,2908
27131,2908
27131,3650
27168,3836
27274,3994
27432,4099
27618,4136
27804,4099
27961,3994
28067,3836
28104,3650
28104,2908
28067,2722
27961,2564
27804,2459
27618,2422
27432,2459
27274,2564
27168,2722
27131,2908
26858,2908
26684,2734
26447,2635
26191,2635
25954,2733
25773,2914
25731,3014
25686,2905
25505,2724
25269,2625
25013,2625
24776,2723
24595,2904
24546,3021
24502,2915
24321,2734
24085,2635
23829,2635
23592,2733
23411,2914
23313,3150
23312,3407
23410,3643
23527,3761
23527,6323
20536,9315
20536,9145
20452,8942
20298,8787
20096,8704
19877,8703
19675,8787
19520,8941
19486,9023
19452,8942
19298,8787
19096,8704
18877,8703
18675,8787
18520,8941
18486,9023
18452,8942
18298,8787
18096,8704
17877,8703
17675,8787
17520,8941
17486,9023
17452,8942
17298,8787
17096,8704
16877,8703
16675,8787
16520,8941
16436,9144
16436,9362
16519,9565
16674,9719
16876,9803
17095,9804
17297,9720
17452,9565
17486,9484
17519,9565
17674,9719
17876,9803
18095,9804
18297,9720
18452,9565
18486,9484
18519,9565
18674,9719
18876,9803
19095,9804
19297,9720
19452,9565
19486,9484
19519,9565
19674,9719
19876,9803
20047,9803
19022,10829
10387,10829
10260,10854
10234,10859
10104,10946
8554,12496
8468,12626
8468,12626
8437,12779
7427,12779
7427,7758
9390,7758
9390,8742
9408,8834
9463,8919
9546,8976
9645,8996
10629,8996
10722,8979
10807,8924
10864,8841
10884,8742
10884,7758
10867,7665
10812,7580
10728,7523
10629,7503
9645,7503
9553,7520
9468,7575
9410,7658
9390,7758
7427,7758
7427,6396
9395,6396
9508,6669
9716,6878
9989,6991
10284,6992
10557,6879
10766,6670
10775,6650
18137,6650
18265,6624
18290,6619
18420,6532
19920,5032
20007,4903
20037,4750
20037,4167
20057,4158
20266,3950
20379,3677
20379,3382
20267,3109
20066,2908
22171,2908
22171,3650
22208,3836
22313,3994
22471,4099
22657,4136
22843,4099
23001,3994
23106,3836
23143,3650
23143,2908
23106,2722
23001,2564
22843,2459
22657,2422
22471,2459
22313,2564
22208,2722
22171,2908
20066,2908
20058,2900
19786,2787
19490,2787
19218,2900
19009,3108
18895,3381
18895,3676
19008,3949
19216,4158
19237,4166
19237,4584
17972,5850
10775,5850
10767,5830
10558,5621
10286,5508
9990,5507
9718,5620
9509,5829
9395,6101
9395,6396
7427,6396
7427,3044
8265,3044
8393,3353
8629,3590
8938,3718
9272,3718
9581,3590
9818,3354
9946,3045
9946,3037
16890,3037
16890,4021
16908,4114
16963,4199
17046,4256
17145,4276
18129,4276
18222,4258
18307,4204
18364,4120
18384,4021
18384,3037
18367,2944
18312,2859
18228,2802
18129,2782
17145,2782
17053,2800
16968,2854
16910,2938
16890,3037
9946,3037
9946,2711
9819,2402
9583,2165
9274,2037
8939,2037
8630,2164
8394,2401
8265,2710
8265,3044
7427,3044
7427,2906
7560,2237
7922,1694
8465,1331
9071,1211
9106,1218
42570,1218
42606,1211
43211,1331
" /> 
</g>
<g style="fill:#FFFFFF; fill-opacity:1.0; 
stroke:#FFFFFF; stroke-width:100; stroke-opacity:1; 
stroke-linecap:round; stroke-linejoin:round;">
</g>
<g style="fill:#FFFFFF; fill-opacity:1.0; 
stroke:#FFFFFF; stroke-width:0; stroke-opacity:1; 
stroke-linecap:round; stroke-linejoin:round;">
<circle cx="36387.8" cy="8479.53" r="100" /> 
</g>
<g style="fill:#FFFFFF; fill-opacity:1.0; 
stroke:#FFFFFF; stroke-width:39.3701; stroke-opacity:1; 
stroke-linecap:round; stroke-linejoin:round;">
</g>
<g style="fill:#FFFFFF; fill-opacity:1.0; 
stroke:#FFFFFF; stroke-width:0; stroke-opacity:1; 
stroke-linecap:round; stroke-linejoin:round;">
<circle cx="25787.8" cy="11279.5" r="100" /> 
</g>
<g style="fill:#FFFFFF; fill-opacity:1.0; 
stroke:#FFFFFF; stroke-width:39.3701; stroke-opacity:1; 
stroke-linecap:round; stroke-linejoin:round;">
</g>
<g style="fill:#FFFFFF; fill-opacity:1.0; 
stroke:#FFFFFF; stroke-width:0; stroke-opacity:1; 
stroke-linecap:round; stroke-linejoin:round;">
<circle cx="39387.8" cy="7179.53" r="100" /> 
</g>
<g style="fill:#FFFFFF; fill-opacity:1.0; 
stroke:#FFFFFF; stroke-width:39.3701; stroke-opacity:1; 
stroke-linecap:round; stroke-linejoin:round;">
</g>
<g style="fill:#FFFFFF; fill-opacity:1.0; 
stroke:#FFFFFF; stroke-width:0; stroke-opacity:1; 
stroke-linecap:round; stroke-linejoin:round;">
<circle cx="12933.1" cy="16059.1" r="196.85" /> 
</g>
<g style="fill:#FFFFFF; fill-opacity:1.0; 
stroke:#FFFFFF; stroke-width:39.3701; stroke-opacity:1; 
stroke-linecap:round; stroke-linejoin:round;">
</g>
<g style="fill:#FFFFFF; fill-opacity:1.0; 
stroke:#FFFFFF; stroke-width:0; stroke-opacity:1; 
stroke-linecap:round; stroke-linejoin:round;">
<circle cx="12933.1" cy="12909.4" r="196.85" /> 
</g>
<g style="fill:#FFFFFF; fill-opacity:1.0; 
stroke:#FFFFFF; stroke-width:39.3701; stroke-opacity:1; 
stroke-linecap:round; stroke-linejoin:round;">
</g>
<g style="fill:#FFFFFF; fill-opacity:1.0; 
stroke:#FFFFFF; stroke-width:0; stroke-opacity:1; 
stroke-linecap:round; stroke-linejoin:round;">
<circle cx="38523.6" cy="16059.1" r="196.85" /> 
</g>
<g style="fill:#FFFFFF; fill-opacity:1.0; 
stroke:#FFFFFF; stroke-width:39.3701; stroke-opacity:1; 
stroke-linecap:round; stroke-linejoin:round;">
</g>
<g style="fill:#FFFFFF; fill-opacity:1.0; 
stroke:#FFFFFF; stroke-width:0; stroke-opacity:1; 
stroke-linecap:round; stroke-linejoin:round;">
<circle cx="38523.6" cy="12909.4" r="196.85" /> 
</g>
<g style="fill:#FFFFFF; fill-opacity:1.0; 
stroke:#FFFFFF; stroke-width:39.3701; stroke-opacity:1; 
stroke-linecap:round; stroke-linejoin:round;">
</g>
<g style="fill:#FFFFFF; fill-opacity:1.0; 
stroke:#FFFFFF; stroke-width:0; stroke-opacity:1; 
stroke-linecap:round; stroke-linejoin:round;">
<circle cx="20728.3" cy="14320.9" r="196.85" /> 
</g>
<g style="fill:#FFFFFF; fill-opacity:1.0; 
stroke:#FFFFFF; stroke-width:39.3701; stroke-opacity:1; 
stroke-linecap:round; stroke-linejoin:round;">
</g>
<g style="fill:#FFFFFF; fill-opacity:1.0; 
stroke:#FFFFFF; stroke-width:0; stroke-opacity:1; 
stroke-linecap:round; stroke-linejoin:round;">
<circle cx="15846.5" cy="14320.9" r="196.85" /> 
</g>
<g style="fill:#FFFFFF; fill-opacity:1.0; 
stroke:#FFFFFF; stroke-width:39.3701; stroke-opacity:1; 
stroke-linecap:round; stroke-linejoin:round;">
</g>
<g style="fill:#FFFFFF; fill-opacity:1.0; 
stroke:#FFFFFF; stroke-width:0; stroke-opacity:1; 
stroke-linecap:round; stroke-linejoin:round;">
<circle cx="15675.2" cy="16045.3" r="196.85" /> 
</g>
<g style="fill:#FFFFFF; fill-opacity:1.0; 
stroke:#FFFFFF; stroke-width:39.3701; stroke-opacity:1; 
stroke-linecap:round; stroke-linejoin:round;">
</g>
<g style="fill:#FFFFFF; fill-opacity:1.0; 
stroke:#FFFFFF; stroke-width:0; stroke-opacity:1; 
stroke-linecap:round; stroke-linejoin:round;">
<circle cx="21383.9" cy="16045.3" r="196.85" /> 
</g>
<g style="fill:#FFFFFF; fill-opacity:1.0; 
stroke:#FFFFFF; stroke-width:39.3701; stroke-opacity:1; 
stroke-linecap:round; stroke-linejoin:round;">
</g>
<g style="fill:#FFFFFF; fill-opacity:1.0; 
stroke:#FFFFFF; stroke-width:0; stroke-opacity:1; 
stroke-linecap:round; stroke-linejoin:round;">
<circle cx="16986.2" cy="9253.94" r="150" /> 
</g>
<g style="fill:#FFFFFF; fill-opacity:1.0; 
stroke:#FFFFFF; stroke-width:39.3701; stroke-opacity:1; 
stroke-linecap:round; stroke-linejoin:round;">
</g>
<g style="fill:#FFFFFF; fill-opacity:1.0; 
stroke:#FFFFFF; stroke-width:0; stroke-opacity:1; 
stroke-linecap:round; stroke-linejoin:round;">
<circle cx="17986.2" cy="9253.94" r="150" /> 
</g>
<g style="fill:#FFFFFF; fill-opacity:1.0; 
stroke:#FFFFFF; stroke-width:39.3701; stroke-opacity:1; 
stroke-linecap:round; stroke-linejoin:round;">
</g>
<g style="fill:#FFFFFF; fill-opacity:1.0; 
stroke:#FFFFFF; stroke-width:0; stroke-opacity:1; 
stroke-linecap:round; stroke-linejoin:round;">
<circle cx="18986.2" cy="9253.94" r="150" /> 
</g>
<g style="fill:#FFFFFF; fill-opacity:1.0; 
stroke:#FFFFFF; stroke-width:39.3701; stroke-opacity:1; 
stroke-linecap:round; stroke-linejoin:round;">
</g>
<g style="fill:#FFFFFF; fill-opacity:1.0; 
stroke:#FFFFFF; stroke-width:0; stroke-opacity:1; 
stroke-linecap:round; stroke-linejoin:round;">
<circle cx="19986.2" cy="9253.94" r="150" /> 
</g>
<g style="fill:#FFFFFF; fill-opacity:1.0; 
stroke:#FFFFFF; stroke-width:39.3701; stroke-opacity:1; 
stroke-linecap:round; stroke-linejoin:round;">
</g>
<g style="fill:#FFFFFF; fill-opacity:1.0; 
stroke:#FFFFFF; stroke-width:0; stroke-opacity:1; 
stroke-linecap:round; stroke-linejoin:round;">
<circle cx="23887.8" cy="9029.53" r="157.5" /> 
</g>
<g style="fill:#FFFFFF; fill-opacity:1.0; 
stroke:#FFFFFF; stroke-width:39.3701; stroke-opacity:1; 
stroke-linecap:round; stroke-linejoin:round;">
</g>
<g style="fill:#FFFFFF; fill-opacity:1.0; 
stroke:#FFFFFF; stroke-width:0; stroke-opacity:1; 
stroke-linecap:round; stroke-linejoin:round;">
<circle cx="23887.8" cy="12029.5" r="157.5" /> 
</g>
<g style="fill:#FFFFFF; fill-opacity:1.0; 
stroke:#FFFFFF; stroke-width:39.3701; stroke-opacity:1; 
stroke-linecap:round; stroke-linejoin:round;">
</g>
<g style="fill:#FFFFFF; fill-opacity:1.0; 
stroke:#FFFFFF; stroke-width:0; stroke-opacity:1; 
stroke-linecap:round; stroke-linejoin:round;">
<circle cx="25137.8" cy="12029.5" r="157.5" /> 
</g>
<g style="fill:#FFFFFF; fill-opacity:1.0; 
stroke:#FFFFFF; stroke-width:39.3701; stroke-opacity:1; 
stroke-linecap:round; stroke-linejoin:round;">
</g>
<g style="fill:#FFFFFF; fill-opacity:1.0; 
stroke:#FFFFFF; stroke-width:0; stroke-opacity:1; 
stroke-linecap:round; stroke-linejoin:round;">
<circle cx="25137.8" cy="9029.53" r="157.5" /> 
</g>
<g style="fill:#FFFFFF; fill-opacity:1.0; 
stroke:#FFFFFF; stroke-width:39.3701; stroke-opacity:1; 
stroke-linecap:round; stroke-linejoin:round;">
</g>
<g style="fill:#FFFFFF; fill-opacity:1.0; 
stroke:#FFFFFF; stroke-width:0; stroke-opacity:1; 
stroke-linecap:round; stroke-linejoin:round;">
<circle cx="30137.8" cy="9029.53" r="157.5" /> 
</g>
<g style="fill:#FFFFFF; fill-opacity:1.0; 
stroke:#FFFFFF; stroke-width:39.3701; stroke-opacity:1; 
stroke-linecap:round; stroke-linejoin:round;">
</g>
<g style="fill:#FFFFFF; fill-opacity:1.0; 
stroke:#FFFFFF; stroke-width:0; stroke-opacity:1; 
stroke-linecap:round; stroke-linejoin:round;">
<circle cx="30137.8" cy="12029.5" r="157.5" /> 
</g>
<g style="fill:#FFFFFF; fill-opacity:1.0; 
stroke:#FFFFFF; stroke-width:39.3701; stroke-opacity:1; 
stroke-linecap:round; stroke-linejoin:round;">
</g>
<g style="fill:#FFFFFF; fill-opacity:1.0; 
stroke:#FFFFFF; stroke-width:0; stroke-opacity:1; 
stroke-linecap:round; stroke-linejoin:round;">
<circle cx="31387.8" cy="9029.53" r="157.5" /> 
</g>
<g style="fill:#FFFFFF; fill-opacity:1.0; 
stroke:#FFFFFF; stroke-width:39.3701; stroke-opacity:1; 
stroke-linecap:round; stroke-linejoin:round;">
</g>
<g style="fill:#FFFFFF; fill-opacity:1.0; 
stroke:#FFFFFF; stroke-width:0; stroke-opacity:1; 
stroke-linecap:round; stroke-linejoin:round;">
<circle cx="31387.8" cy="12029.5" r="157.5" /> 
</g>
<g style="fill:#FFFFFF; fill-opacity:1.0; 
stroke:#FFFFFF; stroke-width:39.3701; stroke-opacity:1; 
stroke-linecap:round; stroke-linejoin:round;">
</g>
<g style="fill:#FFFFFF; fill-opacity:1.0; 
stroke:#FFFFFF; stroke-width:0; stroke-opacity:1; 
stroke-linecap:round; stroke-linejoin:round;">
<circle cx="26637.8" cy="7279.53" r="157.5" /> 
</g>
<g style="fill:#FFFFFF; fill-opacity:1.0; 
stroke:#FFFFFF; stroke-width:39.3701; stroke-opacity:1; 
stroke-linecap:round; stroke-linejoin:round;">
</g>
<g style="fill:#FFFFFF; fill-opacity:1.0; 
stroke:#FFFFFF; stroke-width:0; stroke-opacity:1; 
stroke-linecap:round; stroke-linejoin:round;">
<circle cx="25637.8" cy="7279.53" r="157.5" /> 
</g>
<g style="fill:#FFFFFF; fill-opacity:1.0; 
stroke:#FFFFFF; stroke-width:39.3701; stroke-opacity:1; 
stroke-linecap:round; stroke-linejoin:round;">
</g>
<g style="fill:#FFFFFF; fill-opacity:1.0; 
stroke:#FFFFFF; stroke-width:0; stroke-opacity:1; 
stroke-linecap:round; stroke-linejoin:round;">
<circle cx="29637.8" cy="7279.53" r="157.5" /> 
</g>
<g style="fill:#FFFFFF; fill-opacity:1.0; 
stroke:#FFFFFF; stroke-width:39.3701; stroke-opacity:1; 
stroke-linecap:round; stroke-linejoin:round;">
</g>
<g style="fill:#FFFFFF; fill-opacity:1.0; 
stroke:#FFFFFF; stroke-width:0; stroke-opacity:1; 
stroke-linecap:round; stroke-linejoin:round;">
<circle cx="28637.8" cy="7279.53" r="157.5" /> 
</g>
<g style="fill:#FFFFFF; fill-opacity:1.0; 
stroke:#FFFFFF; stroke-width:39.3701; stroke-opacity:1; 
stroke-linecap:round; stroke-linejoin:round;">
</g>
<g style="fill:#FFFFFF; fill-opacity:1.0; 
stroke:#FFFFFF; stroke-width:0; stroke-opacity:1; 
stroke-linecap:round; stroke-linejoin:round;">
<circle cx="17637.8" cy="3529.53" r="197" /> 
</g>
<g style="fill:#FFFFFF; fill-opacity:1.0; 
stroke:#FFFFFF; stroke-width:39.3701; stroke-opacity:1; 
stroke-linecap:round; stroke-linejoin:round;">
</g>
<g style="fill:#FFFFFF; fill-opacity:1.0; 
stroke:#FFFFFF; stroke-width:0; stroke-opacity:1; 
stroke-linecap:round; stroke-linejoin:round;">
<circle cx="19637.8" cy="3529.53" r="197" /> 
</g>
<g style="fill:#FFFFFF; fill-opacity:1.0; 
stroke:#FFFFFF; stroke-width:39.3701; stroke-opacity:1; 
stroke-linecap:round; stroke-linejoin:round;">
</g>
<g style="fill:#FFFFFF; fill-opacity:1.0; 
stroke:#FFFFFF; stroke-width:0; stroke-opacity:1; 
stroke-linecap:round; stroke-linejoin:round;">
<circle cx="36568.9" cy="21669.3" r="492.126" /> 
</g>
<g style="fill:#FFFFFF; fill-opacity:1.0; 
stroke:#FFFFFF; stroke-width:39.3701; stroke-opacity:1; 
stroke-linecap:round; stroke-linejoin:round;">
</g>
<g style="fill:#FFFFFF; fill-opacity:1.0; 
stroke:#FFFFFF; stroke-width:196.85; stroke-opacity:1; 
stroke-linecap:round; stroke-linejoin:round;">
</g>
<g style="fill:#FFFFFF; fill-opacity:0.0; 
stroke:#FFFFFF; stroke-width:196.85; stroke-opacity:1; 
stroke-linecap:round; stroke-linejoin:round;">
<path d="M11568 21452
L11568 21885
" />
<path d="M39915 21452
L39915 21885
" />
</g>
<g style="fill:#FFFFFF; fill-opacity:1.0; 
stroke:#FFFFFF; stroke-width:0; stroke-opacity:1; 
stroke-linecap:round; stroke-linejoin:round;">
<circle cx="14915.4" cy="21669.3" r="492.126" /> 
</g>
<g style="fill:#FFFFFF; fill-opacity:1.0; 
stroke:#FFFFFF; stroke-width:39.3701; stroke-opacity:1; 
stroke-linecap:round; stroke-linejoin:round;">
</g>
<g style="fill:#FFFFFF; fill-opacity:1.0; 
stroke:#FFFFFF; stroke-width:0; stroke-opacity:1; 
stroke-linecap:round; stroke-linejoin:round;">
<circle cx="30887.8" cy="3529.53" r="197" /> 
</g>
<g style="fill:#FFFFFF; fill-opacity:1.0; 
stroke:#FFFFFF; stroke-width:39.3701; stroke-opacity:1; 
stroke-linecap:round; stroke-linejoin:round;">
</g>
<g style="fill:#FFFFFF; fill-opacity:1.0; 
stroke:#FFFFFF; stroke-width:0; stroke-opacity:1; 
stroke-linecap:round; stroke-linejoin:round;">
<circle cx="32887.8" cy="3529.53" r="197" /> 
</g>
<g style="fill:#FFFFFF; fill-opacity:1.0; 
stroke:#FFFFFF; stroke-width:39.3701; stroke-opacity:1; 
stroke-linecap:round; stroke-linejoin:round;">
</g>
<g style="fill:#FFFFFF; fill-opacity:1.0; 
stroke:#FFFFFF; stroke-width:0; stroke-opacity:1; 
stroke-linecap:round; stroke-linejoin:round;">
<circle cx="31537.8" cy="4429.53" r="157.48" /> 
</g>
<g style="fill:#FFFFFF; fill-opacity:1.0; 
stroke:#FFFFFF; stroke-width:39.3701; stroke-opacity:1; 
stroke-linecap:round; stroke-linejoin:round;">
</g>
<g style="fill:#FFFFFF; fill-opacity:1.0; 
stroke:#FFFFFF; stroke-width:0; stroke-opacity:1; 
stroke-linecap:round; stroke-linejoin:round;">
<circle cx="32337.8" cy="4429.53" r="157.48" /> 
</g>
<g style="fill:#FFFFFF; fill-opacity:1.0; 
stroke:#FFFFFF; stroke-width:39.3701; stroke-opacity:1; 
stroke-linecap:round; stroke-linejoin:round;">
</g>
<g style="fill:#FFFFFF; fill-opacity:1.0; 
stroke:#FFFFFF; stroke-width:0; stroke-opacity:1; 
stroke-linecap:round; stroke-linejoin:round;">
<circle cx="38387.8" cy="3529.53" r="160" /> 
</g>
<g style="fill:#FFFFFF; fill-opacity:1.0; 
stroke:#FFFFFF; stroke-width:39.3701; stroke-opacity:1; 
stroke-linecap:round; stroke-linejoin:round;">
</g>
<g style="fill:#FFFFFF; fill-opacity:1.0; 
stroke:#FFFFFF; stroke-width:0; stroke-opacity:1; 
stroke-linecap:round; stroke-linejoin:round;">
<circle cx="39387.8" cy="3529.53" r="160" /> 
</g>
<g style="fill:#FFFFFF; fill-opacity:1.0; 
stroke:#FFFFFF; stroke-width:39.3701; stroke-opacity:1; 
stroke-linecap:round; stroke-linejoin:round;">
</g>
<g style="fill:#FFFFFF; fill-opacity:1.0; 
stroke:#FFFFFF; stroke-width:0; stroke-opacity:1; 
stroke-linecap:round; stroke-linejoin:round;">
<circle cx="35387.8" cy="3529.53" r="160" /> 
</g>
<g style="fill:#FFFFFF; fill-opacity:1.0; 
stroke:#FFFFFF; stroke-width:39.3701; stroke-opacity:1; 
stroke-linecap:round; stroke-linejoin:round;">
</g>
<g style="fill:#FFFFFF; fill-opacity:1.0; 
stroke:#FFFFFF; stroke-width:0; stroke-opacity:1; 
stroke-linecap:round; stroke-linejoin:round;">
<circle cx="36387.8" cy="3529.53" r="160" /> 
</g>
<g style="fill:#FFFFFF; fill-opacity:1.0; 
stroke:#FFFFFF; stroke-width:39.3701; stroke-opacity:1; 
stroke-linecap:round; stroke-linejoin:round;">
</g>
<g style="fill:#FFFFFF; fill-opacity:1.0; 
stroke:#FFFFFF; stroke-width:0; stroke-opacity:1; 
stroke-linecap:round; stroke-linejoin:round;">
<circle cx="41387.8" cy="6029.53" r="197" /> 
</g>
<g style="fill:#FFFFFF; fill-opacity:1.0; 
stroke:#FFFFFF; stroke-width:39.3701; stroke-opacity:1; 
stroke-linecap:round; stroke-linejoin:round;">
</g>
<g style="fill:#FFFFFF; fill-opacity:1.0; 
stroke:#FFFFFF; stroke-width:0; stroke-opacity:1; 
stroke-linecap:round; stroke-linejoin:round;">
<circle cx="41387.8" cy="8029.53" r="197" /> 
</g>
<g style="fill:#FFFFFF; fill-opacity:1.0; 
stroke:#FFFFFF; stroke-width:39.3701; stroke-opacity:1; 
stroke-linecap:round; stroke-linejoin:round;">
</g>
<g style="fill:#FFFFFF; fill-opacity:1.0; 
stroke:#FFFFFF; stroke-width:0; stroke-opacity:1; 
stroke-linecap:round; stroke-linejoin:round;">
<circle cx="40487.8" cy="6679.53" r="157.48" /> 
</g>
<g style="fill:#FFFFFF; fill-opacity:1.0; 
stroke:#FFFFFF; stroke-width:39.3701; stroke-opacity:1; 
stroke-linecap:round; stroke-linejoin:round;">
</g>
<g style="fill:#FFFFFF; fill-opacity:1.0; 
stroke:#FFFFFF; stroke-width:0; stroke-opacity:1; 
stroke-linecap:round; stroke-linejoin:round;">
<circle cx="40487.8" cy="7479.53" r="157.48" /> 
</g>
<g style="fill:#FFFFFF; fill-opacity:1.0; 
stroke:#FFFFFF; stroke-width:39.3701; stroke-opacity:1; 
stroke-linecap:round; stroke-linejoin:round;">
</g>
<g style="fill:#FFFFFF; fill-opacity:1.0; 
stroke:#FFFFFF; stroke-width:0; stroke-opacity:1; 
stroke-linecap:round; stroke-linejoin:round;">
<circle cx="10137.8" cy="8250" r="197" /> 
</g>
<g style="fill:#FFFFFF; fill-opacity:1.0; 
stroke:#FFFFFF; stroke-width:39.3701; stroke-opacity:1; 
stroke-linecap:round; stroke-linejoin:round;">
</g>
<g style="fill:#FFFFFF; fill-opacity:1.0; 
stroke:#FFFFFF; stroke-width:0; stroke-opacity:1; 
stroke-linecap:round; stroke-linejoin:round;">
<circle cx="10137.8" cy="6250" r="197" /> 
</g>
<g style="fill:#FFFFFF; fill-opacity:1.0; 
stroke:#FFFFFF; stroke-width:39.3701; stroke-opacity:1; 
stroke-linecap:round; stroke-linejoin:round;">
</g>
<g style="fill:#FFFFFF; fill-opacity:1.0; 
stroke:#FFFFFF; stroke-width:0; stroke-opacity:1; 
stroke-linecap:round; stroke-linejoin:round;">
<circle cx="10137.8" cy="15529.5" r="197" /> 
</g>
<g style="fill:#FFFFFF; fill-opacity:1.0; 
stroke:#FFFFFF; stroke-width:39.3701; stroke-opacity:1; 
stroke-linecap:round; stroke-linejoin:round;">
</g>
<g style="fill:#FFFFFF; fill-opacity:1.0; 
stroke:#FFFFFF; stroke-width:0; stroke-opacity:1; 
stroke-linecap:round; stroke-linejoin:round;">
<circle cx="10137.8" cy="13529.5" r="197" /> 
</g>
<g style="fill:#FFFFFF; fill-opacity:1.0; 
stroke:#FFFFFF; stroke-width:39.3701; stroke-opacity:1; 
stroke-linecap:round; stroke-linejoin:round;">
</g>
<g style="fill:#FFFFFF; fill-opacity:1.0; 
stroke:#FFFFFF; stroke-width:0; stroke-opacity:1; 
stroke-linecap:round; stroke-linejoin:round;">
<circle cx="11037.8" cy="14879.5" r="157.48" /> 
</g>
<g style="fill:#FFFFFF; fill-opacity:1.0; 
stroke:#FFFFFF; stroke-width:39.3701; stroke-opacity:1; 
stroke-linecap:round; stroke-linejoin:round;">
</g>
<g style="fill:#FFFFFF; fill-opacity:1.0; 
stroke:#FFFFFF; stroke-width:0; stroke-opacity:1; 
stroke-linecap:round; stroke-linejoin:round;">
<circle cx="11037.8" cy="14079.5" r="157.48" /> 
</g>
<g style="fill:#FFFFFF; fill-opacity:1.0; 
stroke:#FFFFFF; stroke-width:39.3701; stroke-opacity:1; 
stroke-linecap:round; stroke-linejoin:round;">
</g>
<g style="fill:#FFFFFF; fill-opacity:1.0; 
stroke:#FFFFFF; stroke-width:0; stroke-opacity:1; 
stroke-linecap:round; stroke-linejoin:round;">
<circle cx="41387.8" cy="13529.5" r="197" /> 
</g>
<g style="fill:#FFFFFF; fill-opacity:1.0; 
stroke:#FFFFFF; stroke-width:39.3701; stroke-opacity:1; 
stroke-linecap:round; stroke-linejoin:round;">
</g>
<g style="fill:#FFFFFF; fill-opacity:1.0; 
stroke:#FFFFFF; stroke-width:0; stroke-opacity:1; 
stroke-linecap:round; stroke-linejoin:round;">
<circle cx="41387.8" cy="15529.5" r="197" /> 
</g>
<g style="fill:#FFFFFF; fill-opacity:1.0; 
stroke:#FFFFFF; stroke-width:39.3701; stroke-opacity:1; 
stroke-linecap:round; stroke-linejoin:round;">
</g>
<g style="fill:#FFFFFF; fill-opacity:1.0; 
stroke:#FFFFFF; stroke-width:0; stroke-opacity:1; 
stroke-linecap:round; stroke-linejoin:round;">
<circle cx="40487.8" cy="14179.5" r="157.48" /> 
</g>
<g style="fill:#FFFFFF; fill-opacity:1.0; 
stroke:#FFFFFF; stroke-width:39.3701; stroke-opacity:1; 
stroke-linecap:round; stroke-linejoin:round;">
</g>
<g style="fill:#FFFFFF; fill-opacity:1.0; 
stroke:#FFFFFF; stroke-width:0; stroke-opacity:1; 
stroke-linecap:round; stroke-linejoin:round;">
<circle cx="40487.8" cy="14979.5" r="157.48" /> 
</g>
<g style="fill:#FFFFFF; fill-opacity:1.0; 
stroke:#FFFFFF; stroke-width:39.3701; stroke-opacity:1; 
stroke-linecap:round; stroke-linejoin:round;">
</g>
<g style="fill:#FFFFFF; fill-opacity:1.0; 
stroke:#FFFFFF; stroke-width:0; stroke-opacity:1; 
stroke-linecap:round; stroke-linejoin:round;">
<circle cx="42570.9" cy="2877.95" r="590.551" /> 
</g>
<g style="fill:#FFFFFF; fill-opacity:1.0; 
stroke:#FFFFFF; stroke-width:39.3701; stroke-opacity:1; 
stroke-linecap:round; stroke-linejoin:round;">
</g>
<g style="fill:#FFFFFF; fill-opacity:1.0; 
stroke:#FFFFFF; stroke-width:0; stroke-opacity:1; 
stroke-linecap:round; stroke-linejoin:round;">
<circle cx="9106.3" cy="2877.95" r="590.551" /> 
</g>
<g style="fill:#FFFFFF; fill-opacity:1.0; 
stroke:#FFFFFF; stroke-width:39.3701; stroke-opacity:1; 
stroke-linecap:round; stroke-linejoin:round;">
</g>
<g style="fill:#FFFFFF; fill-opacity:1.0; 
stroke:#FFFFFF; stroke-width:0; stroke-opacity:1; 
stroke-linecap:round; stroke-linejoin:round;">
<circle cx="9106.3" cy="24531.5" r="590.551" /> 
</g>
<g style="fill:#FFFFFF; fill-opacity:1.0; 
stroke:#FFFFFF; stroke-width:39.3701; stroke-opacity:1; 
stroke-linecap:round; stroke-linejoin:round;">
</g>
<g style="fill:#FFFFFF; fill-opacity:1.0; 
stroke:#FFFFFF; stroke-width:0; stroke-opacity:1; 
stroke-linecap:round; stroke-linejoin:round;">
<circle cx="42570.9" cy="24531.5" r="590.551" /> 
</g>
<g style="fill:#FFFFFF; fill-opacity:1.0; 
stroke:#FFFFFF; stroke-width:39.3701; stroke-opacity:1; 
stroke-linecap:round; stroke-linejoin:round;">
</g>
<g style="fill:#FFFFFF; fill-opacity:1.0; 
stroke:#FFFFFF; stroke-width:0; stroke-opacity:1; 
stroke-linecap:round; stroke-linejoin:round;">
<circle cx="25140.8" cy="3269.53" r="157.48" /> 
</g>
<g style="fill:#FFFFFF; fill-opacity:1.0; 
stroke:#FFFFFF; stroke-width:39.3701; stroke-opacity:1; 
stroke-linecap:round; stroke-linejoin:round;">
</g>
<g style="fill:#FFFFFF; fill-opacity:1.0; 
stroke:#FFFFFF; stroke-width:0; stroke-opacity:1; 
stroke-linecap:round; stroke-linejoin:round;">
<circle cx="23956.7" cy="3279.53" r="157.48" /> 
</g>
<g style="fill:#FFFFFF; fill-opacity:1.0; 
stroke:#FFFFFF; stroke-width:39.3701; stroke-opacity:1; 
stroke-linecap:round; stroke-linejoin:round;">
</g>
<g style="fill:#FFFFFF; fill-opacity:1.0; 
stroke:#FFFFFF; stroke-width:0; stroke-opacity:1; 
stroke-linecap:round; stroke-linejoin:round;">
<circle cx="26318.9" cy="3279.53" r="157.48" /> 
</g>
<g style="fill:#FFFFFF; fill-opacity:1.0; 
stroke:#FFFFFF; stroke-width:39.3701; stroke-opacity:1; 
stroke-linecap:round; stroke-linejoin:round;">
</g>
<g style="fill:#FFFFFF; fill-opacity:1.0; 
stroke:#FFFFFF; stroke-width:157.48; stroke-opacity:1; 
stroke-linecap:round; stroke-linejoin:round;">
</g>
<g style="fill:#FFFFFF; fill-opacity:0.0; 
stroke:#FFFFFF; stroke-width:157.48; stroke-opacity:1; 
stroke-linecap:round; stroke-linejoin:round;">
<path d="M22657 3633
L22657 2925
" />
<path d="M27618 3633
L27618 2925
" />
</g>
<g style="fill:#000000; fill-opacity:0.0; 
stroke:#000000; stroke-width:157.48; stroke-opacity:1; 
stroke-linecap:round; stroke-linejoin:round;">
</g> 
</svg>
