G04 #@! TF.FileFunction,Soldermask,Top*
%FSLAX46Y46*%
G04 Gerber Fmt 4.6, Leading zero omitted, Abs format (unit mm)*
G04 Created by KiCad (PCBNEW 4.0.4-stable) date 08/09/17 13:46:34*
%MOMM*%
%LPD*%
G01*
G04 APERTURE LIST*
%ADD10C,0.100000*%
%ADD11C,2.400000*%
%ADD12C,3.400000*%
%ADD13R,3.400000X3.400000*%
%ADD14C,1.924000*%
%ADD15C,2.432000*%
%ADD16R,0.900000X0.650000*%
%ADD17R,1.240000X2.800000*%
%ADD18R,2.432000X2.432000*%
%ADD19C,10.010000*%
%ADD20R,2.899360X2.899360*%
%ADD21C,2.899360*%
%ADD22C,2.900000*%
%ADD23R,2.400000X3.400000*%
%ADD24O,2.400000X3.400000*%
%ADD25C,2.200000*%
%ADD26O,1.600000X3.400000*%
G04 APERTURE END LIST*
D10*
D11*
X15355000Y27155000D03*
X15355000Y35155000D03*
X80355000Y27155000D03*
X80355000Y35155000D03*
D12*
X35155000Y31570000D03*
D13*
X22755000Y31570000D03*
X22320000Y27190000D03*
D12*
X36820000Y27190000D03*
D14*
X25650000Y44440000D03*
X28190000Y44440000D03*
X30730000Y44440000D03*
X33270000Y44440000D03*
D15*
X43180000Y45010000D03*
X43180000Y37390000D03*
X46355000Y37390000D03*
X46355000Y45010000D03*
X59055000Y45010000D03*
X59055000Y37390000D03*
X62230000Y45010000D03*
X62230000Y37390000D03*
D16*
X54290000Y41565000D03*
X54290000Y41065000D03*
X54290000Y39565000D03*
X54290000Y40065000D03*
X54290000Y40565000D03*
X52390000Y39565000D03*
X52390000Y40065000D03*
X52390000Y41565000D03*
X52390000Y41065000D03*
D17*
X53340000Y40565000D03*
D16*
X52390000Y40565000D03*
D18*
X50165000Y49455000D03*
D15*
X47625000Y49455000D03*
D18*
X57785000Y49455000D03*
D15*
X55245000Y49455000D03*
D19*
X53467000Y32893000D03*
D20*
X27305000Y58980000D03*
D21*
X32385000Y58980000D03*
D22*
X75390000Y12905000D03*
D23*
X11890000Y12905000D03*
D24*
X83890000Y12905000D03*
D22*
X20390000Y12905000D03*
D20*
X60960000Y58980000D03*
D21*
X66040000Y58980000D03*
D25*
X62611000Y56694000D03*
X64643000Y56694000D03*
D15*
X80010000Y58980000D03*
D18*
X82550000Y58980000D03*
D15*
X72390000Y58980000D03*
D18*
X74930000Y58980000D03*
D20*
X87630000Y52630000D03*
D21*
X87630000Y47550000D03*
D25*
X85344000Y50979000D03*
X85344000Y48947000D03*
D20*
X12065000Y59055000D03*
D21*
X17145000Y59055000D03*
D20*
X8255000Y28500000D03*
D21*
X8255000Y33580000D03*
D25*
X10541000Y30151000D03*
X10541000Y32183000D03*
D20*
X87630000Y33580000D03*
D21*
X87630000Y28500000D03*
D25*
X85344000Y31929000D03*
X85344000Y29897000D03*
D12*
X90635000Y60635000D03*
X5635000Y60635000D03*
X5635000Y5635000D03*
X90635000Y5635000D03*
D11*
X46362620Y59640400D03*
X43355000Y59615000D03*
X49355000Y59615000D03*
D26*
X40055000Y59615000D03*
X52655000Y59615000D03*
M02*
