G04 #@! TF.FileFunction,Copper,L1,Top,Signal*
%FSLAX46Y46*%
G04 Gerber Fmt 4.6, Leading zero omitted, Abs format (unit mm)*
G04 Created by KiCad (PCBNEW 4.0.4-stable) date 08/18/17 15:21:28*
%MOMM*%
%LPD*%
G01*
G04 APERTURE LIST*
%ADD10C,0.100000*%
%ADD11C,0.010000*%
%ADD12C,2.000000*%
%ADD13C,3.000000*%
%ADD14R,3.000000X3.000000*%
%ADD15C,1.524000*%
%ADD16C,2.032000*%
%ADD17R,0.500000X0.250000*%
%ADD18R,0.840000X2.400000*%
%ADD19R,2.032000X2.032000*%
%ADD20C,0.010000*%
%ADD21R,2.499360X2.499360*%
%ADD22C,2.499360*%
%ADD23R,2.000000X3.000000*%
%ADD24O,2.000000X3.000000*%
%ADD25C,1.800000*%
%ADD26O,1.200000X3.000000*%
%ADD27C,0.635000*%
%ADD28C,0.762000*%
%ADD29C,0.200000*%
%ADD30C,0.508000*%
%ADD31C,0.254000*%
G04 APERTURE END LIST*
D10*
D11*
G36*
X53697092Y37715486D02*
X54259908Y37670429D01*
X54734235Y37581807D01*
X54807706Y37560542D01*
X55624578Y37221299D01*
X56373366Y36741203D01*
X56903072Y36265761D01*
X57362128Y35737669D01*
X57708358Y35215757D01*
X57982748Y34635380D01*
X58052661Y34452568D01*
X58161208Y34027991D01*
X58228463Y33495005D01*
X58253724Y32909601D01*
X58236288Y32327766D01*
X58175454Y31805491D01*
X58090268Y31453667D01*
X57718352Y30586657D01*
X57225998Y29830171D01*
X56620541Y29192797D01*
X55909312Y28683122D01*
X55572847Y28505390D01*
X55194794Y28338722D01*
X54812020Y28192788D01*
X54491552Y28092533D01*
X54415332Y28074628D01*
X54057714Y28026357D01*
X53605732Y28000038D01*
X53133094Y27996998D01*
X52713508Y28018564D01*
X52535666Y28040786D01*
X52069855Y28156794D01*
X51549494Y28346168D01*
X51053263Y28577762D01*
X50783875Y28734273D01*
X50218718Y29172924D01*
X50673000Y29172924D01*
X50743788Y29102492D01*
X50933380Y28980474D01*
X51207614Y28827915D01*
X51360137Y28749590D01*
X51724528Y28574621D01*
X51994621Y28459920D01*
X52156182Y28409971D01*
X52194980Y28429259D01*
X52107224Y28514193D01*
X51970753Y28623597D01*
X51891248Y28688426D01*
X52541106Y28688426D01*
X52598397Y28551817D01*
X52708298Y28421632D01*
X52857337Y28300720D01*
X52999111Y28239979D01*
X53088631Y28249067D01*
X53087264Y28264756D01*
X53827409Y28264756D01*
X53869507Y28246848D01*
X53925702Y28264279D01*
X54112329Y28313830D01*
X54185202Y28321000D01*
X54304498Y28369093D01*
X54505601Y28493090D01*
X54616702Y28570855D01*
X54978351Y28570855D01*
X54992151Y28543793D01*
X55104851Y28575532D01*
X55118000Y28580157D01*
X55350427Y28679897D01*
X55630446Y28822799D01*
X55727457Y28877558D01*
X56003293Y29053355D01*
X56124844Y29170826D01*
X56094950Y29234769D01*
X55948496Y29250592D01*
X55708535Y29179632D01*
X55399671Y28966404D01*
X55287333Y28869529D01*
X55073421Y28673754D01*
X54978351Y28570855D01*
X54616702Y28570855D01*
X54747736Y28662572D01*
X54990129Y28847119D01*
X55192007Y29016312D01*
X55312597Y29139730D01*
X55329666Y29174844D01*
X55254142Y29221749D01*
X55063770Y29249292D01*
X54961920Y29252334D01*
X54745331Y29239663D01*
X54585297Y29180409D01*
X54426046Y29042708D01*
X54257977Y28850167D01*
X54012686Y28550620D01*
X53872149Y28360748D01*
X53827409Y28264756D01*
X53087264Y28264756D01*
X53080908Y28337645D01*
X53078401Y28342167D01*
X52944805Y28530738D01*
X52788586Y28690258D01*
X52655855Y28777900D01*
X52608026Y28779061D01*
X52541106Y28688426D01*
X51891248Y28688426D01*
X51758294Y28796836D01*
X51590504Y28934834D01*
X51260333Y29162380D01*
X51157854Y29195000D01*
X51604333Y29195000D01*
X51663398Y29110023D01*
X51811525Y28965503D01*
X51879500Y28906654D01*
X52052547Y28768491D01*
X52137722Y28734615D01*
X52173791Y28796901D01*
X52182528Y28843145D01*
X52183978Y29044541D01*
X52164019Y29131491D01*
X52125566Y29160750D01*
X52705000Y29160750D01*
X52752861Y29060433D01*
X52872633Y28882782D01*
X53028600Y28674282D01*
X53185043Y28481423D01*
X53306245Y28350691D01*
X53350199Y28321000D01*
X53367802Y28397603D01*
X53379474Y28595194D01*
X53382333Y28786667D01*
X53382333Y29252334D01*
X53551666Y29252334D01*
X53555460Y28765500D01*
X53559254Y28278667D01*
X53936460Y28699682D01*
X54127959Y28922596D01*
X54263726Y29098147D01*
X54313666Y29186515D01*
X54237958Y29225776D01*
X54046417Y29249320D01*
X53932666Y29252334D01*
X53551666Y29252334D01*
X53382333Y29252334D01*
X53043666Y29252334D01*
X52831498Y29232022D01*
X52713603Y29181259D01*
X52705000Y29160750D01*
X52125566Y29160750D01*
X52071317Y29202027D01*
X51902297Y29245738D01*
X51726992Y29254678D01*
X51615440Y29220900D01*
X51604333Y29195000D01*
X51157854Y29195000D01*
X50983739Y29250422D01*
X50939446Y29252334D01*
X50755774Y29230319D01*
X50673337Y29176928D01*
X50673000Y29172924D01*
X50218718Y29172924D01*
X50195751Y29190750D01*
X49658538Y29752899D01*
X49200426Y30382189D01*
X48933818Y30882167D01*
X49233983Y30882167D01*
X49288525Y30725396D01*
X49431001Y30486103D01*
X49631223Y30203092D01*
X49858998Y29915169D01*
X50084137Y29661136D01*
X50276450Y29479800D01*
X50373343Y29417705D01*
X50589144Y29361657D01*
X50822227Y29343382D01*
X50997318Y29366324D01*
X51033907Y29387464D01*
X51016774Y29477797D01*
X50920198Y29659151D01*
X50806663Y29831964D01*
X50604561Y30134132D01*
X50407688Y30452562D01*
X50331387Y30585834D01*
X50207949Y30794763D01*
X50168619Y30831794D01*
X50419000Y30831794D01*
X50465288Y30700777D01*
X50586069Y30476784D01*
X50754213Y30202289D01*
X50942591Y29919766D01*
X51124074Y29671691D01*
X51265437Y29506563D01*
X51480938Y29381669D01*
X51734473Y29354284D01*
X51958447Y29423490D01*
X52042560Y29505542D01*
X52934104Y29505542D01*
X52955657Y29381262D01*
X53114158Y29348559D01*
X53157489Y29353325D01*
X53260449Y29387158D01*
X53318260Y29478844D01*
X53346242Y29669513D01*
X53353356Y29822106D01*
X53550959Y29822106D01*
X53559513Y29561565D01*
X53602354Y29401479D01*
X53612014Y29389542D01*
X53726335Y29358290D01*
X53944659Y29349634D01*
X54056514Y29354264D01*
X54250913Y29372130D01*
X54384140Y29416286D01*
X54418281Y29448699D01*
X54785578Y29448699D01*
X54787044Y29409191D01*
X54901653Y29356779D01*
X55112996Y29339176D01*
X55352244Y29355644D01*
X55550570Y29405445D01*
X55576152Y29417646D01*
X55587173Y29427316D01*
X55922333Y29427316D01*
X55985506Y29343722D01*
X56144627Y29342526D01*
X56354094Y29413184D01*
X56568308Y29545154D01*
X56619497Y29588519D01*
X56782695Y29743175D01*
X56828178Y29817088D01*
X56766169Y29840450D01*
X56705500Y29842519D01*
X56551796Y29892851D01*
X56515000Y29972000D01*
X56474622Y30084749D01*
X56440382Y30099000D01*
X56344714Y30035447D01*
X56203618Y29880889D01*
X56058861Y29689480D01*
X55952208Y29515374D01*
X55922333Y29427316D01*
X55587173Y29427316D01*
X55700730Y29526951D01*
X55876473Y29732197D01*
X56046079Y29961813D01*
X56215036Y30215678D01*
X56298541Y30382100D01*
X56310586Y30510693D01*
X56265162Y30651071D01*
X56250158Y30685501D01*
X56160082Y30847840D01*
X56040344Y30923697D01*
X55829513Y30945080D01*
X55750866Y30945667D01*
X55366735Y30945667D01*
X55054582Y30213524D01*
X54923422Y29888224D01*
X54829527Y29620573D01*
X54785578Y29448699D01*
X54418281Y29448699D01*
X54492305Y29518974D01*
X54611516Y29712439D01*
X54748327Y29972000D01*
X54954740Y30371572D01*
X55080378Y30643617D01*
X55119113Y30812601D01*
X55064813Y30902991D01*
X54911350Y30939254D01*
X54652594Y30945855D01*
X54504386Y30945667D01*
X53837029Y30945667D01*
X53694347Y30646461D01*
X53622045Y30420554D01*
X53573026Y30127102D01*
X53550959Y29822106D01*
X53353356Y29822106D01*
X53356397Y29887334D01*
X53360267Y30148649D01*
X53348065Y30253350D01*
X53317355Y30213606D01*
X53300825Y30164768D01*
X53193903Y29928215D01*
X53052748Y29710316D01*
X52934104Y29505542D01*
X52042560Y29505542D01*
X52054561Y29517248D01*
X52080821Y29636477D01*
X52041298Y29832370D01*
X51928649Y30134074D01*
X51857299Y30300415D01*
X51641917Y30790513D01*
X51838638Y30790513D01*
X51892183Y30610742D01*
X51958980Y30437667D01*
X52063430Y30203408D01*
X52145587Y30049673D01*
X52177102Y30014334D01*
X52193029Y30088822D01*
X52182822Y30275869D01*
X52172234Y30365203D01*
X52088194Y30670799D01*
X51941840Y30834798D01*
X51841858Y30859704D01*
X51838638Y30790513D01*
X51641917Y30790513D01*
X51573731Y30945667D01*
X50996365Y30945667D01*
X50668564Y30935859D01*
X50484598Y30903209D01*
X50419930Y30842876D01*
X50419000Y30831794D01*
X50168619Y30831794D01*
X50094567Y30901515D01*
X49929518Y30940383D01*
X49683742Y30945667D01*
X49433660Y30934884D01*
X49270383Y30907156D01*
X49233983Y30882167D01*
X48933818Y30882167D01*
X48849607Y31040089D01*
X48639346Y31665381D01*
X48576905Y32090414D01*
X48549937Y32615934D01*
X48552590Y32818064D01*
X48784938Y32818064D01*
X48836193Y32269182D01*
X48883980Y31924815D01*
X48954670Y31600880D01*
X49013904Y31417650D01*
X49100012Y31238192D01*
X49200206Y31148802D01*
X49371760Y31118198D01*
X49568013Y31115000D01*
X49810627Y31126310D01*
X49964925Y31155257D01*
X49994244Y31178500D01*
X49977674Y31284629D01*
X49934475Y31515777D01*
X49872395Y31831154D01*
X49837447Y32004000D01*
X49730731Y32527368D01*
X49911000Y32527368D01*
X49936688Y32278483D01*
X50002716Y31961942D01*
X50092531Y31638218D01*
X50189578Y31367779D01*
X50268672Y31220834D01*
X50409018Y31158176D01*
X50690505Y31122149D01*
X50941203Y31115000D01*
X51527339Y31115000D01*
X51471597Y31432500D01*
X51401106Y31827936D01*
X51364326Y31993391D01*
X51533217Y31993391D01*
X51554315Y31908828D01*
X51623836Y31815111D01*
X51708708Y31862843D01*
X51762998Y31978429D01*
X51707344Y32061856D01*
X51594548Y32121389D01*
X51552951Y32107841D01*
X51533217Y31993391D01*
X51364326Y31993391D01*
X51342087Y32093427D01*
X51274342Y32265372D01*
X51177673Y32380170D01*
X51031879Y32474222D01*
X50838808Y32572805D01*
X50595592Y32679458D01*
X51466384Y32679458D01*
X51468274Y32674409D01*
X51514835Y32483681D01*
X51519666Y32420409D01*
X51584917Y32325388D01*
X51731607Y32304825D01*
X51886137Y32365072D01*
X51910773Y32386641D01*
X52046410Y32416381D01*
X52276605Y32373892D01*
X52554002Y32279322D01*
X52831245Y32152826D01*
X53060980Y32014553D01*
X53195850Y31884655D01*
X53213000Y31832493D01*
X53259409Y31721224D01*
X53297666Y31707667D01*
X53341910Y31785425D01*
X53372201Y31991407D01*
X53382333Y32258000D01*
X53382333Y32808334D01*
X53551666Y32808334D01*
X53551666Y32229257D01*
X53556747Y31918979D01*
X53581192Y31733883D01*
X53638807Y31629911D01*
X53743398Y31563002D01*
X53763333Y31553739D01*
X53929710Y31417390D01*
X53975000Y31286149D01*
X53989654Y31198464D01*
X54057116Y31147129D01*
X54212633Y31122583D01*
X54491454Y31115265D01*
X54606020Y31115000D01*
X55237040Y31115000D01*
X55418566Y31115000D01*
X55839783Y31115000D01*
X56096064Y31125553D01*
X56222623Y31166367D01*
X56258259Y31251181D01*
X56258307Y31263167D01*
X56206589Y31448846D01*
X56205311Y31451034D01*
X57646576Y31451034D01*
X57662587Y31361578D01*
X57730019Y31313685D01*
X57793654Y31416954D01*
X57849656Y31589660D01*
X57863715Y31662310D01*
X57820366Y31676319D01*
X57732648Y31606935D01*
X57646576Y31451034D01*
X56205311Y31451034D01*
X56137122Y31567730D01*
X56061044Y31738405D01*
X56064206Y31842897D01*
X56059310Y31946679D01*
X56022983Y31961667D01*
X55871556Y31989961D01*
X55803434Y32012607D01*
X55688888Y31997825D01*
X55591584Y31847546D01*
X55503949Y31547570D01*
X55471375Y31390167D01*
X55418566Y31115000D01*
X55237040Y31115000D01*
X55325214Y31432500D01*
X55395803Y31724146D01*
X55403439Y31888262D01*
X55346453Y31955172D01*
X55296104Y31961667D01*
X55179553Y32014460D01*
X55026361Y32145223D01*
X54872443Y32312535D01*
X54788536Y32427334D01*
X57869666Y32427334D01*
X57912000Y32385000D01*
X57954333Y32427334D01*
X57912000Y32469667D01*
X57869666Y32427334D01*
X54788536Y32427334D01*
X54753715Y32474975D01*
X54706091Y32591121D01*
X54724624Y32620764D01*
X54780721Y32671797D01*
X57644770Y32671797D01*
X57658000Y32639000D01*
X57734082Y32558230D01*
X57747663Y32554334D01*
X57784029Y32619840D01*
X57785000Y32639000D01*
X57719912Y32720414D01*
X57695336Y32723667D01*
X57644770Y32671797D01*
X54780721Y32671797D01*
X54816655Y32704487D01*
X54821666Y32730723D01*
X54743925Y32767819D01*
X54538281Y32795261D01*
X54246101Y32807994D01*
X54186666Y32808334D01*
X53551666Y32808334D01*
X53382333Y32808334D01*
X52920650Y32808334D01*
X52614532Y32790068D01*
X52345414Y32743472D01*
X52241020Y32709030D01*
X52052458Y32652104D01*
X51930080Y32702893D01*
X51923770Y32709030D01*
X51765088Y32787759D01*
X51620674Y32808334D01*
X51474802Y32779668D01*
X51466384Y32679458D01*
X50595592Y32679458D01*
X50549173Y32699813D01*
X50283587Y32784923D01*
X50143833Y32806915D01*
X49984115Y32787594D01*
X49920885Y32692649D01*
X49911000Y32527368D01*
X49730731Y32527368D01*
X49682072Y32766000D01*
X48784938Y32818064D01*
X48552590Y32818064D01*
X48557311Y33177567D01*
X48559624Y33207964D01*
X48785497Y33207964D01*
X48806394Y33059865D01*
X48885192Y32978116D01*
X48886061Y32977606D01*
X49089329Y32915376D01*
X49348550Y32899567D01*
X49572209Y32932618D01*
X49627825Y32957844D01*
X49677381Y33065407D01*
X49693695Y33142236D01*
X49884937Y33142236D01*
X49924810Y33004114D01*
X49928873Y32998834D01*
X50046275Y32903267D01*
X50182733Y32935763D01*
X50239003Y32969285D01*
X50302879Y33044943D01*
X50287834Y33110320D01*
X50889062Y33110320D01*
X50889805Y32966945D01*
X50910913Y32937310D01*
X51043584Y32899362D01*
X51179375Y32978643D01*
X51250388Y33126699D01*
X51244515Y33178045D01*
X51435000Y33178045D01*
X51461461Y33010697D01*
X51519519Y32931850D01*
X51577186Y32973602D01*
X51591106Y33021398D01*
X51568122Y33196163D01*
X51527606Y33257594D01*
X51454729Y33288348D01*
X51435000Y33178045D01*
X51244515Y33178045D01*
X51233257Y33276468D01*
X51153582Y33302684D01*
X51785180Y33302684D01*
X51789829Y33100141D01*
X51906744Y32970755D01*
X51964166Y32952753D01*
X52317645Y32912873D01*
X52719986Y32907651D01*
X53072067Y32937676D01*
X53117750Y32945917D01*
X53382333Y32998834D01*
X53382333Y33791073D01*
X53551666Y33791073D01*
X53553744Y33400216D01*
X53575852Y33147636D01*
X53641797Y33002318D01*
X53775390Y32933249D01*
X54000439Y32909414D01*
X54233557Y32902822D01*
X54492354Y32914249D01*
X54679578Y32987911D01*
X54811176Y33102102D01*
X57383564Y33102102D01*
X57400518Y33067967D01*
X57481251Y32980434D01*
X57496102Y33042163D01*
X57475549Y33108319D01*
X57413216Y33200525D01*
X57385062Y33198618D01*
X57383564Y33102102D01*
X54811176Y33102102D01*
X54875952Y33158309D01*
X54908060Y33191116D01*
X55089003Y33402478D01*
X55169280Y33591122D01*
X55181678Y33838562D01*
X55180501Y33868449D01*
X55181299Y33926730D01*
X55685321Y33926730D01*
X55709100Y33845774D01*
X55869633Y33824334D01*
X56070176Y33775818D01*
X56172410Y33702061D01*
X56320490Y33611846D01*
X56550092Y33551314D01*
X56584944Y33546960D01*
X56808011Y33521692D01*
X56953840Y33502057D01*
X56965708Y33499900D01*
X57011194Y33554657D01*
X57007311Y33633834D01*
X56992376Y33655000D01*
X57192333Y33655000D01*
X57221220Y33572535D01*
X57229669Y33570334D01*
X57301955Y33629663D01*
X57319333Y33655000D01*
X57312620Y33733019D01*
X57281996Y33739667D01*
X57195778Y33678207D01*
X57192333Y33655000D01*
X56992376Y33655000D01*
X56933036Y33739094D01*
X56739072Y33795588D01*
X56613044Y33808380D01*
X56374233Y33843200D01*
X56285523Y33906660D01*
X56289574Y33946010D01*
X56255136Y34059820D01*
X56135427Y34146945D01*
X55957812Y34189987D01*
X55818126Y34103121D01*
X55803461Y34087315D01*
X55685321Y33926730D01*
X55181299Y33926730D01*
X55183853Y34112971D01*
X55229123Y34226715D01*
X55295373Y34247667D01*
X55394907Y34311249D01*
X55398371Y34395834D01*
X55365271Y34462773D01*
X55276673Y34508224D01*
X55102947Y34537629D01*
X54814464Y34556429D01*
X54460829Y34568032D01*
X53551666Y34592063D01*
X53551666Y33791073D01*
X53382333Y33791073D01*
X53382333Y34586334D01*
X53095058Y34586334D01*
X52863808Y34549065D01*
X52759048Y34459334D01*
X52648337Y34346742D01*
X52585019Y34332334D01*
X52428616Y34272147D01*
X52243276Y34128434D01*
X52088792Y33956469D01*
X52024973Y33814625D01*
X51974675Y33658379D01*
X51897973Y33532985D01*
X51785180Y33302684D01*
X51153582Y33302684D01*
X51112096Y33316334D01*
X50976623Y33252148D01*
X50889062Y33110320D01*
X50287834Y33110320D01*
X50274278Y33169224D01*
X50199582Y33306656D01*
X50082997Y33480210D01*
X49996641Y33567782D01*
X49987282Y33570334D01*
X49923640Y33498412D01*
X49887036Y33331358D01*
X49884937Y33142236D01*
X49693695Y33142236D01*
X49727563Y33301728D01*
X49770771Y33626435D01*
X49786912Y33803215D01*
X49848174Y34586334D01*
X49469655Y34586334D01*
X49233298Y34577369D01*
X49106673Y34521679D01*
X49030218Y34376066D01*
X48986063Y34235631D01*
X48905686Y33923920D01*
X48832803Y33572176D01*
X48815556Y33470995D01*
X48785497Y33207964D01*
X48559624Y33207964D01*
X48597899Y33710937D01*
X48670568Y34151670D01*
X48683938Y34204956D01*
X48903549Y34789058D01*
X49273187Y34789058D01*
X49366969Y34698390D01*
X49551782Y34711235D01*
X49725112Y34758711D01*
X49800618Y34786397D01*
X49799016Y34872030D01*
X49776284Y35072264D01*
X49755009Y35224015D01*
X49740683Y35320327D01*
X51874488Y35320327D01*
X51965534Y35266732D01*
X52018608Y35263667D01*
X52185335Y35337955D01*
X52271548Y35550896D01*
X52281666Y35693925D01*
X52325916Y35835392D01*
X52440883Y35856446D01*
X52599893Y35775200D01*
X52776272Y35609766D01*
X52943345Y35378253D01*
X53045090Y35175563D01*
X53112016Y34973886D01*
X53092459Y34877774D01*
X53059868Y34859846D01*
X52995220Y34782189D01*
X53005802Y34748436D01*
X53065564Y34680420D01*
X53162017Y34690737D01*
X53248408Y34722392D01*
X53341986Y34847265D01*
X53378629Y35099698D01*
X53551666Y35099698D01*
X53563443Y34882739D01*
X53625922Y34780438D01*
X53779828Y34738413D01*
X53826833Y34732248D01*
X54370063Y34686185D01*
X54760438Y34701514D01*
X54995679Y34778100D01*
X55027285Y34804048D01*
X55127702Y34996343D01*
X55138391Y35236214D01*
X55073344Y35467973D01*
X54946555Y35635935D01*
X54805419Y35687000D01*
X54654837Y35744813D01*
X54585161Y35872876D01*
X54625535Y36003127D01*
X54658710Y36029609D01*
X54726352Y36123199D01*
X54709530Y36166025D01*
X54596498Y36177911D01*
X54480298Y36128295D01*
X54297341Y36045137D01*
X54196178Y36025667D01*
X54080805Y35958486D01*
X53940633Y35791106D01*
X53901551Y35729334D01*
X53771791Y35542729D01*
X53662110Y35439947D01*
X53639188Y35433000D01*
X53584025Y35357975D01*
X53553689Y35170889D01*
X53551666Y35099698D01*
X53378629Y35099698D01*
X53382021Y35123064D01*
X53367831Y35539842D01*
X53328491Y35886850D01*
X53285091Y36203492D01*
X54919764Y36203492D01*
X54954982Y36100163D01*
X55033333Y36025667D01*
X55134963Y35861164D01*
X55160333Y35720919D01*
X55235321Y35513531D01*
X55372000Y35382881D01*
X55523669Y35252984D01*
X55583666Y35143863D01*
X55650276Y34971781D01*
X55806635Y34900250D01*
X55930588Y34929419D01*
X56079356Y35032496D01*
X56129720Y35087410D01*
X56102411Y35179000D01*
X56388000Y35179000D01*
X56394712Y35100982D01*
X56425336Y35094334D01*
X56511554Y35155794D01*
X56515000Y35179000D01*
X56486113Y35261466D01*
X56477663Y35263667D01*
X56405377Y35204338D01*
X56388000Y35179000D01*
X56102411Y35179000D01*
X56101259Y35182862D01*
X55969037Y35315275D01*
X55945082Y35333332D01*
X55874082Y35390667D01*
X56599666Y35390667D01*
X56642000Y35348334D01*
X56684333Y35390667D01*
X56642000Y35433000D01*
X56599666Y35390667D01*
X55874082Y35390667D01*
X55794586Y35454862D01*
X55784381Y35489445D01*
X56881888Y35489445D01*
X56893511Y35439111D01*
X56938333Y35433000D01*
X57008023Y35463979D01*
X56994777Y35489445D01*
X56894298Y35499578D01*
X56881888Y35489445D01*
X55784381Y35489445D01*
X55768797Y35542250D01*
X55843708Y35644667D01*
X56430333Y35644667D01*
X56472666Y35602334D01*
X56515000Y35644667D01*
X56472666Y35687000D01*
X56430333Y35644667D01*
X55843708Y35644667D01*
X55852136Y35656189D01*
X55859979Y35664878D01*
X55985291Y35838047D01*
X55976928Y35979093D01*
X55866877Y36124834D01*
X55700756Y36227501D01*
X56035769Y36227501D01*
X56049333Y36195000D01*
X56161492Y36113495D01*
X56186326Y36110334D01*
X56232230Y36162500D01*
X56218666Y36195000D01*
X56106507Y36276506D01*
X56081673Y36279667D01*
X56035769Y36227501D01*
X55700756Y36227501D01*
X55686661Y36236212D01*
X55391514Y36278557D01*
X55316544Y36279667D01*
X55038276Y36261524D01*
X54919764Y36203492D01*
X53285091Y36203492D01*
X53274650Y36279667D01*
X52833614Y36279667D01*
X52532097Y36259136D01*
X52322420Y36175285D01*
X52155259Y35994727D01*
X51995543Y35712372D01*
X51884929Y35460368D01*
X51874488Y35320327D01*
X49740683Y35320327D01*
X49706692Y35548826D01*
X51609958Y35548826D01*
X51675409Y35517667D01*
X51757116Y35586324D01*
X51851828Y35748868D01*
X51919242Y35905415D01*
X51900567Y35923775D01*
X51780751Y35820413D01*
X51638761Y35659177D01*
X51609958Y35548826D01*
X49706692Y35548826D01*
X49692434Y35644667D01*
X49457015Y35276956D01*
X49302795Y34984346D01*
X49273187Y34789058D01*
X48903549Y34789058D01*
X48975444Y34980275D01*
X49412688Y35698426D01*
X49976433Y36340418D01*
X50215087Y36534911D01*
X52535666Y36534911D01*
X52611811Y36485904D01*
X52806502Y36454799D01*
X52959000Y36449000D01*
X53382333Y36449000D01*
X53382333Y36618334D01*
X54991000Y36618334D01*
X55040608Y36485549D01*
X55202666Y36449000D01*
X55361797Y36476970D01*
X55414333Y36530688D01*
X55348773Y36624343D01*
X55204291Y36727295D01*
X55059188Y36785950D01*
X55038899Y36787667D01*
X54999927Y36716487D01*
X54991000Y36618334D01*
X53382333Y36618334D01*
X53382333Y36734967D01*
X53343170Y36969313D01*
X53278133Y37080445D01*
X55119532Y37080445D01*
X55190728Y36977948D01*
X55340504Y36840193D01*
X55535442Y36692935D01*
X55742126Y36561929D01*
X55927140Y36472930D01*
X56033163Y36449230D01*
X56191810Y36474131D01*
X56217576Y36535431D01*
X56105617Y36635749D01*
X55894101Y36773982D01*
X55637334Y36920002D01*
X55389626Y37043683D01*
X55205283Y37114898D01*
X55160333Y37121929D01*
X55119532Y37080445D01*
X53278133Y37080445D01*
X53247465Y37132848D01*
X53246016Y37134066D01*
X53148962Y37185295D01*
X53043608Y37148697D01*
X52888403Y37004637D01*
X52822683Y36934010D01*
X52656805Y36737098D01*
X52553145Y36583434D01*
X52535666Y36534911D01*
X50215087Y36534911D01*
X50319945Y36620365D01*
X51666029Y36620365D01*
X51690768Y36579847D01*
X51850419Y36573257D01*
X51933226Y36575047D01*
X52129262Y36596248D01*
X52292850Y36668181D01*
X52472220Y36820529D01*
X52663047Y37024208D01*
X52846939Y37239642D01*
X52962289Y37396670D01*
X52986627Y37464339D01*
X52983031Y37465000D01*
X52865807Y37421508D01*
X52653745Y37309138D01*
X52391472Y37155052D01*
X52123613Y36986411D01*
X51894796Y36830376D01*
X51750191Y36714647D01*
X51666029Y36620365D01*
X50319945Y36620365D01*
X50547625Y36805913D01*
X51146218Y36805913D01*
X51184602Y36740994D01*
X51243826Y36679709D01*
X51310695Y36664337D01*
X51417748Y36708132D01*
X51597524Y36824349D01*
X51879500Y37024052D01*
X52094929Y37182856D01*
X52240881Y37299628D01*
X52281666Y37342187D01*
X52212141Y37339036D01*
X52035257Y37284942D01*
X51798553Y37197377D01*
X51549567Y37093814D01*
X51353967Y37001213D01*
X51181984Y36894370D01*
X51146218Y36805913D01*
X50547625Y36805913D01*
X50647445Y36887261D01*
X51406487Y37319966D01*
X52106533Y37583843D01*
X52557522Y37672735D01*
X53108670Y37716435D01*
X53697092Y37715486D01*
X53697092Y37715486D01*
G37*
X53697092Y37715486D02*
X54259908Y37670429D01*
X54734235Y37581807D01*
X54807706Y37560542D01*
X55624578Y37221299D01*
X56373366Y36741203D01*
X56903072Y36265761D01*
X57362128Y35737669D01*
X57708358Y35215757D01*
X57982748Y34635380D01*
X58052661Y34452568D01*
X58161208Y34027991D01*
X58228463Y33495005D01*
X58253724Y32909601D01*
X58236288Y32327766D01*
X58175454Y31805491D01*
X58090268Y31453667D01*
X57718352Y30586657D01*
X57225998Y29830171D01*
X56620541Y29192797D01*
X55909312Y28683122D01*
X55572847Y28505390D01*
X55194794Y28338722D01*
X54812020Y28192788D01*
X54491552Y28092533D01*
X54415332Y28074628D01*
X54057714Y28026357D01*
X53605732Y28000038D01*
X53133094Y27996998D01*
X52713508Y28018564D01*
X52535666Y28040786D01*
X52069855Y28156794D01*
X51549494Y28346168D01*
X51053263Y28577762D01*
X50783875Y28734273D01*
X50218718Y29172924D01*
X50673000Y29172924D01*
X50743788Y29102492D01*
X50933380Y28980474D01*
X51207614Y28827915D01*
X51360137Y28749590D01*
X51724528Y28574621D01*
X51994621Y28459920D01*
X52156182Y28409971D01*
X52194980Y28429259D01*
X52107224Y28514193D01*
X51970753Y28623597D01*
X51891248Y28688426D01*
X52541106Y28688426D01*
X52598397Y28551817D01*
X52708298Y28421632D01*
X52857337Y28300720D01*
X52999111Y28239979D01*
X53088631Y28249067D01*
X53087264Y28264756D01*
X53827409Y28264756D01*
X53869507Y28246848D01*
X53925702Y28264279D01*
X54112329Y28313830D01*
X54185202Y28321000D01*
X54304498Y28369093D01*
X54505601Y28493090D01*
X54616702Y28570855D01*
X54978351Y28570855D01*
X54992151Y28543793D01*
X55104851Y28575532D01*
X55118000Y28580157D01*
X55350427Y28679897D01*
X55630446Y28822799D01*
X55727457Y28877558D01*
X56003293Y29053355D01*
X56124844Y29170826D01*
X56094950Y29234769D01*
X55948496Y29250592D01*
X55708535Y29179632D01*
X55399671Y28966404D01*
X55287333Y28869529D01*
X55073421Y28673754D01*
X54978351Y28570855D01*
X54616702Y28570855D01*
X54747736Y28662572D01*
X54990129Y28847119D01*
X55192007Y29016312D01*
X55312597Y29139730D01*
X55329666Y29174844D01*
X55254142Y29221749D01*
X55063770Y29249292D01*
X54961920Y29252334D01*
X54745331Y29239663D01*
X54585297Y29180409D01*
X54426046Y29042708D01*
X54257977Y28850167D01*
X54012686Y28550620D01*
X53872149Y28360748D01*
X53827409Y28264756D01*
X53087264Y28264756D01*
X53080908Y28337645D01*
X53078401Y28342167D01*
X52944805Y28530738D01*
X52788586Y28690258D01*
X52655855Y28777900D01*
X52608026Y28779061D01*
X52541106Y28688426D01*
X51891248Y28688426D01*
X51758294Y28796836D01*
X51590504Y28934834D01*
X51260333Y29162380D01*
X51157854Y29195000D01*
X51604333Y29195000D01*
X51663398Y29110023D01*
X51811525Y28965503D01*
X51879500Y28906654D01*
X52052547Y28768491D01*
X52137722Y28734615D01*
X52173791Y28796901D01*
X52182528Y28843145D01*
X52183978Y29044541D01*
X52164019Y29131491D01*
X52125566Y29160750D01*
X52705000Y29160750D01*
X52752861Y29060433D01*
X52872633Y28882782D01*
X53028600Y28674282D01*
X53185043Y28481423D01*
X53306245Y28350691D01*
X53350199Y28321000D01*
X53367802Y28397603D01*
X53379474Y28595194D01*
X53382333Y28786667D01*
X53382333Y29252334D01*
X53551666Y29252334D01*
X53555460Y28765500D01*
X53559254Y28278667D01*
X53936460Y28699682D01*
X54127959Y28922596D01*
X54263726Y29098147D01*
X54313666Y29186515D01*
X54237958Y29225776D01*
X54046417Y29249320D01*
X53932666Y29252334D01*
X53551666Y29252334D01*
X53382333Y29252334D01*
X53043666Y29252334D01*
X52831498Y29232022D01*
X52713603Y29181259D01*
X52705000Y29160750D01*
X52125566Y29160750D01*
X52071317Y29202027D01*
X51902297Y29245738D01*
X51726992Y29254678D01*
X51615440Y29220900D01*
X51604333Y29195000D01*
X51157854Y29195000D01*
X50983739Y29250422D01*
X50939446Y29252334D01*
X50755774Y29230319D01*
X50673337Y29176928D01*
X50673000Y29172924D01*
X50218718Y29172924D01*
X50195751Y29190750D01*
X49658538Y29752899D01*
X49200426Y30382189D01*
X48933818Y30882167D01*
X49233983Y30882167D01*
X49288525Y30725396D01*
X49431001Y30486103D01*
X49631223Y30203092D01*
X49858998Y29915169D01*
X50084137Y29661136D01*
X50276450Y29479800D01*
X50373343Y29417705D01*
X50589144Y29361657D01*
X50822227Y29343382D01*
X50997318Y29366324D01*
X51033907Y29387464D01*
X51016774Y29477797D01*
X50920198Y29659151D01*
X50806663Y29831964D01*
X50604561Y30134132D01*
X50407688Y30452562D01*
X50331387Y30585834D01*
X50207949Y30794763D01*
X50168619Y30831794D01*
X50419000Y30831794D01*
X50465288Y30700777D01*
X50586069Y30476784D01*
X50754213Y30202289D01*
X50942591Y29919766D01*
X51124074Y29671691D01*
X51265437Y29506563D01*
X51480938Y29381669D01*
X51734473Y29354284D01*
X51958447Y29423490D01*
X52042560Y29505542D01*
X52934104Y29505542D01*
X52955657Y29381262D01*
X53114158Y29348559D01*
X53157489Y29353325D01*
X53260449Y29387158D01*
X53318260Y29478844D01*
X53346242Y29669513D01*
X53353356Y29822106D01*
X53550959Y29822106D01*
X53559513Y29561565D01*
X53602354Y29401479D01*
X53612014Y29389542D01*
X53726335Y29358290D01*
X53944659Y29349634D01*
X54056514Y29354264D01*
X54250913Y29372130D01*
X54384140Y29416286D01*
X54418281Y29448699D01*
X54785578Y29448699D01*
X54787044Y29409191D01*
X54901653Y29356779D01*
X55112996Y29339176D01*
X55352244Y29355644D01*
X55550570Y29405445D01*
X55576152Y29417646D01*
X55587173Y29427316D01*
X55922333Y29427316D01*
X55985506Y29343722D01*
X56144627Y29342526D01*
X56354094Y29413184D01*
X56568308Y29545154D01*
X56619497Y29588519D01*
X56782695Y29743175D01*
X56828178Y29817088D01*
X56766169Y29840450D01*
X56705500Y29842519D01*
X56551796Y29892851D01*
X56515000Y29972000D01*
X56474622Y30084749D01*
X56440382Y30099000D01*
X56344714Y30035447D01*
X56203618Y29880889D01*
X56058861Y29689480D01*
X55952208Y29515374D01*
X55922333Y29427316D01*
X55587173Y29427316D01*
X55700730Y29526951D01*
X55876473Y29732197D01*
X56046079Y29961813D01*
X56215036Y30215678D01*
X56298541Y30382100D01*
X56310586Y30510693D01*
X56265162Y30651071D01*
X56250158Y30685501D01*
X56160082Y30847840D01*
X56040344Y30923697D01*
X55829513Y30945080D01*
X55750866Y30945667D01*
X55366735Y30945667D01*
X55054582Y30213524D01*
X54923422Y29888224D01*
X54829527Y29620573D01*
X54785578Y29448699D01*
X54418281Y29448699D01*
X54492305Y29518974D01*
X54611516Y29712439D01*
X54748327Y29972000D01*
X54954740Y30371572D01*
X55080378Y30643617D01*
X55119113Y30812601D01*
X55064813Y30902991D01*
X54911350Y30939254D01*
X54652594Y30945855D01*
X54504386Y30945667D01*
X53837029Y30945667D01*
X53694347Y30646461D01*
X53622045Y30420554D01*
X53573026Y30127102D01*
X53550959Y29822106D01*
X53353356Y29822106D01*
X53356397Y29887334D01*
X53360267Y30148649D01*
X53348065Y30253350D01*
X53317355Y30213606D01*
X53300825Y30164768D01*
X53193903Y29928215D01*
X53052748Y29710316D01*
X52934104Y29505542D01*
X52042560Y29505542D01*
X52054561Y29517248D01*
X52080821Y29636477D01*
X52041298Y29832370D01*
X51928649Y30134074D01*
X51857299Y30300415D01*
X51641917Y30790513D01*
X51838638Y30790513D01*
X51892183Y30610742D01*
X51958980Y30437667D01*
X52063430Y30203408D01*
X52145587Y30049673D01*
X52177102Y30014334D01*
X52193029Y30088822D01*
X52182822Y30275869D01*
X52172234Y30365203D01*
X52088194Y30670799D01*
X51941840Y30834798D01*
X51841858Y30859704D01*
X51838638Y30790513D01*
X51641917Y30790513D01*
X51573731Y30945667D01*
X50996365Y30945667D01*
X50668564Y30935859D01*
X50484598Y30903209D01*
X50419930Y30842876D01*
X50419000Y30831794D01*
X50168619Y30831794D01*
X50094567Y30901515D01*
X49929518Y30940383D01*
X49683742Y30945667D01*
X49433660Y30934884D01*
X49270383Y30907156D01*
X49233983Y30882167D01*
X48933818Y30882167D01*
X48849607Y31040089D01*
X48639346Y31665381D01*
X48576905Y32090414D01*
X48549937Y32615934D01*
X48552590Y32818064D01*
X48784938Y32818064D01*
X48836193Y32269182D01*
X48883980Y31924815D01*
X48954670Y31600880D01*
X49013904Y31417650D01*
X49100012Y31238192D01*
X49200206Y31148802D01*
X49371760Y31118198D01*
X49568013Y31115000D01*
X49810627Y31126310D01*
X49964925Y31155257D01*
X49994244Y31178500D01*
X49977674Y31284629D01*
X49934475Y31515777D01*
X49872395Y31831154D01*
X49837447Y32004000D01*
X49730731Y32527368D01*
X49911000Y32527368D01*
X49936688Y32278483D01*
X50002716Y31961942D01*
X50092531Y31638218D01*
X50189578Y31367779D01*
X50268672Y31220834D01*
X50409018Y31158176D01*
X50690505Y31122149D01*
X50941203Y31115000D01*
X51527339Y31115000D01*
X51471597Y31432500D01*
X51401106Y31827936D01*
X51364326Y31993391D01*
X51533217Y31993391D01*
X51554315Y31908828D01*
X51623836Y31815111D01*
X51708708Y31862843D01*
X51762998Y31978429D01*
X51707344Y32061856D01*
X51594548Y32121389D01*
X51552951Y32107841D01*
X51533217Y31993391D01*
X51364326Y31993391D01*
X51342087Y32093427D01*
X51274342Y32265372D01*
X51177673Y32380170D01*
X51031879Y32474222D01*
X50838808Y32572805D01*
X50595592Y32679458D01*
X51466384Y32679458D01*
X51468274Y32674409D01*
X51514835Y32483681D01*
X51519666Y32420409D01*
X51584917Y32325388D01*
X51731607Y32304825D01*
X51886137Y32365072D01*
X51910773Y32386641D01*
X52046410Y32416381D01*
X52276605Y32373892D01*
X52554002Y32279322D01*
X52831245Y32152826D01*
X53060980Y32014553D01*
X53195850Y31884655D01*
X53213000Y31832493D01*
X53259409Y31721224D01*
X53297666Y31707667D01*
X53341910Y31785425D01*
X53372201Y31991407D01*
X53382333Y32258000D01*
X53382333Y32808334D01*
X53551666Y32808334D01*
X53551666Y32229257D01*
X53556747Y31918979D01*
X53581192Y31733883D01*
X53638807Y31629911D01*
X53743398Y31563002D01*
X53763333Y31553739D01*
X53929710Y31417390D01*
X53975000Y31286149D01*
X53989654Y31198464D01*
X54057116Y31147129D01*
X54212633Y31122583D01*
X54491454Y31115265D01*
X54606020Y31115000D01*
X55237040Y31115000D01*
X55418566Y31115000D01*
X55839783Y31115000D01*
X56096064Y31125553D01*
X56222623Y31166367D01*
X56258259Y31251181D01*
X56258307Y31263167D01*
X56206589Y31448846D01*
X56205311Y31451034D01*
X57646576Y31451034D01*
X57662587Y31361578D01*
X57730019Y31313685D01*
X57793654Y31416954D01*
X57849656Y31589660D01*
X57863715Y31662310D01*
X57820366Y31676319D01*
X57732648Y31606935D01*
X57646576Y31451034D01*
X56205311Y31451034D01*
X56137122Y31567730D01*
X56061044Y31738405D01*
X56064206Y31842897D01*
X56059310Y31946679D01*
X56022983Y31961667D01*
X55871556Y31989961D01*
X55803434Y32012607D01*
X55688888Y31997825D01*
X55591584Y31847546D01*
X55503949Y31547570D01*
X55471375Y31390167D01*
X55418566Y31115000D01*
X55237040Y31115000D01*
X55325214Y31432500D01*
X55395803Y31724146D01*
X55403439Y31888262D01*
X55346453Y31955172D01*
X55296104Y31961667D01*
X55179553Y32014460D01*
X55026361Y32145223D01*
X54872443Y32312535D01*
X54788536Y32427334D01*
X57869666Y32427334D01*
X57912000Y32385000D01*
X57954333Y32427334D01*
X57912000Y32469667D01*
X57869666Y32427334D01*
X54788536Y32427334D01*
X54753715Y32474975D01*
X54706091Y32591121D01*
X54724624Y32620764D01*
X54780721Y32671797D01*
X57644770Y32671797D01*
X57658000Y32639000D01*
X57734082Y32558230D01*
X57747663Y32554334D01*
X57784029Y32619840D01*
X57785000Y32639000D01*
X57719912Y32720414D01*
X57695336Y32723667D01*
X57644770Y32671797D01*
X54780721Y32671797D01*
X54816655Y32704487D01*
X54821666Y32730723D01*
X54743925Y32767819D01*
X54538281Y32795261D01*
X54246101Y32807994D01*
X54186666Y32808334D01*
X53551666Y32808334D01*
X53382333Y32808334D01*
X52920650Y32808334D01*
X52614532Y32790068D01*
X52345414Y32743472D01*
X52241020Y32709030D01*
X52052458Y32652104D01*
X51930080Y32702893D01*
X51923770Y32709030D01*
X51765088Y32787759D01*
X51620674Y32808334D01*
X51474802Y32779668D01*
X51466384Y32679458D01*
X50595592Y32679458D01*
X50549173Y32699813D01*
X50283587Y32784923D01*
X50143833Y32806915D01*
X49984115Y32787594D01*
X49920885Y32692649D01*
X49911000Y32527368D01*
X49730731Y32527368D01*
X49682072Y32766000D01*
X48784938Y32818064D01*
X48552590Y32818064D01*
X48557311Y33177567D01*
X48559624Y33207964D01*
X48785497Y33207964D01*
X48806394Y33059865D01*
X48885192Y32978116D01*
X48886061Y32977606D01*
X49089329Y32915376D01*
X49348550Y32899567D01*
X49572209Y32932618D01*
X49627825Y32957844D01*
X49677381Y33065407D01*
X49693695Y33142236D01*
X49884937Y33142236D01*
X49924810Y33004114D01*
X49928873Y32998834D01*
X50046275Y32903267D01*
X50182733Y32935763D01*
X50239003Y32969285D01*
X50302879Y33044943D01*
X50287834Y33110320D01*
X50889062Y33110320D01*
X50889805Y32966945D01*
X50910913Y32937310D01*
X51043584Y32899362D01*
X51179375Y32978643D01*
X51250388Y33126699D01*
X51244515Y33178045D01*
X51435000Y33178045D01*
X51461461Y33010697D01*
X51519519Y32931850D01*
X51577186Y32973602D01*
X51591106Y33021398D01*
X51568122Y33196163D01*
X51527606Y33257594D01*
X51454729Y33288348D01*
X51435000Y33178045D01*
X51244515Y33178045D01*
X51233257Y33276468D01*
X51153582Y33302684D01*
X51785180Y33302684D01*
X51789829Y33100141D01*
X51906744Y32970755D01*
X51964166Y32952753D01*
X52317645Y32912873D01*
X52719986Y32907651D01*
X53072067Y32937676D01*
X53117750Y32945917D01*
X53382333Y32998834D01*
X53382333Y33791073D01*
X53551666Y33791073D01*
X53553744Y33400216D01*
X53575852Y33147636D01*
X53641797Y33002318D01*
X53775390Y32933249D01*
X54000439Y32909414D01*
X54233557Y32902822D01*
X54492354Y32914249D01*
X54679578Y32987911D01*
X54811176Y33102102D01*
X57383564Y33102102D01*
X57400518Y33067967D01*
X57481251Y32980434D01*
X57496102Y33042163D01*
X57475549Y33108319D01*
X57413216Y33200525D01*
X57385062Y33198618D01*
X57383564Y33102102D01*
X54811176Y33102102D01*
X54875952Y33158309D01*
X54908060Y33191116D01*
X55089003Y33402478D01*
X55169280Y33591122D01*
X55181678Y33838562D01*
X55180501Y33868449D01*
X55181299Y33926730D01*
X55685321Y33926730D01*
X55709100Y33845774D01*
X55869633Y33824334D01*
X56070176Y33775818D01*
X56172410Y33702061D01*
X56320490Y33611846D01*
X56550092Y33551314D01*
X56584944Y33546960D01*
X56808011Y33521692D01*
X56953840Y33502057D01*
X56965708Y33499900D01*
X57011194Y33554657D01*
X57007311Y33633834D01*
X56992376Y33655000D01*
X57192333Y33655000D01*
X57221220Y33572535D01*
X57229669Y33570334D01*
X57301955Y33629663D01*
X57319333Y33655000D01*
X57312620Y33733019D01*
X57281996Y33739667D01*
X57195778Y33678207D01*
X57192333Y33655000D01*
X56992376Y33655000D01*
X56933036Y33739094D01*
X56739072Y33795588D01*
X56613044Y33808380D01*
X56374233Y33843200D01*
X56285523Y33906660D01*
X56289574Y33946010D01*
X56255136Y34059820D01*
X56135427Y34146945D01*
X55957812Y34189987D01*
X55818126Y34103121D01*
X55803461Y34087315D01*
X55685321Y33926730D01*
X55181299Y33926730D01*
X55183853Y34112971D01*
X55229123Y34226715D01*
X55295373Y34247667D01*
X55394907Y34311249D01*
X55398371Y34395834D01*
X55365271Y34462773D01*
X55276673Y34508224D01*
X55102947Y34537629D01*
X54814464Y34556429D01*
X54460829Y34568032D01*
X53551666Y34592063D01*
X53551666Y33791073D01*
X53382333Y33791073D01*
X53382333Y34586334D01*
X53095058Y34586334D01*
X52863808Y34549065D01*
X52759048Y34459334D01*
X52648337Y34346742D01*
X52585019Y34332334D01*
X52428616Y34272147D01*
X52243276Y34128434D01*
X52088792Y33956469D01*
X52024973Y33814625D01*
X51974675Y33658379D01*
X51897973Y33532985D01*
X51785180Y33302684D01*
X51153582Y33302684D01*
X51112096Y33316334D01*
X50976623Y33252148D01*
X50889062Y33110320D01*
X50287834Y33110320D01*
X50274278Y33169224D01*
X50199582Y33306656D01*
X50082997Y33480210D01*
X49996641Y33567782D01*
X49987282Y33570334D01*
X49923640Y33498412D01*
X49887036Y33331358D01*
X49884937Y33142236D01*
X49693695Y33142236D01*
X49727563Y33301728D01*
X49770771Y33626435D01*
X49786912Y33803215D01*
X49848174Y34586334D01*
X49469655Y34586334D01*
X49233298Y34577369D01*
X49106673Y34521679D01*
X49030218Y34376066D01*
X48986063Y34235631D01*
X48905686Y33923920D01*
X48832803Y33572176D01*
X48815556Y33470995D01*
X48785497Y33207964D01*
X48559624Y33207964D01*
X48597899Y33710937D01*
X48670568Y34151670D01*
X48683938Y34204956D01*
X48903549Y34789058D01*
X49273187Y34789058D01*
X49366969Y34698390D01*
X49551782Y34711235D01*
X49725112Y34758711D01*
X49800618Y34786397D01*
X49799016Y34872030D01*
X49776284Y35072264D01*
X49755009Y35224015D01*
X49740683Y35320327D01*
X51874488Y35320327D01*
X51965534Y35266732D01*
X52018608Y35263667D01*
X52185335Y35337955D01*
X52271548Y35550896D01*
X52281666Y35693925D01*
X52325916Y35835392D01*
X52440883Y35856446D01*
X52599893Y35775200D01*
X52776272Y35609766D01*
X52943345Y35378253D01*
X53045090Y35175563D01*
X53112016Y34973886D01*
X53092459Y34877774D01*
X53059868Y34859846D01*
X52995220Y34782189D01*
X53005802Y34748436D01*
X53065564Y34680420D01*
X53162017Y34690737D01*
X53248408Y34722392D01*
X53341986Y34847265D01*
X53378629Y35099698D01*
X53551666Y35099698D01*
X53563443Y34882739D01*
X53625922Y34780438D01*
X53779828Y34738413D01*
X53826833Y34732248D01*
X54370063Y34686185D01*
X54760438Y34701514D01*
X54995679Y34778100D01*
X55027285Y34804048D01*
X55127702Y34996343D01*
X55138391Y35236214D01*
X55073344Y35467973D01*
X54946555Y35635935D01*
X54805419Y35687000D01*
X54654837Y35744813D01*
X54585161Y35872876D01*
X54625535Y36003127D01*
X54658710Y36029609D01*
X54726352Y36123199D01*
X54709530Y36166025D01*
X54596498Y36177911D01*
X54480298Y36128295D01*
X54297341Y36045137D01*
X54196178Y36025667D01*
X54080805Y35958486D01*
X53940633Y35791106D01*
X53901551Y35729334D01*
X53771791Y35542729D01*
X53662110Y35439947D01*
X53639188Y35433000D01*
X53584025Y35357975D01*
X53553689Y35170889D01*
X53551666Y35099698D01*
X53378629Y35099698D01*
X53382021Y35123064D01*
X53367831Y35539842D01*
X53328491Y35886850D01*
X53285091Y36203492D01*
X54919764Y36203492D01*
X54954982Y36100163D01*
X55033333Y36025667D01*
X55134963Y35861164D01*
X55160333Y35720919D01*
X55235321Y35513531D01*
X55372000Y35382881D01*
X55523669Y35252984D01*
X55583666Y35143863D01*
X55650276Y34971781D01*
X55806635Y34900250D01*
X55930588Y34929419D01*
X56079356Y35032496D01*
X56129720Y35087410D01*
X56102411Y35179000D01*
X56388000Y35179000D01*
X56394712Y35100982D01*
X56425336Y35094334D01*
X56511554Y35155794D01*
X56515000Y35179000D01*
X56486113Y35261466D01*
X56477663Y35263667D01*
X56405377Y35204338D01*
X56388000Y35179000D01*
X56102411Y35179000D01*
X56101259Y35182862D01*
X55969037Y35315275D01*
X55945082Y35333332D01*
X55874082Y35390667D01*
X56599666Y35390667D01*
X56642000Y35348334D01*
X56684333Y35390667D01*
X56642000Y35433000D01*
X56599666Y35390667D01*
X55874082Y35390667D01*
X55794586Y35454862D01*
X55784381Y35489445D01*
X56881888Y35489445D01*
X56893511Y35439111D01*
X56938333Y35433000D01*
X57008023Y35463979D01*
X56994777Y35489445D01*
X56894298Y35499578D01*
X56881888Y35489445D01*
X55784381Y35489445D01*
X55768797Y35542250D01*
X55843708Y35644667D01*
X56430333Y35644667D01*
X56472666Y35602334D01*
X56515000Y35644667D01*
X56472666Y35687000D01*
X56430333Y35644667D01*
X55843708Y35644667D01*
X55852136Y35656189D01*
X55859979Y35664878D01*
X55985291Y35838047D01*
X55976928Y35979093D01*
X55866877Y36124834D01*
X55700756Y36227501D01*
X56035769Y36227501D01*
X56049333Y36195000D01*
X56161492Y36113495D01*
X56186326Y36110334D01*
X56232230Y36162500D01*
X56218666Y36195000D01*
X56106507Y36276506D01*
X56081673Y36279667D01*
X56035769Y36227501D01*
X55700756Y36227501D01*
X55686661Y36236212D01*
X55391514Y36278557D01*
X55316544Y36279667D01*
X55038276Y36261524D01*
X54919764Y36203492D01*
X53285091Y36203492D01*
X53274650Y36279667D01*
X52833614Y36279667D01*
X52532097Y36259136D01*
X52322420Y36175285D01*
X52155259Y35994727D01*
X51995543Y35712372D01*
X51884929Y35460368D01*
X51874488Y35320327D01*
X49740683Y35320327D01*
X49706692Y35548826D01*
X51609958Y35548826D01*
X51675409Y35517667D01*
X51757116Y35586324D01*
X51851828Y35748868D01*
X51919242Y35905415D01*
X51900567Y35923775D01*
X51780751Y35820413D01*
X51638761Y35659177D01*
X51609958Y35548826D01*
X49706692Y35548826D01*
X49692434Y35644667D01*
X49457015Y35276956D01*
X49302795Y34984346D01*
X49273187Y34789058D01*
X48903549Y34789058D01*
X48975444Y34980275D01*
X49412688Y35698426D01*
X49976433Y36340418D01*
X50215087Y36534911D01*
X52535666Y36534911D01*
X52611811Y36485904D01*
X52806502Y36454799D01*
X52959000Y36449000D01*
X53382333Y36449000D01*
X53382333Y36618334D01*
X54991000Y36618334D01*
X55040608Y36485549D01*
X55202666Y36449000D01*
X55361797Y36476970D01*
X55414333Y36530688D01*
X55348773Y36624343D01*
X55204291Y36727295D01*
X55059188Y36785950D01*
X55038899Y36787667D01*
X54999927Y36716487D01*
X54991000Y36618334D01*
X53382333Y36618334D01*
X53382333Y36734967D01*
X53343170Y36969313D01*
X53278133Y37080445D01*
X55119532Y37080445D01*
X55190728Y36977948D01*
X55340504Y36840193D01*
X55535442Y36692935D01*
X55742126Y36561929D01*
X55927140Y36472930D01*
X56033163Y36449230D01*
X56191810Y36474131D01*
X56217576Y36535431D01*
X56105617Y36635749D01*
X55894101Y36773982D01*
X55637334Y36920002D01*
X55389626Y37043683D01*
X55205283Y37114898D01*
X55160333Y37121929D01*
X55119532Y37080445D01*
X53278133Y37080445D01*
X53247465Y37132848D01*
X53246016Y37134066D01*
X53148962Y37185295D01*
X53043608Y37148697D01*
X52888403Y37004637D01*
X52822683Y36934010D01*
X52656805Y36737098D01*
X52553145Y36583434D01*
X52535666Y36534911D01*
X50215087Y36534911D01*
X50319945Y36620365D01*
X51666029Y36620365D01*
X51690768Y36579847D01*
X51850419Y36573257D01*
X51933226Y36575047D01*
X52129262Y36596248D01*
X52292850Y36668181D01*
X52472220Y36820529D01*
X52663047Y37024208D01*
X52846939Y37239642D01*
X52962289Y37396670D01*
X52986627Y37464339D01*
X52983031Y37465000D01*
X52865807Y37421508D01*
X52653745Y37309138D01*
X52391472Y37155052D01*
X52123613Y36986411D01*
X51894796Y36830376D01*
X51750191Y36714647D01*
X51666029Y36620365D01*
X50319945Y36620365D01*
X50547625Y36805913D01*
X51146218Y36805913D01*
X51184602Y36740994D01*
X51243826Y36679709D01*
X51310695Y36664337D01*
X51417748Y36708132D01*
X51597524Y36824349D01*
X51879500Y37024052D01*
X52094929Y37182856D01*
X52240881Y37299628D01*
X52281666Y37342187D01*
X52212141Y37339036D01*
X52035257Y37284942D01*
X51798553Y37197377D01*
X51549567Y37093814D01*
X51353967Y37001213D01*
X51181984Y36894370D01*
X51146218Y36805913D01*
X50547625Y36805913D01*
X50647445Y36887261D01*
X51406487Y37319966D01*
X52106533Y37583843D01*
X52557522Y37672735D01*
X53108670Y37716435D01*
X53697092Y37715486D01*
D12*
X15355000Y27155000D03*
X15355000Y35155000D03*
X80355000Y27155000D03*
X80355000Y35155000D03*
D13*
X35155000Y31570000D03*
D14*
X22755000Y31570000D03*
X22320000Y27190000D03*
D13*
X36820000Y27190000D03*
D15*
X25650000Y44440000D03*
X28190000Y44440000D03*
X30730000Y44440000D03*
X33270000Y44440000D03*
D16*
X43180000Y45010000D03*
X43180000Y37390000D03*
X46355000Y37390000D03*
X46355000Y45010000D03*
X59055000Y45010000D03*
X59055000Y37390000D03*
X62230000Y45010000D03*
X62230000Y37390000D03*
D17*
X54290000Y41565000D03*
X54290000Y41065000D03*
X54290000Y39565000D03*
X54290000Y40065000D03*
X54290000Y40565000D03*
X52390000Y39565000D03*
X52390000Y40065000D03*
X52390000Y41565000D03*
X52390000Y41065000D03*
D18*
X53340000Y40565000D03*
D17*
X52390000Y40565000D03*
D19*
X50165000Y49455000D03*
D16*
X47625000Y49455000D03*
D19*
X57785000Y49455000D03*
D16*
X55245000Y49455000D03*
D20*
X53467000Y32893000D03*
D21*
X27305000Y58980000D03*
D22*
X32385000Y58980000D03*
D23*
X11890000Y12905000D03*
D24*
X83890000Y12905000D03*
D21*
X60960000Y58980000D03*
D22*
X66040000Y58980000D03*
D25*
X62611000Y56694000D03*
X64643000Y56694000D03*
D16*
X80010000Y58980000D03*
D19*
X82550000Y58980000D03*
D16*
X72390000Y58980000D03*
D19*
X74930000Y58980000D03*
D21*
X87630000Y52630000D03*
D22*
X87630000Y47550000D03*
D25*
X85344000Y50979000D03*
X85344000Y48947000D03*
D21*
X8255000Y46990000D03*
D22*
X8255000Y52070000D03*
D21*
X8255000Y28500000D03*
D22*
X8255000Y33580000D03*
D25*
X10541000Y30151000D03*
X10541000Y32183000D03*
D21*
X87630000Y33580000D03*
D22*
X87630000Y28500000D03*
D25*
X85344000Y31929000D03*
X85344000Y29897000D03*
D12*
X46362620Y59640400D03*
X43355000Y59615000D03*
X49355000Y59615000D03*
D26*
X40055000Y59615000D03*
X52655000Y59615000D03*
D27*
X74930000Y46407000D03*
X48006000Y39295000D03*
X82550000Y49709000D03*
D28*
X55372000Y41565000D02*
X56753000Y41565000D01*
X56753000Y41565000D02*
X59055000Y43867000D01*
X59055000Y43867000D02*
X59055000Y45010000D01*
D29*
X54290000Y41565000D02*
X55372000Y41565000D01*
X59055000Y43867000D02*
X59055000Y45010000D01*
X56753000Y41565000D02*
X59055000Y43867000D01*
D28*
X85344000Y50979000D02*
X68199000Y50979000D01*
X68199000Y50979000D02*
X62230000Y45010000D01*
X43180000Y37390000D02*
X40386000Y37390000D01*
X40513000Y37465000D02*
X40386000Y37465000D01*
X40461000Y37465000D02*
X40513000Y37465000D01*
X40386000Y37390000D02*
X40461000Y37465000D01*
X36820000Y27190000D02*
X37223000Y27190000D01*
X37223000Y27190000D02*
X40386000Y30353000D01*
X40386000Y30353000D02*
X40386000Y37465000D01*
X40386000Y37465000D02*
X40386000Y39497000D01*
X87630000Y28500000D02*
X86741000Y28500000D01*
X86741000Y28500000D02*
X85344000Y29897000D01*
X45720000Y40819000D02*
X40386000Y40819000D01*
X40386000Y40819000D02*
X40640000Y40819000D01*
X40640000Y40819000D02*
X40386000Y40819000D01*
X43561000Y49455000D02*
X47625000Y49455000D01*
X40386000Y46280000D02*
X43561000Y49455000D01*
X40386000Y40819000D02*
X40386000Y46280000D01*
X40386000Y39497000D02*
X40386000Y40819000D01*
D30*
X53340000Y42851000D02*
X53340000Y47550000D01*
X53340000Y47550000D02*
X55245000Y49455000D01*
D31*
X53340000Y40565000D02*
X53340000Y42851000D01*
X53340000Y47550000D02*
X55245000Y49455000D01*
X52390000Y40565000D02*
X53340000Y40565000D01*
X49657000Y40819000D02*
X50546000Y40819000D01*
D30*
X45720000Y40819000D02*
X49657000Y40819000D01*
D31*
X50800000Y40565000D02*
X52390000Y40565000D01*
X50546000Y40819000D02*
X50800000Y40565000D01*
D28*
X55245000Y49455000D02*
X55245000Y51614000D01*
X55245000Y51614000D02*
X57277000Y53646000D01*
X57277000Y53646000D02*
X63881000Y53646000D01*
X63881000Y53646000D02*
X64643000Y54408000D01*
X64643000Y54408000D02*
X64643000Y56694000D01*
X10541000Y30151000D02*
X13462000Y30151000D01*
X15355000Y32044000D02*
X15355000Y35155000D01*
X13462000Y30151000D02*
X15355000Y32044000D01*
X87630000Y33580000D02*
X86995000Y33580000D01*
X86995000Y33580000D02*
X85344000Y31929000D01*
X51244500Y41898500D02*
X50165000Y42978000D01*
X50165000Y42978000D02*
X50165000Y49455000D01*
D29*
X52390000Y41565000D02*
X51578000Y41565000D01*
X51578000Y41565000D02*
X51244500Y41898500D01*
X50165000Y42978000D02*
X50165000Y49455000D01*
D30*
X74930000Y46407000D02*
X74930000Y43994000D01*
X74930000Y43994000D02*
X70739000Y39803000D01*
X70739000Y39803000D02*
X55118000Y39803000D01*
D29*
X55118000Y39803000D02*
X70739000Y39803000D01*
X70739000Y39803000D02*
X74930000Y43994000D01*
X54290000Y39565000D02*
X55007000Y39565000D01*
X54983000Y40065000D02*
X54290000Y40065000D01*
X55118000Y39930000D02*
X54983000Y40065000D01*
X55118000Y39676000D02*
X55118000Y39803000D01*
X55118000Y39803000D02*
X55118000Y39930000D01*
X55007000Y39565000D02*
X55118000Y39676000D01*
D31*
X49530000Y41835000D02*
X50292000Y41835000D01*
D30*
X43180000Y43740000D02*
X45085000Y41835000D01*
X45085000Y41835000D02*
X49530000Y41835000D01*
X43180000Y45010000D02*
X43180000Y43740000D01*
D31*
X51062000Y41065000D02*
X52390000Y41065000D01*
X50292000Y41835000D02*
X51062000Y41065000D01*
X52390000Y39565000D02*
X51324000Y39565000D01*
D30*
X49149000Y37390000D02*
X50927000Y39168000D01*
X49149000Y37390000D02*
X46355000Y37390000D01*
D31*
X51324000Y39565000D02*
X50927000Y39168000D01*
D28*
X46355000Y37390000D02*
X46609000Y37390000D01*
D31*
X52390000Y40065000D02*
X50681000Y40065000D01*
D30*
X48006000Y39295000D02*
X49022000Y39295000D01*
X49022000Y39295000D02*
X49530000Y39803000D01*
X49530000Y39803000D02*
X49911000Y39803000D01*
D31*
X50419000Y39803000D02*
X49911000Y39803000D01*
X50681000Y40065000D02*
X50419000Y39803000D01*
D30*
X55880000Y40565000D02*
X70231000Y40565000D01*
X70231000Y40565000D02*
X73787000Y44121000D01*
X73787000Y44121000D02*
X73787000Y46534000D01*
X73787000Y46534000D02*
X76962000Y49709000D01*
X76962000Y49709000D02*
X82550000Y49709000D01*
D29*
X54290000Y40565000D02*
X55880000Y40565000D01*
X76962000Y49709000D02*
X82550000Y49709000D01*
X73787000Y46534000D02*
X76962000Y49709000D01*
X73787000Y44121000D02*
X73787000Y46534000D01*
X70231000Y40565000D02*
X73787000Y44121000D01*
D28*
X33270000Y44440000D02*
X33270000Y53471000D01*
X32385000Y54356000D02*
X32385000Y58980000D01*
X33270000Y53471000D02*
X32385000Y54356000D01*
X8255000Y46990000D02*
X25650000Y46990000D01*
X25650000Y46990000D02*
X25400000Y46990000D01*
X25400000Y46990000D02*
X25650000Y46990000D01*
X25650000Y44440000D02*
X25650000Y46990000D01*
X25650000Y46990000D02*
X25650000Y52447000D01*
X27305000Y54102000D02*
X27305000Y55626000D01*
X27305000Y55626000D02*
X27305000Y58980000D01*
X25650000Y52447000D02*
X27305000Y54102000D01*
X35155000Y31570000D02*
X37793000Y31570000D01*
X46362620Y54236620D02*
X46362620Y59640400D01*
X38735000Y46609000D02*
X46362620Y54236620D01*
X38735000Y32512000D02*
X38735000Y46609000D01*
X37793000Y31570000D02*
X38735000Y32512000D01*
X22320000Y27190000D02*
X27190000Y27190000D01*
X31570000Y31570000D02*
X35155000Y31570000D01*
X27190000Y27190000D02*
X31570000Y31570000D01*
D31*
G36*
X92261634Y64562043D02*
X93640629Y63640629D01*
X94562043Y62261634D01*
X94900000Y60562610D01*
X94900000Y5707390D01*
X94562043Y4008366D01*
X93640629Y2629371D01*
X92261634Y1707957D01*
X90724488Y1402200D01*
X90635000Y1420000D01*
X5635000Y1420000D01*
X5545512Y1402200D01*
X4008366Y1707957D01*
X2629371Y2629371D01*
X1707957Y4008366D01*
X1468503Y5212185D01*
X3499630Y5212185D01*
X3823980Y4427200D01*
X4424041Y3826091D01*
X5208459Y3500372D01*
X6057815Y3499630D01*
X6842800Y3823980D01*
X7443909Y4424041D01*
X7769628Y5208459D01*
X7769631Y5212185D01*
X88499630Y5212185D01*
X88823980Y4427200D01*
X89424041Y3826091D01*
X90208459Y3500372D01*
X91057815Y3499630D01*
X91842800Y3823980D01*
X92443909Y4424041D01*
X92769628Y5208459D01*
X92770370Y6057815D01*
X92446020Y6842800D01*
X91845959Y7443909D01*
X91061541Y7769628D01*
X90212185Y7770370D01*
X89427200Y7446020D01*
X88826091Y6845959D01*
X88500372Y6061541D01*
X88499630Y5212185D01*
X7769631Y5212185D01*
X7770370Y6057815D01*
X7446020Y6842800D01*
X6845959Y7443909D01*
X6061541Y7769628D01*
X5212185Y7770370D01*
X4427200Y7446020D01*
X3826091Y6845959D01*
X3500372Y6061541D01*
X3499630Y5212185D01*
X1468503Y5212185D01*
X1370000Y5707390D01*
X1370000Y14405000D01*
X10242560Y14405000D01*
X10242560Y11405000D01*
X10286838Y11169683D01*
X10425910Y10953559D01*
X10638110Y10808569D01*
X10890000Y10757560D01*
X12890000Y10757560D01*
X13125317Y10801838D01*
X13341441Y10940910D01*
X13486431Y11153110D01*
X13537440Y11405000D01*
X13537440Y12531695D01*
X18504674Y12531695D01*
X18791043Y11838628D01*
X19320839Y11307907D01*
X20013405Y11020328D01*
X20763305Y11019674D01*
X21456372Y11306043D01*
X21987093Y11835839D01*
X22274672Y12528405D01*
X22274674Y12531695D01*
X73504674Y12531695D01*
X73791043Y11838628D01*
X74320839Y11307907D01*
X75013405Y11020328D01*
X75763305Y11019674D01*
X76456372Y11306043D01*
X76987093Y11835839D01*
X77274672Y12528405D01*
X77274889Y12778000D01*
X82255000Y12778000D01*
X82255000Y12278000D01*
X82428058Y11661980D01*
X82823683Y11159078D01*
X83381645Y10845856D01*
X83509566Y10814876D01*
X83763000Y10934223D01*
X83763000Y12778000D01*
X84017000Y12778000D01*
X84017000Y10934223D01*
X84270434Y10814876D01*
X84398355Y10845856D01*
X84956317Y11159078D01*
X85351942Y11661980D01*
X85525000Y12278000D01*
X85525000Y12778000D01*
X84017000Y12778000D01*
X83763000Y12778000D01*
X82255000Y12778000D01*
X77274889Y12778000D01*
X77275326Y13278305D01*
X77170502Y13532000D01*
X82255000Y13532000D01*
X82255000Y13032000D01*
X83763000Y13032000D01*
X83763000Y14875777D01*
X84017000Y14875777D01*
X84017000Y13032000D01*
X85525000Y13032000D01*
X85525000Y13532000D01*
X85351942Y14148020D01*
X84956317Y14650922D01*
X84398355Y14964144D01*
X84270434Y14995124D01*
X84017000Y14875777D01*
X83763000Y14875777D01*
X83509566Y14995124D01*
X83381645Y14964144D01*
X82823683Y14650922D01*
X82428058Y14148020D01*
X82255000Y13532000D01*
X77170502Y13532000D01*
X76988957Y13971372D01*
X76459161Y14502093D01*
X75766595Y14789672D01*
X75016695Y14790326D01*
X74323628Y14503957D01*
X73792907Y13974161D01*
X73505328Y13281595D01*
X73504674Y12531695D01*
X22274674Y12531695D01*
X22275326Y13278305D01*
X21988957Y13971372D01*
X21459161Y14502093D01*
X20766595Y14789672D01*
X20016695Y14790326D01*
X19323628Y14503957D01*
X18792907Y13974161D01*
X18505328Y13281595D01*
X18504674Y12531695D01*
X13537440Y12531695D01*
X13537440Y14405000D01*
X13493162Y14640317D01*
X13354090Y14856441D01*
X13141890Y15001431D01*
X12890000Y15052440D01*
X10890000Y15052440D01*
X10654683Y15008162D01*
X10438559Y14869090D01*
X10293569Y14656890D01*
X10242560Y14405000D01*
X1370000Y14405000D01*
X1370000Y26002468D01*
X14382073Y26002468D01*
X14480736Y25735613D01*
X15090461Y25509092D01*
X15740460Y25533144D01*
X16229264Y25735613D01*
X16327927Y26002468D01*
X15355000Y26975395D01*
X14382073Y26002468D01*
X1370000Y26002468D01*
X1370000Y29749680D01*
X6357880Y29749680D01*
X6357880Y27250320D01*
X6402158Y27015003D01*
X6541230Y26798879D01*
X6753430Y26653889D01*
X7005320Y26602880D01*
X9504680Y26602880D01*
X9739997Y26647158D01*
X9956121Y26786230D01*
X10101111Y26998430D01*
X10152120Y27250320D01*
X10152120Y27419539D01*
X13709092Y27419539D01*
X13733144Y26769540D01*
X13935613Y26280736D01*
X14202468Y26182073D01*
X15175395Y27155000D01*
X15534605Y27155000D01*
X16507532Y26182073D01*
X16774387Y26280736D01*
X17000908Y26890461D01*
X16976856Y27540460D01*
X16774387Y28029264D01*
X16507532Y28127927D01*
X15534605Y27155000D01*
X15175395Y27155000D01*
X14202468Y28127927D01*
X13935613Y28029264D01*
X13709092Y27419539D01*
X10152120Y27419539D01*
X10152120Y28307532D01*
X14382073Y28307532D01*
X15355000Y27334605D01*
X16327927Y28307532D01*
X16229264Y28574387D01*
X15918070Y28690000D01*
X20172560Y28690000D01*
X20172560Y25690000D01*
X20216838Y25454683D01*
X20355910Y25238559D01*
X20568110Y25093569D01*
X20820000Y25042560D01*
X23820000Y25042560D01*
X24055317Y25086838D01*
X24271441Y25225910D01*
X24416431Y25438110D01*
X24464611Y25676030D01*
X35485635Y25676030D01*
X35645418Y25357261D01*
X36436187Y25047277D01*
X37285387Y25063503D01*
X37994582Y25357261D01*
X38154365Y25676030D01*
X36820000Y27010395D01*
X35485635Y25676030D01*
X24464611Y25676030D01*
X24467440Y25690000D01*
X24467440Y26174000D01*
X27190000Y26174000D01*
X27514300Y26238507D01*
X27578807Y26251338D01*
X27908420Y26471580D01*
X29010653Y27573813D01*
X34677277Y27573813D01*
X34693503Y26724613D01*
X34987261Y26015418D01*
X35306030Y25855635D01*
X36640395Y27190000D01*
X36999605Y27190000D01*
X38333970Y25855635D01*
X38626903Y26002468D01*
X79382073Y26002468D01*
X79480736Y25735613D01*
X80090461Y25509092D01*
X80740460Y25533144D01*
X81229264Y25735613D01*
X81327927Y26002468D01*
X80355000Y26975395D01*
X79382073Y26002468D01*
X38626903Y26002468D01*
X38652739Y26015418D01*
X38962723Y26806187D01*
X38946497Y27655387D01*
X38652739Y28364582D01*
X38333970Y28524365D01*
X36999605Y27190000D01*
X36640395Y27190000D01*
X35306030Y28524365D01*
X34987261Y28364582D01*
X34677277Y27573813D01*
X29010653Y27573813D01*
X30140810Y28703970D01*
X35485635Y28703970D01*
X36820000Y27369605D01*
X38154365Y28703970D01*
X37994582Y29022739D01*
X37203813Y29332723D01*
X36354613Y29316497D01*
X35645418Y29022739D01*
X35485635Y28703970D01*
X30140810Y28703970D01*
X31990841Y30554000D01*
X33264730Y30554000D01*
X33343980Y30362200D01*
X33944041Y29761091D01*
X34728459Y29435372D01*
X35577815Y29434630D01*
X36362800Y29758980D01*
X36963909Y30359041D01*
X37044863Y30554000D01*
X37793000Y30554000D01*
X38154930Y30625992D01*
X38181807Y30631338D01*
X38511420Y30851580D01*
X39453420Y31793579D01*
X39673662Y32123193D01*
X39689423Y32202430D01*
X39751000Y32512000D01*
X39751000Y36225893D01*
X42195498Y36225893D01*
X42296120Y35957378D01*
X42911642Y35728184D01*
X43568019Y35751986D01*
X44063880Y35957378D01*
X44164502Y36225893D01*
X43180000Y37210395D01*
X42195498Y36225893D01*
X39751000Y36225893D01*
X39751000Y37658358D01*
X41518184Y37658358D01*
X41541986Y37001981D01*
X41747378Y36506120D01*
X42015893Y36405498D01*
X43000395Y37390000D01*
X42015893Y38374502D01*
X41747378Y38273880D01*
X41518184Y37658358D01*
X39751000Y37658358D01*
X39751000Y38554107D01*
X42195498Y38554107D01*
X43180000Y37569605D01*
X44164502Y38554107D01*
X44063880Y38822622D01*
X43448358Y39051816D01*
X42791981Y39028014D01*
X42296120Y38822622D01*
X42195498Y38554107D01*
X39751000Y38554107D01*
X39751000Y44683037D01*
X41528714Y44683037D01*
X41779534Y44076005D01*
X42243563Y43611166D01*
X42323205Y43578096D01*
X42358671Y43399794D01*
X42551382Y43111382D01*
X44456382Y41206382D01*
X44744794Y41013671D01*
X45085000Y40946000D01*
X49530000Y40946000D01*
X49870206Y41013671D01*
X49958998Y41073000D01*
X49976370Y41073000D01*
X50324041Y40725328D01*
X50274163Y40692000D01*
X50190853Y40636334D01*
X49911000Y40692000D01*
X49530000Y40692000D01*
X49189794Y40624329D01*
X48901382Y40431618D01*
X48653764Y40184000D01*
X48348823Y40184000D01*
X48196295Y40247335D01*
X47817367Y40247665D01*
X47467157Y40102961D01*
X47198980Y39835253D01*
X47053665Y39485295D01*
X47053335Y39106367D01*
X47162398Y38842416D01*
X46684845Y39040713D01*
X46028037Y39041286D01*
X45421005Y38790466D01*
X44956166Y38326437D01*
X44773284Y37886008D01*
X44612622Y38273880D01*
X44344107Y38374502D01*
X43359605Y37390000D01*
X44344107Y36405498D01*
X44612622Y36506120D01*
X44764876Y36915013D01*
X44954534Y36456005D01*
X45418563Y35991166D01*
X46025155Y35739287D01*
X46681963Y35738714D01*
X47288995Y35989534D01*
X47753834Y36453563D01*
X47773532Y36501000D01*
X49149000Y36501000D01*
X49290417Y36529130D01*
X48931783Y36120718D01*
X48903827Y36072369D01*
X48866038Y36031252D01*
X48428794Y35313101D01*
X48408137Y35256607D01*
X48376388Y35205512D01*
X48304493Y35014295D01*
X48304493Y35014293D01*
X48304492Y35014292D01*
X48084881Y34430190D01*
X48078907Y34393929D01*
X48063180Y34360711D01*
X48049810Y34307425D01*
X48048490Y34280769D01*
X48039094Y34255789D01*
X47966425Y33815056D01*
X47967357Y33786764D01*
X47959744Y33759499D01*
X47921469Y33256526D01*
X47921469Y33256523D01*
X47919156Y33226126D01*
X47920699Y33213370D01*
X47919624Y33207964D01*
X47920793Y33202089D01*
X47917366Y33185971D01*
X47912645Y32826468D01*
X47912645Y32826463D01*
X47909992Y32624333D01*
X47913797Y32603799D01*
X47910778Y32583134D01*
X47937746Y32057614D01*
X47945245Y32027951D01*
X47943701Y31997391D01*
X48006142Y31572358D01*
X48025397Y31518306D01*
X48032723Y31461398D01*
X48242985Y30836106D01*
X48269473Y30789921D01*
X48284880Y30738952D01*
X48369091Y30581029D01*
X48369093Y30581027D01*
X48635698Y30081053D01*
X48664165Y30046296D01*
X48683010Y30005519D01*
X49141122Y29376229D01*
X49172751Y29347047D01*
X49195844Y29310729D01*
X49733057Y28748580D01*
X49759912Y28729741D01*
X49766170Y28720376D01*
X49781951Y28709831D01*
X49803340Y28685168D01*
X49826307Y28667342D01*
X50391464Y28228691D01*
X50430027Y28209408D01*
X50462367Y28180890D01*
X50731755Y28024379D01*
X50759206Y28014977D01*
X50782598Y27997814D01*
X51278829Y27766219D01*
X51306377Y27759468D01*
X51330623Y27744757D01*
X51850984Y27555383D01*
X51884509Y27550224D01*
X51915190Y27535764D01*
X52381001Y27419756D01*
X52419621Y27417911D01*
X52456313Y27405725D01*
X52634155Y27383503D01*
X52657735Y27385205D01*
X52680656Y27379408D01*
X53100243Y27357842D01*
X53118795Y27360551D01*
X53137210Y27357011D01*
X53609849Y27360051D01*
X53626300Y27363434D01*
X53642936Y27361120D01*
X54094919Y27387439D01*
X54118751Y27393639D01*
X54143324Y27392109D01*
X54346540Y27419539D01*
X78709092Y27419539D01*
X78733144Y26769540D01*
X78935613Y26280736D01*
X79202468Y26182073D01*
X80175395Y27155000D01*
X80534605Y27155000D01*
X81507532Y26182073D01*
X81774387Y26280736D01*
X82000908Y26890461D01*
X81990679Y27166911D01*
X86476517Y27166911D01*
X86605725Y26874141D01*
X87305883Y26605929D01*
X88055384Y26626072D01*
X88654275Y26874141D01*
X88783483Y27166911D01*
X87630000Y28320395D01*
X86476517Y27166911D01*
X81990679Y27166911D01*
X81976856Y27540460D01*
X81774387Y28029264D01*
X81507532Y28127927D01*
X80534605Y27155000D01*
X80175395Y27155000D01*
X79202468Y28127927D01*
X78935613Y28029264D01*
X78709092Y27419539D01*
X54346540Y27419539D01*
X54500942Y27440380D01*
X54530480Y27450515D01*
X54561692Y27451588D01*
X54637912Y27469493D01*
X54659287Y27479221D01*
X54682637Y27481725D01*
X55003105Y27581980D01*
X55020489Y27591467D01*
X55040014Y27594776D01*
X55422788Y27740710D01*
X55436808Y27749511D01*
X55452968Y27753106D01*
X55831021Y27919774D01*
X55849796Y27932940D01*
X55871774Y27939490D01*
X56208239Y28117222D01*
X56242221Y28144833D01*
X56282105Y28162905D01*
X56483925Y28307532D01*
X79382073Y28307532D01*
X80355000Y27334605D01*
X81327927Y28307532D01*
X81229264Y28574387D01*
X80619539Y28800908D01*
X79969540Y28776856D01*
X79480736Y28574387D01*
X79382073Y28307532D01*
X56483925Y28307532D01*
X56993334Y28672580D01*
X57034894Y28716954D01*
X57084558Y28752016D01*
X57690015Y29389390D01*
X57721374Y29439036D01*
X57762395Y29481060D01*
X58189741Y30137664D01*
X83797542Y30137664D01*
X83823161Y29527540D01*
X84007357Y29082852D01*
X84263841Y28996446D01*
X85164395Y29897000D01*
X85150253Y29911142D01*
X85329858Y30090747D01*
X85344000Y30076605D01*
X85358143Y30090747D01*
X85537748Y29911142D01*
X85523605Y29897000D01*
X85537748Y29882857D01*
X85358143Y29703252D01*
X85344000Y29717395D01*
X84443446Y28816841D01*
X84529852Y28560357D01*
X85103336Y28350542D01*
X85713460Y28376161D01*
X85747588Y28390297D01*
X85756072Y28074616D01*
X86004141Y27475725D01*
X86296911Y27346517D01*
X87450395Y28500000D01*
X87809605Y28500000D01*
X88963089Y27346517D01*
X89255859Y27475725D01*
X89524071Y28175883D01*
X89503928Y28925384D01*
X89255859Y29524275D01*
X88963089Y29653483D01*
X87809605Y28500000D01*
X87450395Y28500000D01*
X87436252Y28514142D01*
X87615858Y28693748D01*
X87630000Y28679605D01*
X88783483Y29833089D01*
X88654275Y30125859D01*
X87954117Y30394071D01*
X87204616Y30373928D01*
X86866212Y30233756D01*
X86864839Y30266460D01*
X86680643Y30711148D01*
X86424161Y30797553D01*
X86538718Y30912110D01*
X86518401Y30932427D01*
X86644551Y31058357D01*
X86878733Y31622330D01*
X86878786Y31682880D01*
X88879680Y31682880D01*
X89114997Y31727158D01*
X89331121Y31866230D01*
X89476111Y32078430D01*
X89527120Y32330320D01*
X89527120Y34829680D01*
X89482842Y35064997D01*
X89343770Y35281121D01*
X89131570Y35426111D01*
X88879680Y35477120D01*
X86380320Y35477120D01*
X86145003Y35432842D01*
X85928879Y35293770D01*
X85783889Y35081570D01*
X85732880Y34829680D01*
X85732880Y33754721D01*
X85442074Y33463915D01*
X85040009Y33464265D01*
X84475629Y33231068D01*
X84043449Y32799643D01*
X83809267Y32235670D01*
X83808735Y31625009D01*
X84041932Y31060629D01*
X84169755Y30932583D01*
X84149282Y30912110D01*
X84263839Y30797553D01*
X84007357Y30711148D01*
X83797542Y30137664D01*
X58189741Y30137664D01*
X58254749Y30237546D01*
X58275267Y30288823D01*
X58306521Y30334354D01*
X58678437Y31201364D01*
X58689621Y31254124D01*
X58712294Y31303058D01*
X58797480Y31654882D01*
X58799097Y31694095D01*
X58811156Y31731445D01*
X58871990Y32253720D01*
X58869754Y32281467D01*
X58876001Y32308596D01*
X58893437Y32890430D01*
X58889514Y32913787D01*
X58893129Y32937192D01*
X58867868Y33522596D01*
X58861540Y33548514D01*
X58863428Y33575128D01*
X58796173Y34108114D01*
X58783436Y34146309D01*
X58781265Y34186514D01*
X58672718Y34611091D01*
X58656680Y34644579D01*
X58650438Y34681177D01*
X58593064Y34831205D01*
X78719716Y34831205D01*
X78968106Y34230057D01*
X79427637Y33769722D01*
X80028352Y33520284D01*
X80678795Y33519716D01*
X81279943Y33768106D01*
X81740278Y34227637D01*
X81989716Y34828352D01*
X81990284Y35478795D01*
X81741894Y36079943D01*
X81282363Y36540278D01*
X80681648Y36789716D01*
X80031205Y36790284D01*
X79430057Y36541894D01*
X78969722Y36082363D01*
X78720284Y35481648D01*
X78719716Y34831205D01*
X58593064Y34831205D01*
X58580526Y34863989D01*
X58567351Y34884928D01*
X58561343Y34908928D01*
X58286953Y35489304D01*
X58259301Y35526601D01*
X58241676Y35569553D01*
X57895446Y36091466D01*
X57865929Y36121180D01*
X57845146Y36157543D01*
X57386089Y36685635D01*
X57354514Y36710084D01*
X57330567Y36742047D01*
X56800861Y37217489D01*
X56756204Y37243962D01*
X56718806Y37279972D01*
X55970017Y37760068D01*
X55917193Y37780787D01*
X55870041Y37812356D01*
X55053169Y38151599D01*
X55017730Y38158682D01*
X54985641Y38175310D01*
X54912170Y38196575D01*
X54880905Y38199251D01*
X54851777Y38210921D01*
X54377450Y38299543D01*
X54343574Y38299149D01*
X54310981Y38308388D01*
X53748165Y38353445D01*
X53722982Y38350499D01*
X53698124Y38355485D01*
X53109702Y38356434D01*
X53084052Y38351375D01*
X53058084Y38354433D01*
X52506936Y38310733D01*
X52471048Y38300589D01*
X52433756Y38300654D01*
X51982767Y38211762D01*
X51933434Y38191428D01*
X51880795Y38182710D01*
X51180749Y37918833D01*
X51137670Y37892015D01*
X51089529Y37875967D01*
X50630560Y37614324D01*
X51555618Y38539382D01*
X51731762Y38803000D01*
X52088446Y38803000D01*
X52140000Y38792560D01*
X52640000Y38792560D01*
X52641828Y38792904D01*
X52793691Y38730000D01*
X53054250Y38730000D01*
X53213000Y38888750D01*
X53213000Y39153818D01*
X53236431Y39188110D01*
X53287440Y39440000D01*
X53287440Y39690000D01*
X53263056Y39819589D01*
X53287440Y39940000D01*
X53287440Y40190000D01*
X53267550Y40295705D01*
X53275000Y40313690D01*
X53275000Y40343750D01*
X53254688Y40364062D01*
X53243162Y40425317D01*
X53193000Y40503270D01*
X53193000Y40624547D01*
X53236431Y40688110D01*
X53251558Y40762808D01*
X53275000Y40786250D01*
X53275000Y40816310D01*
X53266532Y40836753D01*
X53287440Y40940000D01*
X53287440Y41190000D01*
X53263056Y41319589D01*
X53287440Y41440000D01*
X53287440Y41690000D01*
X53392560Y41690000D01*
X53392560Y41440000D01*
X53416944Y41310411D01*
X53392560Y41190000D01*
X53392560Y40940000D01*
X53416944Y40810411D01*
X53392560Y40690000D01*
X53392560Y40440000D01*
X53416944Y40310411D01*
X53392560Y40190000D01*
X53392560Y39940000D01*
X53416944Y39810411D01*
X53392560Y39690000D01*
X53392560Y39440000D01*
X53436838Y39204683D01*
X53467000Y39157810D01*
X53467000Y38888750D01*
X53625750Y38730000D01*
X53886309Y38730000D01*
X54038215Y38792922D01*
X54040000Y38792560D01*
X54540000Y38792560D01*
X54738976Y38830000D01*
X55007000Y38830000D01*
X55288272Y38885949D01*
X55330253Y38914000D01*
X58419981Y38914000D01*
X58121005Y38790466D01*
X57656166Y38326437D01*
X57404287Y37719845D01*
X57403714Y37063037D01*
X57654534Y36456005D01*
X58118563Y35991166D01*
X58725155Y35739287D01*
X59381963Y35738714D01*
X59988995Y35989534D01*
X60453834Y36453563D01*
X60642654Y36908291D01*
X60829534Y36456005D01*
X61293563Y35991166D01*
X61900155Y35739287D01*
X62556963Y35738714D01*
X63163995Y35989534D01*
X63628834Y36453563D01*
X63880713Y37060155D01*
X63881286Y37716963D01*
X63630466Y38323995D01*
X63166437Y38788834D01*
X62865004Y38914000D01*
X70739000Y38914000D01*
X71079206Y38981671D01*
X71367618Y39174382D01*
X75558618Y43365382D01*
X75559570Y43366807D01*
X75751329Y43653794D01*
X75819000Y43994000D01*
X75819000Y46064177D01*
X75882335Y46216705D01*
X75882335Y46216911D01*
X86476517Y46216911D01*
X86605725Y45924141D01*
X87305883Y45655929D01*
X88055384Y45676072D01*
X88654275Y45924141D01*
X88783483Y46216911D01*
X87630000Y47370395D01*
X86476517Y46216911D01*
X75882335Y46216911D01*
X75882665Y46595633D01*
X75737961Y46945843D01*
X75597143Y47086907D01*
X77330236Y48820000D01*
X82207177Y48820000D01*
X82359705Y48756665D01*
X82738633Y48756335D01*
X83088843Y48901039D01*
X83357020Y49168747D01*
X83502335Y49518705D01*
X83502665Y49897633D01*
X83475656Y49963000D01*
X84150172Y49963000D01*
X84149282Y49962110D01*
X84263839Y49847553D01*
X84007357Y49761148D01*
X83797542Y49187664D01*
X83823161Y48577540D01*
X84007357Y48132852D01*
X84263841Y48046446D01*
X85164395Y48947000D01*
X85150253Y48961142D01*
X85329858Y49140747D01*
X85344000Y49126605D01*
X85358143Y49140747D01*
X85537748Y48961142D01*
X85523605Y48947000D01*
X85537748Y48932857D01*
X85358143Y48753252D01*
X85344000Y48767395D01*
X84443446Y47866841D01*
X84529852Y47610357D01*
X85103336Y47400542D01*
X85713460Y47426161D01*
X85747588Y47440297D01*
X85756072Y47124616D01*
X86004141Y46525725D01*
X86296911Y46396517D01*
X87450395Y47550000D01*
X87809605Y47550000D01*
X88963089Y46396517D01*
X89255859Y46525725D01*
X89524071Y47225883D01*
X89503928Y47975384D01*
X89255859Y48574275D01*
X88963089Y48703483D01*
X87809605Y47550000D01*
X87450395Y47550000D01*
X87436252Y47564142D01*
X87615858Y47743748D01*
X87630000Y47729605D01*
X88783483Y48883089D01*
X88654275Y49175859D01*
X87954117Y49444071D01*
X87204616Y49423928D01*
X86866212Y49283756D01*
X86864839Y49316460D01*
X86680643Y49761148D01*
X86424161Y49847553D01*
X86538718Y49962110D01*
X86518401Y49982427D01*
X86644551Y50108357D01*
X86878733Y50672330D01*
X86878786Y50732880D01*
X88879680Y50732880D01*
X89114997Y50777158D01*
X89331121Y50916230D01*
X89476111Y51128430D01*
X89527120Y51380320D01*
X89527120Y53879680D01*
X89482842Y54114997D01*
X89343770Y54331121D01*
X89131570Y54476111D01*
X88879680Y54527120D01*
X86380320Y54527120D01*
X86145003Y54482842D01*
X85928879Y54343770D01*
X85783889Y54131570D01*
X85732880Y53879680D01*
X85732880Y52479596D01*
X85650670Y52513733D01*
X85040009Y52514265D01*
X84475629Y52281068D01*
X84189060Y51995000D01*
X68199000Y51995000D01*
X67874700Y51930493D01*
X67810193Y51917662D01*
X67480580Y51697421D01*
X62443974Y46660814D01*
X61903037Y46661286D01*
X61296005Y46410466D01*
X60831166Y45946437D01*
X60642346Y45491709D01*
X60455466Y45943995D01*
X59991437Y46408834D01*
X59384845Y46660713D01*
X58728037Y46661286D01*
X58121005Y46410466D01*
X57656166Y45946437D01*
X57404287Y45339845D01*
X57403714Y44683037D01*
X57654534Y44076005D01*
X57740774Y43989615D01*
X56332160Y42581000D01*
X55372000Y42581000D01*
X54983194Y42503662D01*
X54689206Y42307225D01*
X54540000Y42337440D01*
X54040000Y42337440D01*
X54038172Y42337096D01*
X53886309Y42400000D01*
X53625750Y42400000D01*
X53467000Y42241250D01*
X53467000Y41976182D01*
X53443569Y41941890D01*
X53392560Y41690000D01*
X53287440Y41690000D01*
X53243162Y41925317D01*
X53213000Y41972190D01*
X53213000Y42241250D01*
X53054250Y42400000D01*
X52793691Y42400000D01*
X52641785Y42337078D01*
X52640000Y42337440D01*
X52149664Y42337440D01*
X51962921Y42616920D01*
X51181000Y43398840D01*
X51181000Y47791560D01*
X51416317Y47835838D01*
X51632441Y47974910D01*
X51777431Y48187110D01*
X51828440Y48439000D01*
X51828440Y49723358D01*
X53583184Y49723358D01*
X53606986Y49066981D01*
X53812378Y48571120D01*
X54080893Y48470498D01*
X55065395Y49455000D01*
X54080893Y50439502D01*
X53812378Y50338880D01*
X53583184Y49723358D01*
X51828440Y49723358D01*
X51828440Y50471000D01*
X51800572Y50619107D01*
X54260498Y50619107D01*
X55245000Y49634605D01*
X55259143Y49648747D01*
X55438748Y49469142D01*
X55424605Y49455000D01*
X55438748Y49440857D01*
X55259143Y49261252D01*
X55245000Y49275395D01*
X54260498Y48290893D01*
X54361120Y48022378D01*
X54976642Y47793184D01*
X55633019Y47816986D01*
X56128880Y48022378D01*
X56185419Y48173254D01*
X56304910Y47987559D01*
X56517110Y47842569D01*
X56769000Y47791560D01*
X58801000Y47791560D01*
X59036317Y47835838D01*
X59252441Y47974910D01*
X59397431Y48187110D01*
X59448440Y48439000D01*
X59448440Y50471000D01*
X59404162Y50706317D01*
X59265090Y50922441D01*
X59052890Y51067431D01*
X58801000Y51118440D01*
X56769000Y51118440D01*
X56533683Y51074162D01*
X56317559Y50935090D01*
X56184221Y50739943D01*
X56128880Y50887622D01*
X55513358Y51116816D01*
X54856981Y51093014D01*
X54361120Y50887622D01*
X54260498Y50619107D01*
X51800572Y50619107D01*
X51784162Y50706317D01*
X51645090Y50922441D01*
X51432890Y51067431D01*
X51181000Y51118440D01*
X49149000Y51118440D01*
X48913683Y51074162D01*
X48697559Y50935090D01*
X48564221Y50739943D01*
X48508880Y50887622D01*
X47893358Y51116816D01*
X47236981Y51093014D01*
X46741120Y50887622D01*
X46640498Y50619107D01*
X47625000Y49634605D01*
X47639143Y49648747D01*
X47818748Y49469142D01*
X47804605Y49455000D01*
X47818748Y49440857D01*
X47639143Y49261252D01*
X47625000Y49275395D01*
X46640498Y48290893D01*
X46741120Y48022378D01*
X47356642Y47793184D01*
X48013019Y47816986D01*
X48508880Y48022378D01*
X48565419Y48173254D01*
X48684910Y47987559D01*
X48897110Y47842569D01*
X49149000Y47791560D01*
X49149000Y42978000D01*
X49199524Y42724000D01*
X45453236Y42724000D01*
X44341046Y43836190D01*
X44578834Y44073563D01*
X44767654Y44528291D01*
X44954534Y44076005D01*
X45418563Y43611166D01*
X46025155Y43359287D01*
X46681963Y43358714D01*
X47288995Y43609534D01*
X47753834Y44073563D01*
X48005713Y44680155D01*
X48006286Y45336963D01*
X47755466Y45943995D01*
X47291437Y46408834D01*
X46684845Y46660713D01*
X46028037Y46661286D01*
X45421005Y46410466D01*
X44956166Y45946437D01*
X44767346Y45491709D01*
X44580466Y45943995D01*
X44116437Y46408834D01*
X43509845Y46660713D01*
X42853037Y46661286D01*
X42246005Y46410466D01*
X41781166Y45946437D01*
X41529287Y45339845D01*
X41528714Y44683037D01*
X39751000Y44683037D01*
X39751000Y46188160D01*
X43286198Y49723358D01*
X45963184Y49723358D01*
X45986986Y49066981D01*
X46192378Y48571120D01*
X46460893Y48470498D01*
X47445395Y49455000D01*
X46460893Y50439502D01*
X46192378Y50338880D01*
X45963184Y49723358D01*
X43286198Y49723358D01*
X47081041Y53518200D01*
X47301282Y53847813D01*
X47378620Y54236620D01*
X47378620Y58344404D01*
X47747898Y58713037D01*
X47853514Y58967390D01*
X47968106Y58690057D01*
X48427637Y58229722D01*
X49028352Y57980284D01*
X49678795Y57979716D01*
X50279943Y58228106D01*
X50740278Y58687637D01*
X50989716Y59288352D01*
X50990284Y59938795D01*
X50741894Y60539943D01*
X50725040Y60556827D01*
X51420000Y60556827D01*
X51420000Y58673173D01*
X51514009Y58200559D01*
X51781723Y57799896D01*
X52182386Y57532182D01*
X52655000Y57438173D01*
X53127614Y57532182D01*
X53528277Y57799896D01*
X53795991Y58200559D01*
X53890000Y58673173D01*
X53890000Y60229680D01*
X59062880Y60229680D01*
X59062880Y57730320D01*
X59107158Y57495003D01*
X59246230Y57278879D01*
X59458430Y57133889D01*
X59710320Y57082880D01*
X61110404Y57082880D01*
X61076267Y57000670D01*
X61075735Y56390009D01*
X61308932Y55825629D01*
X61740357Y55393449D01*
X62304330Y55159267D01*
X62914991Y55158735D01*
X63479371Y55391932D01*
X63607417Y55519755D01*
X63627890Y55499282D01*
X63742447Y55613839D01*
X63828852Y55357357D01*
X64402336Y55147542D01*
X65012460Y55173161D01*
X65457148Y55357357D01*
X65543554Y55613841D01*
X64643000Y56514395D01*
X64628858Y56500252D01*
X64449253Y56679857D01*
X64463395Y56694000D01*
X64449253Y56708142D01*
X64628858Y56887747D01*
X64643000Y56873605D01*
X64657143Y56887747D01*
X64836748Y56708142D01*
X64822605Y56694000D01*
X65723159Y55793446D01*
X65979643Y55879852D01*
X66189458Y56453336D01*
X66163839Y57063460D01*
X66149703Y57097588D01*
X66465384Y57106072D01*
X67064275Y57354141D01*
X67193483Y57646911D01*
X66040000Y58800395D01*
X66025858Y58786252D01*
X65846252Y58965858D01*
X65860395Y58980000D01*
X66219605Y58980000D01*
X67373089Y57826517D01*
X67665859Y57955725D01*
X67932980Y58653037D01*
X70738714Y58653037D01*
X70989534Y58046005D01*
X71453563Y57581166D01*
X72060155Y57329287D01*
X72716963Y57328714D01*
X73323995Y57579534D01*
X73374421Y57629872D01*
X73449910Y57512559D01*
X73662110Y57367569D01*
X73914000Y57316560D01*
X75946000Y57316560D01*
X76181317Y57360838D01*
X76397441Y57499910D01*
X76542431Y57712110D01*
X76593440Y57964000D01*
X76593440Y58653037D01*
X78358714Y58653037D01*
X78609534Y58046005D01*
X79073563Y57581166D01*
X79680155Y57329287D01*
X80336963Y57328714D01*
X80943995Y57579534D01*
X80994421Y57629872D01*
X81069910Y57512559D01*
X81282110Y57367569D01*
X81534000Y57316560D01*
X83566000Y57316560D01*
X83801317Y57360838D01*
X84017441Y57499910D01*
X84162431Y57712110D01*
X84213440Y57964000D01*
X84213440Y59996000D01*
X84172762Y60212185D01*
X88499630Y60212185D01*
X88823980Y59427200D01*
X89424041Y58826091D01*
X90208459Y58500372D01*
X91057815Y58499630D01*
X91842800Y58823980D01*
X92443909Y59424041D01*
X92769628Y60208459D01*
X92770370Y61057815D01*
X92446020Y61842800D01*
X91845959Y62443909D01*
X91061541Y62769628D01*
X90212185Y62770370D01*
X89427200Y62446020D01*
X88826091Y61845959D01*
X88500372Y61061541D01*
X88499630Y60212185D01*
X84172762Y60212185D01*
X84169162Y60231317D01*
X84030090Y60447441D01*
X83817890Y60592431D01*
X83566000Y60643440D01*
X81534000Y60643440D01*
X81298683Y60599162D01*
X81082559Y60460090D01*
X80994287Y60330900D01*
X80946437Y60378834D01*
X80339845Y60630713D01*
X79683037Y60631286D01*
X79076005Y60380466D01*
X78611166Y59916437D01*
X78359287Y59309845D01*
X78358714Y58653037D01*
X76593440Y58653037D01*
X76593440Y59996000D01*
X76549162Y60231317D01*
X76410090Y60447441D01*
X76197890Y60592431D01*
X75946000Y60643440D01*
X73914000Y60643440D01*
X73678683Y60599162D01*
X73462559Y60460090D01*
X73374287Y60330900D01*
X73326437Y60378834D01*
X72719845Y60630713D01*
X72063037Y60631286D01*
X71456005Y60380466D01*
X70991166Y59916437D01*
X70739287Y59309845D01*
X70738714Y58653037D01*
X67932980Y58653037D01*
X67934071Y58655883D01*
X67913928Y59405384D01*
X67665859Y60004275D01*
X67373089Y60133483D01*
X66219605Y58980000D01*
X65860395Y58980000D01*
X64706911Y60133483D01*
X64414141Y60004275D01*
X64145929Y59304117D01*
X64166072Y58554616D01*
X64306244Y58216212D01*
X64273540Y58214839D01*
X63828852Y58030643D01*
X63742447Y57774161D01*
X63627890Y57888718D01*
X63607573Y57868401D01*
X63481643Y57994551D01*
X62917670Y58228733D01*
X62857120Y58228786D01*
X62857120Y60229680D01*
X62841426Y60313089D01*
X64886517Y60313089D01*
X66040000Y59159605D01*
X67193483Y60313089D01*
X67064275Y60605859D01*
X66364117Y60874071D01*
X65614616Y60853928D01*
X65015725Y60605859D01*
X64886517Y60313089D01*
X62841426Y60313089D01*
X62812842Y60464997D01*
X62673770Y60681121D01*
X62461570Y60826111D01*
X62209680Y60877120D01*
X59710320Y60877120D01*
X59475003Y60832842D01*
X59258879Y60693770D01*
X59113889Y60481570D01*
X59062880Y60229680D01*
X53890000Y60229680D01*
X53890000Y60556827D01*
X53795991Y61029441D01*
X53528277Y61430104D01*
X53127614Y61697818D01*
X52655000Y61791827D01*
X52182386Y61697818D01*
X51781723Y61430104D01*
X51514009Y61029441D01*
X51420000Y60556827D01*
X50725040Y60556827D01*
X50282363Y61000278D01*
X49681648Y61249716D01*
X49031205Y61250284D01*
X48430057Y61001894D01*
X47969722Y60542363D01*
X47864106Y60288010D01*
X47749514Y60565343D01*
X47289983Y61025678D01*
X46689268Y61275116D01*
X46038825Y61275684D01*
X45437677Y61027294D01*
X44977342Y60567763D01*
X44853566Y60269677D01*
X44741894Y60539943D01*
X44282363Y61000278D01*
X43681648Y61249716D01*
X43031205Y61250284D01*
X42430057Y61001894D01*
X41969722Y60542363D01*
X41720284Y59941648D01*
X41719716Y59291205D01*
X41968106Y58690057D01*
X42427637Y58229722D01*
X43028352Y57980284D01*
X43678795Y57979716D01*
X44279943Y58228106D01*
X44740278Y58687637D01*
X44864054Y58985723D01*
X44975726Y58715457D01*
X45346620Y58343914D01*
X45346620Y54657461D01*
X38016580Y47327420D01*
X37796338Y46997807D01*
X37796338Y46997806D01*
X37719000Y46609000D01*
X37719000Y32932841D01*
X37372160Y32586000D01*
X37045270Y32586000D01*
X36966020Y32777800D01*
X36365959Y33378909D01*
X35581541Y33704628D01*
X34732185Y33705370D01*
X33947200Y33381020D01*
X33346091Y32780959D01*
X33265137Y32586000D01*
X31570000Y32586000D01*
X31181194Y32508662D01*
X31101629Y32455498D01*
X30851579Y32288420D01*
X26769160Y28206000D01*
X24467440Y28206000D01*
X24467440Y28690000D01*
X24423162Y28925317D01*
X24284090Y29141441D01*
X24071890Y29286431D01*
X23820000Y29337440D01*
X20820000Y29337440D01*
X20584683Y29293162D01*
X20368559Y29154090D01*
X20223569Y28941890D01*
X20172560Y28690000D01*
X15918070Y28690000D01*
X15619539Y28800908D01*
X14969540Y28776856D01*
X14480736Y28574387D01*
X14382073Y28307532D01*
X10152120Y28307532D01*
X10152120Y28650404D01*
X10234330Y28616267D01*
X10844991Y28615735D01*
X11409371Y28848932D01*
X11695940Y29135000D01*
X13462000Y29135000D01*
X13794369Y29201112D01*
X13850807Y29212338D01*
X14180420Y29432580D01*
X16032090Y31284250D01*
X20620000Y31284250D01*
X20620000Y29943690D01*
X20716673Y29710301D01*
X20895302Y29531673D01*
X21128691Y29435000D01*
X22469250Y29435000D01*
X22628000Y29593750D01*
X22628000Y31443000D01*
X22882000Y31443000D01*
X22882000Y29593750D01*
X23040750Y29435000D01*
X24381309Y29435000D01*
X24614698Y29531673D01*
X24793327Y29710301D01*
X24890000Y29943690D01*
X24890000Y31284250D01*
X24731250Y31443000D01*
X22882000Y31443000D01*
X22628000Y31443000D01*
X20778750Y31443000D01*
X20620000Y31284250D01*
X16032090Y31284250D01*
X16073420Y31325579D01*
X16227631Y31556372D01*
X16293662Y31655194D01*
X16371000Y32044000D01*
X16371000Y33196310D01*
X20620000Y33196310D01*
X20620000Y31855750D01*
X20778750Y31697000D01*
X22628000Y31697000D01*
X22628000Y33546250D01*
X22882000Y33546250D01*
X22882000Y31697000D01*
X24731250Y31697000D01*
X24890000Y31855750D01*
X24890000Y33196310D01*
X24793327Y33429699D01*
X24614698Y33608327D01*
X24381309Y33705000D01*
X23040750Y33705000D01*
X22882000Y33546250D01*
X22628000Y33546250D01*
X22469250Y33705000D01*
X21128691Y33705000D01*
X20895302Y33608327D01*
X20716673Y33429699D01*
X20620000Y33196310D01*
X16371000Y33196310D01*
X16371000Y33859004D01*
X16740278Y34227637D01*
X16989716Y34828352D01*
X16990284Y35478795D01*
X16741894Y36079943D01*
X16282363Y36540278D01*
X15681648Y36789716D01*
X15031205Y36790284D01*
X14430057Y36541894D01*
X13969722Y36082363D01*
X13720284Y35481648D01*
X13719716Y34831205D01*
X13968106Y34230057D01*
X14339000Y33858514D01*
X14339000Y32464841D01*
X13041160Y31167000D01*
X11734828Y31167000D01*
X11735718Y31167890D01*
X11621161Y31282447D01*
X11877643Y31368852D01*
X12087458Y31942336D01*
X12061839Y32552460D01*
X11877643Y32997148D01*
X11621159Y33083554D01*
X10720605Y32183000D01*
X10734748Y32168857D01*
X10555143Y31989252D01*
X10541000Y32003395D01*
X10526858Y31989252D01*
X10347253Y32168857D01*
X10361395Y32183000D01*
X10347253Y32197142D01*
X10526858Y32376747D01*
X10541000Y32362605D01*
X11441554Y33263159D01*
X11355148Y33519643D01*
X10781664Y33729458D01*
X10171540Y33703839D01*
X10137412Y33689703D01*
X10128928Y34005384D01*
X9880859Y34604275D01*
X9588089Y34733483D01*
X8434605Y33580000D01*
X8448748Y33565858D01*
X8269142Y33386252D01*
X8255000Y33400395D01*
X7101517Y32246911D01*
X7230725Y31954141D01*
X7930883Y31685929D01*
X8680384Y31706072D01*
X9018788Y31846244D01*
X9020161Y31813540D01*
X9204357Y31368852D01*
X9460839Y31282447D01*
X9346282Y31167890D01*
X9366599Y31147573D01*
X9240449Y31021643D01*
X9006267Y30457670D01*
X9006214Y30397120D01*
X7005320Y30397120D01*
X6770003Y30352842D01*
X6553879Y30213770D01*
X6408889Y30001570D01*
X6357880Y29749680D01*
X1370000Y29749680D01*
X1370000Y33904117D01*
X6360929Y33904117D01*
X6381072Y33154616D01*
X6629141Y32555725D01*
X6921911Y32426517D01*
X8075395Y33580000D01*
X6921911Y34733483D01*
X6629141Y34604275D01*
X6360929Y33904117D01*
X1370000Y33904117D01*
X1370000Y34913089D01*
X7101517Y34913089D01*
X8255000Y33759605D01*
X9408483Y34913089D01*
X9279275Y35205859D01*
X8579117Y35474071D01*
X7829616Y35453928D01*
X7230725Y35205859D01*
X7101517Y34913089D01*
X1370000Y34913089D01*
X1370000Y48239680D01*
X6357880Y48239680D01*
X6357880Y45740320D01*
X6402158Y45505003D01*
X6541230Y45288879D01*
X6753430Y45143889D01*
X7005320Y45092880D01*
X9504680Y45092880D01*
X9739997Y45137158D01*
X9956121Y45276230D01*
X10101111Y45488430D01*
X10152120Y45740320D01*
X10152120Y45974000D01*
X24634000Y45974000D01*
X24634000Y45399707D01*
X24466371Y45232370D01*
X24253243Y44719100D01*
X24252758Y44163339D01*
X24464990Y43649697D01*
X24857630Y43256371D01*
X25370900Y43043243D01*
X25926661Y43042758D01*
X26440303Y43254990D01*
X26833629Y43647630D01*
X26919949Y43855512D01*
X27004990Y43649697D01*
X27397630Y43256371D01*
X27910900Y43043243D01*
X28466661Y43042758D01*
X28980303Y43254990D01*
X29373629Y43647630D01*
X29459949Y43855512D01*
X29544990Y43649697D01*
X29937630Y43256371D01*
X30450900Y43043243D01*
X31006661Y43042758D01*
X31520303Y43254990D01*
X31913629Y43647630D01*
X31999949Y43855512D01*
X32084990Y43649697D01*
X32477630Y43256371D01*
X32990900Y43043243D01*
X33546661Y43042758D01*
X34060303Y43254990D01*
X34453629Y43647630D01*
X34666757Y44160900D01*
X34667242Y44716661D01*
X34455010Y45230303D01*
X34286000Y45399608D01*
X34286000Y53471000D01*
X34211048Y53847813D01*
X34208662Y53859807D01*
X33988420Y54189420D01*
X33401000Y54776840D01*
X33401000Y57360576D01*
X33451191Y57381314D01*
X33981822Y57911021D01*
X34269352Y58603469D01*
X34270006Y59353241D01*
X33983686Y60046191D01*
X33473940Y60556827D01*
X38820000Y60556827D01*
X38820000Y58673173D01*
X38914009Y58200559D01*
X39181723Y57799896D01*
X39582386Y57532182D01*
X40055000Y57438173D01*
X40527614Y57532182D01*
X40928277Y57799896D01*
X41195991Y58200559D01*
X41290000Y58673173D01*
X41290000Y60556827D01*
X41195991Y61029441D01*
X40928277Y61430104D01*
X40527614Y61697818D01*
X40055000Y61791827D01*
X39582386Y61697818D01*
X39181723Y61430104D01*
X38914009Y61029441D01*
X38820000Y60556827D01*
X33473940Y60556827D01*
X33453979Y60576822D01*
X32761531Y60864352D01*
X32011759Y60865006D01*
X31318809Y60578686D01*
X30788178Y60048979D01*
X30500648Y59356531D01*
X30499994Y58606759D01*
X30786314Y57913809D01*
X31316021Y57383178D01*
X31369000Y57361179D01*
X31369000Y54356000D01*
X31419524Y54102000D01*
X31446338Y53967193D01*
X31666580Y53637580D01*
X32254000Y53050160D01*
X32254000Y45399707D01*
X32086371Y45232370D01*
X32000051Y45024488D01*
X31915010Y45230303D01*
X31522370Y45623629D01*
X31009100Y45836757D01*
X30453339Y45837242D01*
X29939697Y45625010D01*
X29546371Y45232370D01*
X29460051Y45024488D01*
X29375010Y45230303D01*
X28982370Y45623629D01*
X28469100Y45836757D01*
X27913339Y45837242D01*
X27399697Y45625010D01*
X27006371Y45232370D01*
X26920051Y45024488D01*
X26835010Y45230303D01*
X26666000Y45399608D01*
X26666000Y52026160D01*
X28023420Y53383579D01*
X28212677Y53666822D01*
X28243662Y53713194D01*
X28321000Y54102000D01*
X28321000Y57082880D01*
X28554680Y57082880D01*
X28789997Y57127158D01*
X29006121Y57266230D01*
X29151111Y57478430D01*
X29202120Y57730320D01*
X29202120Y60229680D01*
X29157842Y60464997D01*
X29018770Y60681121D01*
X28806570Y60826111D01*
X28554680Y60877120D01*
X26055320Y60877120D01*
X25820003Y60832842D01*
X25603879Y60693770D01*
X25458889Y60481570D01*
X25407880Y60229680D01*
X25407880Y57730320D01*
X25452158Y57495003D01*
X25591230Y57278879D01*
X25803430Y57133889D01*
X26055320Y57082880D01*
X26289000Y57082880D01*
X26289000Y54522841D01*
X24931580Y53165420D01*
X24711338Y52835807D01*
X24711338Y52835806D01*
X24634000Y52447000D01*
X24634000Y48006000D01*
X10152120Y48006000D01*
X10152120Y48239680D01*
X10107842Y48474997D01*
X9968770Y48691121D01*
X9756570Y48836111D01*
X9504680Y48887120D01*
X7005320Y48887120D01*
X6770003Y48842842D01*
X6553879Y48703770D01*
X6408889Y48491570D01*
X6357880Y48239680D01*
X1370000Y48239680D01*
X1370000Y51696759D01*
X6369994Y51696759D01*
X6656314Y51003809D01*
X7186021Y50473178D01*
X7878469Y50185648D01*
X8628241Y50184994D01*
X9321191Y50471314D01*
X9851822Y51001021D01*
X10139352Y51693469D01*
X10140006Y52443241D01*
X9853686Y53136191D01*
X9323979Y53666822D01*
X8631531Y53954352D01*
X7881759Y53955006D01*
X7188809Y53668686D01*
X6658178Y53138979D01*
X6370648Y52446531D01*
X6369994Y51696759D01*
X1370000Y51696759D01*
X1370000Y60212185D01*
X3499630Y60212185D01*
X3823980Y59427200D01*
X4424041Y58826091D01*
X5208459Y58500372D01*
X6057815Y58499630D01*
X6842800Y58823980D01*
X7443909Y59424041D01*
X7769628Y60208459D01*
X7770370Y61057815D01*
X7446020Y61842800D01*
X6845959Y62443909D01*
X6061541Y62769628D01*
X5212185Y62770370D01*
X4427200Y62446020D01*
X3826091Y61845959D01*
X3500372Y61061541D01*
X3499630Y60212185D01*
X1370000Y60212185D01*
X1370000Y60562610D01*
X1707957Y62261634D01*
X2629371Y63640629D01*
X4008366Y64562043D01*
X5545512Y64867800D01*
X5635000Y64850000D01*
X90635000Y64850000D01*
X90724488Y64867800D01*
X92261634Y64562043D01*
X92261634Y64562043D01*
G37*
X92261634Y64562043D02*
X93640629Y63640629D01*
X94562043Y62261634D01*
X94900000Y60562610D01*
X94900000Y5707390D01*
X94562043Y4008366D01*
X93640629Y2629371D01*
X92261634Y1707957D01*
X90724488Y1402200D01*
X90635000Y1420000D01*
X5635000Y1420000D01*
X5545512Y1402200D01*
X4008366Y1707957D01*
X2629371Y2629371D01*
X1707957Y4008366D01*
X1468503Y5212185D01*
X3499630Y5212185D01*
X3823980Y4427200D01*
X4424041Y3826091D01*
X5208459Y3500372D01*
X6057815Y3499630D01*
X6842800Y3823980D01*
X7443909Y4424041D01*
X7769628Y5208459D01*
X7769631Y5212185D01*
X88499630Y5212185D01*
X88823980Y4427200D01*
X89424041Y3826091D01*
X90208459Y3500372D01*
X91057815Y3499630D01*
X91842800Y3823980D01*
X92443909Y4424041D01*
X92769628Y5208459D01*
X92770370Y6057815D01*
X92446020Y6842800D01*
X91845959Y7443909D01*
X91061541Y7769628D01*
X90212185Y7770370D01*
X89427200Y7446020D01*
X88826091Y6845959D01*
X88500372Y6061541D01*
X88499630Y5212185D01*
X7769631Y5212185D01*
X7770370Y6057815D01*
X7446020Y6842800D01*
X6845959Y7443909D01*
X6061541Y7769628D01*
X5212185Y7770370D01*
X4427200Y7446020D01*
X3826091Y6845959D01*
X3500372Y6061541D01*
X3499630Y5212185D01*
X1468503Y5212185D01*
X1370000Y5707390D01*
X1370000Y14405000D01*
X10242560Y14405000D01*
X10242560Y11405000D01*
X10286838Y11169683D01*
X10425910Y10953559D01*
X10638110Y10808569D01*
X10890000Y10757560D01*
X12890000Y10757560D01*
X13125317Y10801838D01*
X13341441Y10940910D01*
X13486431Y11153110D01*
X13537440Y11405000D01*
X13537440Y12531695D01*
X18504674Y12531695D01*
X18791043Y11838628D01*
X19320839Y11307907D01*
X20013405Y11020328D01*
X20763305Y11019674D01*
X21456372Y11306043D01*
X21987093Y11835839D01*
X22274672Y12528405D01*
X22274674Y12531695D01*
X73504674Y12531695D01*
X73791043Y11838628D01*
X74320839Y11307907D01*
X75013405Y11020328D01*
X75763305Y11019674D01*
X76456372Y11306043D01*
X76987093Y11835839D01*
X77274672Y12528405D01*
X77274889Y12778000D01*
X82255000Y12778000D01*
X82255000Y12278000D01*
X82428058Y11661980D01*
X82823683Y11159078D01*
X83381645Y10845856D01*
X83509566Y10814876D01*
X83763000Y10934223D01*
X83763000Y12778000D01*
X84017000Y12778000D01*
X84017000Y10934223D01*
X84270434Y10814876D01*
X84398355Y10845856D01*
X84956317Y11159078D01*
X85351942Y11661980D01*
X85525000Y12278000D01*
X85525000Y12778000D01*
X84017000Y12778000D01*
X83763000Y12778000D01*
X82255000Y12778000D01*
X77274889Y12778000D01*
X77275326Y13278305D01*
X77170502Y13532000D01*
X82255000Y13532000D01*
X82255000Y13032000D01*
X83763000Y13032000D01*
X83763000Y14875777D01*
X84017000Y14875777D01*
X84017000Y13032000D01*
X85525000Y13032000D01*
X85525000Y13532000D01*
X85351942Y14148020D01*
X84956317Y14650922D01*
X84398355Y14964144D01*
X84270434Y14995124D01*
X84017000Y14875777D01*
X83763000Y14875777D01*
X83509566Y14995124D01*
X83381645Y14964144D01*
X82823683Y14650922D01*
X82428058Y14148020D01*
X82255000Y13532000D01*
X77170502Y13532000D01*
X76988957Y13971372D01*
X76459161Y14502093D01*
X75766595Y14789672D01*
X75016695Y14790326D01*
X74323628Y14503957D01*
X73792907Y13974161D01*
X73505328Y13281595D01*
X73504674Y12531695D01*
X22274674Y12531695D01*
X22275326Y13278305D01*
X21988957Y13971372D01*
X21459161Y14502093D01*
X20766595Y14789672D01*
X20016695Y14790326D01*
X19323628Y14503957D01*
X18792907Y13974161D01*
X18505328Y13281595D01*
X18504674Y12531695D01*
X13537440Y12531695D01*
X13537440Y14405000D01*
X13493162Y14640317D01*
X13354090Y14856441D01*
X13141890Y15001431D01*
X12890000Y15052440D01*
X10890000Y15052440D01*
X10654683Y15008162D01*
X10438559Y14869090D01*
X10293569Y14656890D01*
X10242560Y14405000D01*
X1370000Y14405000D01*
X1370000Y26002468D01*
X14382073Y26002468D01*
X14480736Y25735613D01*
X15090461Y25509092D01*
X15740460Y25533144D01*
X16229264Y25735613D01*
X16327927Y26002468D01*
X15355000Y26975395D01*
X14382073Y26002468D01*
X1370000Y26002468D01*
X1370000Y29749680D01*
X6357880Y29749680D01*
X6357880Y27250320D01*
X6402158Y27015003D01*
X6541230Y26798879D01*
X6753430Y26653889D01*
X7005320Y26602880D01*
X9504680Y26602880D01*
X9739997Y26647158D01*
X9956121Y26786230D01*
X10101111Y26998430D01*
X10152120Y27250320D01*
X10152120Y27419539D01*
X13709092Y27419539D01*
X13733144Y26769540D01*
X13935613Y26280736D01*
X14202468Y26182073D01*
X15175395Y27155000D01*
X15534605Y27155000D01*
X16507532Y26182073D01*
X16774387Y26280736D01*
X17000908Y26890461D01*
X16976856Y27540460D01*
X16774387Y28029264D01*
X16507532Y28127927D01*
X15534605Y27155000D01*
X15175395Y27155000D01*
X14202468Y28127927D01*
X13935613Y28029264D01*
X13709092Y27419539D01*
X10152120Y27419539D01*
X10152120Y28307532D01*
X14382073Y28307532D01*
X15355000Y27334605D01*
X16327927Y28307532D01*
X16229264Y28574387D01*
X15918070Y28690000D01*
X20172560Y28690000D01*
X20172560Y25690000D01*
X20216838Y25454683D01*
X20355910Y25238559D01*
X20568110Y25093569D01*
X20820000Y25042560D01*
X23820000Y25042560D01*
X24055317Y25086838D01*
X24271441Y25225910D01*
X24416431Y25438110D01*
X24464611Y25676030D01*
X35485635Y25676030D01*
X35645418Y25357261D01*
X36436187Y25047277D01*
X37285387Y25063503D01*
X37994582Y25357261D01*
X38154365Y25676030D01*
X36820000Y27010395D01*
X35485635Y25676030D01*
X24464611Y25676030D01*
X24467440Y25690000D01*
X24467440Y26174000D01*
X27190000Y26174000D01*
X27514300Y26238507D01*
X27578807Y26251338D01*
X27908420Y26471580D01*
X29010653Y27573813D01*
X34677277Y27573813D01*
X34693503Y26724613D01*
X34987261Y26015418D01*
X35306030Y25855635D01*
X36640395Y27190000D01*
X36999605Y27190000D01*
X38333970Y25855635D01*
X38626903Y26002468D01*
X79382073Y26002468D01*
X79480736Y25735613D01*
X80090461Y25509092D01*
X80740460Y25533144D01*
X81229264Y25735613D01*
X81327927Y26002468D01*
X80355000Y26975395D01*
X79382073Y26002468D01*
X38626903Y26002468D01*
X38652739Y26015418D01*
X38962723Y26806187D01*
X38946497Y27655387D01*
X38652739Y28364582D01*
X38333970Y28524365D01*
X36999605Y27190000D01*
X36640395Y27190000D01*
X35306030Y28524365D01*
X34987261Y28364582D01*
X34677277Y27573813D01*
X29010653Y27573813D01*
X30140810Y28703970D01*
X35485635Y28703970D01*
X36820000Y27369605D01*
X38154365Y28703970D01*
X37994582Y29022739D01*
X37203813Y29332723D01*
X36354613Y29316497D01*
X35645418Y29022739D01*
X35485635Y28703970D01*
X30140810Y28703970D01*
X31990841Y30554000D01*
X33264730Y30554000D01*
X33343980Y30362200D01*
X33944041Y29761091D01*
X34728459Y29435372D01*
X35577815Y29434630D01*
X36362800Y29758980D01*
X36963909Y30359041D01*
X37044863Y30554000D01*
X37793000Y30554000D01*
X38154930Y30625992D01*
X38181807Y30631338D01*
X38511420Y30851580D01*
X39453420Y31793579D01*
X39673662Y32123193D01*
X39689423Y32202430D01*
X39751000Y32512000D01*
X39751000Y36225893D01*
X42195498Y36225893D01*
X42296120Y35957378D01*
X42911642Y35728184D01*
X43568019Y35751986D01*
X44063880Y35957378D01*
X44164502Y36225893D01*
X43180000Y37210395D01*
X42195498Y36225893D01*
X39751000Y36225893D01*
X39751000Y37658358D01*
X41518184Y37658358D01*
X41541986Y37001981D01*
X41747378Y36506120D01*
X42015893Y36405498D01*
X43000395Y37390000D01*
X42015893Y38374502D01*
X41747378Y38273880D01*
X41518184Y37658358D01*
X39751000Y37658358D01*
X39751000Y38554107D01*
X42195498Y38554107D01*
X43180000Y37569605D01*
X44164502Y38554107D01*
X44063880Y38822622D01*
X43448358Y39051816D01*
X42791981Y39028014D01*
X42296120Y38822622D01*
X42195498Y38554107D01*
X39751000Y38554107D01*
X39751000Y44683037D01*
X41528714Y44683037D01*
X41779534Y44076005D01*
X42243563Y43611166D01*
X42323205Y43578096D01*
X42358671Y43399794D01*
X42551382Y43111382D01*
X44456382Y41206382D01*
X44744794Y41013671D01*
X45085000Y40946000D01*
X49530000Y40946000D01*
X49870206Y41013671D01*
X49958998Y41073000D01*
X49976370Y41073000D01*
X50324041Y40725328D01*
X50274163Y40692000D01*
X50190853Y40636334D01*
X49911000Y40692000D01*
X49530000Y40692000D01*
X49189794Y40624329D01*
X48901382Y40431618D01*
X48653764Y40184000D01*
X48348823Y40184000D01*
X48196295Y40247335D01*
X47817367Y40247665D01*
X47467157Y40102961D01*
X47198980Y39835253D01*
X47053665Y39485295D01*
X47053335Y39106367D01*
X47162398Y38842416D01*
X46684845Y39040713D01*
X46028037Y39041286D01*
X45421005Y38790466D01*
X44956166Y38326437D01*
X44773284Y37886008D01*
X44612622Y38273880D01*
X44344107Y38374502D01*
X43359605Y37390000D01*
X44344107Y36405498D01*
X44612622Y36506120D01*
X44764876Y36915013D01*
X44954534Y36456005D01*
X45418563Y35991166D01*
X46025155Y35739287D01*
X46681963Y35738714D01*
X47288995Y35989534D01*
X47753834Y36453563D01*
X47773532Y36501000D01*
X49149000Y36501000D01*
X49290417Y36529130D01*
X48931783Y36120718D01*
X48903827Y36072369D01*
X48866038Y36031252D01*
X48428794Y35313101D01*
X48408137Y35256607D01*
X48376388Y35205512D01*
X48304493Y35014295D01*
X48304493Y35014293D01*
X48304492Y35014292D01*
X48084881Y34430190D01*
X48078907Y34393929D01*
X48063180Y34360711D01*
X48049810Y34307425D01*
X48048490Y34280769D01*
X48039094Y34255789D01*
X47966425Y33815056D01*
X47967357Y33786764D01*
X47959744Y33759499D01*
X47921469Y33256526D01*
X47921469Y33256523D01*
X47919156Y33226126D01*
X47920699Y33213370D01*
X47919624Y33207964D01*
X47920793Y33202089D01*
X47917366Y33185971D01*
X47912645Y32826468D01*
X47912645Y32826463D01*
X47909992Y32624333D01*
X47913797Y32603799D01*
X47910778Y32583134D01*
X47937746Y32057614D01*
X47945245Y32027951D01*
X47943701Y31997391D01*
X48006142Y31572358D01*
X48025397Y31518306D01*
X48032723Y31461398D01*
X48242985Y30836106D01*
X48269473Y30789921D01*
X48284880Y30738952D01*
X48369091Y30581029D01*
X48369093Y30581027D01*
X48635698Y30081053D01*
X48664165Y30046296D01*
X48683010Y30005519D01*
X49141122Y29376229D01*
X49172751Y29347047D01*
X49195844Y29310729D01*
X49733057Y28748580D01*
X49759912Y28729741D01*
X49766170Y28720376D01*
X49781951Y28709831D01*
X49803340Y28685168D01*
X49826307Y28667342D01*
X50391464Y28228691D01*
X50430027Y28209408D01*
X50462367Y28180890D01*
X50731755Y28024379D01*
X50759206Y28014977D01*
X50782598Y27997814D01*
X51278829Y27766219D01*
X51306377Y27759468D01*
X51330623Y27744757D01*
X51850984Y27555383D01*
X51884509Y27550224D01*
X51915190Y27535764D01*
X52381001Y27419756D01*
X52419621Y27417911D01*
X52456313Y27405725D01*
X52634155Y27383503D01*
X52657735Y27385205D01*
X52680656Y27379408D01*
X53100243Y27357842D01*
X53118795Y27360551D01*
X53137210Y27357011D01*
X53609849Y27360051D01*
X53626300Y27363434D01*
X53642936Y27361120D01*
X54094919Y27387439D01*
X54118751Y27393639D01*
X54143324Y27392109D01*
X54346540Y27419539D01*
X78709092Y27419539D01*
X78733144Y26769540D01*
X78935613Y26280736D01*
X79202468Y26182073D01*
X80175395Y27155000D01*
X80534605Y27155000D01*
X81507532Y26182073D01*
X81774387Y26280736D01*
X82000908Y26890461D01*
X81990679Y27166911D01*
X86476517Y27166911D01*
X86605725Y26874141D01*
X87305883Y26605929D01*
X88055384Y26626072D01*
X88654275Y26874141D01*
X88783483Y27166911D01*
X87630000Y28320395D01*
X86476517Y27166911D01*
X81990679Y27166911D01*
X81976856Y27540460D01*
X81774387Y28029264D01*
X81507532Y28127927D01*
X80534605Y27155000D01*
X80175395Y27155000D01*
X79202468Y28127927D01*
X78935613Y28029264D01*
X78709092Y27419539D01*
X54346540Y27419539D01*
X54500942Y27440380D01*
X54530480Y27450515D01*
X54561692Y27451588D01*
X54637912Y27469493D01*
X54659287Y27479221D01*
X54682637Y27481725D01*
X55003105Y27581980D01*
X55020489Y27591467D01*
X55040014Y27594776D01*
X55422788Y27740710D01*
X55436808Y27749511D01*
X55452968Y27753106D01*
X55831021Y27919774D01*
X55849796Y27932940D01*
X55871774Y27939490D01*
X56208239Y28117222D01*
X56242221Y28144833D01*
X56282105Y28162905D01*
X56483925Y28307532D01*
X79382073Y28307532D01*
X80355000Y27334605D01*
X81327927Y28307532D01*
X81229264Y28574387D01*
X80619539Y28800908D01*
X79969540Y28776856D01*
X79480736Y28574387D01*
X79382073Y28307532D01*
X56483925Y28307532D01*
X56993334Y28672580D01*
X57034894Y28716954D01*
X57084558Y28752016D01*
X57690015Y29389390D01*
X57721374Y29439036D01*
X57762395Y29481060D01*
X58189741Y30137664D01*
X83797542Y30137664D01*
X83823161Y29527540D01*
X84007357Y29082852D01*
X84263841Y28996446D01*
X85164395Y29897000D01*
X85150253Y29911142D01*
X85329858Y30090747D01*
X85344000Y30076605D01*
X85358143Y30090747D01*
X85537748Y29911142D01*
X85523605Y29897000D01*
X85537748Y29882857D01*
X85358143Y29703252D01*
X85344000Y29717395D01*
X84443446Y28816841D01*
X84529852Y28560357D01*
X85103336Y28350542D01*
X85713460Y28376161D01*
X85747588Y28390297D01*
X85756072Y28074616D01*
X86004141Y27475725D01*
X86296911Y27346517D01*
X87450395Y28500000D01*
X87809605Y28500000D01*
X88963089Y27346517D01*
X89255859Y27475725D01*
X89524071Y28175883D01*
X89503928Y28925384D01*
X89255859Y29524275D01*
X88963089Y29653483D01*
X87809605Y28500000D01*
X87450395Y28500000D01*
X87436252Y28514142D01*
X87615858Y28693748D01*
X87630000Y28679605D01*
X88783483Y29833089D01*
X88654275Y30125859D01*
X87954117Y30394071D01*
X87204616Y30373928D01*
X86866212Y30233756D01*
X86864839Y30266460D01*
X86680643Y30711148D01*
X86424161Y30797553D01*
X86538718Y30912110D01*
X86518401Y30932427D01*
X86644551Y31058357D01*
X86878733Y31622330D01*
X86878786Y31682880D01*
X88879680Y31682880D01*
X89114997Y31727158D01*
X89331121Y31866230D01*
X89476111Y32078430D01*
X89527120Y32330320D01*
X89527120Y34829680D01*
X89482842Y35064997D01*
X89343770Y35281121D01*
X89131570Y35426111D01*
X88879680Y35477120D01*
X86380320Y35477120D01*
X86145003Y35432842D01*
X85928879Y35293770D01*
X85783889Y35081570D01*
X85732880Y34829680D01*
X85732880Y33754721D01*
X85442074Y33463915D01*
X85040009Y33464265D01*
X84475629Y33231068D01*
X84043449Y32799643D01*
X83809267Y32235670D01*
X83808735Y31625009D01*
X84041932Y31060629D01*
X84169755Y30932583D01*
X84149282Y30912110D01*
X84263839Y30797553D01*
X84007357Y30711148D01*
X83797542Y30137664D01*
X58189741Y30137664D01*
X58254749Y30237546D01*
X58275267Y30288823D01*
X58306521Y30334354D01*
X58678437Y31201364D01*
X58689621Y31254124D01*
X58712294Y31303058D01*
X58797480Y31654882D01*
X58799097Y31694095D01*
X58811156Y31731445D01*
X58871990Y32253720D01*
X58869754Y32281467D01*
X58876001Y32308596D01*
X58893437Y32890430D01*
X58889514Y32913787D01*
X58893129Y32937192D01*
X58867868Y33522596D01*
X58861540Y33548514D01*
X58863428Y33575128D01*
X58796173Y34108114D01*
X58783436Y34146309D01*
X58781265Y34186514D01*
X58672718Y34611091D01*
X58656680Y34644579D01*
X58650438Y34681177D01*
X58593064Y34831205D01*
X78719716Y34831205D01*
X78968106Y34230057D01*
X79427637Y33769722D01*
X80028352Y33520284D01*
X80678795Y33519716D01*
X81279943Y33768106D01*
X81740278Y34227637D01*
X81989716Y34828352D01*
X81990284Y35478795D01*
X81741894Y36079943D01*
X81282363Y36540278D01*
X80681648Y36789716D01*
X80031205Y36790284D01*
X79430057Y36541894D01*
X78969722Y36082363D01*
X78720284Y35481648D01*
X78719716Y34831205D01*
X58593064Y34831205D01*
X58580526Y34863989D01*
X58567351Y34884928D01*
X58561343Y34908928D01*
X58286953Y35489304D01*
X58259301Y35526601D01*
X58241676Y35569553D01*
X57895446Y36091466D01*
X57865929Y36121180D01*
X57845146Y36157543D01*
X57386089Y36685635D01*
X57354514Y36710084D01*
X57330567Y36742047D01*
X56800861Y37217489D01*
X56756204Y37243962D01*
X56718806Y37279972D01*
X55970017Y37760068D01*
X55917193Y37780787D01*
X55870041Y37812356D01*
X55053169Y38151599D01*
X55017730Y38158682D01*
X54985641Y38175310D01*
X54912170Y38196575D01*
X54880905Y38199251D01*
X54851777Y38210921D01*
X54377450Y38299543D01*
X54343574Y38299149D01*
X54310981Y38308388D01*
X53748165Y38353445D01*
X53722982Y38350499D01*
X53698124Y38355485D01*
X53109702Y38356434D01*
X53084052Y38351375D01*
X53058084Y38354433D01*
X52506936Y38310733D01*
X52471048Y38300589D01*
X52433756Y38300654D01*
X51982767Y38211762D01*
X51933434Y38191428D01*
X51880795Y38182710D01*
X51180749Y37918833D01*
X51137670Y37892015D01*
X51089529Y37875967D01*
X50630560Y37614324D01*
X51555618Y38539382D01*
X51731762Y38803000D01*
X52088446Y38803000D01*
X52140000Y38792560D01*
X52640000Y38792560D01*
X52641828Y38792904D01*
X52793691Y38730000D01*
X53054250Y38730000D01*
X53213000Y38888750D01*
X53213000Y39153818D01*
X53236431Y39188110D01*
X53287440Y39440000D01*
X53287440Y39690000D01*
X53263056Y39819589D01*
X53287440Y39940000D01*
X53287440Y40190000D01*
X53267550Y40295705D01*
X53275000Y40313690D01*
X53275000Y40343750D01*
X53254688Y40364062D01*
X53243162Y40425317D01*
X53193000Y40503270D01*
X53193000Y40624547D01*
X53236431Y40688110D01*
X53251558Y40762808D01*
X53275000Y40786250D01*
X53275000Y40816310D01*
X53266532Y40836753D01*
X53287440Y40940000D01*
X53287440Y41190000D01*
X53263056Y41319589D01*
X53287440Y41440000D01*
X53287440Y41690000D01*
X53392560Y41690000D01*
X53392560Y41440000D01*
X53416944Y41310411D01*
X53392560Y41190000D01*
X53392560Y40940000D01*
X53416944Y40810411D01*
X53392560Y40690000D01*
X53392560Y40440000D01*
X53416944Y40310411D01*
X53392560Y40190000D01*
X53392560Y39940000D01*
X53416944Y39810411D01*
X53392560Y39690000D01*
X53392560Y39440000D01*
X53436838Y39204683D01*
X53467000Y39157810D01*
X53467000Y38888750D01*
X53625750Y38730000D01*
X53886309Y38730000D01*
X54038215Y38792922D01*
X54040000Y38792560D01*
X54540000Y38792560D01*
X54738976Y38830000D01*
X55007000Y38830000D01*
X55288272Y38885949D01*
X55330253Y38914000D01*
X58419981Y38914000D01*
X58121005Y38790466D01*
X57656166Y38326437D01*
X57404287Y37719845D01*
X57403714Y37063037D01*
X57654534Y36456005D01*
X58118563Y35991166D01*
X58725155Y35739287D01*
X59381963Y35738714D01*
X59988995Y35989534D01*
X60453834Y36453563D01*
X60642654Y36908291D01*
X60829534Y36456005D01*
X61293563Y35991166D01*
X61900155Y35739287D01*
X62556963Y35738714D01*
X63163995Y35989534D01*
X63628834Y36453563D01*
X63880713Y37060155D01*
X63881286Y37716963D01*
X63630466Y38323995D01*
X63166437Y38788834D01*
X62865004Y38914000D01*
X70739000Y38914000D01*
X71079206Y38981671D01*
X71367618Y39174382D01*
X75558618Y43365382D01*
X75559570Y43366807D01*
X75751329Y43653794D01*
X75819000Y43994000D01*
X75819000Y46064177D01*
X75882335Y46216705D01*
X75882335Y46216911D01*
X86476517Y46216911D01*
X86605725Y45924141D01*
X87305883Y45655929D01*
X88055384Y45676072D01*
X88654275Y45924141D01*
X88783483Y46216911D01*
X87630000Y47370395D01*
X86476517Y46216911D01*
X75882335Y46216911D01*
X75882665Y46595633D01*
X75737961Y46945843D01*
X75597143Y47086907D01*
X77330236Y48820000D01*
X82207177Y48820000D01*
X82359705Y48756665D01*
X82738633Y48756335D01*
X83088843Y48901039D01*
X83357020Y49168747D01*
X83502335Y49518705D01*
X83502665Y49897633D01*
X83475656Y49963000D01*
X84150172Y49963000D01*
X84149282Y49962110D01*
X84263839Y49847553D01*
X84007357Y49761148D01*
X83797542Y49187664D01*
X83823161Y48577540D01*
X84007357Y48132852D01*
X84263841Y48046446D01*
X85164395Y48947000D01*
X85150253Y48961142D01*
X85329858Y49140747D01*
X85344000Y49126605D01*
X85358143Y49140747D01*
X85537748Y48961142D01*
X85523605Y48947000D01*
X85537748Y48932857D01*
X85358143Y48753252D01*
X85344000Y48767395D01*
X84443446Y47866841D01*
X84529852Y47610357D01*
X85103336Y47400542D01*
X85713460Y47426161D01*
X85747588Y47440297D01*
X85756072Y47124616D01*
X86004141Y46525725D01*
X86296911Y46396517D01*
X87450395Y47550000D01*
X87809605Y47550000D01*
X88963089Y46396517D01*
X89255859Y46525725D01*
X89524071Y47225883D01*
X89503928Y47975384D01*
X89255859Y48574275D01*
X88963089Y48703483D01*
X87809605Y47550000D01*
X87450395Y47550000D01*
X87436252Y47564142D01*
X87615858Y47743748D01*
X87630000Y47729605D01*
X88783483Y48883089D01*
X88654275Y49175859D01*
X87954117Y49444071D01*
X87204616Y49423928D01*
X86866212Y49283756D01*
X86864839Y49316460D01*
X86680643Y49761148D01*
X86424161Y49847553D01*
X86538718Y49962110D01*
X86518401Y49982427D01*
X86644551Y50108357D01*
X86878733Y50672330D01*
X86878786Y50732880D01*
X88879680Y50732880D01*
X89114997Y50777158D01*
X89331121Y50916230D01*
X89476111Y51128430D01*
X89527120Y51380320D01*
X89527120Y53879680D01*
X89482842Y54114997D01*
X89343770Y54331121D01*
X89131570Y54476111D01*
X88879680Y54527120D01*
X86380320Y54527120D01*
X86145003Y54482842D01*
X85928879Y54343770D01*
X85783889Y54131570D01*
X85732880Y53879680D01*
X85732880Y52479596D01*
X85650670Y52513733D01*
X85040009Y52514265D01*
X84475629Y52281068D01*
X84189060Y51995000D01*
X68199000Y51995000D01*
X67874700Y51930493D01*
X67810193Y51917662D01*
X67480580Y51697421D01*
X62443974Y46660814D01*
X61903037Y46661286D01*
X61296005Y46410466D01*
X60831166Y45946437D01*
X60642346Y45491709D01*
X60455466Y45943995D01*
X59991437Y46408834D01*
X59384845Y46660713D01*
X58728037Y46661286D01*
X58121005Y46410466D01*
X57656166Y45946437D01*
X57404287Y45339845D01*
X57403714Y44683037D01*
X57654534Y44076005D01*
X57740774Y43989615D01*
X56332160Y42581000D01*
X55372000Y42581000D01*
X54983194Y42503662D01*
X54689206Y42307225D01*
X54540000Y42337440D01*
X54040000Y42337440D01*
X54038172Y42337096D01*
X53886309Y42400000D01*
X53625750Y42400000D01*
X53467000Y42241250D01*
X53467000Y41976182D01*
X53443569Y41941890D01*
X53392560Y41690000D01*
X53287440Y41690000D01*
X53243162Y41925317D01*
X53213000Y41972190D01*
X53213000Y42241250D01*
X53054250Y42400000D01*
X52793691Y42400000D01*
X52641785Y42337078D01*
X52640000Y42337440D01*
X52149664Y42337440D01*
X51962921Y42616920D01*
X51181000Y43398840D01*
X51181000Y47791560D01*
X51416317Y47835838D01*
X51632441Y47974910D01*
X51777431Y48187110D01*
X51828440Y48439000D01*
X51828440Y49723358D01*
X53583184Y49723358D01*
X53606986Y49066981D01*
X53812378Y48571120D01*
X54080893Y48470498D01*
X55065395Y49455000D01*
X54080893Y50439502D01*
X53812378Y50338880D01*
X53583184Y49723358D01*
X51828440Y49723358D01*
X51828440Y50471000D01*
X51800572Y50619107D01*
X54260498Y50619107D01*
X55245000Y49634605D01*
X55259143Y49648747D01*
X55438748Y49469142D01*
X55424605Y49455000D01*
X55438748Y49440857D01*
X55259143Y49261252D01*
X55245000Y49275395D01*
X54260498Y48290893D01*
X54361120Y48022378D01*
X54976642Y47793184D01*
X55633019Y47816986D01*
X56128880Y48022378D01*
X56185419Y48173254D01*
X56304910Y47987559D01*
X56517110Y47842569D01*
X56769000Y47791560D01*
X58801000Y47791560D01*
X59036317Y47835838D01*
X59252441Y47974910D01*
X59397431Y48187110D01*
X59448440Y48439000D01*
X59448440Y50471000D01*
X59404162Y50706317D01*
X59265090Y50922441D01*
X59052890Y51067431D01*
X58801000Y51118440D01*
X56769000Y51118440D01*
X56533683Y51074162D01*
X56317559Y50935090D01*
X56184221Y50739943D01*
X56128880Y50887622D01*
X55513358Y51116816D01*
X54856981Y51093014D01*
X54361120Y50887622D01*
X54260498Y50619107D01*
X51800572Y50619107D01*
X51784162Y50706317D01*
X51645090Y50922441D01*
X51432890Y51067431D01*
X51181000Y51118440D01*
X49149000Y51118440D01*
X48913683Y51074162D01*
X48697559Y50935090D01*
X48564221Y50739943D01*
X48508880Y50887622D01*
X47893358Y51116816D01*
X47236981Y51093014D01*
X46741120Y50887622D01*
X46640498Y50619107D01*
X47625000Y49634605D01*
X47639143Y49648747D01*
X47818748Y49469142D01*
X47804605Y49455000D01*
X47818748Y49440857D01*
X47639143Y49261252D01*
X47625000Y49275395D01*
X46640498Y48290893D01*
X46741120Y48022378D01*
X47356642Y47793184D01*
X48013019Y47816986D01*
X48508880Y48022378D01*
X48565419Y48173254D01*
X48684910Y47987559D01*
X48897110Y47842569D01*
X49149000Y47791560D01*
X49149000Y42978000D01*
X49199524Y42724000D01*
X45453236Y42724000D01*
X44341046Y43836190D01*
X44578834Y44073563D01*
X44767654Y44528291D01*
X44954534Y44076005D01*
X45418563Y43611166D01*
X46025155Y43359287D01*
X46681963Y43358714D01*
X47288995Y43609534D01*
X47753834Y44073563D01*
X48005713Y44680155D01*
X48006286Y45336963D01*
X47755466Y45943995D01*
X47291437Y46408834D01*
X46684845Y46660713D01*
X46028037Y46661286D01*
X45421005Y46410466D01*
X44956166Y45946437D01*
X44767346Y45491709D01*
X44580466Y45943995D01*
X44116437Y46408834D01*
X43509845Y46660713D01*
X42853037Y46661286D01*
X42246005Y46410466D01*
X41781166Y45946437D01*
X41529287Y45339845D01*
X41528714Y44683037D01*
X39751000Y44683037D01*
X39751000Y46188160D01*
X43286198Y49723358D01*
X45963184Y49723358D01*
X45986986Y49066981D01*
X46192378Y48571120D01*
X46460893Y48470498D01*
X47445395Y49455000D01*
X46460893Y50439502D01*
X46192378Y50338880D01*
X45963184Y49723358D01*
X43286198Y49723358D01*
X47081041Y53518200D01*
X47301282Y53847813D01*
X47378620Y54236620D01*
X47378620Y58344404D01*
X47747898Y58713037D01*
X47853514Y58967390D01*
X47968106Y58690057D01*
X48427637Y58229722D01*
X49028352Y57980284D01*
X49678795Y57979716D01*
X50279943Y58228106D01*
X50740278Y58687637D01*
X50989716Y59288352D01*
X50990284Y59938795D01*
X50741894Y60539943D01*
X50725040Y60556827D01*
X51420000Y60556827D01*
X51420000Y58673173D01*
X51514009Y58200559D01*
X51781723Y57799896D01*
X52182386Y57532182D01*
X52655000Y57438173D01*
X53127614Y57532182D01*
X53528277Y57799896D01*
X53795991Y58200559D01*
X53890000Y58673173D01*
X53890000Y60229680D01*
X59062880Y60229680D01*
X59062880Y57730320D01*
X59107158Y57495003D01*
X59246230Y57278879D01*
X59458430Y57133889D01*
X59710320Y57082880D01*
X61110404Y57082880D01*
X61076267Y57000670D01*
X61075735Y56390009D01*
X61308932Y55825629D01*
X61740357Y55393449D01*
X62304330Y55159267D01*
X62914991Y55158735D01*
X63479371Y55391932D01*
X63607417Y55519755D01*
X63627890Y55499282D01*
X63742447Y55613839D01*
X63828852Y55357357D01*
X64402336Y55147542D01*
X65012460Y55173161D01*
X65457148Y55357357D01*
X65543554Y55613841D01*
X64643000Y56514395D01*
X64628858Y56500252D01*
X64449253Y56679857D01*
X64463395Y56694000D01*
X64449253Y56708142D01*
X64628858Y56887747D01*
X64643000Y56873605D01*
X64657143Y56887747D01*
X64836748Y56708142D01*
X64822605Y56694000D01*
X65723159Y55793446D01*
X65979643Y55879852D01*
X66189458Y56453336D01*
X66163839Y57063460D01*
X66149703Y57097588D01*
X66465384Y57106072D01*
X67064275Y57354141D01*
X67193483Y57646911D01*
X66040000Y58800395D01*
X66025858Y58786252D01*
X65846252Y58965858D01*
X65860395Y58980000D01*
X66219605Y58980000D01*
X67373089Y57826517D01*
X67665859Y57955725D01*
X67932980Y58653037D01*
X70738714Y58653037D01*
X70989534Y58046005D01*
X71453563Y57581166D01*
X72060155Y57329287D01*
X72716963Y57328714D01*
X73323995Y57579534D01*
X73374421Y57629872D01*
X73449910Y57512559D01*
X73662110Y57367569D01*
X73914000Y57316560D01*
X75946000Y57316560D01*
X76181317Y57360838D01*
X76397441Y57499910D01*
X76542431Y57712110D01*
X76593440Y57964000D01*
X76593440Y58653037D01*
X78358714Y58653037D01*
X78609534Y58046005D01*
X79073563Y57581166D01*
X79680155Y57329287D01*
X80336963Y57328714D01*
X80943995Y57579534D01*
X80994421Y57629872D01*
X81069910Y57512559D01*
X81282110Y57367569D01*
X81534000Y57316560D01*
X83566000Y57316560D01*
X83801317Y57360838D01*
X84017441Y57499910D01*
X84162431Y57712110D01*
X84213440Y57964000D01*
X84213440Y59996000D01*
X84172762Y60212185D01*
X88499630Y60212185D01*
X88823980Y59427200D01*
X89424041Y58826091D01*
X90208459Y58500372D01*
X91057815Y58499630D01*
X91842800Y58823980D01*
X92443909Y59424041D01*
X92769628Y60208459D01*
X92770370Y61057815D01*
X92446020Y61842800D01*
X91845959Y62443909D01*
X91061541Y62769628D01*
X90212185Y62770370D01*
X89427200Y62446020D01*
X88826091Y61845959D01*
X88500372Y61061541D01*
X88499630Y60212185D01*
X84172762Y60212185D01*
X84169162Y60231317D01*
X84030090Y60447441D01*
X83817890Y60592431D01*
X83566000Y60643440D01*
X81534000Y60643440D01*
X81298683Y60599162D01*
X81082559Y60460090D01*
X80994287Y60330900D01*
X80946437Y60378834D01*
X80339845Y60630713D01*
X79683037Y60631286D01*
X79076005Y60380466D01*
X78611166Y59916437D01*
X78359287Y59309845D01*
X78358714Y58653037D01*
X76593440Y58653037D01*
X76593440Y59996000D01*
X76549162Y60231317D01*
X76410090Y60447441D01*
X76197890Y60592431D01*
X75946000Y60643440D01*
X73914000Y60643440D01*
X73678683Y60599162D01*
X73462559Y60460090D01*
X73374287Y60330900D01*
X73326437Y60378834D01*
X72719845Y60630713D01*
X72063037Y60631286D01*
X71456005Y60380466D01*
X70991166Y59916437D01*
X70739287Y59309845D01*
X70738714Y58653037D01*
X67932980Y58653037D01*
X67934071Y58655883D01*
X67913928Y59405384D01*
X67665859Y60004275D01*
X67373089Y60133483D01*
X66219605Y58980000D01*
X65860395Y58980000D01*
X64706911Y60133483D01*
X64414141Y60004275D01*
X64145929Y59304117D01*
X64166072Y58554616D01*
X64306244Y58216212D01*
X64273540Y58214839D01*
X63828852Y58030643D01*
X63742447Y57774161D01*
X63627890Y57888718D01*
X63607573Y57868401D01*
X63481643Y57994551D01*
X62917670Y58228733D01*
X62857120Y58228786D01*
X62857120Y60229680D01*
X62841426Y60313089D01*
X64886517Y60313089D01*
X66040000Y59159605D01*
X67193483Y60313089D01*
X67064275Y60605859D01*
X66364117Y60874071D01*
X65614616Y60853928D01*
X65015725Y60605859D01*
X64886517Y60313089D01*
X62841426Y60313089D01*
X62812842Y60464997D01*
X62673770Y60681121D01*
X62461570Y60826111D01*
X62209680Y60877120D01*
X59710320Y60877120D01*
X59475003Y60832842D01*
X59258879Y60693770D01*
X59113889Y60481570D01*
X59062880Y60229680D01*
X53890000Y60229680D01*
X53890000Y60556827D01*
X53795991Y61029441D01*
X53528277Y61430104D01*
X53127614Y61697818D01*
X52655000Y61791827D01*
X52182386Y61697818D01*
X51781723Y61430104D01*
X51514009Y61029441D01*
X51420000Y60556827D01*
X50725040Y60556827D01*
X50282363Y61000278D01*
X49681648Y61249716D01*
X49031205Y61250284D01*
X48430057Y61001894D01*
X47969722Y60542363D01*
X47864106Y60288010D01*
X47749514Y60565343D01*
X47289983Y61025678D01*
X46689268Y61275116D01*
X46038825Y61275684D01*
X45437677Y61027294D01*
X44977342Y60567763D01*
X44853566Y60269677D01*
X44741894Y60539943D01*
X44282363Y61000278D01*
X43681648Y61249716D01*
X43031205Y61250284D01*
X42430057Y61001894D01*
X41969722Y60542363D01*
X41720284Y59941648D01*
X41719716Y59291205D01*
X41968106Y58690057D01*
X42427637Y58229722D01*
X43028352Y57980284D01*
X43678795Y57979716D01*
X44279943Y58228106D01*
X44740278Y58687637D01*
X44864054Y58985723D01*
X44975726Y58715457D01*
X45346620Y58343914D01*
X45346620Y54657461D01*
X38016580Y47327420D01*
X37796338Y46997807D01*
X37796338Y46997806D01*
X37719000Y46609000D01*
X37719000Y32932841D01*
X37372160Y32586000D01*
X37045270Y32586000D01*
X36966020Y32777800D01*
X36365959Y33378909D01*
X35581541Y33704628D01*
X34732185Y33705370D01*
X33947200Y33381020D01*
X33346091Y32780959D01*
X33265137Y32586000D01*
X31570000Y32586000D01*
X31181194Y32508662D01*
X31101629Y32455498D01*
X30851579Y32288420D01*
X26769160Y28206000D01*
X24467440Y28206000D01*
X24467440Y28690000D01*
X24423162Y28925317D01*
X24284090Y29141441D01*
X24071890Y29286431D01*
X23820000Y29337440D01*
X20820000Y29337440D01*
X20584683Y29293162D01*
X20368559Y29154090D01*
X20223569Y28941890D01*
X20172560Y28690000D01*
X15918070Y28690000D01*
X15619539Y28800908D01*
X14969540Y28776856D01*
X14480736Y28574387D01*
X14382073Y28307532D01*
X10152120Y28307532D01*
X10152120Y28650404D01*
X10234330Y28616267D01*
X10844991Y28615735D01*
X11409371Y28848932D01*
X11695940Y29135000D01*
X13462000Y29135000D01*
X13794369Y29201112D01*
X13850807Y29212338D01*
X14180420Y29432580D01*
X16032090Y31284250D01*
X20620000Y31284250D01*
X20620000Y29943690D01*
X20716673Y29710301D01*
X20895302Y29531673D01*
X21128691Y29435000D01*
X22469250Y29435000D01*
X22628000Y29593750D01*
X22628000Y31443000D01*
X22882000Y31443000D01*
X22882000Y29593750D01*
X23040750Y29435000D01*
X24381309Y29435000D01*
X24614698Y29531673D01*
X24793327Y29710301D01*
X24890000Y29943690D01*
X24890000Y31284250D01*
X24731250Y31443000D01*
X22882000Y31443000D01*
X22628000Y31443000D01*
X20778750Y31443000D01*
X20620000Y31284250D01*
X16032090Y31284250D01*
X16073420Y31325579D01*
X16227631Y31556372D01*
X16293662Y31655194D01*
X16371000Y32044000D01*
X16371000Y33196310D01*
X20620000Y33196310D01*
X20620000Y31855750D01*
X20778750Y31697000D01*
X22628000Y31697000D01*
X22628000Y33546250D01*
X22882000Y33546250D01*
X22882000Y31697000D01*
X24731250Y31697000D01*
X24890000Y31855750D01*
X24890000Y33196310D01*
X24793327Y33429699D01*
X24614698Y33608327D01*
X24381309Y33705000D01*
X23040750Y33705000D01*
X22882000Y33546250D01*
X22628000Y33546250D01*
X22469250Y33705000D01*
X21128691Y33705000D01*
X20895302Y33608327D01*
X20716673Y33429699D01*
X20620000Y33196310D01*
X16371000Y33196310D01*
X16371000Y33859004D01*
X16740278Y34227637D01*
X16989716Y34828352D01*
X16990284Y35478795D01*
X16741894Y36079943D01*
X16282363Y36540278D01*
X15681648Y36789716D01*
X15031205Y36790284D01*
X14430057Y36541894D01*
X13969722Y36082363D01*
X13720284Y35481648D01*
X13719716Y34831205D01*
X13968106Y34230057D01*
X14339000Y33858514D01*
X14339000Y32464841D01*
X13041160Y31167000D01*
X11734828Y31167000D01*
X11735718Y31167890D01*
X11621161Y31282447D01*
X11877643Y31368852D01*
X12087458Y31942336D01*
X12061839Y32552460D01*
X11877643Y32997148D01*
X11621159Y33083554D01*
X10720605Y32183000D01*
X10734748Y32168857D01*
X10555143Y31989252D01*
X10541000Y32003395D01*
X10526858Y31989252D01*
X10347253Y32168857D01*
X10361395Y32183000D01*
X10347253Y32197142D01*
X10526858Y32376747D01*
X10541000Y32362605D01*
X11441554Y33263159D01*
X11355148Y33519643D01*
X10781664Y33729458D01*
X10171540Y33703839D01*
X10137412Y33689703D01*
X10128928Y34005384D01*
X9880859Y34604275D01*
X9588089Y34733483D01*
X8434605Y33580000D01*
X8448748Y33565858D01*
X8269142Y33386252D01*
X8255000Y33400395D01*
X7101517Y32246911D01*
X7230725Y31954141D01*
X7930883Y31685929D01*
X8680384Y31706072D01*
X9018788Y31846244D01*
X9020161Y31813540D01*
X9204357Y31368852D01*
X9460839Y31282447D01*
X9346282Y31167890D01*
X9366599Y31147573D01*
X9240449Y31021643D01*
X9006267Y30457670D01*
X9006214Y30397120D01*
X7005320Y30397120D01*
X6770003Y30352842D01*
X6553879Y30213770D01*
X6408889Y30001570D01*
X6357880Y29749680D01*
X1370000Y29749680D01*
X1370000Y33904117D01*
X6360929Y33904117D01*
X6381072Y33154616D01*
X6629141Y32555725D01*
X6921911Y32426517D01*
X8075395Y33580000D01*
X6921911Y34733483D01*
X6629141Y34604275D01*
X6360929Y33904117D01*
X1370000Y33904117D01*
X1370000Y34913089D01*
X7101517Y34913089D01*
X8255000Y33759605D01*
X9408483Y34913089D01*
X9279275Y35205859D01*
X8579117Y35474071D01*
X7829616Y35453928D01*
X7230725Y35205859D01*
X7101517Y34913089D01*
X1370000Y34913089D01*
X1370000Y48239680D01*
X6357880Y48239680D01*
X6357880Y45740320D01*
X6402158Y45505003D01*
X6541230Y45288879D01*
X6753430Y45143889D01*
X7005320Y45092880D01*
X9504680Y45092880D01*
X9739997Y45137158D01*
X9956121Y45276230D01*
X10101111Y45488430D01*
X10152120Y45740320D01*
X10152120Y45974000D01*
X24634000Y45974000D01*
X24634000Y45399707D01*
X24466371Y45232370D01*
X24253243Y44719100D01*
X24252758Y44163339D01*
X24464990Y43649697D01*
X24857630Y43256371D01*
X25370900Y43043243D01*
X25926661Y43042758D01*
X26440303Y43254990D01*
X26833629Y43647630D01*
X26919949Y43855512D01*
X27004990Y43649697D01*
X27397630Y43256371D01*
X27910900Y43043243D01*
X28466661Y43042758D01*
X28980303Y43254990D01*
X29373629Y43647630D01*
X29459949Y43855512D01*
X29544990Y43649697D01*
X29937630Y43256371D01*
X30450900Y43043243D01*
X31006661Y43042758D01*
X31520303Y43254990D01*
X31913629Y43647630D01*
X31999949Y43855512D01*
X32084990Y43649697D01*
X32477630Y43256371D01*
X32990900Y43043243D01*
X33546661Y43042758D01*
X34060303Y43254990D01*
X34453629Y43647630D01*
X34666757Y44160900D01*
X34667242Y44716661D01*
X34455010Y45230303D01*
X34286000Y45399608D01*
X34286000Y53471000D01*
X34211048Y53847813D01*
X34208662Y53859807D01*
X33988420Y54189420D01*
X33401000Y54776840D01*
X33401000Y57360576D01*
X33451191Y57381314D01*
X33981822Y57911021D01*
X34269352Y58603469D01*
X34270006Y59353241D01*
X33983686Y60046191D01*
X33473940Y60556827D01*
X38820000Y60556827D01*
X38820000Y58673173D01*
X38914009Y58200559D01*
X39181723Y57799896D01*
X39582386Y57532182D01*
X40055000Y57438173D01*
X40527614Y57532182D01*
X40928277Y57799896D01*
X41195991Y58200559D01*
X41290000Y58673173D01*
X41290000Y60556827D01*
X41195991Y61029441D01*
X40928277Y61430104D01*
X40527614Y61697818D01*
X40055000Y61791827D01*
X39582386Y61697818D01*
X39181723Y61430104D01*
X38914009Y61029441D01*
X38820000Y60556827D01*
X33473940Y60556827D01*
X33453979Y60576822D01*
X32761531Y60864352D01*
X32011759Y60865006D01*
X31318809Y60578686D01*
X30788178Y60048979D01*
X30500648Y59356531D01*
X30499994Y58606759D01*
X30786314Y57913809D01*
X31316021Y57383178D01*
X31369000Y57361179D01*
X31369000Y54356000D01*
X31419524Y54102000D01*
X31446338Y53967193D01*
X31666580Y53637580D01*
X32254000Y53050160D01*
X32254000Y45399707D01*
X32086371Y45232370D01*
X32000051Y45024488D01*
X31915010Y45230303D01*
X31522370Y45623629D01*
X31009100Y45836757D01*
X30453339Y45837242D01*
X29939697Y45625010D01*
X29546371Y45232370D01*
X29460051Y45024488D01*
X29375010Y45230303D01*
X28982370Y45623629D01*
X28469100Y45836757D01*
X27913339Y45837242D01*
X27399697Y45625010D01*
X27006371Y45232370D01*
X26920051Y45024488D01*
X26835010Y45230303D01*
X26666000Y45399608D01*
X26666000Y52026160D01*
X28023420Y53383579D01*
X28212677Y53666822D01*
X28243662Y53713194D01*
X28321000Y54102000D01*
X28321000Y57082880D01*
X28554680Y57082880D01*
X28789997Y57127158D01*
X29006121Y57266230D01*
X29151111Y57478430D01*
X29202120Y57730320D01*
X29202120Y60229680D01*
X29157842Y60464997D01*
X29018770Y60681121D01*
X28806570Y60826111D01*
X28554680Y60877120D01*
X26055320Y60877120D01*
X25820003Y60832842D01*
X25603879Y60693770D01*
X25458889Y60481570D01*
X25407880Y60229680D01*
X25407880Y57730320D01*
X25452158Y57495003D01*
X25591230Y57278879D01*
X25803430Y57133889D01*
X26055320Y57082880D01*
X26289000Y57082880D01*
X26289000Y54522841D01*
X24931580Y53165420D01*
X24711338Y52835807D01*
X24711338Y52835806D01*
X24634000Y52447000D01*
X24634000Y48006000D01*
X10152120Y48006000D01*
X10152120Y48239680D01*
X10107842Y48474997D01*
X9968770Y48691121D01*
X9756570Y48836111D01*
X9504680Y48887120D01*
X7005320Y48887120D01*
X6770003Y48842842D01*
X6553879Y48703770D01*
X6408889Y48491570D01*
X6357880Y48239680D01*
X1370000Y48239680D01*
X1370000Y51696759D01*
X6369994Y51696759D01*
X6656314Y51003809D01*
X7186021Y50473178D01*
X7878469Y50185648D01*
X8628241Y50184994D01*
X9321191Y50471314D01*
X9851822Y51001021D01*
X10139352Y51693469D01*
X10140006Y52443241D01*
X9853686Y53136191D01*
X9323979Y53666822D01*
X8631531Y53954352D01*
X7881759Y53955006D01*
X7188809Y53668686D01*
X6658178Y53138979D01*
X6370648Y52446531D01*
X6369994Y51696759D01*
X1370000Y51696759D01*
X1370000Y60212185D01*
X3499630Y60212185D01*
X3823980Y59427200D01*
X4424041Y58826091D01*
X5208459Y58500372D01*
X6057815Y58499630D01*
X6842800Y58823980D01*
X7443909Y59424041D01*
X7769628Y60208459D01*
X7770370Y61057815D01*
X7446020Y61842800D01*
X6845959Y62443909D01*
X6061541Y62769628D01*
X5212185Y62770370D01*
X4427200Y62446020D01*
X3826091Y61845959D01*
X3500372Y61061541D01*
X3499630Y60212185D01*
X1370000Y60212185D01*
X1370000Y60562610D01*
X1707957Y62261634D01*
X2629371Y63640629D01*
X4008366Y64562043D01*
X5545512Y64867800D01*
X5635000Y64850000D01*
X90635000Y64850000D01*
X90724488Y64867800D01*
X92261634Y64562043D01*
M02*
